<?xml version="1.0" encoding="UTF-8"?>
<svg version="1.1" xmlns="http://www.w3.org/2000/svg" width="32" height="32" viewBox="0 0 240 240">
    <path d="M0 0 C0 0.66 0 1.32 0 2 C0.74 2.12 1.49 2.25 2.25 2.38 C4.8 2.95 6.73 3.74 9 5 C9 5.66 9 6.32 9 7 C11.97 7.99 14.94 8.98 18 10 C18 10.66 18 11.32 18 12 C19.13 12.27 20.27 12.54 21.44 12.81 C22.61 13.2 23.79 13.6 25 14 C25.5 15.48 25.5 15.48 26 17 C26.74 17.12 27.48 17.25 28.25 17.38 C30.8 17.95 32.73 18.74 35 20 C35 20.66 35 21.32 35 22 C35.74 22.12 36.48 22.25 37.25 22.38 C39.8 22.95 41.73 23.74 44 25 C44 25.66 44 26.32 44 27 C46.97 27.99 49.94 28.98 53 30 C53 30.66 53 31.32 53 32 C54.13 32.27 55.27 32.54 56.44 32.81 C57.61 33.2 58.79 33.6 60 34 C60.33 34.99 60.66 35.98 61 37 C62.11 37.19 62.11 37.19 63.25 37.38 C65.8 37.95 67.73 38.74 70 40 C70 40.66 70 41.32 70 42 C70.8 42.14 71.61 42.29 72.44 42.44 C75 43 75 43 76 44 C76.04 45.67 76.04 47.33 76 49 C74.3 49.59 74.3 49.59 72.56 50.19 C68.8 51.59 68.8 51.59 68.06 54.69 C68.04 55.45 68.02 56.21 68 57 C67.34 57 66.68 57 66 57 C66 58.65 66 60.3 66 62 C66.66 62 67.32 62 68 62 C68 62.99 68 63.98 68 65 C68.66 65 69.32 65 70 65 C70 65.66 70 66.32 70 67 C70.95 67.31 71.9 67.62 72.88 67.94 C76 69 76 69 78 70 C78 71.65 78 73.3 78 75 C74.87 76.86 72.63 77.2 69 77 C69 77.66 69 78.32 69 79 C66.75 79.51 64.5 80 62.25 80.5 C61 80.78 59.74 81.06 58.45 81.34 C55 82 55 82 51 82 C51 82.66 51 83.32 51 84 C50.01 84.33 49.02 84.66 48 85 C48.22 85.53 48.43 86.06 48.66 86.61 C49.07 87.67 49.07 87.67 49.5 88.75 C49.92 89.79 49.92 89.79 50.34 90.86 C51 93 51 93 51 97 C51.66 97 52.32 97 53 97 C53.51 98.27 54 99.54 54.5 100.81 C54.92 101.87 54.92 101.87 55.34 102.96 C56 105 56 105 56 108 C56.66 108 57.32 108 58 108 C58.33 109.98 58.66 111.96 59 114 C57.68 114.33 56.36 114.66 55 115 C56.66 117 58.33 119 60 121 C60.53 121.63 61.05 122.27 61.6 122.92 C62.12 123.55 62.65 124.17 63.19 124.81 C63.68 125.4 64.16 125.98 64.67 126.58 C65.97 128.13 65.97 128.13 68 129 C68 129.99 68 130.98 68 132 C67.34 132 66.68 132 66 132 C66 132.66 66 133.32 66 134 C65.01 134 64.02 134 63 134 C62.34 137.63 61.68 141.26 61 145 C61.66 145 62.32 145 63 145 C65.68 154.11 65.68 154.11 66 157 C64 160 64 160 61.21 160.73 C49.78 162.27 49.78 162.27 44 162 C44 162.66 44 163.32 44 164 C42.69 164.17 42.69 164.17 41.35 164.35 C38.12 164.78 34.89 165.22 31.66 165.65 C30.27 165.84 28.87 166.03 27.47 166.22 C25.46 166.48 23.45 166.75 21.44 167.03 C20.23 167.19 19.02 167.35 17.78 167.52 C15.1 167.71 15.1 167.71 14 169 C10.67 169.68 7.3 170.09 3.94 170.56 C3.01 170.7 2.08 170.84 1.12 170.98 C-4.32 171.76 -9.51 172.15 -15 172 C-15 172.66 -15 173.32 -15 174 C-22.8 175.16 -30.34 176.27 -38.24 175.97 C-40.03 175.8 -40.03 175.8 -41 177 C-43 177.04 -45 177.04 -47 177 C-47.66 175.35 -48.32 173.7 -49 172 C-49.66 172 -50.32 172 -51 172 C-54 165.38 -54 165.38 -54 162 C-54.99 161.67 -55.98 161.34 -57 161 C-58.19 157.44 -58.19 157.44 -59 154 C-59.66 154 -60.32 154 -61 154 C-61.99 151.03 -62.98 148.06 -64 145 C-64.66 145 -65.32 145 -66 145 C-66.99 141.7 -67.98 138.4 -69 135 C-69.66 135 -70.32 135 -71 135 C-74 129.38 -74 129.38 -74 126 C-74.66 126 -75.32 126 -76 126 C-79 119.38 -79 119.38 -79 116 C-79.66 116 -80.32 116 -81 116 C-84 110.38 -84 110.38 -84 107 C-84.66 107 -85.32 107 -86 107 C-89 100.38 -89 100.38 -89 97 C-89.66 97 -90.32 97 -91 97 C-96.58 89.91 -97.58 83.82 -97.56 75 C-97.56 74.07 -97.57 73.14 -97.57 72.18 C-97.41 65.55 -97.41 65.55 -95.66 63.2 C-92.93 61.23 -90.23 62.49 -87 63 C-83.65 62.82 -80.33 62.44 -77 62 C-78.02 56.35 -79.57 54.11 -84.05 50.61 C-88.46 46.98 -93 42.79 -94 37 C-94.66 37 -95.32 37 -96 37 C-96 31.06 -96 25.12 -96 19 C-95.34 19 -94.68 19 -94 19 C-93.67 17.68 -93.34 16.36 -93 15 C-91.99 14.88 -90.98 14.75 -89.94 14.62 C-86.02 14.09 -86.02 14.09 -82.44 12.94 C-79.11 12.03 -76.43 11.83 -73 12 C-73 11.34 -73 10.68 -73 10 C-70.31 9.49 -67.63 8.99 -64.94 8.5 C-64.19 8.36 -63.43 8.21 -62.66 8.07 C-58.02 7.22 -53.71 6.85 -49 7 C-49 6.34 -49 5.68 -49 5 C-46.29 4.49 -43.58 3.99 -40.88 3.5 C-40.11 3.36 -39.35 3.21 -38.57 3.07 C-34.32 2.3 -30.34 1.83 -26 2 C-26 1.34 -26 0.68 -26 0 C-6.54 -3.75 -6.54 -3.75 0 0 Z "
          fill="#2B5E16" transform="translate(129,28)"/>
    <path d="M0 0 C0 0.66 0 1.32 0 2 C0.74 2.12 1.49 2.25 2.25 2.38 C4.8 2.95 6.73 3.74 9 5 C9 5.66 9 6.32 9 7 C11.97 7.99 14.94 8.98 18 10 C18 10.66 18 11.32 18 12 C19.13 12.27 20.27 12.54 21.44 12.81 C22.61 13.2 23.79 13.6 25 14 C25.5 15.48 25.5 15.48 26 17 C26.74 17.12 27.48 17.25 28.25 17.38 C30.8 17.95 32.73 18.74 35 20 C35 20.66 35 21.32 35 22 C35.74 22.12 36.48 22.25 37.25 22.38 C39.8 22.95 41.73 23.74 44 25 C44 25.66 44 26.32 44 27 C46.97 27.99 49.94 28.98 53 30 C53 30.66 53 31.32 53 32 C54.13 32.27 55.27 32.54 56.44 32.81 C57.61 33.2 58.79 33.6 60 34 C60.33 34.99 60.66 35.98 61 37 C62.11 37.19 62.11 37.19 63.25 37.38 C65.8 37.95 67.73 38.74 70 40 C70 40.66 70 41.32 70 42 C70.8 42.14 71.61 42.29 72.44 42.44 C75 43 75 43 76 44 C76.04 45.67 76.04 47.33 76 49 C75.67 48.01 75.34 47.02 75 46 C62.27 48.93 49.62 52.09 37.07 55.7 C26.55 58.72 16.18 61.56 5.39 63.38 C1.28 64.13 -2.67 65.22 -6.67 66.45 C-9.18 67.04 -11.42 67.1 -14 67 C-14.49 68.48 -14.49 68.48 -15 70 C-21.75 70.12 -21.75 70.12 -24 69 C-24 69.66 -24 70.32 -24 71 C-28.53 70.12 -31.21 67.5 -34.56 64.5 C-35.82 63.4 -37.08 62.29 -38.34 61.19 C-38.97 60.65 -39.59 60.1 -40.23 59.54 C-42.63 57.45 -45.09 55.44 -47.56 53.44 C-51.58 50.17 -55.55 46.85 -59.5 43.5 C-69.58 34.65 -69.58 34.65 -80.38 26.75 C-83.3 24.8 -85.52 22.48 -88 20 C-88.93 19.44 -89.86 18.89 -90.81 18.31 C-91.53 17.88 -92.26 17.45 -93 17 C-93 16.34 -93 15.68 -93 15 C-91.99 14.88 -90.98 14.75 -89.94 14.62 C-86.02 14.09 -86.02 14.09 -82.44 12.94 C-79.11 12.03 -76.43 11.83 -73 12 C-73 11.34 -73 10.68 -73 10 C-70.31 9.49 -67.63 8.99 -64.94 8.5 C-63.81 8.29 -63.81 8.29 -62.66 8.07 C-58.02 7.22 -53.71 6.85 -49 7 C-49 6.34 -49 5.68 -49 5 C-46.29 4.49 -43.58 3.99 -40.88 3.5 C-40.11 3.36 -39.35 3.21 -38.57 3.07 C-34.32 2.3 -30.34 1.83 -26 2 C-26 1.34 -26 0.68 -26 0 C-6.54 -3.75 -6.54 -3.75 0 0 Z "
          fill="#7EBD67" transform="translate(129,28)"/>
    <path d="M0 0 C0.56 0.14 1.11 0.29 1.69 0.44 C5.75 1.43 9.53 2.13 13.72 2.11 C14.64 2.11 15.56 2.11 16.51 2.11 C18 2.11 18 2.11 19.53 2.1 C20.58 2.1 21.64 2.09 22.74 2.09 C25.03 2.09 27.33 2.08 29.62 2.08 C33.25 2.06 36.88 2.06 40.51 2.05 C48.22 2.04 55.92 2.02 63.62 2 C72.56 1.98 81.49 1.96 90.42 1.94 C94 1.94 97.59 1.93 101.17 1.91 C103.36 1.91 105.55 1.91 107.73 1.9 C109.23 1.89 109.23 1.89 110.76 1.89 C111.68 1.89 112.59 1.89 113.53 1.89 C114.73 1.88 114.73 1.88 115.94 1.88 C118 2 118 2 121 3 C122.73 4.97 124.37 6.95 126 9 C127.06 10.28 128.12 11.55 129.19 12.81 C129.92 13.69 129.92 13.69 130.67 14.58 C131.97 16.13 131.97 16.13 134 17 C134 17.99 134 18.98 134 20 C133.34 20 132.68 20 132 20 C132 20.66 132 21.32 132 22 C131.01 22 130.02 22 129 22 C128.34 25.63 127.68 29.26 127 33 C127.66 33 128.32 33 129 33 C129 34.32 129 35.64 129 37 C128.34 37 127.68 37 127 37 C127 38.65 127 40.3 127 42 C121.8 45.11 117.33 45.59 111.44 46 C104.49 46.58 97.99 47.57 91.22 49.29 C87.58 50.09 83.95 50.55 80.25 50.94 C73.06 51.7 65.95 52.77 58.81 53.94 C49.53 55.46 40.24 56.84 30.9 58.05 C30.05 58.16 29.2 58.27 28.32 58.39 C27.58 58.48 26.84 58.58 26.08 58.67 C24.01 59 22.02 59.46 20 60 C18.82 55.38 18.89 50.92 18.94 46.19 C18.94 45.4 18.95 44.61 18.95 43.8 C18.96 41.87 18.98 39.93 19 38 C20.32 37.34 21.64 36.68 23 36 C23.66 36.66 24.32 37.32 25 38 C27.07 38.64 27.07 38.64 29 39 C29 38.34 29 37.68 29 37 C29.76 36.89 30.53 36.78 31.32 36.67 C37.19 35.8 43 34.81 48.81 33.56 C56.86 31.89 64.97 30.93 73.14 30 C74.14 29.89 75.15 29.77 76.18 29.65 C77.08 29.55 77.99 29.45 78.92 29.34 C80.98 29.21 80.98 29.21 82 28 C84.88 27.91 87.74 27.88 90.63 27.9 C91.93 27.9 91.93 27.9 93.25 27.91 C96.02 27.91 98.79 27.92 101.56 27.94 C103.44 27.94 105.31 27.95 107.19 27.95 C111.79 27.96 116.4 27.98 121 28 C121 27.01 121 26.02 121 25 C84.04 24.34 47.08 23.68 9 23 C8.67 22.01 8.34 21.02 8 20 C7.42 20.33 6.84 20.66 6.25 21 C4 22 4 22 0 22 C-1.56 18.87 -1.14 15.55 -1.12 12.12 C-1.13 11.4 -1.13 10.68 -1.14 9.94 C-1.13 6.49 -1.09 3.3 0 0 Z "
          fill="#6D6D6E" transform="translate(63,140)"/>
    <path d="M0 0 C3 0 3 0 5.25 2.12 C6.16 3.07 7.07 4.02 8 5 C12.47 9.22 12.47 9.22 17.81 12.12 C20 13 20 13 21.31 15.12 C21.65 16.05 21.65 16.05 22 17 C22.66 17 23.32 17 24 17 C29.54 21.86 29.54 21.86 30 26 C30.66 26 31.32 26 32 26 C33.62 28 33.62 28 35 30 C35 29.01 35 28.02 35 27 C35.99 27.33 36.98 27.66 38 28 C38 28.66 38 29.32 38 30 C38.92 30.09 38.92 30.09 39.86 30.18 C42 31 42 31 43.27 33.29 C43.59 34.2 43.92 35.12 44.25 36.06 C44.59 36.98 44.92 37.9 45.27 38.85 C45.51 39.56 45.75 40.27 46 41 C52.19 40.06 58.09 39.09 64 37 C65.81 36.55 67.62 36.12 69.44 35.69 C74.78 34.38 79.93 32.71 85.13 30.91 C91.12 28.89 97.19 27.36 103.34 25.89 C105.83 25.29 108.31 24.62 110.77 23.9 C114.53 22.85 116.37 22.47 120 24 C122.76 28.23 124 31.95 124 37 C124.66 37 125.32 37 126 37 C126.51 38.27 127 39.54 127.5 40.81 C127.92 41.87 127.92 41.87 128.34 42.96 C129 45 129 45 129 48 C129.66 48 130.32 48 131 48 C131.38 49.99 131.71 51.99 132 54 C130.38 55.62 128.63 55.13 126.4 55.14 C125.4 55.15 124.4 55.15 123.38 55.16 C122.28 55.16 121.18 55.16 120.04 55.16 C118.31 55.17 118.31 55.17 116.55 55.18 C112.71 55.19 108.88 55.2 105.05 55.2 C103.06 55.21 101.08 55.21 99.09 55.22 C93.56 55.23 88.03 55.24 82.5 55.24 C75.34 55.24 68.19 55.26 61.03 55.29 C55.5 55.31 49.97 55.32 44.44 55.32 C41.14 55.32 37.84 55.33 34.54 55.35 C30.85 55.36 27.16 55.36 23.48 55.36 C22.38 55.37 21.29 55.37 20.16 55.38 C19.16 55.38 18.15 55.37 17.11 55.37 C16.24 55.37 15.37 55.37 14.47 55.37 C12 55 12 55 7 52 C7 59.26 7 66.52 7 74 C9.47 73.01 9.47 73.01 12 72 C12.99 72 13.98 72 15 72 C15.33 72.66 15.66 73.32 16 74 C17.29 74.02 18.57 74.05 19.89 74.07 C32.02 74.29 44.14 74.51 56.27 74.73 C62.5 74.85 68.73 74.96 74.96 75.07 C80.98 75.18 87 75.29 93.01 75.4 C95.31 75.44 97.6 75.48 99.89 75.52 C103.11 75.58 106.33 75.64 109.54 75.7 C110.49 75.72 111.43 75.73 112.4 75.75 C117.68 75.86 122.78 76.25 128 77 C128 77.99 128 78.98 128 80 C104.86 80.06 81.73 79.93 58.59 79.63 C54.21 79.57 49.82 79.52 45.44 79.47 C42.02 79.43 38.61 79.39 35.19 79.35 C33.57 79.33 31.95 79.31 30.33 79.29 C28.1 79.27 25.87 79.24 23.64 79.21 C21.75 79.18 21.75 79.18 19.81 79.16 C17 79 17 79 16 78 C14.74 78.06 13.48 78.12 12.19 78.19 C8.97 78.23 8.25 78.19 5.56 76.19 C2.64 72.1 2.82 68.12 2.75 63.3 C2.72 61.7 2.69 60.09 2.66 58.49 C2.64 57.64 2.63 56.8 2.61 55.93 C2.26 37.24 1.35 18.64 0 0 Z "
          fill="#D11E11" transform="translate(56,88)"/>
    <path d="M0 0 C0.66 0 1.32 0 2 0 C2.04 1.02 2.07 2.05 2.11 3.11 C2.18 4.47 2.25 5.83 2.31 7.19 C2.34 7.86 2.36 8.53 2.38 9.23 C2.62 13.66 3.49 16.37 6 20 C6.33 20.99 6.66 21.98 7 23 C7.99 23 8.98 23 10 23 C10 23.66 10 24.32 10 25 C10.66 25 11.32 25 12 25 C12 25.99 12 26.98 12 28 C12.54 28.23 13.07 28.45 13.62 28.69 C18.83 31.56 22.83 35.83 27 40 C28.31 41.03 29.64 42.04 31 43 C30.67 43.66 30.34 44.32 30 45 C28.68 44.34 27.36 43.68 26 43 C26 42.34 26 41.68 26 41 C25.01 41 24.02 41 23 41 C23.33 41.66 23.66 42.32 24 43 C24.5 47.21 24.72 51.45 25 55.69 C25.09 56.99 25.18 58.29 25.27 59.64 C25.78 67.59 26.1 75.53 26.28 83.49 C26.3 84.37 26.32 85.25 26.34 86.16 C26.43 90.51 26.51 94.86 26.57 99.21 C26.6 100.82 26.63 102.43 26.66 104.04 C26.66 104.77 26.67 105.5 26.67 106.25 C26.75 110.23 27.07 113.48 29 117 C31.69 117.95 33.9 118 36.75 118 C37.49 118 38.23 118 39 118 C39.33 118.33 39.66 118.66 40 119 C42.4 119.12 44.78 119.19 47.18 119.21 C47.93 119.22 48.68 119.23 49.46 119.24 C51.95 119.27 54.45 119.29 56.94 119.32 C58.67 119.34 60.39 119.36 62.12 119.38 C66.67 119.43 71.21 119.48 75.76 119.53 C80.4 119.58 85.04 119.64 89.68 119.69 C98.79 119.8 107.89 119.9 117 120 C117 120.33 117 120.66 117 121 C112.8 122.52 108.85 123.43 104.42 124 C103.18 124.17 101.93 124.33 100.65 124.5 C99.36 124.67 98.08 124.83 96.75 125 C89.16 125.98 81.65 127 74.16 128.58 C71.08 129.18 68 129.43 64.88 129.62 C63.2 129.74 63.2 129.74 61.49 129.85 C60.67 129.9 59.85 129.95 59 130 C59 130.66 59 131.32 59 132 C58.26 131.84 57.52 131.67 56.75 131.5 C53.81 130.88 53.81 130.88 50 131 C50 138.26 50 145.52 50 153 C51.98 152.01 51.98 152.01 54 151 C56.08 150.56 56.08 150.56 58.32 150.29 C59.17 150.18 60.03 150.07 60.9 149.96 C61.82 149.85 62.74 149.74 63.69 149.62 C71.99 148.56 80.24 147.36 88.5 146 C97.42 144.54 106.34 143.25 115.3 142.08 C120.78 141.35 126.2 140.45 131.62 139.38 C137.25 138.26 142.72 137.58 148.45 137.31 C151.29 136.97 153.46 136.3 156 135 C156.89 132.45 156.89 132.45 157 130 C160 131 160 131 162 134 C161.62 137.19 161.62 137.19 161 140 C154.16 142.44 147.21 142.62 140 143 C140 143.66 140 144.32 140 145 C138.69 145.17 138.69 145.17 137.35 145.35 C134.12 145.78 130.89 146.22 127.66 146.65 C126.27 146.84 124.87 147.03 123.47 147.22 C121.46 147.48 119.45 147.75 117.44 148.03 C116.23 148.19 115.02 148.35 113.78 148.52 C111.1 148.71 111.1 148.71 110 150 C106.67 150.68 103.3 151.09 99.94 151.56 C99.01 151.7 98.08 151.84 97.12 151.98 C91.68 152.76 86.49 153.15 81 153 C81 153.66 81 154.32 81 155 C73.2 156.16 65.66 157.27 57.76 156.97 C55.97 156.8 55.97 156.8 55 158 C53 158.04 51 158.04 49 158 C48.34 156.35 47.68 154.7 47 153 C46.34 153 45.68 153 45 153 C42 146.38 42 146.38 42 143 C41.01 142.67 40.02 142.34 39 142 C37.81 138.44 37.81 138.44 37 135 C36.34 135 35.68 135 35 135 C34.01 132.03 33.02 129.06 32 126 C31.34 126 30.68 126 30 126 C28.52 121.05 28.52 121.05 27 116 C26.34 116 25.68 116 25 116 C22 110.38 22 110.38 22 107 C21.34 107 20.68 107 20 107 C17 100.38 17 100.38 17 97 C16.34 97 15.68 97 15 97 C12 91.38 12 91.38 12 88 C11.34 88 10.68 88 10 88 C7 81.38 7 81.38 7 78 C6.34 78 5.68 78 5 78 C-0.58 70.91 -1.58 64.82 -1.56 56 C-1.56 55.07 -1.57 54.14 -1.57 53.18 C-1.41 46.55 -1.41 46.55 0.34 44.2 C3.07 42.23 5.77 43.49 9 44 C12.35 43.82 15.67 43.44 19 43 C17.98 37.35 16.43 35.11 11.95 31.61 C7.54 27.98 3 23.79 2 18 C1.34 18 0.68 18 0 18 C0 12.06 0 6.12 0 0 Z "
          fill="#2C3262" transform="translate(33,47)"/>
    <path d="M0 0 C0 1.98 0 3.96 0 6 C-0.66 6 -1.32 6 -2 6 C-2 7.65 -2 9.3 -2 11 C-1.34 11 -0.68 11 0 11 C0 11.66 0 12.32 0 13 C-0.66 13 -1.32 13 -2 13 C-1.5 14.14 -1.5 14.14 -1 15.31 C0 18 0 18 0 21 C-20.77 27.33 -41.81 32.76 -62.89 37.98 C-66.43 38.86 -69.97 39.75 -73.5 40.69 C-74.29 40.9 -75.09 41.11 -75.91 41.32 C-78.03 41.93 -78.03 41.93 -79.92 43.07 C-82.63 44.28 -84.8 44.2 -87.75 44.12 C-89.23 44.1 -89.23 44.1 -90.73 44.07 C-91.48 44.05 -92.23 44.02 -93 44 C-93 44.66 -93 45.32 -93 46 C-93.99 46 -94.98 46 -96 46 C-97.18 42.46 -97.15 39.25 -97.12 35.56 C-97.13 34.24 -97.13 32.93 -97.13 31.57 C-97.03 28.8 -96.84 26.61 -96 24 C-94.95 24.06 -93.9 24.12 -92.81 24.19 C-88.66 23.98 -87.45 23.1 -84 21 C-81.41 20.19 -81.41 20.19 -78.62 19.56 C-68.95 17.29 -59.34 14.75 -49.84 11.84 C-39.07 8.64 -28.2 5.76 -17.33 2.89 C-14.98 2.26 -12.65 1.59 -10.32 0.89 C-6.75 -0.07 -3.68 -0.15 0 0 Z "
          fill="#D5D5D5" transform="translate(197,79)"/>
    <path d="M0 0 C0.33 1.32 0.66 2.64 1 4 C1.51 3.79 2.03 3.58 2.56 3.36 C11.18 0.28 19.86 0.52 28.89 0.49 C30.63 0.47 32.38 0.45 34.13 0.43 C38.72 0.39 43.31 0.36 47.89 0.33 C52.49 0.3 57.08 0.25 61.67 0.21 C79.45 0.04 97.22 -0.05 115 0 C115 5.61 115 11.22 115 17 C101.4 17.02 87.79 17.04 74.19 17.05 C67.87 17.06 61.55 17.06 55.24 17.08 C49.14 17.09 43.05 17.09 36.95 17.09 C34.63 17.1 32.3 17.1 29.97 17.11 C26.72 17.11 23.46 17.11 20.21 17.11 C19.24 17.12 18.28 17.12 17.29 17.12 C16.4 17.12 15.5 17.12 14.59 17.12 C13.82 17.12 13.05 17.12 12.26 17.12 C10 17 10 17 7.46 16.49 C4.76 15.87 4.76 15.87 1 16 C-0.07 12.54 -0.1 9.36 -0.06 5.75 C-0.05 4.13 -0.05 4.13 -0.04 2.48 C-0.02 1.66 -0.01 0.84 0 0 Z "
          fill="#D1D0D0" transform="translate(63,145)"/>
    <path d="M0 0 C0 1.65 0 3.3 0 5 C0.66 5 1.32 5 2 5 C2 6.32 2 7.64 2 9 C1.34 9 0.68 9 0 9 C0 10.65 0 12.3 0 14 C-5.2 17.11 -9.67 17.59 -15.56 18 C-22.51 18.58 -29.01 19.57 -35.78 21.29 C-39.42 22.09 -43.05 22.55 -46.75 22.94 C-59.33 24.27 -71.82 26.42 -84.28 28.57 C-85.34 28.75 -86.4 28.93 -87.5 29.12 C-88.45 29.28 -89.41 29.45 -90.39 29.62 C-93.65 30.09 -96.71 30.15 -100 30 C-100 29.34 -100 28.68 -100 28 C-100.99 28 -101.98 28 -103 28 C-103.08 26.56 -103.14 25.13 -103.19 23.69 C-103.22 22.89 -103.26 22.09 -103.29 21.26 C-103 19 -103 19 -101.88 17.3 C-99.26 15.49 -96.94 15.13 -93.81 14.56 C-93.17 14.44 -92.53 14.32 -91.87 14.2 C-89.58 13.78 -87.29 13.39 -85 13 C-84.08 12.84 -83.17 12.69 -82.22 12.53 C-77.1 11.66 -71.97 10.81 -66.84 9.98 C-63.42 9.41 -60 8.82 -56.59 8.15 C-46.79 6.22 -37.06 5.35 -27.08 4.82 C-20.77 4.43 -15.8 3.53 -10 1 C-6.59 0.13 -3.52 -0.1 0 0 Z "
          fill="#D3D3D3" transform="translate(190,168)"/>
    <path d="M0 0 C2.55 1.27 2.66 2.18 3.62 4.81 C3.89 5.5 4.15 6.19 4.41 6.89 C5 9 5 9 5 13 C5.66 13 6.32 13 7 13 C7.51 14.27 8 15.54 8.5 16.81 C8.78 17.52 9.06 18.23 9.34 18.96 C10 21 10 21 10 24 C10.66 24 11.32 24 12 24 C12.38 25.99 12.71 27.99 13 30 C12 31 12 31 10.02 31.12 C8.7 31.12 8.7 31.12 7.36 31.12 C6.36 31.12 5.36 31.12 4.32 31.12 C3.21 31.12 2.11 31.12 0.96 31.11 C-0.2 31.11 -1.36 31.11 -2.55 31.11 C-6.41 31.11 -10.27 31.11 -14.13 31.1 C-16.8 31.1 -19.46 31.09 -22.13 31.09 C-28.44 31.09 -34.76 31.08 -41.07 31.07 C-48.26 31.06 -55.45 31.06 -62.63 31.05 C-77.42 31.04 -92.21 31.02 -107 31 C-104.22 28.22 -102.52 28.72 -98.62 28.68 C-97.97 28.67 -97.31 28.66 -96.64 28.65 C-94.48 28.62 -92.31 28.6 -90.15 28.59 C-88.65 28.57 -87.15 28.55 -85.65 28.53 C-81.7 28.48 -77.75 28.44 -73.8 28.4 C-69.78 28.36 -65.75 28.31 -61.72 28.26 C-53.81 28.16 -45.91 28.08 -38 28 C-51.86 27.01 -51.86 27.01 -66 26 C-66.5 24.02 -66.5 24.02 -67 22 C-66.32 21.73 -65.64 21.46 -64.94 21.19 C-62.78 20.32 -60.64 19.42 -58.5 18.5 C-56.45 17.62 -54.39 16.76 -52.31 15.94 C-50.01 15.05 -50.01 15.05 -47.94 13.94 C-44.87 12.45 -42.41 12 -39 12 C-37.36 11.1 -37.36 11.1 -35.69 10.19 C-30.78 7.61 -25.68 6.72 -20.27 5.71 C-17.06 5.12 -17.06 5.12 -14.44 3.92 C-11.54 2.83 -9.27 2.8 -6.19 2.88 C-4.72 2.9 -4.72 2.9 -3.23 2.93 C-2.49 2.95 -1.76 2.98 -1 3 C-0.67 2.01 -0.34 1.02 0 0 Z "
          fill="#C53126" transform="translate(175,112)"/>
    <path d="M0 0 C0.66 0 1.32 0 2 0 C2.04 1.02 2.07 2.05 2.11 3.11 C2.18 4.47 2.25 5.83 2.31 7.19 C2.34 7.86 2.36 8.53 2.38 9.23 C2.62 13.66 3.49 16.37 6 20 C6.33 20.99 6.66 21.98 7 23 C7.99 23 8.98 23 10 23 C10 23.66 10 24.32 10 25 C10.66 25 11.32 25 12 25 C12 25.99 12 26.98 12 28 C12.54 28.23 13.07 28.45 13.62 28.69 C18.83 31.56 22.83 35.83 27 40 C28.31 41.03 29.64 42.04 31 43 C30.67 43.66 30.34 44.32 30 45 C28.68 44.34 27.36 43.68 26 43 C26 42.34 26 41.68 26 41 C25.01 41 24.02 41 23 41 C23.33 41.66 23.66 42.32 24 43 C24.52 47.48 24.76 52 25.06 56.5 C25.11 57.17 25.15 57.84 25.2 58.52 C26.38 76.65 26.84 94.9 25 113 C23.5 111.69 23.5 111.69 22 110 C22 109.01 22 108.02 22 107 C21.34 107 20.68 107 20 107 C17 100.38 17 100.38 17 97 C16.34 97 15.68 97 15 97 C12 91.38 12 91.38 12 88 C11.34 88 10.68 88 10 88 C7 81.38 7 81.38 7 78 C6.34 78 5.68 78 5 78 C-0.58 70.91 -1.58 64.82 -1.56 56 C-1.56 55.07 -1.57 54.14 -1.57 53.18 C-1.41 46.55 -1.41 46.55 0.34 44.2 C3.07 42.23 5.77 43.49 9 44 C12.35 43.82 15.67 43.44 19 43 C17.98 37.35 16.43 35.11 11.95 31.61 C7.54 27.98 3 23.79 2 18 C1.34 18 0.68 18 0 18 C0 12.06 0 6.12 0 0 Z "
          fill="#273568" transform="translate(33,47)"/>
    <path d="M0 0 C0 0.66 0 1.32 0 2 C-0.66 2 -1.32 2 -2 2 C-1.5 3.14 -1.5 3.14 -1 4.31 C0 7 0 7 0 10 C-20.66 16.3 -41.59 21.76 -62.57 26.9 C-65.56 27.64 -68.55 28.4 -71.53 29.19 C-72.25 29.38 -72.98 29.57 -73.72 29.76 C-75.66 30.27 -77.59 30.79 -79.52 31.3 C-83.1 32.02 -86.35 32.13 -90 32 C-90 31.01 -90 30.02 -90 29 C-89.01 28.34 -88.02 27.68 -87 27 C-87.66 26.34 -88.32 25.68 -89 25 C-88.34 24.34 -87.68 23.68 -87 23 C-86.67 22.01 -86.34 21.02 -86 20 C-83.08 19.02 -80.28 18.25 -77.3 17.55 C-76.4 17.33 -75.5 17.1 -74.58 16.88 C-71.64 16.16 -68.69 15.45 -65.75 14.75 C-63.73 14.26 -61.72 13.77 -59.71 13.27 C-53.81 11.83 -47.9 10.41 -42 9 C-40.41 8.62 -38.82 8.24 -37.24 7.85 C-36.52 7.68 -35.8 7.51 -35.06 7.33 C-33.69 7 -32.33 6.67 -30.96 6.34 C-27.96 5.62 -24.96 4.9 -21.96 4.19 C-16.23 2.83 -10.63 1.33 -5.05 -0.55 C-3 -1 -3 -1 0 0 Z "
          fill="#E2E1E1" transform="translate(197,90)"/>
    <path d="M0 0 C1.32 0.33 2.64 0.66 4 1 C4 1.66 4 2.32 4 3 C4.95 3.31 5.9 3.62 6.88 3.94 C10 5 10 5 12 6 C12 7.65 12 9.3 12 11 C8.87 12.86 6.63 13.2 3 13 C3 13.66 3 14.32 3 15 C0.75 15.51 -1.5 16 -3.75 16.5 C-5 16.78 -6.26 17.06 -7.55 17.34 C-11 18 -11 18 -15 18 C-15 18.66 -15 19.32 -15 20 C-15.6 19.97 -16.19 19.94 -16.81 19.91 C-23.52 19.72 -29.3 20.76 -35.75 22.56 C-36.74 22.83 -37.72 23.09 -38.74 23.37 C-46.72 25.55 -54.62 28.01 -62.47 30.64 C-67.63 32.35 -72.71 33.64 -78.07 34.58 C-80 34.82 -80 34.82 -81 36 C-82.99 36.26 -84.99 36.52 -86.99 36.75 C-89.05 37.01 -91.01 37.42 -93 38 C-97.85 31.16 -98.34 24.09 -97.48 15.97 C-97.32 15.32 -97.16 14.67 -97 14 C-96.34 13.67 -95.68 13.34 -95 13 C-94.67 19.6 -94.34 26.2 -94 33 C-93.01 33 -92.02 33 -91 33 C-91 32.34 -91 31.68 -91 31 C-89.97 30.94 -89.97 30.94 -88.91 30.89 C-83.48 30.51 -78.71 29.81 -73.61 27.92 C-63.39 24.33 -52.74 21.86 -42.25 19.19 C-30.76 16.25 -19.29 13.22 -7.85 10.08 C-6.84 9.81 -5.83 9.53 -4.79 9.25 C-3.91 9.01 -3.03 8.77 -2.12 8.52 C0 8 0 8 2 8 C1.67 7.24 1.34 6.47 1 5.69 C0 3 0 3 0 0 Z "
          fill="#185304" transform="translate(195,92)"/>
    <path d="M0 0 C8 6 8 6 10.1 7.64 C12.01 9.14 12.01 9.14 14.62 9.94 C17 11 17 11 18.31 13.12 C18.65 14.05 18.65 14.05 19 15 C19.66 15 20.32 15 21 15 C26.54 19.86 26.54 19.86 27 24 C27.66 24 28.32 24 29 24 C30.62 26 30.62 26 32 28 C32 27.01 32 26.02 32 25 C32.99 25.33 33.98 25.66 35 26 C35 26.66 35 27.32 35 28 C35.92 28.09 35.92 28.09 36.86 28.18 C39 29 39 29 40.27 31.29 C40.59 32.2 40.92 33.12 41.25 34.06 C41.59 34.98 41.92 35.9 42.27 36.85 C42.51 37.56 42.75 38.27 43 39 C49.19 38.06 55.09 37.09 61 35 C62.81 34.55 64.62 34.12 66.44 33.69 C71.78 32.38 76.93 30.71 82.13 28.91 C88.12 26.89 94.19 25.36 100.34 23.89 C102.84 23.28 105.32 22.6 107.79 21.86 C111.06 20.98 112.8 21.03 116 22 C115.67 23.32 115.34 24.64 115 26 C114.35 25.95 113.69 25.91 113.02 25.86 C106.32 25.59 101.18 26.67 94.92 28.99 C92.18 29.94 89.6 30.52 86.75 31 C82.62 31.73 79.4 33.09 75.79 35.2 C74 36 74 36 70 36 C68.02 36.87 68.02 36.87 66 38 C63.07 39.39 61.27 40.01 58 39.94 C54.94 39.74 54.94 39.74 52.62 41.56 C48.91 43.6 45.93 43.05 42 42 C35.97 39.94 32.14 36.41 27.82 31.82 C25.76 29.76 23.51 28.47 21 27 C19.81 24.88 19.81 24.88 19 23 C18.34 22.67 17.68 22.34 17 22 C17 21.34 17 20.68 17 20 C16.36 19.71 15.72 19.42 15.06 19.12 C13 18 13 18 12 16 C9.03 15.51 9.03 15.51 6 15 C6 20.61 6 26.22 6 32 C5.67 32 5.34 32 5 32 C4.29 27.76 3.57 23.53 2.86 19.29 C2.62 17.85 2.38 16.41 2.14 14.97 C1.79 12.9 1.44 10.83 1.09 8.76 C0.88 7.51 0.67 6.27 0.46 4.98 C0 2 0 2 0 0 Z "
          fill="#930E04" transform="translate(59,90)"/>
    <path d="M0 0 C0 0.99 0 1.98 0 3 C-6.31 4.65 -12.52 6.26 -19 7 C-19.33 8.32 -19.66 9.64 -20 11 C-15.38 10.67 -10.76 10.34 -6 10 C-9.05 12.03 -10.44 12.4 -13.96 12.89 C-15.41 13.09 -15.41 13.09 -16.89 13.29 C-17.89 13.42 -18.9 13.55 -19.94 13.69 C-21.44 13.9 -21.44 13.9 -22.97 14.12 C-31.15 15.22 -31.15 15.22 -35 14 C-34.67 13.67 -34.34 13.34 -34 13 C-40.84 13.38 -47.47 14.21 -54.19 15.5 C-62.77 17.13 -71.28 17.68 -80 18 C-80 17.67 -80 17.34 -80 17 C-78.68 16.67 -77.36 16.34 -76 16 C-78.94 16.31 -81.88 16.62 -84.81 16.94 C-85.65 17.02 -86.48 17.11 -87.34 17.2 C-88.14 17.29 -88.94 17.38 -89.77 17.46 C-90.51 17.54 -91.25 17.62 -92.01 17.7 C-94.2 17.97 -94.2 17.97 -97 19 C-98.65 21.6 -99 22.86 -99 26 C-97.02 26.99 -95.04 27.98 -93 29 C-93 29.33 -93 29.66 -93 30 C-95.31 30 -97.62 30 -100 30 C-100 29.34 -100 28.68 -100 28 C-100.99 28 -101.98 28 -103 28 C-103.08 26.56 -103.14 25.13 -103.19 23.69 C-103.22 22.89 -103.26 22.09 -103.29 21.26 C-103 19 -103 19 -101.88 17.3 C-99.26 15.49 -96.94 15.13 -93.81 14.56 C-93.17 14.44 -92.53 14.32 -91.87 14.2 C-89.58 13.78 -87.29 13.39 -85 13 C-84.08 12.84 -83.17 12.69 -82.22 12.53 C-77.1 11.66 -71.97 10.81 -66.84 9.98 C-63.42 9.41 -60 8.82 -56.59 8.15 C-46.79 6.22 -37.06 5.35 -27.08 4.82 C-20.77 4.43 -15.8 3.53 -10 1 C-6.59 0.13 -3.52 -0.1 0 0 Z "
          fill="#C9C9C9" transform="translate(190,168)"/>
    <path d="M0 0 C3 1 3 1 5 4 C4.62 7.19 4.62 7.19 4 10 C-2.84 12.44 -9.79 12.62 -17 13 C-17 13.66 -17 14.32 -17 15 C-17.87 15.12 -18.75 15.23 -19.65 15.35 C-22.88 15.78 -26.11 16.22 -29.34 16.65 C-30.73 16.84 -32.13 17.03 -33.53 17.22 C-35.54 17.48 -37.55 17.75 -39.56 18.03 C-41.37 18.27 -41.37 18.27 -43.22 18.52 C-45.9 18.71 -45.9 18.71 -47 20 C-50.33 20.68 -53.7 21.09 -57.06 21.56 C-57.99 21.7 -58.92 21.84 -59.88 21.98 C-65.32 22.76 -70.51 23.15 -76 23 C-76 23.66 -76 24.32 -76 25 C-91.74 27.3 -91.74 27.3 -99 27 C-99 26.67 -99 26.34 -99 26 C-96.69 26 -94.38 26 -92 26 C-92.33 24.02 -92.66 22.04 -93 20 C-75.93 17.14 -58.86 14.33 -41.7 12.08 C-36.22 11.35 -30.8 10.45 -25.38 9.38 C-19.75 8.26 -14.28 7.58 -8.55 7.31 C-5.71 6.97 -3.54 6.3 -1 5 C-0.11 2.45 -0.11 2.45 0 0 Z "
          fill="#3D4E7F" transform="translate(190,177)"/>
    <path d="M0 0 C0.56 0.14 1.11 0.29 1.69 0.44 C5.76 1.43 9.54 2.13 13.74 2.12 C14.66 2.12 15.59 2.12 16.54 2.12 C17.54 2.12 18.54 2.12 19.57 2.11 C21.17 2.11 21.17 2.11 22.8 2.11 C26.31 2.11 29.82 2.11 33.33 2.1 C35.77 2.1 38.21 2.09 40.64 2.09 C47.05 2.09 53.46 2.08 59.87 2.07 C66.41 2.06 72.96 2.05 79.5 2.05 C92.33 2.04 105.17 2.02 118 2 C117.01 2.33 116.02 2.66 115 3 C115 3.66 115 4.32 115 5 C100.74 5.81 86.49 6.12 72.21 6.25 C70.89 6.26 70.89 6.26 69.55 6.27 C61.27 6.35 53 6.42 44.72 6.48 C40.15 6.51 35.58 6.55 31.01 6.6 C29.28 6.61 27.55 6.63 25.83 6.63 C23.43 6.65 21.03 6.67 18.64 6.7 C17.58 6.7 17.58 6.7 16.51 6.7 C12.52 6.76 9.65 7.47 6 9 C4.35 9 2.7 9 1 9 C1 12.96 1 16.92 1 21 C1.99 21.33 2.98 21.66 4 22 C2.68 22 1.36 22 0 22 C-1.56 18.87 -1.14 15.55 -1.12 12.12 C-1.13 11.4 -1.13 10.68 -1.14 9.94 C-1.13 6.49 -1.09 3.3 0 0 Z "
          fill="#797B7B" transform="translate(63,140)"/>
    <path d="M0 0 C0 1.98 0 3.96 0 6 C-0.99 6.33 -1.98 6.66 -3 7 C-3 6.34 -3 5.68 -3 5 C-3.95 5.22 -4.91 5.43 -5.89 5.66 C-7.77 6.07 -7.77 6.07 -9.69 6.5 C-11.55 6.92 -11.55 6.92 -13.45 7.34 C-16.42 7.89 -18.99 8.14 -22 8 C-22 8.66 -22 9.32 -22 10 C-23.16 10.25 -24.32 10.51 -25.52 10.77 C-27.09 11.12 -28.67 11.46 -30.25 11.81 C-31.07 11.99 -31.89 12.17 -32.73 12.36 C-38.36 13.61 -43.95 14.97 -49.52 16.48 C-52.08 17.02 -54.39 17.09 -57 17 C-57 17.66 -57 18.32 -57 19 C-58.17 19.25 -59.34 19.51 -60.55 19.77 C-65.37 20.82 -70.19 21.9 -75 23 C-76.73 23.39 -76.73 23.39 -78.5 23.79 C-79.45 24.03 -80.4 24.26 -81.38 24.5 C-82.59 24.79 -82.59 24.79 -83.84 25.09 C-86.54 26.23 -88.02 27.87 -90 30 C-90.66 30.33 -91.32 30.66 -92 31 C-92.47 33.82 -92.47 33.82 -92.62 37.06 C-92.75 39.02 -92.87 40.98 -93 43 C-88.38 42.67 -83.76 42.34 -79 42 C-82.42 44.28 -83.68 44.22 -87.69 44.12 C-88.68 44.11 -89.68 44.09 -90.7 44.07 C-91.84 44.04 -91.84 44.04 -93 44 C-93 44.66 -93 45.32 -93 46 C-93.99 46 -94.98 46 -96 46 C-97.18 42.46 -97.15 39.25 -97.12 35.56 C-97.13 34.24 -97.13 32.93 -97.13 31.57 C-97.03 28.8 -96.84 26.61 -96 24 C-94.95 24.06 -93.9 24.12 -92.81 24.19 C-88.66 23.98 -87.45 23.1 -84 21 C-81.41 20.19 -81.41 20.19 -78.62 19.56 C-68.95 17.29 -59.34 14.75 -49.84 11.84 C-39.07 8.64 -28.2 5.76 -17.33 2.89 C-14.98 2.26 -12.65 1.59 -10.32 0.89 C-6.75 -0.07 -3.68 -0.15 0 0 Z "
          fill="#939294" transform="translate(197,79)"/>
    <path d="M0 0 C0.99 0.33 1.98 0.66 3 1 C4.42 1.11 5.84 1.17 7.26 1.19 C8.12 1.21 8.99 1.22 9.88 1.24 C10.83 1.25 11.78 1.27 12.76 1.28 C13.76 1.3 14.76 1.32 15.8 1.34 C17.98 1.37 20.15 1.41 22.33 1.45 C25.78 1.5 29.24 1.56 32.69 1.62 C40.02 1.75 47.35 1.88 54.69 2 C63.17 2.14 71.65 2.29 80.13 2.44 C83.53 2.5 86.92 2.55 90.31 2.61 C92.41 2.64 94.5 2.68 96.59 2.72 C98 2.74 98 2.74 99.44 2.76 C104.7 2.86 109.79 3.25 115 4 C115 4.99 115 5.98 115 7 C103.67 7.01 92.33 7.01 81 7 C79.76 7 79.76 7 78.5 7 C68.45 6.99 58.4 6.95 48.35 6.87 C44.04 6.83 39.72 6.81 35.41 6.8 C31.13 6.8 26.85 6.77 22.57 6.73 C20.96 6.71 19.36 6.71 17.75 6.71 C15.53 6.72 13.31 6.69 11.1 6.66 C9.84 6.65 8.59 6.65 7.3 6.64 C3.16 5.84 1.66 4.18 -1 1 C-0.67 0.67 -0.34 0.34 0 0 Z "
          fill="#A11612" transform="translate(69,161)"/>
    <path d="M0 0 C0.99 0 1.98 0 3 0 C4.65 9.24 6.3 18.48 8 28 C8.66 27.34 9.32 26.68 10 26 C10 31.61 10 37.22 10 43 C10.66 43 11.32 43 12 43 C12 46.63 12 50.26 12 54 C10.35 53.34 8.7 52.68 7 52 C7 59.26 7 66.52 7 74 C9.47 73.01 9.47 73.01 12 72 C12.99 72.33 13.98 72.66 15 73 C14.01 73.99 14.01 73.99 13 75 C13.66 75.66 14.32 76.32 15 77 C11.75 77.75 11.75 77.75 8 78 C5.05 75.83 4.16 74.48 3 71 C2.87 68.43 2.79 65.88 2.75 63.3 C2.72 61.7 2.69 60.09 2.66 58.49 C2.64 57.64 2.63 56.8 2.61 55.93 C2.26 37.24 1.35 18.64 0 0 Z "
          fill="#B61C0F" transform="translate(56,88)"/>
    <path d="M0 0 C19.8 0 39.6 0 60 0 C59.67 0.66 59.34 1.32 59 2 C56.38 2.56 56.38 2.56 52.91 3 C51.65 3.17 50.39 3.33 49.09 3.5 C47.75 3.67 46.41 3.83 45.06 4 C37.37 4.98 29.74 5.98 22.15 7.58 C19.07 8.18 16 8.43 12.88 8.62 C11.76 8.7 10.64 8.77 9.49 8.85 C8.67 8.9 7.85 8.95 7 9 C7 9.66 7 10.32 7 11 C3.98 10.41 0.98 9.77 -2 9 C-2.33 6.69 -2.66 4.38 -3 2 C-2.01 2 -1.02 2 0 2 C0 1.34 0 0.68 0 0 Z "
          fill="#3E5BB9" transform="translate(85,168)"/>
    <path d="M0 0 C4.29 0 8.58 0 13 0 C12.01 0.33 11.02 0.66 10 1 C10.3 4.66 10.7 5.75 13.56 8.19 C14.37 8.79 15.17 9.38 16 10 C16 10.66 16 11.32 16 12 C17.32 12.66 18.64 13.32 20 14 C20 14.66 20 15.32 20 16 C21.98 16.66 23.96 17.32 26 18 C26 18.99 26 19.98 26 21 C26.8 21.12 27.61 21.25 28.44 21.38 C29.71 21.68 29.71 21.68 31 22 C31.33 22.66 31.66 23.32 32 24 C33.99 25.01 35.99 26.01 38 27 C39.99 28.31 41.95 29.67 43.88 31.06 C44.84 31.75 45.81 32.45 46.8 33.16 C47.53 33.77 48.25 34.37 49 35 C49 35.66 49 36.32 49 37 C53.3 38.75 57.65 40.38 62 42 C62 42.99 62 43.98 62 45 C63.32 45 64.64 45 66 45 C66 45.99 66 46.98 66 48 C67.32 48 68.64 48 70 48 C70 48.66 70 49.32 70 50 C71.32 50.66 72.64 51.32 74 52 C74 52.66 74 53.32 74 54 C75.65 53.67 77.3 53.34 79 53 C78.5 53.99 78.5 53.99 78 55 C71.25 55.12 71.25 55.12 69 54 C69 54.66 69 55.32 69 56 C64.47 55.12 61.79 52.5 58.44 49.5 C57.18 48.4 55.92 47.29 54.66 46.19 C54.03 45.65 53.41 45.1 52.77 44.54 C50.37 42.45 47.91 40.44 45.44 38.44 C41.42 35.17 37.45 31.85 33.5 28.5 C23.42 19.65 23.42 19.65 12.62 11.75 C9.7 9.8 7.48 7.48 5 5 C4.07 4.44 3.14 3.89 2.19 3.31 C1.47 2.88 0.74 2.45 0 2 C0 1.34 0 0.68 0 0 Z "
          fill="#539E3C" transform="translate(36,43)"/>
    <path d="M0 0 C0.33 1.32 0.66 2.64 1 4 C1.51 3.79 2.03 3.58 2.56 3.36 C11.18 0.28 19.86 0.52 28.89 0.49 C30.63 0.47 32.38 0.45 34.13 0.43 C38.72 0.39 43.31 0.36 47.89 0.33 C52.49 0.3 57.08 0.25 61.67 0.21 C79.45 0.04 97.22 -0.05 115 0 C115 5.61 115 11.22 115 17 C114.67 17 114.34 17 114 17 C113.5 9.57 113.5 9.57 113 2 C111.15 2.16 109.3 2.32 107.4 2.48 C100.13 3.04 92.89 3.2 85.61 3.28 C84.25 3.3 82.9 3.32 81.54 3.34 C77.28 3.4 73.01 3.45 68.75 3.5 C45.19 3.79 45.19 3.79 21.64 4.41 C20.6 4.44 19.56 4.46 18.49 4.49 C17.06 4.55 17.06 4.55 15.61 4.6 C14.38 4.65 14.38 4.65 13.12 4.69 C10.7 4.89 10.7 4.89 8 7 C7.42 8.96 7.42 8.96 7.31 11.12 C7.16 13.04 7.16 13.04 7 15 C5.02 15.33 3.04 15.66 1 16 C-0.07 12.54 -0.1 9.36 -0.06 5.75 C-0.05 4.13 -0.05 4.13 -0.04 2.48 C-0.02 1.66 -0.01 0.84 0 0 Z "
          fill="#A7A4A4" transform="translate(63,145)"/>
    <path d="M0 0 C0.66 0 1.32 0 2 0 C2.04 1.02 2.07 2.05 2.11 3.11 C2.18 4.47 2.25 5.83 2.31 7.19 C2.34 7.86 2.36 8.53 2.38 9.23 C2.62 13.66 3.49 16.37 6 20 C6.33 20.99 6.66 21.98 7 23 C7.99 23 8.98 23 10 23 C10 23.66 10 24.32 10 25 C10.66 25 11.32 25 12 25 C12 25.99 12 26.98 12 28 C12.54 28.23 13.07 28.45 13.62 28.69 C18.83 31.56 22.83 35.83 27 40 C28.31 41.03 29.64 42.04 31 43 C30.67 43.66 30.34 44.32 30 45 C28.68 44.34 27.36 43.68 26 43 C26 42.34 26 41.68 26 41 C25.01 41 24.02 41 23 41 C23.33 41.66 23.66 42.32 24 43 C24.52 47.48 24.76 52 25.06 56.5 C25.11 57.16 25.15 57.83 25.2 58.51 C26.1 72.01 26.22 85.47 26 99 C25.34 99 24.68 99 24 99 C23.57 92.63 23.14 86.26 22.72 79.9 C22.57 77.73 22.43 75.57 22.28 73.41 C22.07 70.29 21.86 67.16 21.66 64.04 C21.59 63.08 21.53 62.13 21.46 61.15 C21.06 55.09 20.92 49.07 21 43 C20.34 43 19.68 43 19 43 C18.81 41.97 18.63 40.94 18.44 39.88 C17.29 35.83 15.19 34.14 11.95 31.61 C7.54 27.98 3 23.79 2 18 C1.34 18 0.68 18 0 18 C0 12.06 0 6.12 0 0 Z "
          fill="#5D774F" transform="translate(33,47)"/>
    <path d="M0 0 C0.66 0 1.32 0 2 0 C3.37 2.73 3.13 4.98 3 8 C1.27 9.73 -0.96 9.13 -3.26 9.14 C-4.03 9.14 -4.79 9.13 -5.58 9.13 C-6.39 9.13 -7.2 9.14 -8.03 9.14 C-10.77 9.14 -13.51 9.13 -16.25 9.12 C-17.19 9.12 -18.13 9.12 -19.1 9.12 C-47.07 9.09 -75.04 8.53 -103 8 C-102.67 7.34 -102.34 6.68 -102 6 C-68.01 6 -34.02 6 1 6 C-28.7 5.5 -28.7 5.5 -59 5 C-59 4.67 -59 4.34 -59 4 C-30.29 3.5 -30.29 3.5 -1 3 C-0.67 2.01 -0.34 1.02 0 0 Z "
          fill="#DFDFDF" transform="translate(174,151)"/>
    <path d="M0 0 C3.37 0.46 4.53 0.34 7.62 -0.5 C10.27 -0.5 12.9 -0.5 15.62 -0.5 C16.29 9.73 16.95 19.96 17.62 30.5 C16.64 29.18 15.64 27.86 14.62 26.5 C14.06 25.79 13.49 25.08 12.91 24.35 C4.62 14 4.62 14 4.62 9.5 C3.63 9.5 2.65 9.5 1.62 9.5 C-1.38 3.75 -1.38 3.75 -1.38 1.5 C-2.69 1.17 -4.01 0.84 -5.38 0.5 C-3.38 -0.5 -3.38 -0.5 0 0 Z "
          fill="#455CA0" transform="translate(38.38,90.5)"/>
    <path d="M0 0 C0 1.32 0 2.64 0 4 C-28.05 4 -56.1 4 -85 4 C-84.67 3.34 -84.34 2.68 -84 2 C-79.51 1.13 -75.1 0.86 -70.54 0.79 C-69.3 0.77 -68.06 0.75 -66.78 0.73 C-65.45 0.72 -64.11 0.7 -62.77 0.68 C-61.38 0.66 -59.99 0.64 -58.59 0.62 C-54.93 0.57 -51.27 0.52 -47.61 0.47 C-44.65 0.43 -41.7 0.38 -38.74 0.34 C-35.17 0.29 -31.6 0.23 -28.02 0.18 C-26.06 0.16 -26.06 0.16 -24.05 0.13 C-16.03 0.02 -8.02 -0.02 0 0 Z "
          fill="#C5C5C5" transform="translate(176,147)"/>
    <path d="M0 0 C0 0.99 0 1.98 0 3 C-6.31 4.65 -12.52 6.26 -19 7 C-19.33 7.99 -19.66 8.98 -20 10 C-22.98 11.49 -25.72 11.12 -29 11 C-29.5 10.51 -29.5 10.51 -30 10 C-36.75 9.52 -43.12 10.01 -49.7 11.49 C-55.9 12.87 -62.66 13.78 -69 13 C-69.66 12.34 -70.32 11.68 -71 11 C-56.22 7.94 -41.68 5.44 -26.58 4.72 C-20.42 4.39 -15.67 3.46 -10 1 C-6.59 0.13 -3.52 -0.1 0 0 Z "
          fill="#B1B1B1" transform="translate(190,168)"/>
    <path d="M0 0 C0.66 0 1.32 0 2 0 C8.4 12.24 8.4 12.24 8 19 C7.5 18.01 7.5 18.01 7 17 C-29.96 16.34 -66.92 15.68 -105 15 C-105.33 14.34 -105.66 13.68 -106 13 C-70.69 13.33 -35.38 13.66 1 14 C0.67 9.38 0.34 4.76 0 0 Z "
          fill="#B55B57" transform="translate(177,148)"/>
    <path d="M0 0 C0.49 1.98 0.49 1.98 1 4 C-0.28 4.11 -1.56 4.23 -2.88 4.35 C-8.05 4.92 -12.97 6.11 -18 7.44 C-19.69 7.87 -21.37 8.31 -23.06 8.75 C-23.89 8.96 -24.71 9.17 -25.56 9.39 C-27.89 9.97 -30.23 10.5 -32.57 11 C-37.05 11.98 -41.42 13.22 -45.81 14.5 C-51.96 16.25 -58 17.61 -64.33 18.54 C-67.88 19.15 -71.23 20.18 -74.66 21.27 C-78.07 22.34 -81.53 23.16 -85 24 C-84.3 22.1 -84.3 22.1 -83 20 C-80.86 19.06 -80.86 19.06 -78.19 18.44 C-77.21 18.2 -76.23 17.97 -75.22 17.73 C-74.16 17.49 -73.1 17.25 -72 17 C-70.86 16.72 -69.73 16.44 -68.56 16.15 C-58.95 13.81 -58.95 13.81 -54 14 C-54 13.34 -54 12.68 -54 12 C-53.03 11.82 -52.07 11.64 -51.07 11.45 C-42.29 9.77 -42.29 9.77 -33.69 7.38 C-28.84 5.82 -24.06 5.31 -19 5 C-19 4.34 -19 3.68 -19 3 C-16.4 2.5 -13.79 2 -11.19 1.5 C-10.45 1.36 -9.71 1.21 -8.95 1.07 C-5.92 0.49 -3.09 0 0 0 Z "
          fill="#B0B0B0" transform="translate(194,84)"/>
    <path d="M0 0 C-0.12 1.88 -0.12 1.88 -1 4 C-4.19 5.52 -6.54 6.02 -10.07 5.88 C-15.11 6.03 -19.49 7.29 -24.31 8.69 C-25.76 9.1 -25.76 9.1 -27.24 9.51 C-29.21 10.07 -31.19 10.63 -33.16 11.19 C-35.76 11.93 -38.37 12.66 -40.98 13.37 C-48.9 15.54 -56.77 17.8 -64.59 20.3 C-67 21 -67 21 -69 21 C-69 20.34 -69 19.68 -69 19 C-70.81 19.31 -72.63 19.62 -74.44 19.94 C-75.45 20.11 -76.46 20.29 -77.5 20.46 C-79.93 20.75 -79.93 20.75 -81 22 C-83.67 22.14 -86.32 22.04 -89 22 C-89 21.67 -89 21.34 -89 21 C-81.22 18.96 -73.5 17.03 -65.56 15.69 C-57.58 14.3 -49.87 12.08 -42.09 9.84 C-33.66 7.44 -25.19 5.2 -16.69 3.06 C-15.48 2.76 -14.28 2.45 -13.04 2.13 C-11.92 1.85 -10.79 1.57 -9.64 1.29 C-8.64 1.04 -7.65 0.79 -6.63 0.53 C-4 0 -4 0 0 0 Z "
          fill="#2F711F" transform="translate(204,74)"/>
    <path d="M0 0 C-0.33 1.32 -0.66 2.64 -1 4 C-1.65 3.95 -2.31 3.91 -2.98 3.86 C-9.68 3.59 -14.82 4.67 -21.08 6.99 C-23.82 7.94 -26.4 8.52 -29.25 9 C-33.38 9.73 -36.6 11.09 -40.21 13.2 C-42 14 -42 14 -46 14 C-47.98 14.87 -47.98 14.87 -50 16 C-52.93 17.39 -54.73 18.01 -58 17.94 C-61.06 17.74 -61.06 17.74 -63.38 19.56 C-67.28 21.7 -69.7 20.93 -74 20 C-74.33 19.34 -74.66 18.68 -75 18 C-71.66 16.75 -68.54 15.87 -65 15.5 C-61.43 15.11 -58.4 14.18 -55 13 C-53.19 12.55 -51.38 12.12 -49.56 11.69 C-44.22 10.38 -39.07 8.71 -33.87 6.91 C-27.88 4.89 -21.81 3.36 -15.66 1.89 C-13.16 1.28 -10.68 0.6 -8.21 -0.14 C-4.94 -1.02 -3.2 -0.97 0 0 Z "
          fill="#7F2006" transform="translate(175,112)"/>
    <path d="M0 0 C8 6 8 6 10.1 7.64 C12.01 9.14 12.01 9.14 14.62 9.94 C17 11 17 11 18.31 13.12 C18.65 14.05 18.65 14.05 19 15 C19.66 15 20.32 15 21 15 C26.54 19.86 26.54 19.86 27 24 C27.66 24 28.32 24 29 24 C30.62 26 30.62 26 32 28 C32 27.01 32 26.02 32 25 C32.99 25.33 33.98 25.66 35 26 C35 26.66 35 27.32 35 28 C35.61 28.05 36.23 28.1 36.86 28.15 C39 29 39 29 40.27 31.5 C40.59 32.51 40.92 33.52 41.25 34.56 C41.59 35.57 41.92 36.59 42.27 37.63 C42.51 38.41 42.75 39.19 43 40 C40.13 39.65 38.43 39.39 36.26 37.42 C35.48 36.42 35.48 36.42 34.68 35.41 C31.1 31.06 27.2 27.26 23.06 23.44 C22.4 22.82 21.73 22.2 21.05 21.56 C16.98 17.77 12.83 14.12 8.56 10.56 C7 9 7 9 6 6 C4.35 5.67 2.7 5.34 1 5 C0.67 3.35 0.34 1.7 0 0 Z "
          fill="#411100" transform="translate(59,90)"/>
    <path d="M0 0 C2.69 -0.38 2.69 -0.38 6 0 C7.93 1.98 9.4 3.78 11 6 C12.05 7.28 13.11 8.55 14.19 9.81 C14.68 10.4 15.16 10.98 15.67 11.58 C16.97 13.13 16.97 13.13 19 14 C19 14.99 19 15.98 19 17 C18.34 17 17.68 17 17 17 C17 17.66 17 18.32 17 19 C13.37 18.67 9.74 18.34 6 18 C4.99 15.94 3.99 13.88 3 11.81 C2.44 10.66 1.89 9.52 1.31 8.33 C0.08 5.21 -0.3 3.3 0 0 Z "
          fill="#4C66B6" transform="translate(178,143)"/>
    <path d="M0 0 C-0.33 0.66 -0.66 1.32 -1 2 C-3.07 2.33 -3.07 2.33 -5.84 2.46 C-6.87 2.52 -7.9 2.57 -8.96 2.63 C-10.09 2.69 -11.21 2.75 -12.38 2.81 C-25.55 3.65 -38.21 5.89 -51.14 8.46 C-55.84 9.35 -60.57 9.98 -65.32 10.59 C-67.82 10.97 -70.18 11.52 -72.62 12.19 C-75.9 12.98 -76.94 12.94 -80 12 C-74.49 9.39 -69.17 8.02 -63.19 6.88 C-61.49 6.54 -59.8 6.21 -58.11 5.87 C-57.36 5.72 -56.62 5.58 -55.86 5.43 C-53.92 5.06 -53.92 5.06 -52 4 C-48.46 3.77 -44.93 3.61 -41.38 3.48 C-40.64 3.45 -39.9 3.41 -39.14 3.38 C-38.46 3.35 -37.79 3.33 -37.1 3.3 C-34.9 3.07 -34.9 3.07 -32.6 2 C-29.67 0.87 -27.35 0.69 -24.22 0.59 C-22.58 0.53 -22.58 0.53 -20.92 0.47 C-19.79 0.44 -18.66 0.41 -17.5 0.38 C-16.37 0.34 -15.24 0.3 -14.08 0.26 C-9.39 0.1 -4.7 -0.02 0 0 Z "
          fill="#848484" transform="translate(173,171)"/>
    <path d="M0 0 C1.32 0.33 2.64 0.66 4 1 C4 1.66 4 2.32 4 3 C4.95 3.31 5.9 3.62 6.88 3.94 C10 5 10 5 12 6 C12 7.65 12 9.3 12 11 C8.87 12.86 6.63 13.2 3 13 C3 13.66 3 14.32 3 15 C0.75 15.51 -1.5 16 -3.75 16.5 C-5 16.78 -6.26 17.06 -7.55 17.34 C-11 18 -11 18 -15 18 C-15 18.66 -15 19.32 -15 20 C-16.98 20 -18.96 20 -21 20 C-21 19.34 -21 18.68 -21 18 C-20.12 17.81 -19.24 17.61 -18.33 17.41 C-17.17 17.15 -16.01 16.89 -14.81 16.62 C-13.66 16.37 -12.52 16.11 -11.33 15.85 C-8.06 15.09 -8.06 15.09 -5.26 13.9 C-3 13 -3 13 0 13 C0 12.01 0 11.02 0 10 C-1.07 10.35 -2.15 10.7 -3.25 11.06 C-6.79 11.95 -7.75 12.03 -11 11 C-9.21 10.5 -7.42 10 -5.62 9.5 C-4.63 9.22 -3.63 8.94 -2.6 8.66 C0 8 0 8 2 8 C1.67 7.24 1.34 6.47 1 5.69 C0 3 0 3 0 0 Z "
          fill="#5C7D4D" transform="translate(195,92)"/>
    <path d="M0 0 C-5.36 2.89 -10.74 4.24 -16.75 5.06 C-21.02 5.56 -21.02 5.56 -25 7 C-28.37 7.32 -31.75 7.51 -35.13 7.72 C-37.89 7.68 -37.89 7.68 -39 9 C-41.35 9.07 -43.71 9.08 -46.06 9.06 C-47.35 9.05 -48.64 9.04 -49.97 9.04 C-50.97 9.02 -51.97 9.01 -53 9 C-53 8.01 -53 7.02 -53 6 C-40.53 3.82 -28.03 2.16 -15.44 0.88 C-14.59 0.79 -13.75 0.7 -12.88 0.61 C-8.56 0.18 -4.34 -0.1 0 0 Z "
          fill="#253E92" transform="translate(150,191)"/>
    <path d="M0 0 C4.8 0.61 9.16 0.12 13.94 -0.5 C14.27 0.16 14.6 0.82 14.94 1.5 C17.26 1.91 19.59 2.24 21.94 2.5 C22.27 1.84 22.6 1.18 22.94 0.5 C23.93 1.16 24.92 1.82 25.94 2.5 C22.48 3.46 19.02 4.42 15.56 5.38 C14.6 5.64 13.63 5.91 12.64 6.19 C7.89 7.5 3.14 8.74 -1.66 9.82 C-2.86 10.09 -2.86 10.09 -4.09 10.37 C-4.74 10.41 -5.39 10.46 -6.06 10.5 C-6.72 9.84 -7.38 9.18 -8.06 8.5 C-6.08 7.84 -4.1 7.18 -2.06 6.5 C-3.25 5.08 -3.25 5.08 -6.62 5.44 C-8.33 5.47 -8.33 5.47 -10.06 5.5 C-7.73 4.29 -5.57 3.33 -3.06 2.5 C-4.05 1.84 -5.04 1.18 -6.06 0.5 C-3.06 -0.5 -3.06 -0.5 0 0 Z M-13.06 5.5 C-10.06 6.5 -10.06 6.5 -10.06 6.5 Z "
          fill="#DEDEDD" transform="translate(146.06,104.5)"/>
    <path d="M0 0 C0 0.66 0 1.32 0 2 C0.74 2.12 1.49 2.25 2.25 2.38 C4.8 2.95 6.73 3.74 9 5 C9 5.66 9 6.32 9 7 C10.65 7.33 12.3 7.66 14 8 C12.38 8.69 12.38 8.69 10 9 C6.75 7.56 6.75 7.56 4 6 C4 5.34 4 4.68 4 4 C-3.44 1.14 -9.18 0.79 -17 2 C-18.67 2.22 -18.67 2.22 -20.38 2.45 C-26.69 3.31 -26.69 3.31 -32.83 4.96 C-36.8 6.26 -40.76 6.95 -44.88 7.62 C-45.64 7.76 -46.4 7.89 -47.19 8.03 C-52.19 8.86 -56.93 9.13 -62 9 C-62 8.67 -62 8.34 -62 8 C-55.56 7.5 -55.56 7.5 -49 7 C-49 6.34 -49 5.68 -49 5 C-46.29 4.49 -43.58 3.99 -40.88 3.5 C-40.11 3.36 -39.35 3.21 -38.57 3.07 C-34.32 2.3 -30.34 1.83 -26 2 C-26 1.34 -26 0.68 -26 0 C-6.54 -3.75 -6.54 -3.75 0 0 Z "
          fill="#A9D896" transform="translate(129,28)"/>
    <path d="M0 0 C0.33 0 0.66 0 1 0 C1 2.97 1 5.94 1 9 C1.66 9 2.32 9 3 9 C3.33 8.01 3.66 7.02 4 6 C10.64 2.79 17.71 1.86 25 2 C22.12 3.54 19.32 4.59 16.19 5.5 C14.88 5.88 14.88 5.88 13.55 6.27 C12.71 6.51 11.87 6.75 11 7 C10.27 7.21 9.54 7.42 8.79 7.64 C7.2 8.1 5.6 8.55 4 9 C3.67 12.63 3.34 16.26 3 20 C3.99 20 4.98 20 6 20 C6 20.66 6 21.32 6 22 C3.69 22.66 1.38 23.32 -1 24 C-2.14 19.42 -2.18 15 -2.19 10.31 C-2.2 9.54 -2.21 8.77 -2.22 7.97 C-2.23 5.98 -2.12 3.99 -2 2 C-1.34 1.34 -0.68 0.68 0 0 Z "
          fill="#787778" transform="translate(84,176)"/>
    <path d="M0 0 C-0.56 0.25 -1.11 0.49 -1.69 0.75 C-4.1 1.93 -4.1 1.93 -6.12 3.94 C-11.41 7.73 -17.53 9.23 -24 9 C-24.6 11.76 -25 14.16 -25 17 C-25.33 17.99 -25.66 18.98 -26 20 C-27.65 20.33 -29.3 20.66 -31 21 C-31 17.04 -31 13.08 -31 9 C-9.42 -0.59 -9.42 -0.59 0 0 Z "
          fill="#D1D0D0" transform="translate(135,101)"/>
    <path d="M0 0 C1.49 0.99 1.49 0.99 3 2 C5.19 2.29 5.19 2.29 7.65 2.24 C8.61 2.24 9.56 2.25 10.54 2.25 C11.59 2.24 12.64 2.23 13.71 2.23 C14.82 2.23 15.92 2.23 17.05 2.23 C20.71 2.23 24.36 2.21 28.01 2.2 C30.54 2.19 33.07 2.19 35.6 2.19 C41.58 2.18 47.56 2.16 53.54 2.14 C60.35 2.12 67.16 2.11 73.97 2.1 C87.98 2.08 101.99 2.04 116 2 C116 2.33 116 2.66 116 3 C114.73 3.01 113.45 3.02 112.14 3.02 C100.12 3.1 88.09 3.19 76.07 3.29 C69.89 3.34 63.71 3.38 57.53 3.42 C51.57 3.46 45.6 3.51 39.64 3.56 C37.36 3.58 35.09 3.59 32.82 3.6 C29.63 3.62 26.44 3.65 23.25 3.68 C21.84 3.68 21.84 3.68 20.41 3.69 C15.21 3.75 10.92 4.32 6 6 C4.3 6.56 4.3 6.56 2.56 7.12 C1.72 7.41 0.87 7.7 0 8 C0 5.36 0 2.72 0 0 Z "
          fill="#6B5252" transform="translate(65,140)"/>
    <path d="M0 0 C0.33 0 0.66 0 1 0 C1.33 6.6 1.66 13.2 2 20 C2.99 20 3.98 20 5 20 C5 19.34 5 18.68 5 18 C6.18 18.01 7.37 18.02 8.59 18.04 C16.8 18.09 24.84 18.05 33 17 C29.56 19.3 26.92 19.77 22.88 20.56 C18.61 21.07 18.61 21.07 15 23 C13.01 23.26 11.01 23.52 9.01 23.75 C6.95 24.01 4.99 24.42 3 25 C-1.87 18.14 -2.35 11.1 -1.39 2.97 C-1 1 -1 1 0 0 Z "
          fill="#1E4A04" transform="translate(99,105)"/>
    <path d="M0 0 C4.29 0 8.58 0 13 0 C12.01 0.33 11.02 0.66 10 1 C10.3 4.66 10.7 5.75 13.56 8.19 C14.37 8.79 15.17 9.38 16 10 C16 10.66 16 11.32 16 12 C17.32 12.66 18.64 13.32 20 14 C20 14.66 20 15.32 20 16 C21.98 16.66 23.96 17.32 26 18 C26 18.99 26 19.98 26 21 C26.8 21.12 27.61 21.25 28.44 21.38 C29.71 21.68 29.71 21.68 31 22 C31.33 22.66 31.66 23.32 32 24 C32.99 24.66 33.98 25.32 35 26 C36.67 27.67 38.33 29.33 40 31 C42.3 33.04 44.64 35.02 47 37 C46.01 37.49 46.01 37.49 45 38 C35.29 30.12 35.29 30.12 30.76 26.23 C24.78 21.1 18.74 16.28 12.3 11.71 C10.4 10.29 8.76 8.9 7.12 7.19 C5.05 4.87 5.05 4.87 2.19 3.31 C1.47 2.88 0.74 2.45 0 2 C0 1.34 0 0.68 0 0 Z "
          fill="#58A041" transform="translate(36,43)"/>
    <path d="M0 0 C0.99 0 1.98 0 3 0 C3.24 3.35 3.48 6.7 3.71 10.05 C3.89 12.43 4.07 14.82 4.29 17.2 C5.83 35.09 5.18 53.11 4 71 C3.67 71 3.34 71 3 71 C2.98 69.99 2.96 68.97 2.94 67.93 C2.48 45.24 1.64 22.64 0 0 Z "
          fill="#B13C33" transform="translate(56,88)"/>
    <path d="M0 0 C0 0.33 0 0.66 0 1 C-1.65 1.33 -3.3 1.66 -5 2 C-5.33 2.99 -5.66 3.98 -6 5 C-22.48 8.51 -22.48 8.51 -30 6 C-32.75 6.09 -35.45 6.23 -38.19 6.44 C-39.31 6.52 -39.31 6.52 -40.46 6.6 C-42.31 6.73 -44.15 6.86 -46 7 C-46 6.67 -46 6.34 -46 6 C-44.76 5.81 -43.51 5.61 -42.23 5.41 C-31.53 3.76 -31.53 3.76 -20.88 1.88 C-13.9 0.58 -7.1 -0.15 0 0 Z "
          fill="#D8D8D8" transform="translate(156,184)"/>
    <path d="M0 0 C0.33 0 0.66 0 1 0 C2.47 18.71 3.31 37.22 3 56 C2.34 56 1.68 56 1 56 C-1.2 28.32 -1.2 28.32 -1.19 14.5 C-1.19 13.61 -1.19 12.71 -1.19 11.79 C-1.15 7.74 -1.01 3.95 0 0 Z "
          fill="#8C5F63" transform="translate(56,90)"/>
    <path d="M0 0 C0 0.33 0 0.66 0 1 C-24.03 6.48 -24.03 6.48 -36 6 C-36 6.66 -36 7.32 -36 8 C-51.74 10.3 -51.74 10.3 -59 10 C-59 9.67 -59 9.34 -59 9 C-56.69 9 -54.38 9 -52 9 C-52 8.34 -52 7.68 -52 7 C-50.61 6.8 -50.61 6.8 -49.19 6.6 C-47.4 6.33 -47.4 6.33 -45.56 6.06 C-44.37 5.89 -43.17 5.71 -41.94 5.54 C-39.12 5.31 -39.12 5.31 -38 4 C-34.8 3.71 -31.6 3.55 -28.39 3.38 C-25 3 -22.21 2.14 -19 1 C-12.73 -0.18 -6.36 -0.12 0 0 Z "
          fill="#445278" transform="translate(150,194)"/>
    <path d="M0 0 C0 1.98 0 3.96 0 6 C-0.99 6.33 -1.98 6.66 -3 7 C-3 6.34 -3 5.68 -3 5 C-3.95 5.22 -4.91 5.43 -5.89 5.66 C-7.77 6.07 -7.77 6.07 -9.69 6.5 C-11.55 6.92 -11.55 6.92 -13.45 7.34 C-16.42 7.89 -18.99 8.14 -22 8 C-22 8.66 -22 9.32 -22 10 C-23.65 10 -25.3 10 -27 10 C-23.37 5.05 -20.71 3.41 -14.81 1.88 C-14.16 1.69 -13.52 1.51 -12.85 1.32 C-8.48 0.16 -4.51 -0.18 0 0 Z "
          fill="#8A8C88" transform="translate(197,79)"/>
    <path d="M0 0 C-2.31 3.47 -3.58 3.66 -7.5 4.54 C-9.37 4.88 -11.24 5.17 -13.12 5.43 C-14.73 5.65 -14.73 5.65 -16.38 5.88 C-17.9 6.06 -17.9 6.06 -19.46 6.24 C-22.11 6.75 -22.11 6.75 -23.35 8.88 C-24.15 11.11 -24.15 11.11 -24 14 C-22.02 14.99 -20.04 15.98 -18 17 C-18 17.33 -18 17.66 -18 18 C-20.31 18 -22.62 18 -25 18 C-25 17.34 -25 16.68 -25 16 C-25.99 16 -26.98 16 -28 16 C-28.08 14.56 -28.14 13.13 -28.19 11.69 C-28.22 10.89 -28.26 10.09 -28.29 9.26 C-28 7 -28 7 -26.95 5.31 C-24.06 3.37 -20.94 2.94 -17.56 2.38 C-16.23 2.13 -14.9 1.89 -13.57 1.65 C-11.8 1.33 -11.8 1.33 -10 1 C-8.88 0.71 -8.88 0.71 -7.73 0.42 C-5.15 -0.2 -2.64 -0.06 0 0 Z "
          fill="#B2B2B2" transform="translate(115,180)"/>
    <path d="M0 0 C2.64 0 5.28 0 8 0 C8 2 8 2 6.56 3.5 C6.05 4 5.53 4.49 5 5 C3.65 7.7 3.66 10.12 3.44 13.12 C3.29 15.06 3.15 17 3 19 C7.62 18.67 12.24 18.34 17 18 C13.58 20.28 12.32 20.22 8.31 20.12 C6.82 20.1 6.82 20.1 5.3 20.07 C4.54 20.05 3.78 20.02 3 20 C3 20.66 3 21.32 3 22 C2.01 22 1.02 22 0 22 C-1.18 18.46 -1.15 15.25 -1.12 11.56 C-1.13 10.24 -1.13 8.93 -1.13 7.57 C-1.03 4.8 -0.84 2.61 0 0 Z "
          fill="#7B8374" transform="translate(101,103)"/>
    <path d="M0 0 C19.8 0 39.6 0 60 0 C59.67 0.66 59.34 1.32 59 2 C40.52 1.67 22.04 1.34 3 1 C3.33 3.31 3.66 5.62 4 8 C4.99 8.33 5.98 8.66 7 9 C7 9.66 7 10.32 7 11 C3.98 10.41 0.98 9.77 -2 9 C-2.33 6.69 -2.66 4.38 -3 2 C-2.01 2 -1.02 2 0 2 C0 1.34 0 0.68 0 0 Z "
          fill="#3251AB" transform="translate(85,168)"/>
    <path d="M0 0 C0 0.99 0 1.98 0 3 C-5.1 5.19 -10.2 6.61 -15.62 7.75 C-16.88 8.01 -18.13 8.28 -19.41 8.55 C-24.29 9.16 -28.3 8.18 -33 7 C-8.71 0 -8.71 0 0 0 Z "
          fill="#215D11" transform="translate(195,102)"/>
    <path d="M0 0 C-0.33 0.66 -0.66 1.32 -1 2 C-3.01 2.47 -3.01 2.47 -5.63 2.78 C-7.06 2.96 -7.06 2.96 -8.52 3.14 C-9.52 3.26 -10.53 3.38 -11.56 3.5 C-19.55 4.42 -19.55 4.42 -27.4 6.09 C-30.47 6.87 -32.87 7.22 -36 7.12 C-36.76 7.11 -37.53 7.09 -38.31 7.07 C-39.15 7.04 -39.15 7.04 -40 7 C-37.33 3.39 -33.74 3.06 -29.56 2.38 C-28.85 2.25 -28.14 2.13 -27.4 2 C-18.28 0.46 -9.25 -0.15 0 0 Z "
          fill="#3B4F94" transform="translate(193,184)"/>
    <path d="M0 0 C0 0.66 0 1.32 0 2 C-1.68 2.49 -1.68 2.49 -3.4 2.99 C-4.91 3.43 -6.43 3.87 -7.94 4.31 C-9.1 4.65 -9.1 4.65 -10.3 5 C-14.33 6.19 -18.34 7.42 -22.31 8.81 C-26 10 -26 10 -30 10 C-30 9.34 -30 8.68 -30 8 C-31.32 7.67 -32.64 7.34 -34 7 C-33.67 6.34 -33.34 5.68 -33 5 C-32.01 5.33 -31.02 5.66 -30 6 C-30 5.34 -30 4.68 -30 4 C-29.36 4.01 -28.72 4.02 -28.07 4.04 C-27.24 4.04 -26.41 4.05 -25.56 4.06 C-24.33 4.08 -24.33 4.08 -23.07 4.1 C-21.01 4.23 -21.01 4.23 -20 3 C-18.02 2.77 -16.03 2.54 -14.05 2.32 C-11.86 2.06 -11.86 2.06 -9.44 0.94 C-6.23 -0.3 -3.41 -0.13 0 0 Z "
          fill="#1F6010" transform="translate(135,93)"/>
    <path d="M0 0 C0 0.99 0 1.98 0 3 C-14.74 6.98 -28.8 9.29 -44 7 C-44 6.67 -44 6.34 -44 6 C-43.25 5.96 -42.51 5.91 -41.74 5.86 C-38.33 5.65 -34.91 5.42 -31.5 5.19 C-30.33 5.12 -29.15 5.05 -27.95 4.97 C-21.37 4.51 -16.03 3.67 -10 1 C-6.59 0.13 -3.52 -0.1 0 0 Z "
          fill="#AAABAB" transform="translate(190,168)"/>
    <path d="M0 0 C0.49 1.98 0.49 1.98 1 4 C-0.28 4.11 -1.55 4.23 -2.87 4.34 C-8.09 4.92 -13.05 6.15 -18.12 7.5 C-23.74 8.98 -29.22 10.31 -35 11 C-34.67 10.34 -34.34 9.68 -34 9 C-32.67 8.66 -31.34 8.32 -30 8 C-29.03 7.48 -28.06 6.97 -27.06 6.44 C-24.01 5 -22.31 4.71 -19 5 C-19 4.34 -19 3.68 -19 3 C-16.4 2.5 -13.79 2 -11.19 1.5 C-10.45 1.36 -9.71 1.21 -8.95 1.07 C-5.92 0.49 -3.09 0 0 0 Z "
          fill="#BBBBBB" transform="translate(194,84)"/>
    <path d="M0 0 C0.66 0 1.32 0 2 0 C2.51 1.27 3 2.54 3.5 3.81 C3.78 4.52 4.06 5.23 4.34 5.96 C5 8 5 8 5 11 C5.66 11 6.32 11 7 11 C7.5 13.97 7.5 13.97 8 17 C7.01 17.33 6.02 17.66 5 18 C5 17.01 5 16.02 5 15 C-10.84 15 -26.68 15 -43 15 C-43 14.67 -43 14.34 -43 14 C-27.49 13.67 -11.98 13.34 4 13 C4 12.01 4 11.02 4 10 C3.34 10 2.68 10 2 10 C0.68 6.38 0 3.9 0 0 Z "
          fill="#EA2B21" transform="translate(180,125)"/>
    <path d="M0 0 C-0.33 0.66 -0.66 1.32 -1 2 C-2.67 2.34 -4.33 2.67 -6 3 C-6.66 3.66 -7.32 4.32 -8 5 C-10.21 5.31 -10.21 5.31 -12.81 5.44 C-16.15 5.69 -17.73 5.83 -20.62 7.62 C-24.32 9.76 -26.89 8.89 -31 8 C-31.33 7.34 -31.66 6.68 -32 6 C-28.66 4.75 -25.54 3.87 -22 3.5 C-18.45 3.12 -15.37 2.2 -12 1 C-7.96 -0.04 -4.17 -0.08 0 0 Z "
          fill="#9C1809" transform="translate(132,124)"/>
    <path d="M0 0 C0 0.33 0 0.66 0 1 C-0.74 1.14 -1.47 1.28 -2.23 1.43 C-5.57 2.07 -8.91 2.72 -12.25 3.38 C-13.99 3.71 -13.99 3.71 -15.76 4.05 C-16.88 4.27 -17.99 4.49 -19.14 4.71 C-20.68 5.01 -20.68 5.01 -22.25 5.31 C-24.79 5.95 -26.78 6.63 -29 8 C-29.33 8.66 -29.66 9.32 -30 10 C-30.66 10 -31.32 10 -32 10 C-32 7.03 -32 4.06 -32 1 C-28.54 2.48 -28.54 2.48 -25 4 C-25 3.34 -25 2.68 -25 2 C-16.58 0.48 -8.55 -0.28 0 0 Z "
          fill="#585C69" transform="translate(117,175)"/>
    <path d="M0 0 C-1.65 0.66 -3.3 1.32 -5 2 C-3.35 2 -1.7 2 0 2 C0 2.66 0 3.32 0 4 C-15.44 8.28 -15.44 8.28 -23 8 C-23.66 7.34 -24.32 6.68 -25 6 C-19.56 4.12 -14.08 2.39 -8.56 0.75 C-7.37 0.39 -6.17 0.04 -4.94 -0.33 C-2 -1 -2 -1 0 0 Z "
          fill="#155101" transform="translate(140,116)"/>
    <path d="M0 0 C0 0.33 0 0.66 0 1 C-1.17 1.25 -2.34 1.51 -3.55 1.77 C-8.37 2.82 -13.19 3.9 -18 5 C-19.73 5.39 -19.73 5.39 -21.5 5.79 C-22.93 6.14 -22.93 6.14 -24.38 6.5 C-25.59 6.79 -25.59 6.79 -26.84 7.09 C-29.54 8.22 -31.06 9.84 -33 12 C-33.66 11.67 -34.32 11.34 -35 11 C-34.34 10.01 -33.68 9.02 -33 8 C-32.34 8 -31.68 8 -31 8 C-30.67 6.68 -30.34 5.36 -30 4 C-9.47 -0.77 -9.47 -0.77 0 0 Z "
          fill="#949394" transform="translate(140,97)"/>
    <path d="M0 0 C1.75 0.07 3.5 0.09 5.25 0.06 C6.14 0.05 7.03 0.04 7.95 0.04 C8.63 0.02 9.3 0.01 10 0 C10 0.99 10 1.98 10 3 C7.61 3.36 5.21 3.72 2.81 4.06 C2.14 4.17 1.47 4.27 0.77 4.38 C-3.08 4.92 -6.24 5.04 -10 4 C-9.67 3.34 -9.34 2.68 -9 2 C-17.41 2.5 -17.41 2.5 -26 3 C-26 2.67 -26 2.34 -26 2 C-7.97 -2.11 -7.97 -2.11 0 0 Z "
          fill="#394D86" transform="translate(155,190)"/>
    <path d="M0 0 C0.75 0 1.51 0.01 2.29 0.01 C4.15 0.03 6.01 0.04 7.88 0.06 C7.54 1.05 7.21 2.04 6.88 3.06 C5.55 3.06 4.24 3.06 2.88 3.06 C2.88 3.72 2.88 4.38 2.88 5.06 C-1.75 5.39 -6.37 5.72 -11.12 6.06 C-11.46 5.07 -11.79 4.08 -12.12 3.06 C-11.46 3.06 -10.8 3.06 -10.12 3.06 C-10.12 2.4 -10.12 1.74 -10.12 1.06 C-6.94 -0.53 -3.5 -0.04 0 0 Z "
          fill="#2B3A6F" transform="translate(95.12,197.94)"/>
    <path d="M0 0 C0.33 0 0.66 0 1 0 C1.71 4.25 2.43 8.51 3.14 12.76 C3.38 14.21 3.62 15.66 3.86 17.11 C4.21 19.18 4.56 21.26 4.91 23.34 C5.12 24.59 5.33 25.84 5.54 27.13 C6 30 6 30 6 31 C4.35 31 2.7 31 1 31 C0.67 20.77 0.34 10.54 0 0 Z "
          fill="#D53023" transform="translate(60,107)"/>
    <path d="M0 0 C0.99 0.33 1.98 0.66 3 1 C3 1.66 3 2.32 3 3 C3.61 3.05 4.23 3.1 4.86 3.15 C7 4 7 4 8.27 6.5 C8.59 7.51 8.92 8.52 9.25 9.56 C9.59 10.57 9.92 11.59 10.27 12.63 C10.63 13.8 10.63 13.8 11 15 C5.67 14.36 3.65 12.14 0.32 8.14 C-1 6 -1 6 -0.94 2.5 C-0.63 1.68 -0.32 0.85 0 0 Z "
          fill="#302900" transform="translate(91,115)"/>
    <path d="M0 0 C-2.83 1.55 -5.32 2.38 -8.5 2.94 C-13.53 3.86 -18.41 5.14 -23.34 6.51 C-26 7 -27.48 6.89 -30 6 C-29.34 5.67 -28.68 5.34 -28 5 C-28.33 4.34 -28.66 3.68 -29 3 C-24.92 2.3 -20.83 1.62 -16.75 0.94 C-15.59 0.74 -14.43 0.54 -13.24 0.33 C-12.12 0.15 -11.01 -0.03 -9.86 -0.22 C-8.83 -0.4 -7.81 -0.57 -6.75 -0.75 C-4.15 -0.99 -2.45 -0.82 0 0 Z "
          fill="#5C6170" transform="translate(139,171)"/>
    <path d="M0 0 C2.38 0.25 2.38 0.25 5 1 C6.31 3.06 6.31 3.06 7 5 C6.01 5 5.02 5 4 5 C4.17 6.03 4.33 7.06 4.5 8.12 C5.3 14.39 5.08 20.7 5 27 C4.67 27 4.34 27 4 27 C3.33 23.25 2.66 19.5 2 15.75 C1.81 14.69 1.62 13.62 1.42 12.53 C1.24 11.5 1.06 10.48 0.88 9.42 C0.71 8.48 0.54 7.54 0.37 6.57 C0 4 0 4 0 0 Z "
          fill="#880D03" transform="translate(60,95)"/>
    <path d="M0 0 C1.32 0.33 2.64 0.66 4 1 C4 1.66 4 2.32 4 3 C4.95 3.31 5.9 3.62 6.88 3.94 C10 5 10 5 12 6 C12 7.65 12 9.3 12 11 C11.34 11 10.68 11 10 11 C10 10.01 10 9.02 10 8 C9.28 8.35 8.56 8.7 7.81 9.06 C4.69 10.1 3.12 9.89 0 9 C0.66 8.67 1.32 8.34 2 8 C1.67 7.24 1.34 6.47 1 5.69 C0 3 0 3 0 0 Z "
          fill="#6B9856" transform="translate(195,92)"/>
    <path d="M0 0 C0 0.66 0 1.32 0 2 C-1.98 2.99 -1.98 2.99 -4 4 C-1.03 4.5 -1.03 4.5 2 5 C-1.69 7.46 -4.7 8.01 -9 9 C-9 8.34 -9 7.68 -9 7 C-9.99 6.67 -10.98 6.34 -12 6 C-11.67 5.34 -11.34 4.68 -11 4 C-11.66 3.67 -12.32 3.34 -13 3 C-11.59 2.49 -10.17 1.99 -8.75 1.5 C-7.96 1.22 -7.17 0.94 -6.36 0.66 C-4 0 -4 0 0 0 Z "
          fill="#DFDFDE" transform="translate(131,111)"/>
    <path d="M0 0 C2.64 0.66 5.28 1.32 8 2 C8 2.99 8 3.98 8 5 C9.32 5 10.64 5 12 5 C12 5.99 12 6.98 12 8 C13.32 8 14.64 8 16 8 C16 8.66 16 9.32 16 10 C17.32 10.66 18.64 11.32 20 12 C20 12.66 20 13.32 20 14 C13.19 12.58 8.27 9.31 3.39 4.37 C2.03 2.88 2.03 2.88 0 2 C0 1.34 0 0.68 0 0 Z "
          fill="#4D9836" transform="translate(90,83)"/>
    <path d="M0 0 C0.81 2.85 1.12 5.37 1.1 8.33 C1.09 9.53 1.09 9.53 1.09 10.75 C1.08 11.57 1.07 12.4 1.06 13.25 C1.06 14.09 1.05 14.93 1.05 15.8 C1.04 17.86 1.02 19.93 1 22 C1.76 21.65 2.53 21.3 3.31 20.94 C6 20 6 20 9 21 C8.34 21.66 7.68 22.32 7 23 C7.66 23.66 8.32 24.32 9 25 C2.74 26.44 2.74 26.44 -0.25 24.65 C-2.98 20.52 -2.22 16.67 -1.81 11.88 C-1.76 10.96 -1.7 10.04 -1.64 9.09 C-1.18 2.36 -1.18 2.36 0 0 Z "
          fill="#93312A" transform="translate(62,140)"/>
    <path d="M0 0 C-5.57 3 -10.89 4.29 -17.19 4.75 C-18.4 4.85 -19.61 4.95 -20.86 5.05 C-24 5 -24 5 -27 3 C-25.46 1.46 -23.88 1.68 -21.74 1.46 C-20.43 1.33 -20.43 1.33 -19.1 1.2 C-18.18 1.11 -17.26 1.03 -16.31 0.94 C-15.41 0.85 -14.51 0.76 -13.59 0.66 C-9.04 0.22 -4.58 -0.11 0 0 Z "
          fill="#1F3890" transform="translate(150,191)"/>
    <path d="M0 0 C-0.33 0.99 -0.66 1.98 -1 3 C-6.38 4.19 -11.45 5.29 -17 5 C-17 4.67 -17 4.34 -17 4 C-18.65 3.67 -20.3 3.34 -22 3 C-22 2.67 -22 2.34 -22 2 C-14.59 0.72 -7.53 -0.26 0 0 Z "
          fill="#D0D0CF" transform="translate(135,189)"/>
    <path d="M0 0 C1.32 0.33 2.64 0.66 4 1 C4 1.66 4 2.32 4 3 C6.47 3.99 6.47 3.99 9 5 C9 5.66 9 6.32 9 7 C9.76 7.27 10.53 7.54 11.31 7.81 C13.96 8.98 15.01 10.01 17 12 C21.04 14.13 24.48 14.18 29 14 C28.67 14.66 28.34 15.32 28 16 C21.25 16.12 21.25 16.12 19 15 C18.67 15.66 18.34 16.32 18 17 C18 16.01 18 15.02 18 14 C17.32 13.78 16.63 13.57 15.93 13.35 C12.13 11.6 9.32 9.17 6.19 6.44 C5.29 5.68 5.29 5.68 4.38 4.9 C2.89 3.63 1.44 2.32 0 1 C0 0.67 0 0.34 0 0 Z "
          fill="#34831F" transform="translate(86,82)"/>
    <path d="M0 0 C-0.12 1.88 -0.12 1.88 -1 4 C-5.68 6.29 -9.91 6.33 -15 6 C-17.24 4.98 -17.24 4.98 -19 4 C-16.58 3.33 -14.17 2.66 -11.75 2 C-11.07 1.81 -10.39 1.62 -9.68 1.42 C-6.29 0.5 -3.54 0 0 0 Z "
          fill="#417A33" transform="translate(204,74)"/>
    <path d="M0 0 C-0.33 0.66 -0.66 1.32 -1 2 C-4.25 3 -7.65 3.44 -11 4 C-12.08 4.19 -13.16 4.38 -14.27 4.57 C-20.26 5.56 -25.93 6.24 -32 6 C-32 5.67 -32 5.34 -32 5 C-25.57 4.5 -25.57 4.5 -19 4 C-19 3.34 -19 2.68 -19 2 C-12.57 0.68 -6.57 -0.25 0 0 Z "
          fill="#9DCB8B" transform="translate(99,31)"/>
    <path d="M0 0 C3.84 1.56 6.14 4.06 9 7 C10.31 8.03 11.64 9.04 13 10 C12.67 10.66 12.34 11.32 12 12 C10.68 11.34 9.36 10.68 8 10 C8 9.34 8 8.68 8 8 C7.01 8 6.02 8 5 8 C5.02 9.05 5.04 10.1 5.06 11.19 C5.01 14.33 4.73 16.97 4 20 C3.67 20 3.34 20 3 20 C2.93 18.34 2.93 18.34 2.85 16.64 C2.78 15.18 2.7 13.71 2.62 12.25 C2.59 11.52 2.56 10.79 2.53 10.04 C2.33 6.26 2.08 3.22 0 0 Z "
          fill="#726961" transform="translate(51,80)"/>
    <path d="M0 0 C4.29 0 8.58 0 13 0 C12.01 0.33 11.02 0.66 10 1 C10.57 4.93 10.57 4.93 13 8 C12.67 8.99 12.34 9.98 12 11 C11.47 10.52 10.94 10.04 10.39 9.54 C9.68 8.91 8.98 8.28 8.25 7.62 C7.21 6.69 7.21 6.69 6.14 5.73 C4.15 4.12 2.32 3.03 0 2 C0 1.34 0 0.68 0 0 Z "
          fill="#6DA859" transform="translate(36,43)"/>
    <path d="M0 0 C0 1.98 0 3.96 0 6 C-0.99 6.33 -1.98 6.66 -3 7 C-3 6.34 -3 5.68 -3 5 C-4.65 5.33 -6.3 5.66 -8 6 C-7.67 5.01 -7.34 4.02 -7 3 C-10.3 3.33 -13.6 3.66 -17 4 C-11.6 0.4 -6.4 -0.26 0 0 Z "
          fill="#888B87" transform="translate(197,79)"/>
    <path d="M0 0 C-0.33 0.66 -0.66 1.32 -1 2 C-3.04 2.5 -3.04 2.5 -5.7 2.85 C-6.66 2.98 -7.62 3.11 -8.62 3.24 C-9.63 3.37 -10.64 3.49 -11.69 3.62 C-13.18 3.83 -13.18 3.83 -14.7 4.03 C-19.49 4.66 -24.15 5.18 -29 5 C-25.1 2.4 -21.53 2.85 -17 3 C-17 2.34 -17 1.68 -17 1 C-11.28 0.17 -5.78 -0.12 0 0 Z "
          fill="#193085" transform="translate(193,184)"/>
    <path d="M0 0 C0.33 0 0.66 0 1 0 C1 3.63 1 7.26 1 11 C-0.98 10.34 -2.96 9.68 -5 9 C-5.33 15.6 -5.66 22.2 -6 29 C-6.33 29 -6.66 29 -7 29 C-7.03 25.71 -7.05 22.42 -7.06 19.12 C-7.08 17.72 -7.08 17.72 -7.09 16.29 C-7.09 15.39 -7.09 14.49 -7.1 13.57 C-7.1 12.74 -7.11 11.92 -7.11 11.06 C-7 9 -7 9 -6 7 C-3.94 6.38 -3.94 6.38 -2 6 C-1.86 5.2 -1.71 4.39 -1.56 3.56 C-1 1 -1 1 0 0 Z "
          fill="#B62217" transform="translate(67,131)"/>
    <path d="M0 0 C2.64 0 5.28 0 8 0 C8 0.66 8 1.32 8 2 C7.01 2.5 7.01 2.5 6 3 C5.67 10.26 5.34 17.52 5 25 C4.67 25 4.34 25 4 25 C3.94 23.77 3.88 22.54 3.82 21.27 C3.73 19.64 3.65 18.01 3.56 16.38 C3.52 15.57 3.48 14.76 3.44 13.93 C3.11 7.41 3.11 7.41 2 1 C1.34 0.67 0.68 0.34 0 0 Z "
          fill="#263A7F" transform="translate(77,168)"/>
    <path d="M0 0 C-3.66 3.66 -9.36 4.79 -14.44 5.19 C-16.29 5.19 -18.15 5.1 -20 5 C-20.33 4.34 -20.66 3.68 -21 3 C-16.55 2.5 -16.55 2.5 -12 2 C-12 1.34 -12 0.68 -12 0 C-7.67 -0.93 -4.33 -0.93 0 0 Z "
          fill="#125603" transform="translate(172,110)"/>
    <path d="M0 0 C5.46 1.77 9.39 4.9 12.88 9.44 C14.2 12.46 14.23 14.73 14 18 C13.34 18 12.68 18 12 18 C11.72 16.45 11.72 16.45 11.44 14.88 C10.29 10.74 8 8.99 4.69 6.42 C2.51 4.59 1.26 2.53 0 0 Z "
          fill="#839076" transform="translate(40,72)"/>
    <path d="M0 0 C0.66 0.66 1.32 1.32 2 2 C-0.81 2.47 -0.81 2.47 -3.62 2.94 C-5.19 3.2 -5.19 3.2 -6.79 3.46 C-11.39 4.23 -11.39 4.23 -16 5 C-15.67 3.68 -15.34 2.36 -15 1 C-13.25 0.64 -11.5 0.28 -9.75 -0.06 C-8.29 -0.36 -8.29 -0.36 -6.8 -0.66 C-4.09 -0.99 -2.52 -0.97 0 0 Z "
          fill="#C5C5C5" transform="translate(186,173)"/>
    <path d="M0 0 C1.89 0.03 1.89 0.03 3.81 0.06 C-3.06 4.64 -12.19 6.18 -20.19 8.06 C-19.53 6.17 -19.53 6.17 -18.19 4.06 C-15.69 3.05 -15.69 3.05 -12.75 2.38 C-11.78 2.14 -10.81 1.91 -9.82 1.68 C-8.95 1.47 -8.08 1.27 -7.19 1.06 C-4.44 0.15 -2.83 -0.05 0 0 Z "
          fill="#AAA9A9" transform="translate(129.19,99.94)"/>
    <path d="M0 0 C-0.7 0.27 -1.4 0.53 -2.12 0.8 C-3.03 1.16 -3.94 1.51 -4.88 1.88 C-5.78 2.22 -6.68 2.57 -7.62 2.93 C-10.12 3.89 -10.12 3.89 -12 6 C-14.36 6.38 -14.36 6.38 -17.19 6.56 C-21.5 6.88 -25.73 7.34 -30 8 C-26.63 5.75 -23.86 5.06 -19.94 4.06 C-14.52 2.68 -9.17 1.17 -3.86 -0.58 C-2 -1 -2 -1 0 0 Z "
          fill="#767C71" transform="translate(152,91)"/>
    <path d="M0 0 C-0.99 1.49 -0.99 1.49 -2 3 C-2.66 3 -3.32 3 -4 3 C-4 3.66 -4 4.32 -4 5 C-6.31 5.33 -8.62 5.66 -11 6 C-11.33 5.34 -11.66 4.68 -12 4 C-14.31 4.33 -16.62 4.66 -19 5 C-13.42 1.28 -6.72 -0.53 0 0 Z "
          fill="#868984" transform="translate(174,85)"/>
    <path d="M0 0 C4.95 0 9.9 0 15 0 C15 0.33 15 0.66 15 1 C12.36 1.66 9.72 2.32 7 3 C8.32 3.66 9.64 4.32 11 5 C10.67 5.66 10.34 6.32 10 7 C7.03 7 4.06 7 1 7 C0.67 4.69 0.34 2.38 0 0 Z "
          fill="#CCCCCE" transform="translate(90,190)"/>
    <path d="M0 0 C-2.62 3.32 -5.4 3.85 -9.44 4.75 C-11.14 5.14 -11.14 5.14 -12.87 5.55 C-15.73 5.96 -17.33 5.97 -20 5 C-19.01 4.34 -18.02 3.68 -17 3 C-16.67 2.34 -16.34 1.68 -16 1 C-10.8 -0.18 -5.3 -0.11 0 0 Z "
          fill="#CECECE" transform="translate(167,184)"/>
    <path d="M0 0 C0.99 0.33 1.98 0.66 3 1 C1.68 1.99 0.36 2.98 -1 4 C-0.01 5.49 -0.01 5.49 1 7 C1 7.99 1 8.98 1 10 C2.98 10.99 4.96 11.98 7 13 C7 13.33 7 13.66 7 14 C4.69 14 2.38 14 0 14 C0 13.34 0 12.68 0 12 C-0.99 12 -1.98 12 -3 12 C-3.08 10.56 -3.14 9.13 -3.19 7.69 C-3.22 6.89 -3.26 6.09 -3.29 5.26 C-2.94 2.52 -2.11 1.71 0 0 Z "
          fill="#AAABB1" transform="translate(90,184)"/>
    <path d="M0 0 C0 2.97 0 5.94 0 9 C4.62 8.67 9.24 8.34 14 8 C10.58 10.28 9.32 10.22 5.31 10.12 C3.82 10.1 3.82 10.1 2.3 10.07 C1.54 10.05 0.78 10.02 0 10 C0 10.66 0 11.32 0 12 C-0.99 12 -1.98 12 -3 12 C-3 8.37 -3 4.74 -3 1 C-1 0 -1 0 0 0 Z "
          fill="#8A9787" transform="translate(104,113)"/>
    <path d="M0 0 C1.63 0.15 1.63 0.15 3.29 0.31 C4.54 0.43 4.54 0.43 5.81 0.56 C2.4 2.84 0.16 3.13 -3.88 3.69 C-5.05 3.86 -6.23 4.02 -7.45 4.2 C-8.35 4.32 -9.26 4.44 -10.19 4.56 C-9.88 2.62 -9.88 2.62 -9.19 0.56 C-5.76 -0.58 -3.58 -0.35 0 0 Z "
          fill="#C8C8C8" transform="translate(102.19,185.44)"/>
    <path d="M0 0 C0 0.66 0 1.32 0 2 C-8.27 3.79 -16.69 3.25 -25 2 C-25 1.67 -25 1.34 -25 1 C-16.65 0.38 -8.38 -0.18 0 0 Z "
          fill="#979797" transform="translate(171,173)"/>
    <path d="M0 0 C0.66 0.33 1.32 0.66 2 1 C2.31 2.15 2.62 3.31 2.94 4.5 C3.29 5.66 3.64 6.81 4 8 C4.99 8.33 5.98 8.66 7 9 C7 9.66 7 10.32 7 11 C3.98 10.41 0.98 9.77 -2 9 C-2.33 6.69 -2.66 4.38 -3 2 C-2.01 2 -1.02 2 0 2 C0 1.34 0 0.68 0 0 Z "
          fill="#2D459C" transform="translate(85,168)"/>
    <path d="M0 0 C0.99 0.49 0.99 0.49 2 1 C3.3 5.29 3.08 9.57 3 14 C6.3 14 9.6 14 13 14 C13 14.33 13 14.66 13 15 C7.06 15.49 7.06 15.49 1 16 C0.08 12.31 -0.1 9.52 -0.06 5.75 C-0.05 4.13 -0.05 4.13 -0.04 2.48 C-0.02 1.66 -0.01 0.84 0 0 Z "
          fill="#D7291C" transform="translate(67,124)"/>
    <path d="M0 0 C3 1 3 1 5 4 C4.44 9.56 4.44 9.56 3 11 C1 11.04 -1 11.04 -3 11 C-3 10.67 -3 10.34 -3 10 C-1.35 10 0.3 10 2 10 C2 9.34 2 8.68 2 8 C0.35 7.67 -1.3 7.34 -3 7 C-2.34 6.34 -1.68 5.68 -1 5 C-0.35 2.43 -0.35 2.43 0 0 Z "
          fill="#53659D" transform="translate(190,177)"/>
    <path d="M0 0 C-0.99 0.33 -1.98 0.66 -3 1 C-1.35 1.33 0.3 1.66 2 2 C-2.08 4.72 -5.27 5.21 -10.12 4.62 C-12.43 4.12 -14.71 3.58 -17 3 C-14.92 2.3 -12.84 1.62 -10.75 0.94 C-9.59 0.55 -8.43 0.17 -7.23 -0.22 C-4.2 -0.95 -2.84 -1.12 0 0 Z "
          fill="#386A2B" transform="translate(179,106)"/>
    <path d="M0 0 C12.59 9.09 12.59 9.09 15 15 C11.18 13.44 8.74 11.04 6 8 C6 7.34 6 6.68 6 6 C4.35 5.67 2.7 5.34 1 5 C0.67 3.35 0.34 1.7 0 0 Z "
          fill="#460B03" transform="translate(59,90)"/>
    <path d="M0 0 C3.96 0.61 6.55 2.6 9.75 4.94 C10.73 5.65 11.72 6.36 12.73 7.09 C13.48 7.72 14.23 8.35 15 9 C15 9.66 15 10.32 15 11 C16.65 11.66 18.3 12.32 20 13 C19.01 13.49 19.01 13.49 18 14 C13.2 12.03 9.52 9.21 5.62 5.88 C4.81 5.19 4.81 5.19 3.97 4.5 C2.63 3.36 1.31 2.18 0 1 C0 0.67 0 0.34 0 0 Z "
          fill="#499432" transform="translate(70,69)"/>
    <path d="M0 0 C0 0.66 0 1.32 0 2 C-3.03 2.68 -3.03 2.68 -6.05 3.37 C-8.21 3.9 -8.21 3.9 -10 6 C-12.16 6.2 -12.16 6.2 -14.62 6.12 C-15.44 6.11 -16.26 6.09 -17.1 6.07 C-17.73 6.05 -18.35 6.02 -19 6 C-15.81 3.26 -13.01 2.27 -8.94 1.31 C-7.89 1.06 -6.85 0.81 -5.78 0.55 C-3 0 -3 0 0 0 Z "
          fill="#2E6421" transform="translate(160,110)"/>
    <path d="M0 0 C-1.65 0.66 -3.3 1.32 -5 2 C-3.35 2 -1.7 2 0 2 C0 2.66 0 3.32 0 4 C-2.1 4.22 -4.21 4.43 -6.31 4.62 C-7.48 4.74 -8.66 4.86 -9.86 4.98 C-13 5 -13 5 -16 3 C-13.71 2.3 -11.42 1.62 -9.12 0.94 C-8.47 0.74 -7.82 0.54 -7.15 0.33 C-2.23 -1.11 -2.23 -1.11 0 0 Z "
          fill="#346C28" transform="translate(140,116)"/>
    <path d="M0 0 C0.99 0.33 1.98 0.66 3 1 C3 1.66 3 2.32 3 3 C4.32 3.66 5.64 4.32 7 5 C7 5.66 7 6.32 7 7 C8.98 7.66 10.96 8.32 13 9 C13 9.99 13 10.98 13 12 C13.99 12 14.98 12 16 12 C16.33 12.99 16.66 13.98 17 15 C12.71 13.59 10.08 11.52 6.81 8.44 C3.66 5.36 3.66 5.36 0 3 C0 2.01 0 1.02 0 0 Z "
          fill="#60A44A" transform="translate(49,52)"/>
    <path d="M0 0 C0.99 0 1.98 0 3 0 C3 10.56 3 21.12 3 32 C2.67 32 2.34 32 2 32 C1.34 21.44 0.68 10.88 0 0 Z "
          fill="#9A423B" transform="translate(56,88)"/>
    <path d="M0 0 C1.49 0.99 1.49 0.99 3 2 C5.06 2.24 5.06 2.24 7.19 2.12 C8.45 2.08 9.7 2.04 11 2 C9.4 5.21 6.2 5.63 3 7 C2.67 7.66 2.34 8.32 2 9 C1.34 9 0.68 9 0 9 C0 6.03 0 3.06 0 0 Z "
          fill="#454548" transform="translate(85,176)"/>
    <path d="M0 0 C0.33 0 0.66 0 1 0 C1.33 3.96 1.66 7.92 2 12 C1.01 12.49 1.01 12.49 0 13 C-0.66 16.03 -0.66 16.03 -1 19 C-1.33 19 -1.66 19 -2 19 C-2.05 16.21 -2.09 13.42 -2.12 10.62 C-2.14 9.83 -2.16 9.04 -2.18 8.22 C-2.19 6.15 -2.1 4.07 -2 2 C-1.34 1.34 -0.68 0.68 0 0 Z "
          fill="#636672" transform="translate(84,176)"/>
    <path d="M0 0 C0 0.66 0 1.32 0 2 C-6.43 3.32 -12.43 4.25 -19 4 C-19 3.67 -19 3.34 -19 3 C-16.69 3 -14.38 3 -12 3 C-12 2.34 -12 1.68 -12 1 C-8.02 -0.33 -4.15 -0.07 0 0 Z "
          fill="#475374" transform="translate(110,200)"/>
    <path d="M0 0 C2.64 0 5.28 0 8 0 C7.25 4.75 7.25 4.75 5 7 C5 6.34 5 5.68 5 5 C3.68 5 2.36 5 1 5 C0.67 3.35 0.34 1.7 0 0 Z "
          fill="#525561" transform="translate(184,161)"/>
    <path d="M0 0 C0.99 0.49 0.99 0.49 2 1 C2.63 3.94 2.63 3.94 3.12 7.56 C3.29 8.76 3.46 9.96 3.63 11.19 C3.75 12.12 3.88 13.05 4 14 C2.68 14 1.36 14 0 14 C0 9.38 0 4.76 0 0 Z "
          fill="#E53426" transform="translate(62,124)"/>
    <path d="M0 0 C4.62 0 9.24 0 14 0 C13.67 0.99 13.34 1.98 13 3 C8.38 3 3.76 3 -1 3 C-0.67 2.01 -0.34 1.02 0 0 Z "
          fill="#203788" transform="translate(89,198)"/>
    <path d="M0 0 C5.61 0 11.22 0 17 0 C17 0.33 17 0.66 17 1 C11.92 1.85 7.15 2.09 2 2 C2 2.66 2 3.32 2 4 C0.68 4 -0.64 4 -2 4 C-1.34 2.68 -0.68 1.36 0 0 Z "
          fill="#446383" transform="translate(112,198)"/>
    <path d="M0 0 C0.66 0 1.32 0 2 0 C2.51 1.27 3 2.54 3.5 3.81 C3.92 4.87 3.92 4.87 4.34 5.96 C5 8 5 8 5 11 C5.66 11 6.32 11 7 11 C7.33 12.32 7.66 13.64 8 15 C6.68 14.34 5.36 13.68 4 13 C4 12.01 4 11.02 4 10 C3.34 10 2.68 10 2 10 C0.68 6.38 0 3.9 0 0 Z "
          fill="#DF7168" transform="translate(180,125)"/>
    <path d="M0 0 C1.49 0.99 1.49 0.99 3 2 C5.51 2.46 5.51 2.46 8.19 2.62 C9.09 2.7 9.99 2.77 10.92 2.85 C11.61 2.9 12.29 2.95 13 3 C13 3.33 13 3.66 13 4 C11.45 4.43 11.45 4.43 9.88 4.88 C6.55 5.82 3.27 6.88 0 8 C0 5.36 0 2.72 0 0 Z "
          fill="#565150" transform="translate(65,140)"/>
    <path d="M0 0 C0.66 0.33 1.32 0.66 2 1 C1.55 2.98 1.09 4.96 0.62 6.94 C0.37 8.04 0.11 9.14 -0.15 10.28 C-0.43 11.18 -0.71 12.07 -1 13 C-1.99 13.49 -1.99 13.49 -3 14 C-3.08 12.04 -3.14 10.08 -3.19 8.12 C-3.22 7.03 -3.26 5.94 -3.29 4.82 C-3.2 3.89 -3.1 2.96 -3 2 C-2.01 1.34 -1.02 0.68 0 0 Z "
          fill="#B8B7B7" transform="translate(107,108)"/>
    <path d="M0 0 C2.38 0.25 2.38 0.25 5 1 C6.31 3.06 6.31 3.06 7 5 C7.66 5 8.32 5 9 5 C9.66 6.32 10.32 7.64 11 9 C6.66 8.5 4.1 5.89 1 3 C0.67 2.01 0.34 1.02 0 0 Z "
          fill="#382602" transform="translate(71,100)"/>
    <path d="M0 0 C0.99 0.33 1.98 0.66 3 1 C3 4.82 2.71 6.68 1 10 C0.01 10.33 -0.98 10.66 -2 11 C-3.14 7.59 -2.87 7 -1.56 3.81 C-1.13 2.74 -1.13 2.74 -0.69 1.64 C-0.46 1.1 -0.24 0.56 0 0 Z "
          fill="#DAD9D9" transform="translate(108,111)"/>
    <path d="M0 0 C0 0.33 0 0.66 0 1 C-6.6 2.32 -13.2 3.64 -20 5 C-17.86 1.79 -16.84 1.27 -13.22 0.34 C-8.84 -0.33 -4.42 -0.14 0 0 Z "
          fill="#959395" transform="translate(140,97)"/>
    <path d="M0 0 C0.33 0.99 0.66 1.98 1 3 C-4.42 6.08 -4.42 6.08 -7.38 5.69 C-7.91 5.46 -8.45 5.23 -9 5 C-8.34 4.67 -7.68 4.34 -7 4 C-8.32 3.34 -9.64 2.68 -11 2 C-5.55 1.01 -5.55 1.01 0 0 Z "
          fill="#BBBDC5" transform="translate(189,179)"/>
    <path d="M0 0 C-3.28 1.89 -6.28 2.45 -10 3 C-10.99 3.33 -11.98 3.66 -13 4 C-15.01 3.72 -17.01 3.4 -19 3 C-13.48 -0.68 -6.48 -0.14 0 0 Z "
          fill="#D1D1D1" transform="translate(121,183)"/>
    <path d="M0 0 C0.33 1.32 0.66 2.64 1 4 C2.98 4.5 2.98 4.5 5 5 C4.34 5 3.68 5 3 5 C3 8.3 3 11.6 3 15 C2.01 15.49 2.01 15.49 1 16 C-0.07 12.54 -0.1 9.36 -0.06 5.75 C-0.05 4.13 -0.05 4.13 -0.04 2.48 C-0.02 1.66 -0.01 0.84 0 0 Z "
          fill="#90918F" transform="translate(63,145)"/>
    <path d="M0 0 C0.66 0.33 1.32 0.66 2 1 C1.67 1.99 1.34 2.98 1 4 C0.34 4 -0.32 4 -1 4 C-1 5.98 -1 7.96 -1 10 C-0.01 10.33 0.98 10.66 2 11 C0.35 11.33 -1.3 11.66 -3 12 C-3.12 4.38 -3.12 4.38 -2 1 C-1.34 0.67 -0.68 0.34 0 0 Z "
          fill="#A3A3A3" transform="translate(68,149)"/>
    <path d="M0 0 C1.98 0 3.96 0 6 0 C6.99 2.97 7.98 5.94 9 9 C7 9 7 9 5.27 7.29 C4.65 6.55 4.02 5.82 3.38 5.06 C2.74 4.33 2.11 3.6 1.46 2.85 C0 1 0 1 0 0 Z "
          fill="#471100" transform="translate(90,120)"/>
    <path d="M0 0 C1.94 0.81 1.94 0.81 4 2 C4.33 2.99 4.66 3.98 5 5 C5.99 5 6.98 5 8 5 C8 5.66 8 6.32 8 7 C8.66 7 9.32 7 10 7 C9.67 7.66 9.34 8.32 9 9 C5.73 8.13 3.51 7.53 1.12 5.06 C0 3 0 3 0 0 Z "
          fill="#6A835A" transform="translate(35,65)"/>
    <path d="M0 0 C0.33 0 0.66 0 1 0 C1 1.65 1 3.3 1 5 C1.66 5.33 2.32 5.66 3 6 C2.34 6 1.68 6 1 6 C2.26 8.51 3.5 8.87 6 10 C4.02 10 2.04 10 0 10 C-0.29 9.2 -0.58 8.39 -0.88 7.56 C-1.73 4.87 -1.73 4.87 -4 4 C-3.01 3.67 -2.02 3.34 -1 3 C-0.67 2.01 -0.34 1.02 0 0 Z "
          fill="#353F69" transform="translate(82,195)"/>
    <path d="M0 0 C-3.28 2.19 -4.83 2.35 -8.69 2.62 C-10.18 2.74 -10.18 2.74 -11.7 2.85 C-12.84 2.93 -12.84 2.93 -14 3 C-9.48 -1.82 -6.01 -1.21 0 0 Z "
          fill="#BFBFBF" transform="translate(124,181)"/>
    <path d="M0 0 C3.91 0.56 5.9 2.42 8.75 5.06 C9.55 5.8 10.35 6.53 11.17 7.29 C11.78 7.85 12.38 8.42 13 9 C9.2 9 7.89 7.8 4.81 5.62 C3.91 5 3.01 4.37 2.08 3.73 C1.39 3.16 0.71 2.59 0 2 C0 1.34 0 0.68 0 0 Z "
          fill="#880C02" transform="translate(76,110)"/>
    <path d="M0 0 C2.64 0 5.28 0 8 0 C8 2 8 2 6.12 4.12 C4 6 4 6 2 6 C2 5.34 2 4.68 2 4 C1.34 4 0.68 4 0 4 C0 2.68 0 1.36 0 0 Z "
          fill="#6E706B" transform="translate(101,103)"/>
    <path d="M0 0 C-1.98 0.33 -3.96 0.66 -6 1 C-6 1.99 -6 2.98 -6 4 C-9.63 4 -13.26 4 -17 4 C-14.24 2.16 -12.19 1.28 -9.06 0.31 C-7.78 -0.1 -7.78 -0.1 -6.47 -0.51 C-3.89 -1.02 -2.46 -0.85 0 0 Z "
          fill="#347A23" transform="translate(164,85)"/>
    <path d="M0 0 C2.64 0.66 5.28 1.32 8 2 C8 2.99 8 3.98 8 5 C9.32 5 10.64 5 12 5 C11.67 5.99 11.34 6.98 11 8 C11 7.34 11 6.68 11 6 C10.07 6.06 9.14 6.12 8.19 6.19 C5 6 5 6 3.25 4.56 C2.84 4.05 2.42 3.53 2 3 C1.34 2.67 0.68 2.34 0 2 C0 1.34 0 0.68 0 0 Z "
          fill="#549D3C" transform="translate(90,83)"/>
    <path d="M0 0 C2.31 0.33 4.62 0.66 7 1 C7 1.33 7 1.66 7 2 C1.62 3.19 -3.45 4.29 -9 4 C-7.88 2.44 -7.88 2.44 -6 1 C-2.81 1.31 -2.81 1.31 0 2 C0 1.34 0 0.68 0 0 Z "
          fill="#B4B7C5" transform="translate(127,190)"/>
    <path d="M0 0 C3.96 0 7.92 0 12 0 C12.33 0.66 12.66 1.32 13 2 C10.66 3.17 9.11 3.2 6.5 3.25 C5.31 3.29 5.31 3.29 4.09 3.33 C3.4 3.22 2.71 3.11 2 3 C1.34 2.01 0.68 1.02 0 0 Z "
          fill="#BEBEBE" transform="translate(148,177)"/>
    <path d="M0 0 C1.32 0.33 2.64 0.66 4 1 C3.01 1.66 2.02 2.32 1 3 C-0.22 6.56 -0.22 6.56 -1 10 C-1.66 10 -2.32 10 -3 10 C-3 8.02 -3 6.04 -3 4 C-2.34 4 -1.68 4 -1 4 C-0.67 2.68 -0.34 1.36 0 0 Z "
          fill="#B6B6B6" transform="translate(70,149)"/>
    <path d="M0 0 C0.33 0 0.66 0 1 0 C1 3.63 1 7.26 1 11 C-0.98 10.01 -2.96 9.02 -5 8 C-4.01 7.34 -3.02 6.68 -2 6 C-1.34 3.47 -1.34 3.47 -1 1 C-0.67 0.67 -0.34 0.34 0 0 Z "
          fill="#C81F12" transform="translate(67,131)"/>
    <path d="M0 0 C1.62 -0.05 3.25 -0.09 4.88 -0.12 C5.78 -0.15 6.68 -0.17 7.62 -0.2 C10 0 10 0 12 2 C9.04 3.48 6.26 3.06 3 3 C3 2.34 3 1.68 3 1 C2.01 0.67 1.02 0.34 0 0 Z "
          fill="#246216" transform="translate(104,123)"/>
    <path d="M0 0 C-3.63 2.42 -5.38 2.21 -9.69 2.12 C-10.87 2.11 -12.05 2.09 -13.26 2.07 C-14.17 2.05 -15.07 2.02 -16 2 C-13.05 0.03 -11.94 -0.34 -8.56 -0.69 C-7.42 -0.82 -7.42 -0.82 -6.25 -0.95 C-3.97 -1 -2.18 -0.66 0 0 Z "
          fill="#415494" transform="translate(113,196)"/>
    <path d="M0 0 C4.95 0 9.9 0 15 0 C15 0.33 15 0.66 15 1 C14.25 1.12 13.5 1.24 12.73 1.37 C11.75 1.53 10.76 1.7 9.75 1.88 C8.78 2.04 7.8 2.2 6.8 2.37 C4.23 2.95 2.28 3.71 0 5 C0 3.35 0 1.7 0 0 Z "
          fill="#C7C7C7" transform="translate(90,190)"/>
    <path d="M0 0 C5.61 0 11.22 0 17 0 C17 1.32 17 2.64 17 4 C16.34 4 15.68 4 15 4 C15 3.01 15 2.02 15 1 C10.05 1 5.1 1 0 1 C0 0.67 0 0.34 0 0 Z "
          fill="#E44940" transform="translate(170,139)"/>
    <path d="M0 0 C-0.33 1.32 -0.66 2.64 -1 4 C-4.3 3.67 -7.6 3.34 -11 3 C-6.99 0.33 -4.83 0 0 0 Z "
          fill="#9F1D11" transform="translate(175,112)"/>
    <path d="M0 0 C-0.99 1.49 -0.99 1.49 -2 3 C-5.62 3.69 -5.62 3.69 -9 4 C-9 3.34 -9 2.68 -9 2 C-8.34 2 -7.68 2 -7 2 C-7 1.34 -7 0.68 -7 0 C-3.87 -1.04 -3.01 -0.93 0 0 Z "
          fill="#9C9B9C" transform="translate(191,82)"/>
    <path d="M0 0 C0 2.31 0 4.62 0 7 C-0.66 7 -1.32 7 -2 7 C-2 8.65 -2 10.3 -2 12 C-2.33 12 -2.66 12 -3 12 C-3 8.37 -3 4.74 -3 1 C-1 0 -1 0 0 0 Z "
          fill="#8E8D8C" transform="translate(104,113)"/>
    <path d="M0 0 C1.32 0.66 2.64 1.32 4 2 C2.4 2.51 0.79 3 -0.81 3.5 C-2.15 3.92 -2.15 3.92 -3.52 4.34 C-6 5 -6 5 -9 5 C-8.67 4.01 -8.34 3.02 -8 2 C-4.71 1.2 -3.29 0.9 0 2 C0 1.34 0 0.68 0 0 Z "
          fill="#D1D5D0" transform="translate(168,105)"/>
    <path d="M0 0 C-2.59 2.59 -4.03 2.37 -7.62 2.62 C-8.63 2.7 -9.63 2.77 -10.66 2.85 C-11.82 2.93 -11.82 2.93 -13 3 C-12.67 2.34 -12.34 1.68 -12 1 C-4.36 -1.38 -4.36 -1.38 0 0 Z "
          fill="#7C7F78" transform="translate(122,100)"/>
    <path d="M0 0 C4.46 0.99 4.46 0.99 9 2 C5.53 3.74 3.92 4.3 0.25 4.62 C-0.55 4.7 -1.35 4.77 -2.17 4.85 C-3.08 4.93 -3.08 4.93 -4 5 C-3.53 4.55 -3.05 4.09 -2.56 3.62 C-0.91 2.07 -0.91 2.07 0 0 Z "
          fill="#B0B4C1" transform="translate(151,185)"/>
    <path d="M0 0 C0 0.66 0 1.32 0 2 C0.66 2 1.32 2 2 2 C2 2.99 2 3.98 2 5 C-2.46 4.01 -2.46 4.01 -7 3 C-3.38 0 -3.38 0 0 0 Z "
          fill="#D0D0D0" transform="translate(190,171)"/>
    <path d="M0 0 C0.58 0.37 1.16 0.74 1.75 1.12 C0.54 1.59 0.54 1.59 -0.69 2.06 C-3.14 2.89 -3.14 2.89 -4.25 4.12 C-6.25 4.17 -8.25 4.17 -10.25 4.12 C-10.58 3.46 -10.91 2.81 -11.25 2.12 C-10.14 1.94 -10.14 1.94 -9 1.75 C-6.27 1.27 -6.27 1.27 -4.19 -0.06 C-2.25 -0.88 -2.25 -0.88 0 0 Z "
          fill="#BC1F13" transform="translate(116.25,129.88)"/>
    <path d="M0 0 C1.32 0.33 2.64 0.66 4 1 C4 1.66 4 2.32 4 3 C5.32 3.66 6.64 4.32 8 5 C6.35 4.67 4.7 4.34 3 4 C2.67 5.32 2.34 6.64 2 8 C0.74 5.09 0 3.2 0 0 Z "
          fill="#86A66B" transform="translate(195,92)"/>
    <path d="M0 0 C2.31 0.33 4.62 0.66 7 1 C7.66 2.65 8.32 4.3 9 6 C4.75 5.53 2.8 3.03 0 0 Z "
          fill="#394115" transform="translate(65,94)"/>
    <path d="M0 0 C0.99 0.33 1.98 0.66 3 1 C1.68 1.99 0.36 2.98 -1 4 C-0.67 4.66 -0.34 5.32 0 6 C-0.66 6 -1.32 6 -2 6 C-2 7.98 -2 9.96 -2 12 C-2.33 12 -2.66 12 -3 12 C-3.08 10.56 -3.14 9.13 -3.19 7.69 C-3.22 6.89 -3.26 6.09 -3.29 5.26 C-2.94 2.52 -2.11 1.71 0 0 Z "
          fill="#999999" transform="translate(90,184)"/>
    <path d="M0 0 C0.66 0.33 1.32 0.66 2 1 C2 4.3 2 7.6 2 11 C-1 8 -1 8 -1.07 5.96 C-0.72 3.97 -0.36 1.99 0 0 Z "
          fill="#1D2D5B" transform="translate(56,149)"/>
    <path d="M0 0 C3.63 0 7.26 0 11 0 C10.01 1.49 10.01 1.49 9 3 C2.85 2.41 2.85 2.41 1 2 C0.67 1.34 0.34 0.68 0 0 Z "
          fill="#B41608" transform="translate(100,130)"/>
    <path d="M0 0 C2.54 1.27 2.69 2.2 3.69 4.81 C3.96 5.5 4.23 6.19 4.51 6.89 C5.07 9.29 4.77 10.69 4 13 C3.32 11.59 2.66 10.17 2 8.75 C1.63 7.96 1.26 7.17 0.88 6.36 C0 4 0 4 0 0 Z "
          fill="#C16C65" transform="translate(175,112)"/>
    <path d="M0 0 C1.32 0 2.64 0 4 0 C4.66 1.65 5.32 3.3 6 5 C4 5 2 5 0 5 C-0.56 3.06 -0.56 3.06 -1 1 C-0.67 0.67 -0.34 0.34 0 0 Z "
          fill="#324578" transform="translate(33,92)"/>
    <path d="M0 0 C1.34 0.76 2.67 1.53 4 2.31 C5.11 2.96 5.11 2.96 6.25 3.61 C6.83 4.07 7.41 4.53 8 5 C8 5.99 8 6.98 8 8 C4.18 6.44 1.81 3.96 -1 1 C-0.67 0.67 -0.34 0.34 0 0 Z "
          fill="#4A9734" transform="translate(96,91)"/>
    <path d="M0 0 C-0.33 0.66 -0.66 1.32 -1 2 C-3.07 2.41 -3.07 2.41 -5.56 2.62 C-6.39 2.7 -7.22 2.77 -8.07 2.85 C-9.02 2.93 -9.02 2.93 -10 3 C-10.33 2.34 -10.66 1.68 -11 1 C-7.27 0.12 -3.83 -0.09 0 0 Z "
          fill="#9AC780" transform="translate(67,37)"/>
    <path d="M0 0 C2.97 0.49 2.97 0.49 6 1 C5.67 1.66 5.34 2.32 5 3 C2.35 3.59 -0.29 3.74 -3 4 C-3 3.01 -3 2.02 -3 1 C-2.01 1.33 -1.02 1.66 0 2 C0 1.34 0 0.68 0 0 Z "
          fill="#21710E" transform="translate(105,97)"/>
    <path d="M0 0 C2.31 0 4.62 0 7 0 C7 0.66 7 1.32 7 2 C3.53 3.16 0.64 3.07 -3 3 C-2.01 2.67 -1.02 2.34 0 2 C0 1.34 0 0.68 0 0 Z "
          fill="#1B5E0B" transform="translate(128,93)"/>
    <path d="M0 0 C3.15 1.84 6.12 3.76 9 6 C8.67 6.66 8.34 7.32 8 8 C6.68 7.34 5.36 6.68 4 6 C4 5.34 4 4.68 4 4 C3.01 4 2.02 4 1 4 C0.67 2.68 0.34 1.36 0 0 Z "
          fill="#52653F" transform="translate(55,84)"/>
    <path d="M0 0 C-0.66 1.65 -1.32 3.3 -2 5 C-3.32 5 -4.64 5 -6 5 C-6 4.34 -6 3.68 -6 3 C-5.34 3 -4.68 3 -4 3 C-4 2.34 -4 1.68 -4 1 C-2 0 -2 0 0 0 Z "
          fill="#1C2C6A" transform="translate(89,198)"/>
    <path d="M0 0 C0.66 0 1.32 0 2 0 C3.3 4.61 2.71 8.34 2 13 C1.67 13 1.34 13 1 13 C0.67 8.71 0.34 4.42 0 0 Z "
          fill="#994246" transform="translate(177,148)"/>
    <path d="M0 0 C0.87 0.34 0.87 0.34 1.75 0.69 C1.42 1.68 1.09 2.67 0.75 3.69 C-1.56 3.36 -3.87 3.03 -6.25 2.69 C-2.8 -0.39 -2.8 -0.39 0 0 Z "
          fill="#206012" transform="translate(121.25,120.31)"/>
    <path d="M0 0 C0.66 0.33 1.32 0.66 2 1 C1.67 1.99 1.34 2.98 1 4 C-0.98 4.33 -2.96 4.66 -5 5 C-4 2 -4 2 -2.06 0.75 C-1.38 0.5 -0.7 0.26 0 0 Z "
          fill="#6C6C6C" transform="translate(92,180)"/>
    <path d="M0 0 C2.02 1.3 4.02 2.64 6 4 C6 4.33 6 4.66 6 5 C4.35 5 2.7 5 1 5 C0.67 5.99 0.34 6.98 0 8 C0 5.36 0 2.72 0 0 Z "
          fill="#A2160A" transform="translate(64,100)"/>
    <path d="M0 0 C0 0.99 0 1.98 0 3 C-4.46 3.5 -4.46 3.5 -9 4 C-6.1 1.7 -3.85 0 0 0 Z "
          fill="#307021" transform="translate(205,100)"/>
    <path d="M0 0 C2.48 0.49 2.48 0.49 5 1 C4.01 1.5 4.01 1.5 3 2 C3 3.98 3 5.96 3 8 C2.34 7.67 1.68 7.34 1 7 C0.59 4.68 0.26 2.34 0 0 Z "
          fill="#6F0901" transform="translate(60,95)"/>
    <path d="M0 0 C-2 2 -2 2 -4.16 2.2 C-5.38 2.16 -5.38 2.16 -6.62 2.12 C-7.44 2.11 -8.26 2.09 -9.1 2.07 C-9.73 2.05 -10.35 2.02 -11 2 C-7 -0.07 -4.44 -1.38 0 0 Z "
          fill="#8EBC7E" transform="translate(54,41)"/>
    <path d="M0 0 C3.38 1.13 4.71 2.32 7 5 C7 5.99 7 6.98 7 8 C6.34 8 5.68 8 5 8 C0 2.52 0 2.52 0 0 Z "
          fill="#7187C5" transform="translate(190,152)"/>
    <path d="M0 0 C0 0.66 0 1.32 0 2 C-3.21 3.61 -6.44 3.06 -10 3 C-6.42 0.61 -4.27 0 0 0 Z "
          fill="#436D37" transform="translate(160,110)"/>
    <path d="M0 0 C2 0.69 2 0.69 4 2.69 C3.67 3.35 3.34 4.01 3 4.69 C2.01 4.36 1.02 4.03 0 3.69 C0 3.03 0 2.37 0 1.69 C-1.32 1.36 -2.64 1.03 -4 0.69 C-2 -0.31 -2 -0.31 0 0 Z "
          fill="#6379AE" transform="translate(37,90.31)"/>
    <path d="M0 0 C1.36 0.37 1.36 0.37 2.75 0.75 C2.75 1.08 2.75 1.41 2.75 1.75 C1.1 1.75 -0.55 1.75 -2.25 1.75 C-2.25 2.41 -2.25 3.07 -2.25 3.75 C-3.9 3.75 -5.55 3.75 -7.25 3.75 C-4.05 -0.31 -4.05 -0.31 0 0 Z "
          fill="#A1A1A1" transform="translate(177.25,85.25)"/>
    <path d="M0 0 C2.38 -0.19 2.38 -0.19 5 0 C5.66 0.99 6.32 1.98 7 3 C5.02 3 3.04 3 1 3 C0.67 2.01 0.34 1.02 0 0 Z "
          fill="#BC1506" transform="translate(86,125)"/>
    <path d="M0 0 C2.38 0.69 2.38 0.69 5 2 C6.31 4.62 6.31 4.62 7 7 C3.17 5.55 1.88 3.57 0 0 Z "
          fill="#879C7A" transform="translate(40,72)"/>
</svg>
