<?xml version="1.0" encoding="UTF-8"?>
<svg version="1.1" xmlns="http://www.w3.org/2000/svg" width="240" height="240">
    <path d="M0 0 C1.65 0 3.3 0 5 0 C5 0.99 5 1.98 5 3 C4.34 3 3.68 3 3 3 C2.814375 4.3303125 2.814375 4.3303125 2.625 5.6875 C2.05587264 8.70387502 1.23385564 11.20326054 0 14 C-0.66 14 -1.32 14 -2 14 C-2.185625 14.8353125 -2.185625 14.8353125 -2.375 15.6875 C-3.05976855 18.22114364 -3.99133763 20.57921032 -5 23 C-5.66 23 -6.32 23 -7 23 C-7.185625 24.0828125 -7.185625 24.0828125 -7.375 25.1875 C-7.9904931 27.95721894 -8.88444374 30.3970354 -10 33 C-10.66 33 -11.32 33 -12 33 C-12.12375 33.721875 -12.2475 34.44375 -12.375 35.1875 C-12.9904931 37.95721894 -13.88444374 40.3970354 -15 43 C-15.66 43 -16.32 43 -17 43 C-17.99 45.97 -18.98 48.94 -20 52 C-20.66 52 -21.32 52 -22 52 C-22.99 55.3 -23.98 58.6 -25 62 C-25.66 62 -26.32 62 -27 62 C-27.18175781 62.59167969 -27.36351562 63.18335938 -27.55078125 63.79296875 C-27.80214844 64.58316406 -28.05351562 65.37335938 -28.3125 66.1875 C-28.55613281 66.96480469 -28.79976563 67.74210937 -29.05078125 68.54296875 C-30 71 -30 71 -33 76 C-0.33 76.495 -0.33 76.495 33 77 C33 82 33 82 30.8125 84.5 C29.884375 85.325 28.95625 86.15 28 87 C27.175 87.886875 26.35 88.77375 25.5 89.6875 C23 92 23 92 20.3125 93.0625 C17.44423277 94.22531104 17.23251825 95.27085246 16 98 C14.515 98.495 14.515 98.495 13 99 C12.67 99.66 12.34 100.32 12 101 C11.67 101.66 11.34 102.32 11 103 C9.515 103.495 9.515 103.495 8 104 C8 104.66 8 105.32 8 106 C6.9790625 106.556875 6.9790625 106.556875 5.9375 107.125 C3.10022828 108.9360245 1.61675238 110.50109066 -0.5 113.0625 C-3.14448707 116.22664611 -5.02282411 117.71326662 -9 119 C-9.495 120.485 -9.495 120.485 -10 122 C-11.77734375 123.71875 -11.77734375 123.71875 -13.9375 125.5 C-16.50975192 127.62876021 -18.12260763 129.18391145 -20 132 C-21.33064523 132.672016 -22.66414147 133.33840782 -24 134 C-25.56455488 135.53552467 -25.56455488 135.53552467 -26.9375 137.3125 C-30.81640175 142.00031845 -34.51248742 146.18208814 -40 149 C-40.66 149 -41.32 149 -42 149 C-42.268125 149.639375 -42.53625 150.27875 -42.8125 150.9375 C-44 153 -44 153 -47 154 C-47.309375 154.66 -47.61875 155.32 -47.9375 156 C-48.4634375 156.99 -48.4634375 156.99 -49 158 C-50.33333333 158.33333333 -51.66666667 158.66666667 -53 159 C-53.30035156 159.6084375 -53.60070312 160.216875 -53.91015625 160.84375 C-55.12479688 163.24690996 -56.34070282 164.34059922 -58.4375 166 C-61.0651968 168.14894459 -62.97736068 170.26943692 -65 173 C-65.99 173.33 -66.98 173.66 -68 174 C-69.67883678 175.6940569 -69.67883678 175.6940569 -71.3125 177.75 C-74.29065879 181.25774769 -77.38995797 184.12670124 -81 187 C-82.38131289 188.18015082 -83.75599181 189.36809729 -85.125 190.5625 C-86.14207031 191.44808594 -86.14207031 191.44808594 -87.1796875 192.3515625 C-89.13218695 194.07035801 -89.13218695 194.07035801 -91.25 196.4375 C-93 198 -93 198 -97 198 C-96.30058404 194.85262818 -95.23921302 191.97411124 -94 189 C-93.34 189 -92.68 189 -92 189 C-90.92474806 186.34771188 -89.90543849 183.71631546 -89 181 C-88.34 180.67 -87.68 180.34 -87 180 C-85.95191959 178.02477154 -84.9479589 176.02518491 -84 174 C-83.34 174 -82.68 174 -82 174 C-80.92474806 171.34771188 -79.90543849 168.71631546 -79 166 C-78.34 165.67 -77.68 165.34 -77 165 C-75.95191959 163.02477154 -74.9479589 161.02518491 -74 159 C-73.34 159 -72.68 159 -72 159 C-70.92474806 156.34771188 -69.90543849 153.71631546 -69 151 C-68.34 150.67 -67.68 150.34 -67 150 C-65.95191959 148.02477154 -64.9479589 146.02518491 -64 144 C-63.34 144 -62.68 144 -62 144 C-61.690625 143.21625 -61.38125 142.4325 -61.0625 141.625 C-60 139 -60 139 -59 137 C-58.34 137 -57.68 137 -57 137 C-56.731875 136.030625 -56.46375 135.06125 -56.1875 134.0625 C-55.795625 133.051875 -55.40375 132.04125 -55 131 C-54.01 130.67 -53.02 130.34 -52 130 C-51.38932856 128.14255793 -51.38932856 128.14255793 -51 126 C-50.36345658 124.6520257 -49.70394612 123.31403276 -49 122 C-48.34 122 -47.68 122 -47 122 C-46.731875 121.030625 -46.46375 120.06125 -46.1875 119.0625 C-45.795625 118.051875 -45.40375 117.04125 -45 116 C-44.01 115.67 -43.02 115.34 -42 115 C-42 114.01 -42 113.02 -42 112 C-73.68 111.505 -73.68 111.505 -106 111 C-106 105 -106 105 -103.8125 102.4375 C-102.884375 101.633125 -101.95625 100.82875 -101 100 C-100.175 99.175 -99.35 98.35 -98.5 97.5 C-40 39 -40 39 -37.72094727 36.72314453 C-35.28345678 34.28368568 -32.85055936 31.8397908 -30.41954041 29.39389038 C-28.05050657 27.01139895 -25.67874369 24.6316317 -23.30688477 22.25195312 C-22.05794602 20.99795795 -20.80990235 19.7430707 -19.56274414 18.48730469 C-17.75122519 16.66364387 -15.9364843 14.8432433 -14.12109375 13.0234375 C-13.28970131 12.18430313 -13.28970131 12.18430313 -12.44151306 11.32821655 C-7.13651024 6.02244923 -7.13651024 6.02244923 -4 4 C-3.34 4 -2.68 4 -2 4 C-1.34 2.68 -0.68 1.36 0 0 Z "
          fill="#FEB202" transform="translate(157,9)"/>
    <path d="M0 0 C0.66 0.33 1.32 0.66 2 1 C0.98008897 4.05973309 -0.08645365 5.18591795 -2.3515625 7.359375 C-6.07854163 11.06869072 -9.50668121 15.07227887 -13 19 C-13.61230469 19.68449219 -14.22460938 20.36898437 -14.85546875 21.07421875 C-19.443139 26.24978267 -23.66322286 31.57902858 -28 37 C1.205 37.495 1.205 37.495 31 38 C29 43 29 43 27 45 C26.58427734 46.11181641 26.58427734 46.11181641 26.16015625 47.24609375 C24.74269038 50.61078547 22.69828192 53.23705853 20.4375 56.0625 C19.5382829 57.20641884 18.63986389 58.35096545 17.7421875 59.49609375 C17.28682617 60.07472168 16.83146484 60.65334961 16.36230469 61.24951172 C13.4749229 64.95964209 10.70310185 68.75768788 7.91015625 72.5390625 C6.35879202 74.53775262 4.92628391 76.36457947 3 78 C2.34 78 1.68 78 1 78 C0.9071875 79.0828125 0.9071875 79.0828125 0.8125 80.1875 C-0.26734227 83.92541556 -2.18554614 85.3079137 -5 88 C-10.0492429 94.04706947 -14.54313624 100.51113148 -19 107 C-15.5087448 104.33883345 -12.60934054 101.57530715 -9.75 98.25 C-6.73119779 94.82297913 -3.65541144 91.72086318 -0.1875 88.75 C2.36270888 86.5547171 4.06901524 84.89536398 5.9375 82.0625 C8.62219638 78.07613265 11.98107884 75.2713753 15.58984375 72.125 C17.48580917 70.45335464 19.26010678 68.76568631 21 66.9375 C23 65 23 65 25 65 C25.28875 64.401875 25.5775 63.80375 25.875 63.1875 C27 61 27 61 29 58 C29.66 58 30.32 58 31 58 C31.22961426 57.44586426 31.45922852 56.89172852 31.69580078 56.32080078 C33.36482794 53.35079476 35.46096459 51.27953869 37.8671875 48.8671875 C38.3431839 48.38927765 38.8191803 47.9113678 39.30960083 47.41897583 C40.31413209 46.41308773 41.32117688 45.40970425 42.33056641 44.40869141 C43.86987445 42.8800899 45.39822697 41.34111841 46.92578125 39.80078125 C47.9056094 38.82227478 48.88605782 37.84438894 49.8671875 36.8671875 C50.75519043 35.98144043 51.64319336 35.09569336 52.55810547 34.18310547 C54.71312173 32.25647525 56.45130525 31.24779129 59 30 C59.99 28.515 59.99 28.515 61 27 C61.33 27.33 61.66 27.66 62 28 C68.66532501 28.533226 73.20562405 26.73872281 78.8125 23.25 C79.534375 22.8375 80.25625 22.425 81 22 C81.66 22.33 82.32 22.66 83 23 C83 25 83 25 81.64453125 26.4375 C78.16126978 29.4082987 75.26534961 31.29386015 71 33 C69.86649466 35.01669827 69.86649466 35.01669827 69 37 C67.515 37.495 67.515 37.495 66 38 C65.505 38.99 65.505 38.99 65 40 C64.505 40.99 64.505 40.99 64 42 C62.515 42.495 62.515 42.495 61 43 C61 43.66 61 44.32 61 45 C60.319375 45.37125 59.63875 45.7425 58.9375 46.125 C56.10022828 47.9360245 54.61675238 49.50109066 52.5 52.0625 C49.85551293 55.22664611 47.97717589 56.71326662 44 58 C43.67 58.99 43.34 59.98 43 61 C41.22265625 62.71875 41.22265625 62.71875 39.0625 64.5 C36.49024808 66.62876021 34.87739237 68.18391145 33 71 C31.66935477 71.672016 30.33585853 72.33840782 29 73 C27.43544512 74.53552467 27.43544512 74.53552467 26.0625 76.3125 C22.18359825 81.00031845 18.48751258 85.18208814 13 88 C12.34 88 11.68 88 11 88 C10.731875 88.639375 10.46375 89.27875 10.1875 89.9375 C9 92 9 92 6 93 C5.690625 93.66 5.38125 94.32 5.0625 95 C4.5365625 95.99 4.5365625 95.99 4 97 C2.66666667 97.33333333 1.33333333 97.66666667 0 98 C-0.45052734 98.91265625 -0.45052734 98.91265625 -0.91015625 99.84375 C-2.12479688 102.24690996 -3.34070282 103.34059922 -5.4375 105 C-8.0651968 107.14894459 -9.97736068 109.26943692 -12 112 C-12.99 112.33 -13.98 112.66 -15 113 C-16.67883678 114.6940569 -16.67883678 114.6940569 -18.3125 116.75 C-21.29065879 120.25774769 -24.38995797 123.12670124 -28 126 C-29.38131289 127.18015082 -30.75599181 128.36809729 -32.125 129.5625 C-33.14207031 130.44808594 -33.14207031 130.44808594 -34.1796875 131.3515625 C-36.13218695 133.07035801 -36.13218695 133.07035801 -38.25 135.4375 C-40 137 -40 137 -44 137 C-43.30058404 133.85262818 -42.23921302 130.97411124 -41 128 C-40.34 128 -39.68 128 -39 128 C-37.92474806 125.34771188 -36.90543849 122.71631546 -36 120 C-35.01 119.505 -35.01 119.505 -34 119 C-32.95191959 117.02477154 -31.9479589 115.02518491 -31 113 C-30.34 113 -29.68 113 -29 113 C-27.92474806 110.34771188 -26.90543849 107.71631546 -26 105 C-25.01 104.505 -25.01 104.505 -24 104 C-22.95191959 102.02477154 -21.9479589 100.02518491 -21 98 C-20.34 98 -19.68 98 -19 98 C-17.92474806 95.34771188 -16.90543849 92.71631546 -16 90 C-15.34 89.67 -14.68 89.34 -14 89 C-12.95191959 87.02477154 -11.9479589 85.02518491 -11 83 C-10.34 83 -9.68 83 -9 83 C-8.690625 82.21625 -8.38125 81.4325 -8.0625 80.625 C-7 78 -7 78 -6 76 C-5.34 76 -4.68 76 -4 76 C-3.731875 75.030625 -3.46375 74.06125 -3.1875 73.0625 C-2.795625 72.051875 -2.40375 71.04125 -2 70 C-1.01 69.67 -0.02 69.34 1 69 C1.61067144 67.14255793 1.61067144 67.14255793 2 65 C2.63654342 63.6520257 3.29605388 62.31403276 4 61 C4.66 61 5.32 61 6 61 C6.268125 60.030625 6.53625 59.06125 6.8125 58.0625 C7.4003125 56.5465625 7.4003125 56.5465625 8 55 C8.99 54.67 9.98 54.34 11 54 C11 53.01 11 52.02 11 51 C-20.68 50.505 -20.68 50.505 -53 50 C-53 44 -53 44 -50.8125 41.4375 C-49.884375 40.633125 -48.95625 39.82875 -48 39 C-45.32820474 36.39033952 -43.07429779 34.11144669 -41 31 C-37.375 30.3125 -37.375 30.3125 -34 30 C-34 29.34 -34 28.68 -34 28 C-30.27940696 23.91934956 -26.06113002 20.38074669 -21.890625 16.76953125 C-19.92091997 15.13136012 -19.92091997 15.13136012 -19 13 C-17.89011719 12.60167969 -17.89011719 12.60167969 -16.7578125 12.1953125 C-13.28746825 10.69116896 -11.44420673 8.63277236 -8.875 5.875 C-6.3046875 3.1171875 -6.3046875 3.1171875 -4 1 C-3.01 1 -2.02 1 -1 1 C-0.67 0.67 -0.34 0.34 0 0 Z "
          fill="#FCA206" transform="translate(104,70)"/>
    <path d="M0 0 C0.66 0 1.32 0 2 0 C1.40612724 3.66765375 0.38883786 6.57767028 -1.3125 9.875 C-1.97958984 11.17050781 -1.97958984 11.17050781 -2.66015625 12.4921875 C-4.37534369 15.70253834 -6.16603397 18.85605823 -8 22 C-8.33 22.66 -8.66 23.32 -9 24 C-9.66 24 -10.32 24 -11 24 C-11 24.66 -11 25.32 -11 26 C-11.66 26 -12.32 26 -13 26 C-12.90976563 26.66773437 -12.81953125 27.33546875 -12.7265625 28.0234375 C-13.11698364 32.27345043 -15.1148799 35.07536352 -17.375 38.625 C-17.7875 39.29273438 -18.2 39.96046875 -18.625 40.6484375 C-20.37158635 43.46551226 -22.1611807 46.24177105 -24 49 C-24.33 50.65 -24.66 52.3 -25 54 C-6.85 54 11.3 54 30 54 C26.38159181 58.22147622 22.99758472 62.11762641 19.06640625 65.9609375 C18.16986328 66.84523438 17.27332031 67.72953125 16.34960938 68.640625 C14.49743131 70.45775835 12.6432751 72.27287766 10.78710938 74.0859375 C5.97409527 78.84021418 1.5244972 83.59410712 -2.46777344 89.06298828 C-5.20422703 92.52236094 -8.62260723 95.1905409 -12 98 C-17.47464525 102.6984512 -22.04562735 106.93662861 -26 113 C-27.09754034 114.00985026 -28.22727035 114.98507729 -29.375 115.9375 C-36.19223791 121.64013247 -42.01103893 128.45430794 -48 135 C-48.33 134.34 -48.66 133.68 -49 133 C-44.62164777 126.89721296 -40.17601032 120.84997162 -35.625 114.875 C-35.19654785 114.30692627 -34.7680957 113.73885254 -34.32666016 113.15356445 C-31.23359182 109.11679591 -31.23359182 109.11679591 -29 108 C-28.34786708 105.97536745 -28.34786708 105.97536745 -28 104 C-27.34 104 -26.68 104 -26 104 C-25.505 102.515 -25.505 102.515 -25 101 C-23.33482342 99.33184457 -21.66782287 97.66550966 -20 96 C-17.89655534 93.39393762 -15.9178715 90.70028013 -13.9375 88 C-12.90567811 86.60362681 -11.87314169 85.20778129 -10.83984375 83.8125 C-10.35499512 83.15580322 -9.87014648 82.49910645 -9.37060547 81.82250977 C-8.17946953 80.23864269 -6.93942992 78.69178412 -5.69140625 77.15234375 C-3.87181804 74.83688624 -3.06595829 72.73151812 -2 70 C-0.68 68.02 0.64 66.04 2 64 C-17.8 64 -37.6 64 -58 64 C-53.41917171 56.36528619 -47.57169105 50.27537876 -40.875 44.4375 C-36.8906011 40.95192074 -33.78120951 37.30058922 -30.64453125 33.0546875 C-28.59536407 30.49444537 -26.27884474 28.56922963 -23.7421875 26.51171875 C-21.1904287 24.29752445 -19.07263761 21.77609993 -16.88671875 19.20703125 C-14.78021262 16.74289882 -12.61397097 14.34000314 -10.4375 11.9375 C-7.74587827 8.96569238 -5.11994639 5.96264869 -2.5625 2.875 C-1.716875 1.92625 -0.87125 0.9775 0 0 Z "
          fill="#FFFECC" transform="translate(133,44)"/>
    <path d="M0 0 C0.99 0.33 1.98 0.66 3 1 C3 3 3 3 1.64453125 4.4375 C-1.83873022 7.4082987 -4.73465039 9.29386015 -9 11 C-10.13350534 13.01669827 -10.13350534 13.01669827 -11 15 C-11.99 15.33 -12.98 15.66 -14 16 C-14.33 16.66 -14.66 17.32 -15 18 C-15.33 18.66 -15.66 19.32 -16 20 C-17.485 20.495 -17.485 20.495 -19 21 C-19 21.66 -19 22.32 -19 23 C-19.680625 23.37125 -20.36125 23.7425 -21.0625 24.125 C-23.89977172 25.9360245 -25.38324762 27.50109066 -27.5 30.0625 C-30.14448707 33.22664611 -32.02282411 34.71326662 -36 36 C-36.33 36.99 -36.66 37.98 -37 39 C-38.77734375 40.71875 -38.77734375 40.71875 -40.9375 42.5 C-43.50975192 44.62876021 -45.12260763 46.18391145 -47 49 C-48.33064523 49.672016 -49.66414147 50.33840782 -51 51 C-52.56455488 52.53552467 -52.56455488 52.53552467 -53.9375 54.3125 C-57.81640175 59.00031845 -61.51248742 63.18208814 -67 66 C-67.66 66 -68.32 66 -69 66 C-69.268125 66.639375 -69.53625 67.27875 -69.8125 67.9375 C-71 70 -71 70 -74 71 C-74.309375 71.66 -74.61875 72.32 -74.9375 73 C-75.4634375 73.99 -75.4634375 73.99 -76 75 C-77.33333333 75.33333333 -78.66666667 75.66666667 -80 76 C-80.45052734 76.91265625 -80.45052734 76.91265625 -80.91015625 77.84375 C-82.12479688 80.24690996 -83.34070282 81.34059922 -85.4375 83 C-88.0651968 85.14894459 -89.97736068 87.26943692 -92 90 C-93.485 90.495 -93.485 90.495 -95 91 C-96.67883678 92.6940569 -96.67883678 92.6940569 -98.3125 94.75 C-101.29065879 98.25774769 -104.38995797 101.12670124 -108 104 C-109.38131289 105.18015082 -110.75599181 106.36809729 -112.125 107.5625 C-113.14207031 108.44808594 -113.14207031 108.44808594 -114.1796875 109.3515625 C-116.13218695 111.07035801 -116.13218695 111.07035801 -118.25 113.4375 C-120 115 -120 115 -124 115 C-123.30058404 111.85262818 -122.23921302 108.97411124 -121 106 C-120.34 106 -119.68 106 -119 106 C-117.92474806 103.34771188 -116.90543849 100.71631546 -116 98 C-115.01 97.505 -115.01 97.505 -114 97 C-112.95191959 95.02477154 -111.9479589 93.02518491 -111 91 C-110.34 91 -109.68 91 -109 91 C-107.92474806 88.34771188 -106.90543849 85.71631546 -106 83 C-105.01 82.505 -105.01 82.505 -104 82 C-102.95191959 80.02477154 -101.9479589 78.02518491 -101 76 C-100.34 76 -99.68 76 -99 76 C-97.92474806 73.34771188 -96.90543849 70.71631546 -96 68 C-95.01 67.505 -95.01 67.505 -94 67 C-93.505 66.154375 -93.01 65.30875 -92.5 64.4375 C-91.7575 63.2309375 -91.7575 63.2309375 -91 62 C-90.34 62 -89.68 62 -89 62 C-89.33 63.32 -89.66 64.64 -90 66 C-90.66 66 -91.32 66 -92 66 C-92.33 67.65 -92.66 69.3 -93 71 C-91.68 71.33 -90.36 71.66 -89 72 C-89.58007812 72.63615234 -89.58007812 72.63615234 -90.171875 73.28515625 C-90.69265625 73.87167969 -91.2134375 74.45820313 -91.75 75.0625 C-92.26046875 75.63097656 -92.7709375 76.19945312 -93.296875 76.78515625 C-95.53807058 79.69973857 -97.22268744 82.78151878 -99 86 C-98.55197021 85.51644043 -98.10394043 85.03288086 -97.64233398 84.53466797 C-95.57797512 82.31110337 -93.5077926 80.09304036 -91.4375 77.875 C-90.73302734 77.11445313 -90.02855469 76.35390625 -89.30273438 75.5703125 C-85.52577134 71.53226907 -81.72384004 67.74164737 -77.41162109 64.27514648 C-75.75792576 62.89268919 -75.75792576 62.89268919 -74.1875 60.1875 C-71.43008354 56.16955029 -68.06969531 53.31564378 -64.41015625 50.125 C-62.51419083 48.45335464 -60.73989322 46.76568631 -59 44.9375 C-57 43 -57 43 -55 43 C-54.71125 42.401875 -54.4225 41.80375 -54.125 41.1875 C-53 39 -53 39 -51 36 C-50.34 36 -49.68 36 -49 36 C-48.77038574 35.44586426 -48.54077148 34.89172852 -48.30419922 34.32080078 C-46.63517206 31.35079476 -44.53903541 29.27953869 -42.1328125 26.8671875 C-41.6568161 26.38927765 -41.1808197 25.9113678 -40.69039917 25.41897583 C-39.68586791 24.41308773 -38.67882312 23.40970425 -37.66943359 22.40869141 C-36.13012555 20.8800899 -34.60177303 19.34111841 -33.07421875 17.80078125 C-32.0943906 16.82227478 -31.11394218 15.84438894 -30.1328125 14.8671875 C-29.24480957 13.98144043 -28.35680664 13.09569336 -27.44189453 12.18310547 C-25.28687827 10.25647525 -23.54869475 9.24779129 -21 8 C-20.34 7.01 -19.68 6.02 -19 5 C-18.505 5.495 -18.505 5.495 -18 6 C-11.64130152 6.50869588 -6.81600739 5.19022797 -1.75 1.25 C-1.1725 0.8375 -0.595 0.425 0 0 Z "
          fill="#FC9E0C" transform="translate(184,92)"/>
    <path d="M0 0 C0 0.99 0 1.98 0 3 C-1 4 -2 5 -3 6 C-3.67349161 7.66392045 -4.3409159 9.33032028 -5 11 C-5.99 11.495 -5.99 11.495 -7 12 C-7.33 12.99 -7.66 13.98 -8 15 C-7.42974091 14.98525131 -6.85948181 14.97050262 -6.27194214 14.95530701 C-0.2685511 14.80137869 5.73501855 14.65698783 11.73876953 14.51782227 C13.97124922 14.46486727 16.20367503 14.40958266 18.43603516 14.35180664 C42.21934946 13.73938363 42.21934946 13.73938363 54 15 C54 15.99 54 16.98 54 18 C32.22 18 10.44 18 -12 18 C-12 12 -12 12 -9.8125 9.4375 C-8.884375 8.633125 -7.95625 7.82875 -7 7 C-6.113125 6.113125 -5.22625 5.22625 -4.3125 4.3125 C-2.875 2.875 -1.4375 1.4375 0 0 Z "
          fill="#F4B203" transform="translate(63,102)"/>
    <path d="M0 0 C0 3 0 3 -2.15625 5.34375 C-3.0946875 6.2203125 -4.033125 7.096875 -5 8 C-5.8971875 8.8971875 -6.794375 9.794375 -7.71875 10.71875 C-12.14583333 15.14583333 -16.57291667 19.57291667 -21 24 C-22.21042969 25.21236328 -22.21042969 25.21236328 -23.4453125 26.44921875 C-25.24766698 28.24881734 -27.05448518 30.04294129 -28.8671875 31.83203125 C-34.01165734 36.92321243 -39.05978503 42.00466709 -43.6953125 47.57421875 C-45 49 -45 49 -47 50 C-45.72474497 46.44661949 -44.26030699 43.79284064 -41.875 40.875 C-38.33319801 36.46627158 -35.04950135 31.91039092 -31.796875 27.28515625 C-30 25 -30 25 -27 23 C-26.27617533 20.94074861 -26.27617533 20.94074861 -26 19 C-25.34 19 -24.68 19 -24 19 C-23.67 18.01 -23.34 17.02 -23 16 C-20.9375 14.8125 -20.9375 14.8125 -19 14 C-19 14.66 -19 15.32 -19 16 C-14.8541999 14.6350975 -12.50057094 12.83070371 -9.5 9.6875 C-8.34177734 8.48867187 -8.34177734 8.48867187 -7.16015625 7.265625 C-6.44730469 6.51796875 -5.73445313 5.7703125 -5 5 C-3.98269689 3.97564861 -2.96270515 2.95394271 -1.9375 1.9375 C-0.9784375 0.9784375 -0.9784375 0.9784375 0 0 Z "
          fill="#FFEC54" transform="translate(131,129)"/>
    <path d="M0 0 C0.99 0.33 1.98 0.66 3 1 C1.66198588 4.0649092 0.29092019 5.85360933 -2.3125 7.9375 C-4.61393799 9.82180235 -6.76174559 11.72048719 -8.8125 13.875 C-11 16 -11 16 -13 16 C-13.33 16.99 -13.66 17.98 -14 19 C-15.77734375 20.71875 -15.77734375 20.71875 -17.9375 22.5 C-20.50975192 24.62876021 -22.12260763 26.18391145 -24 29 C-25.33333333 29.66666667 -26.66666667 30.33333333 -28 31 C-29.59654895 32.64039884 -29.59654895 32.64039884 -31 34.5 C-33.10618229 37.20140772 -34.84154996 38.63859912 -38 40 C-37.35494404 36.51669784 -36.01782732 33.90567134 -34 31 C-33.34 31 -32.68 31 -32 31 C-31.814375 30.38125 -31.62875 29.7625 -31.4375 29.125 C-29.28562767 25.94397134 -26.62466237 25.80548053 -23 25 C-23 23.68 -23 22.36 -23 21 C-22.01 20.67 -21.02 20.34 -20 20 C-19.67 19.01 -19.34 18.02 -19 17 C-16.72399872 14.97005291 -14.67365044 13.29719872 -11.875 12.0625 C-9.80327309 11.09622157 -9.80327309 11.09622157 -8.6875 8.75 C-6.47731987 5.14822498 -3.63814671 2.19942506 0 0 Z "
          fill="#E7A121" transform="translate(161,112)"/>
    <path d="M0 0 C0.33 0.99 0.66 1.98 1 3 C19.15 3 37.3 3 56 3 C52.31446673 7.29978881 48.80357082 11.31867345 44.8203125 15.27734375 C43.8921875 16.20224609 42.9640625 17.12714844 42.0078125 18.08007812 C41.04693091 19.03260849 40.08599274 19.98508178 39.125 20.9375 C38.14039081 21.91708237 37.156014 22.89689837 36.171875 23.87695312 C33.78351797 26.25360252 31.39284788 28.62787356 29 31 C29 28 29 28 30.82006836 25.87109375 C31.65159424 25.06800781 32.48312012 24.26492187 33.33984375 23.4375 C34.23767578 22.55835937 35.13550781 21.67921875 36.06054688 20.7734375 C37.00994141 19.85820313 37.95933594 18.94296875 38.9375 18 C40.805242 16.19209704 42.66874264 14.37979887 44.52734375 12.5625 C45.35999756 11.75941406 46.19265137 10.95632812 47.05053711 10.12890625 C49.20379736 8.06771736 49.20379736 8.06771736 50 5 C33.83 5 17.66 5 1 5 C0.67 3.35 0.34 1.7 0 0 Z "
          fill="#FFFB81" transform="translate(107,95)"/>
    <path d="M0 0 C0.99 0 1.98 0 3 0 C2.01 2.97 1.02 5.94 0 9 C-0.66 9 -1.32 9 -2 9 C-2.99 11.97 -3.98 14.94 -5 18 C-5.66 18 -6.32 18 -7 18 C-7.99 21.3 -8.98 24.6 -10 28 C-10.66 28 -11.32 28 -12 28 C-12.18175781 28.62648438 -12.36351562 29.25296875 -12.55078125 29.8984375 C-12.80214844 30.71570313 -13.05351562 31.53296875 -13.3125 32.375 C-13.55613281 33.18710938 -13.79976562 33.99921875 -14.05078125 34.8359375 C-15 37 -15 37 -18 39 C-17.47731534 36.23723823 -16.89130413 33.6739124 -16 31 C-15.34 31 -14.68 31 -14 31 C-14.04125 30.0925 -14.0825 29.185 -14.125 28.25 C-14.00468444 25.1217954 -13.6085292 23.61385994 -12 21 C-11.34 21 -10.68 21 -10 21 C-10.0928125 20.34773438 -10.185625 19.69546875 -10.28125 19.0234375 C-10.51690812 16.17029092 -10.56523058 13.81349847 -10 11 C-8.13329992 9.00970562 -6.2275449 7.75109233 -3.9140625 6.31640625 C-1.433781 4.61058 -0.68152165 2.89646699 0 0 Z "
          fill="#FFA610" transform="translate(142,43)"/>
    <path d="M0 0 C0.66 0.33 1.32 0.66 2 1 C1.21496094 1.845625 0.42992187 2.69125 -0.37890625 3.5625 C-8.00623936 11.78683796 -8.00623936 11.78683796 -15.40234375 20.21875 C-16.67644103 21.63925943 -18.00896685 23.00729637 -19.359375 24.35546875 C-22.10073285 27.10088186 -24.71152615 29.93408893 -27.3125 32.8125 C-28.19550781 33.78832031 -29.07851562 34.76414063 -29.98828125 35.76953125 C-30.65214844 36.50558594 -31.31601563 37.24164063 -32 38 C-32 33.92485275 -30.44507745 32.98720336 -27.6875 30.0625 C-24.34660032 26.50789784 -24.34660032 26.50789784 -21.33203125 22.68359375 C-20.89246094 22.12800781 -20.45289062 21.57242188 -20 21 C-19.34 21 -18.68 21 -18 21 C-18.103125 20.113125 -18.20625 19.22625 -18.3125 18.3125 C-17.89395416 13.87591411 -16.28733523 12.93001618 -13 10 C-12.01022179 8.77936199 -11.03137418 7.54979579 -10.0625 6.3125 C-7.38603476 3.11599618 -5.11991181 1.95811903 -1 1 C-0.67 0.67 -0.34 0.34 0 0 Z "
          fill="#FFD628" transform="translate(123,53)"/>
    <path d="M0 0 C0.66 0 1.32 0 2 0 C2 0.99 2 1.98 2 3 C31.205 3.495 31.205 3.495 61 4 C60.67 4.66 60.34 5.32 60 6 C39.87 6 19.74 6 -1 6 C-0.67 4.02 -0.34 2.04 0 0 Z "
          fill="#E3961C" transform="translate(122,82)"/>
    <path d="M0 0 C0 3 0 3 -1.42578125 4.61328125 C-2.67539524 5.73871 -3.92539029 6.8637158 -5.17578125 7.98828125 C-7.54861682 10.42339743 -7.54861682 10.42339743 -10 16 C9.14 16 28.28 16 48 16 C48 17.98 48 19.96 48 22 C44.535 23.98 44.535 23.98 41 26 C42.51325083 22.85709443 44.188065 20.01989166 46 17 C26.2 17 6.4 17 -14 17 C-11.62023182 13.0337197 -9.51368049 10.162344 -6.4375 6.8125 C-5.65246094 5.95269531 -4.86742188 5.09289062 -4.05859375 4.20703125 C-2.72951827 2.7821211 -1.37782629 1.37782629 0 0 Z "
          fill="#FEF543" transform="translate(89,91)"/>
    <path d="M0 0 C0.66 0 1.32 0 2 0 C1.67 1.32 1.34 2.64 1 4 C0.34 4 -0.32 4 -1 4 C-1.33 5.65 -1.66 7.3 -2 9 C-0.68 9.33 0.64 9.66 2 10 C0.7315625 11.4540625 0.7315625 11.4540625 -0.5625 12.9375 C-3.68476629 16.55548155 -6.55145131 20.33415235 -9.38671875 24.1796875 C-11 26 -11 26 -14 27 C-13.4454626 23.67277559 -12.75986957 20.8986087 -11 18 C-10.34 17.67 -9.68 17.34 -9 17 C-8.2986716 14.67684969 -7.63514826 12.34210921 -7 10 C-5.4 6.2 -5.4 6.2 -3 5 C-2.505 4.154375 -2.01 3.30875 -1.5 2.4375 C-1.005 1.633125 -0.51 0.82875 0 0 Z "
          fill="#FD9606" transform="translate(93,154)"/>
    <path d="M0 0 C0.33 1.32 0.66 2.64 1 4 C0.38125 4.2475 -0.2375 4.495 -0.875 4.75 C-3.38710296 6.22770762 -3.76107344 7.43955177 -5 10 C-5.99 10.33 -6.98 10.66 -8 11 C-8.28875 11.5775 -8.5775 12.155 -8.875 12.75 C-10.39987147 15.79974294 -12.48215822 17.72780132 -15 20 C-15.99 20.33 -16.98 20.66 -18 21 C-18 21.66 -18 22.32 -18 23 C-19.65 23.33 -21.3 23.66 -23 24 C-20.82208926 19.5080591 -17.72734087 16.85334823 -13.98828125 13.6953125 C-11.52014588 11.5908513 -9.26196772 9.32310198 -7 7 C-4.66666667 4.66666667 -2.33333333 2.33333333 0 0 Z "
          fill="#F0BE08" transform="translate(88,77)"/>
    <path d="M0 0 C0.99 0.33 1.98 0.66 3 1 C1.66198588 4.0649092 0.29092019 5.85360933 -2.3125 7.9375 C-4.59403044 9.80334787 -6.57702983 11.60450745 -8.625 13.75 C-11.06269315 16.05939351 -12.76793644 17.14945696 -16 18 C-16.99 17.67 -17.98 17.34 -19 17 C-14.425 13.1875 -14.425 13.1875 -11.875 12.0625 C-9.80327309 11.09622157 -9.80327309 11.09622157 -8.6875 8.75 C-6.47731987 5.14822498 -3.63814671 2.19942506 0 0 Z "
          fill="#EAAA1C" transform="translate(161,112)"/>
    <path d="M0 0 C0.33 0.66 0.66 1.32 1 2 C0.33333333 3.33333333 -0.33333333 4.66666667 -1 6 C-1.45064632 8.58532701 -1.45064632 8.58532701 -1.625 11.25 C-1.69976562 12.14203125 -1.77453125 13.0340625 -1.8515625 13.953125 C-1.90054688 14.62859375 -1.94953125 15.3040625 -2 16 C-2.66 16 -3.32 16 -4 16 C-4 17.65 -4 19.3 -4 21 C-4.33 21 -4.66 21 -5 21 C-5.33 22.65 -5.66 24.3 -6 26 C-6.33 25.01 -6.66 24.02 -7 23 C-7.66 23 -8.32 23 -9 23 C-9.75 20.9375 -9.75 20.9375 -10 18 C-8.375 14.8125 -8.375 14.8125 -7.25390625 13.04296875 C-5.28134941 9.82911446 -3.70309058 6.42552929 -2.05078125 3.0390625 C-1 1 -1 1 0 0 Z "
          fill="#FFC123" transform="translate(134,48)"/>
    <path d="M0 0 C0 3 0 3 -2.15625 5.33984375 C-3.0946875 6.21769531 -4.033125 7.09554687 -5 8 C-5.8971875 8.90878906 -6.794375 9.81757813 -7.71875 10.75390625 C-8.6365625 11.68074219 -9.554375 12.60757813 -10.5 13.5625 C-11.4178125 14.49191406 -12.335625 15.42132813 -13.28125 16.37890625 C-20.1490313 23 -20.1490313 23 -24 23 C-24.3125 20.1875 -24.3125 20.1875 -24 17 C-21.5 15.125 -21.5 15.125 -19 14 C-19 14.66 -19 15.32 -19 16 C-14.8541999 14.6350975 -12.50057094 12.83070371 -9.5 9.6875 C-8.34177734 8.48867187 -8.34177734 8.48867187 -7.16015625 7.265625 C-6.44730469 6.51796875 -5.73445313 5.7703125 -5 5 C-3.98269689 3.97564861 -2.96270515 2.95394271 -1.9375 1.9375 C-1.298125 1.298125 -0.65875 0.65875 0 0 Z "
          fill="#FFFBA1" transform="translate(131,129)"/>
    <path d="M0 0 C0.33 0.66 0.66 1.32 1 2 C0.60167969 2.556875 0.20335937 3.11375 -0.20703125 3.6875 C-3.66267556 8.66497307 -6.1152527 13.24104992 -8 19 C-8.66 19 -9.32 19 -10 19 C-10 17.68 -10 16.36 -10 15 C-11.0828125 16.11375 -11.0828125 16.11375 -12.1875 17.25 C-14.68592573 19.69290515 -17.23643202 21.8681047 -20 24 C-18.33433323 19.82567656 -15.29621163 16.88842371 -12.25 13.6875 C-11.16574357 12.53211557 -10.0824011 11.37587274 -9 10.21875 C-8.48179687 9.66574219 -7.96359375 9.11273438 -7.4296875 8.54296875 C-4.86112908 5.77089067 -2.42547386 2.89709378 0 0 Z "
          fill="#FFE231" transform="translate(145,29)"/>
    <path d="M0 0 C-1.5487544 3.48672455 -3.64512345 6.18554031 -6.0625 9.125 C-8.80448747 12.38551023 -8.80448747 12.38551023 -11 16 C-10.01 16.33 -9.02 16.66 -8 17 C-10.31 17 -12.62 17 -15 17 C-14.4213888 13.64405503 -13.35999139 12.35999139 -11 10 C-11 9.01 -11 8.02 -11 7 C-9.66666667 6 -8.33333333 5 -7 4 C-7 3.01 -7 2.02 -7 1 C-4.50935112 0.31292445 -2.62113708 0 0 0 Z "
          fill="#FDAB00" transform="translate(70,100)"/>
    <path d="M0 0 C0.33 0.99 0.66 1.98 1 3 C19.15 3 37.3 3 56 3 C54.35 4.65 52.7 6.3 51 8 C51 6.68 51 5.36 51 4 C34.17 4 17.34 4 0 4 C0 2.68 0 1.36 0 0 Z "
          fill="#FFF648" transform="translate(107,95)"/>
    <path d="M0 0 C0 0.99 0 1.98 0 3 C-1 4 -2 5 -3 6 C-3.67349161 7.66392045 -4.3409159 9.33032028 -5 11 C-5.99 11.495 -5.99 11.495 -7 12 C-7.33 12.99 -7.66 13.98 -8 15 C-7.34 15.33 -6.68 15.66 -6 16 C-7.98 16.66 -9.96 17.32 -12 18 C-12.3125 15.3125 -12.3125 15.3125 -12 12 C-9.8125 9.4375 -9.8125 9.4375 -7 7 C-6.113125 6.113125 -5.22625 5.22625 -4.3125 4.3125 C-2.875 2.875 -1.4375 1.4375 0 0 Z "
          fill="#FDC500" transform="translate(63,102)"/>
    <path d="M0 0 C-0.25 1.875 -0.25 1.875 -1 4 C-2.32467746 4.6837045 -3.65863633 5.34964186 -5 6 C-5.68268138 7.32520503 -6.3507041 8.65812182 -7 10 C-7.99 10.33 -8.98 10.66 -10 11 C-10 10.34 -10 9.68 -10 9 C-10.66 8.67 -11.32 8.34 -12 8 C-10.71064081 6.85157077 -9.41843421 5.70633773 -8.125 4.5625 C-7.04605469 3.60537109 -7.04605469 3.60537109 -5.9453125 2.62890625 C-3.83529848 0.86208728 -2.76919975 0 0 0 Z "
          fill="#E2A61E" transform="translate(175,102)"/>
    <path d="M0 0 C1.2077558 3.62326739 0.54311128 4.64146369 -1 8 C-1.66 8 -2.32 8 -3 8 C-3.18175781 8.62648438 -3.36351562 9.25296875 -3.55078125 9.8984375 C-3.80214844 10.71570313 -4.05351562 11.53296875 -4.3125 12.375 C-4.55613281 13.18710938 -4.79976562 13.99921875 -5.05078125 14.8359375 C-6 17 -6 17 -9 19 C-8.47731534 16.23723823 -7.89130413 13.6739124 -7 11 C-6.34 11 -5.68 11 -5 11 C-5 9.02 -5 7.04 -5 5 C-4.34 5 -3.68 5 -3 5 C-2.67 4.01 -2.34 3.02 -2 2 C-1.34 2 -0.68 2 0 2 C0 1.34 0 0.68 0 0 Z "
          fill="#C2A647" transform="translate(133,63)"/>
    <path d="M0 0 C0.66 0 1.32 0 2 0 C1.39363716 3.78806451 0.28838544 6.82895704 -1.4375 10.25 C-1.86933594 11.12140625 -2.30117187 11.9928125 -2.74609375 12.890625 C-4 15 -4 15 -6 16 C-5.67 15.236875 -5.34 14.47375 -5 13.6875 C-3.82563314 11.00930865 -3.82563314 11.00930865 -4 8 C-4.99 8 -5.98 8 -7 8 C-5.88200014 6.66079162 -4.75538103 5.32877444 -3.625 4 C-2.68527344 2.88625 -2.68527344 2.88625 -1.7265625 1.75 C-1.15679687 1.1725 -0.58703125 0.595 0 0 Z "
          fill="#FFFB9E" transform="translate(133,44)"/>
    <path d="M0 0 C-1.13471468 3.40414403 -2.17225987 4.24276648 -4.875 6.5 C-7.35415347 8.58578225 -9.7439576 10.67301287 -12 13 C-12 11.68 -12 10.36 -12 9 C-11.34 9 -10.68 9 -10 9 C-10 7.68 -10 6.36 -10 5 C-9.01 4.67 -8.02 4.34 -7 4 C-7 3.34 -7 2.68 -7 2 C-2.25 0 -2.25 0 0 0 Z "
          fill="#D69D21" transform="translate(148,128)"/>
    <path d="M0 0 C0.66 0 1.32 0 2 0 C0.375 6.75 0.375 6.75 -3 9 C-4.20450304 11.55183404 -4.20450304 11.55183404 -5 14 C-5.99 14 -6.98 14 -8 14 C-6.125 9.25 -6.125 9.25 -5 7 C-4.34 7 -3.68 7 -3 7 C-2.690625 6.030625 -2.38125 5.06125 -2.0625 4.0625 C-1 1 -1 1 0 0 Z "
          fill="#D39922" transform="translate(113,124)"/>
    <path d="M0 0 C0 3 0 3 -2.16796875 5.35546875 C-3.10253906 6.22816406 -4.03710938 7.10085937 -5 8 C-5.88300781 8.88300781 -6.76601562 9.76601562 -7.67578125 10.67578125 C-10.1171875 13.1171875 -12.55859375 15.55859375 -15 18 C-15 15 -15 15 -12.98828125 12.6953125 C-12.10527344 11.84710938 -11.22226563 10.99890625 -10.3125 10.125 C-9.44238281 9.28195313 -8.57226562 8.43890625 -7.67578125 7.5703125 C-6.79277344 6.72210938 -5.90976563 5.87390625 -5 5 C-3.3298815 3.33679233 -1.66216827 1.67115296 0 0 Z "
          fill="#FFF056" transform="translate(131,129)"/>
    <path d="M0 0 C0.66 0 1.32 0 2 0 C2 0.99 2 1.98 2 3 C1.34 3 0.68 3 0 3 C0 4.65 0 6.3 0 8 C-0.33 8 -0.66 8 -1 8 C-1.33 9.65 -1.66 11.3 -2 13 C-2.33 12.01 -2.66 11.02 -3 10 C-3.66 10 -4.32 10 -5 10 C-4.49890042 5.61537866 -3.01704885 3.1999003 0 0 Z "
          fill="#FDB51A" transform="translate(130,61)"/>
    <path d="M0 0 C0.33 0.66 0.66 1.32 1 2 C0.0625 4.625 0.0625 4.625 -1 7 C-1.66 7 -2.32 7 -3 7 C-3 7.66 -3 8.32 -3 9 C-3.66 9 -4.32 9 -5 9 C-5 9.66 -5 10.32 -5 11 C-5.66 11 -6.32 11 -7 11 C-7.33 11.99 -7.66 12.98 -8 14 C-8 12.68 -8 11.36 -8 10 C-7.34 10 -6.68 10 -6 10 C-6 8.02 -6 6.04 -6 4 C-4.68 4 -3.36 4 -2 4 C-1.34 2.68 -0.68 1.36 0 0 Z "
          fill="#DCAE33" transform="translate(138,54)"/>
    <path d="M0 0 C0 3.43801737 -0.37648923 4.96474074 -2 8 C-4.20931184 10.16339081 -6.56080866 12.10212652 -9 14 C-7.65070536 10.16336928 -5.92248975 7.34827431 -3.375 4.1875 C-2.42753906 3.00220703 -2.42753906 3.00220703 -1.4609375 1.79296875 C-0.97882813 1.20128906 -0.49671875 0.60960937 0 0 Z "
          fill="#FFDC2B" transform="translate(93,165)"/>
    <path d="M0 0 C0.66 0 1.32 0 2 0 C0.60846256 4.42761914 -1.52071486 6.9556255 -5 10 C-5.66 10 -6.32 10 -7 10 C-6.52727227 5.74545047 -4.03562624 3.80795427 -1 1 C-0.67 0.67 -0.34 0.34 0 0 Z "
          fill="#FFFB87" transform="translate(105,153)"/>
    <path d="M0 0 C0.99 0.33 1.98 0.66 3 1 C1.90344712 2.31886772 0.79746577 3.62990057 -0.3125 4.9375 C-0.92738281 5.66839844 -1.54226562 6.39929688 -2.17578125 7.15234375 C-4 9 -4 9 -7 10 C-6.52727227 5.74545047 -4.03562624 3.80795427 -1 1 C-0.67 0.67 -0.34 0.34 0 0 Z "
          fill="#E7C30D" transform="translate(97,68)"/>
    <path d="M0 0 C0.66 0 1.32 0 2 0 C1.67 1.32 1.34 2.64 1 4 C0.34 4 -0.32 4 -1 4 C-1.28875 4.7425 -1.5775 5.485 -1.875 6.25 C-3.8852459 11.16393443 -3.8852459 11.16393443 -5 13 C-5.99 13.33 -6.98 13.66 -8 14 C-7.690625 13.236875 -7.38125 12.47375 -7.0625 11.6875 C-6.32106407 9.81210323 -5.63771783 7.91315348 -5 6 C-4.34 5.67 -3.68 5.34 -3 5 C-2.505 4.154375 -2.01 3.30875 -1.5 2.4375 C-1.005 1.633125 -0.51 0.82875 0 0 Z "
          fill="#D79835" transform="translate(93,154)"/>
    <path d="M0 0 C0.33 0.99 0.66 1.98 1 3 C0.01 3.99 -0.98 4.98 -2 6 C-2 5.34 -2 4.68 -2 4 C-2.721875 4.7425 -3.44375 5.485 -4.1875 6.25 C-6.68592573 8.69290515 -9.23643202 10.8681047 -12 13 C-10.57401292 9.84296394 -8.8370866 7.41971432 -6.5625 4.8125 C-5.96566406 4.11769531 -5.36882812 3.42289063 -4.75390625 2.70703125 C-3 1 -3 1 0 0 Z "
          fill="#FFF35B" transform="translate(137,40)"/>
    <path d="M0 0 C0.66 0 1.32 0 2 0 C1.1875 1.9375 1.1875 1.9375 0 4 C-0.99 4.33 -1.98 4.66 -3 5 C-4.20882096 7.00016466 -4.20882096 7.00016466 -5 9 C-5.66 9 -6.32 9 -7 9 C-6.6875 6.625 -6.6875 6.625 -6 4 C-5.01 3.34 -4.02 2.68 -3 2 C-2.34 2.33 -1.68 2.66 -1 3 C-0.67 2.01 -0.34 1.02 0 0 Z "
          fill="#EC970E" transform="translate(113,158)"/>
    <path d="M0 0 C0.66 0.33 1.32 0.66 2 1 C0.92781799 2.01194706 -0.15826378 3.00918057 -1.25 4 C-2.15492187 4.8353125 -2.15492187 4.8353125 -3.078125 5.6875 C-5 7 -5 7 -9 7 C-8.375 5.125 -8.375 5.125 -7 3 C-3.9375 1.8125 -3.9375 1.8125 -1 1 C-0.67 0.67 -0.34 0.34 0 0 Z M-12 9 C-11.67 9.66 -11.34 10.32 -11 11 C-11.66 10.67 -12.32 10.34 -13 10 C-12.67 9.67 -12.34 9.34 -12 9 Z "
          fill="#FFC313" transform="translate(123,53)"/>
    <path d="M0 0 C0.66 0 1.32 0 2 0 C1.67 1.32 1.34 2.64 1 4 C0.34 4 -0.32 4 -1 4 C-1.12375 4.5775 -1.2475 5.155 -1.375 5.75 C-2.00648824 8.02335767 -2.88858191 9.9253529 -4 12 C-4.66 12 -5.32 12 -6 12 C-6 12.99 -6 13.98 -6 15 C-6.66 15 -7.32 15 -8 15 C-7.690625 14.236875 -7.38125 13.47375 -7.0625 12.6875 C-6.32106407 10.81210323 -5.63771783 8.91315348 -5 7 C-4.34 6.67 -3.68 6.34 -3 6 C-1.95191959 4.02477154 -0.9479589 2.02518491 0 0 Z "
          fill="#E69828" transform="translate(83,168)"/>
    <path d="M0 0 C0.66 0 1.32 0 2 0 C2 1.98 2 3.96 2 6 C-0.31 7.32 -2.62 8.64 -5 10 C-3.33333333 6.66666667 -1.66666667 3.33333333 0 0 Z "
          fill="#FEF589" transform="translate(135,107)"/>
    <path d="M0 0 C0.99 0 1.98 0 3 0 C2.57742724 1.4835001 2.13643678 2.96176424 1.6875 4.4375 C1.44386719 5.26121094 1.20023438 6.08492187 0.94921875 6.93359375 C0.63597656 7.61550781 0.32273438 8.29742187 0 9 C-0.99 9.33 -1.98 9.66 -3 10 C-2.01 6.7 -1.02 3.4 0 0 Z "
          fill="#DCA72E" transform="translate(142,43)"/>
    <path d="M0 0 C0 3 0 3 -2.3125 5.625 C-5 8 -5 8 -8 9 C-8 8.01 -8 7.02 -8 6 C-5.45600033 3.67721769 -3.09376059 1.54688029 0 0 Z "
          fill="#D6A427" transform="translate(163,113)"/>
    <path d="M0 0 C-1.38081223 4.1424367 -3.59825558 5.32203099 -7 8 C-6.65930765 4.84859577 -6.41923159 3.39218439 -4.0625 1.1875 C-2 0 -2 0 0 0 Z "
          fill="#EF9009" transform="translate(88,183)"/>
    <path d="M0 0 C-1.39789678 2.79579355 -3.2628997 3.59807058 -6 5 C-6.66 4.67 -7.32 4.34 -8 4 C-7.1875 2.0625 -7.1875 2.0625 -6 0 C-3 -1 -3 -1 0 0 Z "
          fill="#D79A1A" transform="translate(123,153)"/>
    <path d="M0 0 C0.66 0 1.32 0 2 0 C2 0.66 2 1.32 2 2 C3.65 1.34 5.3 0.68 7 0 C5.02 2.31 3.04 4.62 1 7 C0.34 6.67 -0.32 6.34 -1 6 C-0.835 5.195625 -0.67 4.39125 -0.5 3.5625 C0.03191839 1.2715557 0.03191839 1.2715557 0 0 Z "
          fill="#E8A502" transform="translate(88,76)"/>
    <path d="M0 0 C0.66 0.33 1.32 0.66 2 1 C1.3125 2.9375 1.3125 2.9375 0 5 C-2.625 5.75 -2.625 5.75 -5 6 C-5 5.34 -5 4.68 -5 4 C-3.37373596 2.61767557 -1.7074998 1.28062485 0 0 Z "
          fill="#F7B803" transform="translate(103,62)"/>
    <path d="M0 0 C0.66 0 1.32 0 2 0 C1.46930939 3.82097239 0.50298434 6.06171403 -2 9 C-2.6875 6.75 -2.6875 6.75 -3 4 C-1.6875 1.6875 -1.6875 1.6875 0 0 Z "
          fill="#FFFEB0" transform="translate(133,44)"/>
    <path d="M0 0 C1.98 0 3.96 0 6 0 C6 0.66 6 1.32 6 2 C3 4 3 4 -1 4 C-0.67 2.68 -0.34 1.36 0 0 Z " fill="#EB920D"
          transform="translate(61,203)"/>
    <path d="M0 0 C0.33 0.66 0.66 1.32 1 2 C0.22265625 3.7265625 0.22265625 3.7265625 -0.9375 5.625 C-1.618125 6.73875 -2.29875 7.8525 -3 9 C-3.66 9 -4.32 9 -5 9 C-4.690625 8.236875 -4.38125 7.47375 -4.0625 6.6875 C-3.32106407 4.81210323 -2.63771783 2.91315348 -2 1 C-1.34 0.67 -0.68 0.34 0 0 Z "
          fill="#E99816" transform="translate(70,189)"/>
    <path d="M0 0 C0.33 0.66 0.66 1.32 1 2 C-0.98 4.97 -0.98 4.97 -3 8 C-3.66 7.67 -4.32 7.34 -5 7 C-3.70700306 4.11562221 -2.34058637 2.12780579 0 0 Z "
          fill="#FFD920" transform="translate(145,29)"/>
    <path d="M0 0 C0.66 0 1.32 0 2 0 C1.34 2.31 0.68 4.62 0 7 C-0.99 7 -1.98 7 -3 7 C-1.125 2.25 -1.125 2.25 0 0 Z "
          fill="#C89433" transform="translate(108,131)"/>
    <path d="M0 0 C0 0.99 0 1.98 0 3 C-4.625 5.125 -4.625 5.125 -8 4 C-3.375 0 -3.375 0 0 0 Z " fill="#F6B315"
          transform="translate(150,125)"/>
    <path d="M0 0 C0.66 0 1.32 0 2 0 C2.33 1.98 2.66 3.96 3 6 C1.68 6 0.36 6 -1 6 C-0.67 4.02 -0.34 2.04 0 0 Z "
          fill="#DBB123" transform="translate(122,82)"/>
    <path d="M0 0 C0.99 0.33 1.98 0.66 3 1 C1.68 2.32 0.36 3.64 -1 5 C-1.99 4.67 -2.98 4.34 -4 4 C-2.68 2.68 -1.36 1.36 0 0 Z "
          fill="#D6B30B" transform="translate(97,68)"/>
    <path d="M0 0 C0.8125 1.6875 0.8125 1.6875 1 4 C-1.4375 6.75 -1.4375 6.75 -4 9 C-3.46930939 5.17902761 -2.50298434 2.93828597 0 0 Z "
          fill="#F6BB1A" transform="translate(139,49)"/>
</svg>
