<?xml version="1.0" encoding="UTF-8"?>
<svg version="1.1" xmlns="http://www.w3.org/2000/svg" width="32" height="32" viewBox="0 0 240 240">
    <path d="M0 0 C3.66 2.85 5.71 5.54 7 10 C7 10.99 7 11.98 7 13 C7.66 13 8.32 13 9 13 C12 19.62 12 19.62 12 23 C12.66 23 13.32 23 14 23 C17 29.62 17 29.62 17 33 C17.66 33 18.32 33 19 33 C22 39.62 22 39.62 22 43 C23.48 43.49 23.48 43.49 25 44 C25.77 45.63 26.52 47.27 27.17 48.95 C28.34 51.83 29.79 54.55 31.23 57.3 C32 59 32 59 32 61 C32.66 61 33.32 61 34 61 C34.24 61.62 34.48 62.23 34.73 62.87 C36.77 68.02 38.9 73.08 41.27 78.09 C42 80 42 80 42 83 C42.66 83 43.32 83 44 83 C44.51 84.25 45.01 85.5 45.5 86.75 C45.78 87.45 46.06 88.14 46.34 88.86 C47 91 47 91 47 95 C47.66 95 48.32 95 49 95 C49.17 95.95 49.17 95.95 49.35 96.91 C49.88 99.75 50.41 102.6 50.94 105.44 C51.21 106.93 51.21 106.93 51.49 108.45 C51.67 109.39 51.84 110.34 52.03 111.31 C52.27 112.62 52.27 112.62 52.52 113.96 C52.81 115.98 52.81 115.98 54 117 C54.09 118.85 54.11 120.71 54.1 122.57 C54.09 124.25 54.09 124.25 54.09 125.97 C54.08 127.75 54.08 127.75 54.06 129.56 C54.06 130.75 54.05 131.94 54.05 133.16 C54.04 136.11 54.02 139.05 54 142 C53.34 142 52.68 142 52 142 C51.93 142.87 51.93 142.87 51.85 143.76 C51.4 148.44 50.7 152.57 49 157 C48.34 157 47.68 157 47 157 C46.92 157.54 46.84 158.07 46.75 158.62 C45.72 161.89 43.99 164.21 42 167 C41.53 167.68 41.06 168.36 40.58 169.06 C37.74 173.05 35.44 175.72 31 178 C30.67 178.66 30.34 179.32 30 180 C24.69 183 24.69 183 21 183 C21 183.66 21 184.32 21 185 C19.44 185.51 17.88 186.01 16.31 186.5 C15.01 186.92 15.01 186.92 13.68 187.34 C11.01 188 8.74 188.12 6 188 C6 188.66 6 189.32 6 190 C3.12 190.05 0.25 190.09 -2.62 190.12 C-3.43 190.14 -4.24 190.16 -5.07 190.18 C-9.83 190.21 -13.52 189.78 -18 188 C-19.79 187.45 -21.58 186.91 -23.38 186.38 C-24.25 186.11 -25.12 185.85 -26.02 185.59 C-27 185.3 -27 185.3 -28 185 C-28 184.34 -28 183.68 -28 183 C-28.87 182.81 -28.87 182.81 -29.75 182.62 C-32.02 181.99 -33.93 181.11 -36 180 C-36 179.34 -36 178.68 -36 178 C-37.08 177.66 -37.08 177.66 -38.19 177.31 C-43.56 174.8 -45.91 171.37 -48 166 C-48.99 165.67 -49.98 165.34 -51 165 C-52.65 162.4 -53 161.14 -53 158 C-53.66 158 -54.32 158 -55 158 C-55.63 155.98 -56.25 153.96 -56.88 151.94 C-57.22 150.81 -57.57 149.69 -57.93 148.53 C-58.28 147.36 -58.64 146.2 -59 145 C-59.55 143.33 -59.55 143.33 -60.12 141.63 C-61.17 137.32 -61.26 133.41 -61.19 129 C-61.19 128.23 -61.19 127.46 -61.19 126.67 C-61.15 122.02 -60.76 117.59 -60 113 C-59.34 113 -58.68 113 -58 113 C-58.06 111.93 -58.12 110.86 -58.19 109.75 C-58.22 103.96 -56.55 98.54 -55 93 C-54.34 93 -53.68 93 -53 93 C-52.88 91.97 -52.75 90.94 -52.62 89.88 C-52.06 86.38 -51.21 83.32 -50 80 C-49.34 80 -48.68 80 -48 80 C-46.52 74.56 -46.52 74.56 -45 69 C-44.34 69 -43.68 69 -43 69 C-42.88 68.28 -42.75 67.56 -42.62 66.81 C-42.01 64.04 -41.12 61.6 -40 59 C-39.34 59 -38.68 59 -38 59 C-37.88 58.28 -37.75 57.56 -37.62 56.81 C-37.01 54.04 -36.12 51.6 -35 49 C-34.34 49 -33.68 49 -33 49 C-32.88 48.28 -32.75 47.56 -32.62 46.81 C-32.01 44.04 -31.12 41.6 -30 39 C-29.34 39 -28.68 39 -28 39 C-27.88 38.28 -27.75 37.56 -27.62 36.81 C-27.01 34.04 -26.12 31.6 -25 29 C-24.34 29 -23.68 29 -23 29 C-22.81 27.92 -22.81 27.92 -22.62 26.81 C-22.01 24.04 -21.12 21.6 -20 19 C-19.34 19 -18.68 19 -18 19 C-17.81 17.92 -17.81 17.92 -17.62 16.81 C-17.01 14.04 -16.12 11.6 -15 9 C-14.34 9 -13.68 9 -13 9 C-12.81 8.13 -12.81 8.13 -12.62 7.25 C-11.98 4.93 -11.27 3.05 -10 1 C-6.36 -0.21 -3.82 -0.4 0 0 Z "
          fill="#1BADF2" transform="translate(123,27)"/>
    <path d="M0 0 C2.91 1.46 3.65 3.05 5 6 C5.37 8.33 5.71 10.66 6 13 C6.65 14.67 7.32 16.34 8 18 C8.69 20.14 9.35 22.29 10 24.44 C10.97 27.64 11.94 30.83 13.06 33.98 C14.08 37.26 14.57 40.42 15.06 43.81 C16.35 51.5 18.79 58.68 21.44 66 C21.82 67.06 22.2 68.12 22.6 69.22 C24.75 75.02 27.13 80.52 30 86 C33.23 92.95 34.15 98.8 34.19 106.44 C34.2 107.69 34.22 108.95 34.23 110.25 C33.82 116.94 31.98 122.65 28 128 C25.04 129.18 23.09 129.66 20 130 C19.05 130.11 18.1 130.22 17.12 130.33 C-19 133.7 -19 133.7 -31 126 C-35.75 120 -35.49 114.5 -35.25 107.06 C-35.23 106 -35.21 104.93 -35.2 103.83 C-35.15 101.22 -35.08 98.61 -35 96 C-34.34 96 -33.68 96 -33 96 C-32.82 94.73 -32.82 94.73 -32.63 93.43 C-31.98 89.88 -31.03 86.56 -29.94 83.12 C-29.58 81.97 -29.21 80.82 -28.84 79.63 C-28.56 78.76 -28.29 77.9 -28 77 C-27.34 77 -26.68 77 -26 77 C-25.58 75.07 -25.58 75.07 -25.15 73.09 C-24.06 68.2 -22.84 63.35 -21.56 58.5 C-21.36 57.71 -21.15 56.92 -20.94 56.11 C-19.7 51.35 -18.26 46.71 -16.68 42.06 C-15.78 39.32 -15.09 36.56 -14.44 33.75 C-13.76 30.87 -13.07 28.18 -11.96 25.43 C-11.01 23.03 -10.54 20.86 -10.12 18.31 C-6.64 0 -6.64 0 0 0 Z "
          fill="#BEF2FE" transform="translate(120,31)"/>
    <path d="M0 0 C6.71 5.11 6.71 5.11 8 10 C8 10.99 8 11.98 8 13 C8.66 13 9.32 13 10 13 C13 19.62 13 19.62 13 23 C13.66 23 14.32 23 15 23 C18 29.62 18 29.62 18 33 C18.66 33 19.32 33 20 33 C23 39.62 23 39.62 23 43 C24.48 43.49 24.48 43.49 26 44 C26.77 45.63 27.52 47.27 28.17 48.95 C29.34 51.83 30.79 54.55 32.23 57.3 C33 59 33 59 33 61 C33.66 61 34.32 61 35 61 C35.24 61.62 35.48 62.23 35.73 62.87 C37.77 68.02 39.9 73.08 42.27 78.09 C43 80 43 80 43 83 C43.66 83 44.32 83 45 83 C45.51 84.25 46.01 85.5 46.5 86.75 C46.78 87.45 47.06 88.14 47.34 88.86 C48 91 48 91 48 95 C48.66 95 49.32 95 50 95 C50.17 95.95 50.17 95.95 50.35 96.91 C50.88 99.75 51.41 102.6 51.94 105.44 C52.21 106.93 52.21 106.93 52.49 108.45 C52.67 109.39 52.84 110.34 53.03 111.31 C53.19 112.18 53.35 113.06 53.52 113.96 C53.81 115.98 53.81 115.98 55 117 C55.07 118.69 55.08 120.38 55.06 122.06 C55.05 122.98 55.04 123.9 55.04 124.85 C55.02 125.56 55.01 126.27 55 127 C54.67 125.68 54.34 124.36 54 123 C53.01 123 52.02 123 51 123 C50.67 122.34 50.34 121.68 50 121 C49.34 121.66 48.68 122.32 48 123 C47.34 116.07 46.68 109.14 46 102 C45.01 102.33 44.02 102.66 43 103 C42.67 98.38 42.34 93.76 42 89 C41.34 89 40.68 89 40 89 C39.5 87.54 39 86.08 38.5 84.62 C38.22 83.81 37.94 83 37.66 82.16 C37 80 37 80 37 78 C36.34 78 35.68 78 35 78 C34.34 78.99 33.68 79.98 33 81 C32.67 76.71 32.34 72.42 32 68 C30.68 68 29.36 68 28 68 C27.34 64.37 26.68 60.74 26 57 C25.01 57.99 24.02 58.98 23 60 C22.5 55.05 22.5 55.05 22 50 C21.01 50 20.02 50 19 50 C18.01 46.53 18.01 46.53 17 43 C16.67 43 16.34 43 16 43 C16 41.02 16 39.04 16 37 C15.34 37 14.68 37 14 37 C13.75 36.07 13.49 35.14 13.23 34.18 C11.49 27.94 9.75 21.89 7 16 C6.67 15.01 6.34 14.02 6 13 C5.52 12.55 5.04 12.1 4.54 11.64 C2.54 9.52 2.08 7.61 1.31 4.81 C1.06 3.91 0.81 3.01 0.55 2.08 C0.37 1.39 0.19 0.71 0 0 Z "
          fill="#0086CA" transform="translate(122,27)"/>
    <path d="M0 0 C1.34 3.34 0.68 5.59 -0.39 8.93 C-1.33 12.13 -1.86 15.39 -2.44 18.67 C-3 21 -3 21 -4.02 22.82 C-5.46 26.03 -5.47 29.29 -5.62 32.75 C-5.66 33.45 -5.7 34.14 -5.74 34.86 C-5.84 36.58 -5.92 38.29 -6 40 C-5.36 40.29 -4.72 40.58 -4.06 40.88 C-2 42 -2 42 -1 44 C-0.01 44.33 0.98 44.66 2 45 C2.56 45.67 3.12 46.34 3.7 47.02 C6.88 49.76 9.86 49.6 13.88 49.62 C18.95 49.72 23.19 50.29 28 52 C29.32 52 30.64 52 32 52 C32 51.34 32 50.68 32 50 C38.62 48.88 38.62 48.88 42 50 C42 49.34 42 48.68 42 48 C43.46 47.16 44.91 46.33 46.38 45.5 C47.19 45.04 48 44.57 48.84 44.09 C51 43 51 43 53 43 C53.66 41.35 54.32 39.7 55 38 C55.66 38 56.32 38 57 38 C57.09 30.58 57.17 23.34 56 16 C59.33 18.6 59.49 20.91 60 25 C60.11 27.48 60.17 29.96 60.19 32.44 C60.2 33.69 60.22 34.95 60.23 36.25 C59.82 42.94 57.98 48.65 54 54 C51.04 55.18 49.09 55.66 46 56 C45.05 56.11 44.1 56.22 43.12 56.33 C7 59.7 7 59.7 -5 52 C-9.75 46 -9.49 40.5 -9.25 33.06 C-9.23 32 -9.21 30.93 -9.2 29.83 C-9.15 27.22 -9.08 24.61 -9 22 C-8.34 22 -7.68 22 -7 22 C-6.88 21.15 -6.76 20.3 -6.63 19.43 C-5.98 15.88 -5.03 12.56 -3.94 9.12 C-3.58 7.97 -3.21 6.82 -2.84 5.63 C-2.56 4.76 -2.29 3.9 -2 3 C-1.34 3 -0.68 3 0 3 C0 2.01 0 1.02 0 0 Z "
          fill="#53D1FF" transform="translate(94,105)"/>
    <path d="M0 0 C0.66 0 1.32 0 2 0 C1.77 1.54 1.51 3.09 1.25 4.62 C1.11 5.48 0.97 6.34 0.83 7.23 C-0.19 10.65 -2.01 13.04 -4 16 C-4.93 18.31 -5.78 20.64 -6.56 23 C-8.08 27.55 -9.81 31.73 -12 36 C-12.64 37.6 -13.27 39.2 -13.88 40.81 C-16.21 46.75 -19.21 52.18 -22.62 57.56 C-23.85 59.73 -24.59 61.65 -25.38 64 C-26.78 67.97 -28.98 70.06 -32 73 C-34.22 77.54 -34.15 81.69 -33.97 86.63 C-34 88.95 -34.41 90.78 -35 93 C-35 93.99 -35 94.98 -35 96 C-35.48 96.47 -35.97 96.94 -36.46 97.43 C-38.39 99.4 -38.41 100.42 -38.56 103.12 C-39.08 109.51 -40.12 115.26 -43 121 C-43.38 122.99 -43.73 124.99 -44 127 C-45.98 127.5 -45.98 127.5 -48 128 C-48.18 113.22 -48.18 113.22 -47 107 C-46.34 107 -45.68 107 -45 107 C-45.06 105.93 -45.12 104.86 -45.19 103.75 C-45.22 97.96 -43.55 92.54 -42 87 C-41.34 87 -40.68 87 -40 87 C-39.88 85.97 -39.75 84.94 -39.62 83.88 C-39.06 80.38 -38.21 77.32 -37 74 C-36.34 74 -35.68 74 -35 74 C-33.52 68.56 -33.52 68.56 -32 63 C-31.34 63 -30.68 63 -30 63 C-29.88 62.28 -29.75 61.56 -29.62 60.81 C-29.01 58.04 -28.12 55.6 -27 53 C-26.34 53 -25.68 53 -25 53 C-24.88 52.28 -24.75 51.56 -24.62 50.81 C-24.01 48.04 -23.12 45.6 -22 43 C-21.34 43 -20.68 43 -20 43 C-19.88 42.28 -19.75 41.56 -19.62 40.81 C-19.01 38.04 -18.12 35.6 -17 33 C-16.34 33 -15.68 33 -15 33 C-14.88 32.28 -14.75 31.56 -14.62 30.81 C-14.01 28.04 -13.12 25.6 -12 23 C-11.34 23 -10.68 23 -10 23 C-9.81 21.92 -9.81 21.92 -9.62 20.81 C-9.01 18.04 -8.12 15.6 -7 13 C-6.34 13 -5.68 13 -5 13 C-4.81 11.92 -4.81 11.92 -4.62 10.81 C-4.01 8.04 -3.12 5.6 -2 3 C-1.34 3 -0.68 3 0 3 C0 2.01 0 1.02 0 0 Z "
          fill="#0070B2" transform="translate(110,33)"/>
    <path d="M0 0 C3.08 5.42 3.08 5.42 2.69 8.38 C2.46 8.91 2.23 9.45 2 10 C1.01 8.35 0.02 6.7 -1 5 C-3.87 5.57 -4.86 5.86 -7 8 C-9.59 14.4 -11.28 20.93 -12.51 27.71 C-13.12 30.54 -14.12 33.09 -15.2 35.77 C-16.86 40.4 -17.88 45.22 -19 50 C-19.78 50.09 -20.56 50.17 -21.37 50.26 C-24.08 50.73 -24.08 50.73 -25.26 52.74 C-25.69 53.8 -25.69 53.8 -26.12 54.88 C-27.75 58.76 -27.75 58.76 -29.6 60.49 C-31.44 62.48 -31.27 63.59 -31.25 66.25 C-31.62 71.23 -33.62 73.3 -37.31 76.49 C-39.98 78.87 -40.98 80.94 -41.94 84.38 C-42.92 87.72 -44.02 90.15 -46 93 C-46.33 93 -46.66 93 -47 93 C-47.48 86.4 -46.35 81.74 -43 76 C-41.67 74.67 -40.33 73.33 -39 72 C-37.5 69.07 -36.27 66.04 -35 63 C-33.62 60.11 -32.16 57.29 -30.59 54.5 C-27.78 49.51 -25.43 44.8 -23.78 39.32 C-22.54 35.63 -20.84 32.17 -19.2 28.66 C-18.12 26.27 -17.19 23.9 -16.31 21.44 C-15 18 -15 18 -13 16 C-12.41 13.85 -11.9 11.68 -11.44 9.5 C-10.09 3.17 -10.09 3.17 -9 1 C-5.8 -0.07 -3.34 -0.07 0 0 Z "
          fill="#0099DF" transform="translate(122,27)"/>
    <path d="M0 0 C1.88 0.22 1.88 0.22 4 1 C5.12 2.97 5.12 2.97 6 5.5 C7.56 9.81 9.31 13.94 11.27 18.09 C12 20 12 20 12 23 C12.66 23 13.32 23 14 23 C14.51 24.25 15.01 25.5 15.5 26.75 C15.78 27.45 16.06 28.14 16.34 28.86 C17 31 17 31 17 35 C17.66 35 18.32 35 19 35 C19.12 35.63 19.23 36.26 19.35 36.91 C19.88 39.75 20.41 42.6 20.94 45.44 C21.12 46.43 21.3 47.42 21.49 48.45 C21.76 49.86 21.76 49.86 22.03 51.31 C22.27 52.62 22.27 52.62 22.52 53.96 C22.81 55.98 22.81 55.98 24 57 C24.07 58.69 24.08 60.38 24.06 62.06 C24.05 62.98 24.04 63.9 24.04 64.85 C24.02 65.56 24.01 66.27 24 67 C23.67 65.68 23.34 64.36 23 63 C22.01 63 21.02 63 20 63 C19.67 62.34 19.34 61.68 19 61 C18.34 61.66 17.68 62.32 17 63 C16.34 56.07 15.68 49.14 15 42 C13.52 42.49 13.52 42.49 12 43 C11.67 38.38 11.34 33.76 11 29 C10.34 29 9.68 29 9 29 C8.5 27.54 8 26.08 7.5 24.62 C7.22 23.81 6.94 23 6.66 22.16 C6 20 6 20 6 18 C5.34 18 4.68 18 4 18 C3.8 17.04 3.59 16.07 3.38 15.08 C2.97 13.18 2.97 13.18 2.56 11.25 C2.16 9.37 2.16 9.37 1.75 7.45 C1.21 4.95 0.64 2.47 0 0 Z "
          fill="#026EAD" transform="translate(153,87)"/>
    <path d="M0 0 C1.34 3.34 0.68 5.59 -0.39 8.93 C-1.33 12.13 -1.86 15.39 -2.44 18.67 C-3 21 -3 21 -4.02 22.82 C-5.46 26.03 -5.47 29.29 -5.62 32.75 C-5.66 33.45 -5.7 34.14 -5.74 34.86 C-5.84 36.58 -5.92 38.29 -6 40 C-5.36 40.29 -4.72 40.58 -4.06 40.88 C-2 42 -2 42 -1 44 C-0.01 44.33 0.98 44.66 2 45 C2.56 45.67 3.12 46.34 3.7 47.02 C6.88 49.76 9.86 49.6 13.88 49.62 C18.95 49.72 23.19 50.29 28 52 C29.32 52 30.64 52 32 52 C32 51.34 32 50.68 32 50 C38.62 48.88 38.62 48.88 42 50 C42 49.34 42 48.68 42 48 C42.77 47.59 43.54 47.18 44.34 46.76 C45.34 46.22 46.34 45.68 47.38 45.12 C48.37 44.59 49.37 44.06 50.4 43.51 C53.05 42.12 53.05 42.12 55 40 C55.99 40 56.98 40 58 40 C57.65 42.7 57.27 43.77 55.17 45.56 C41.46 53.7 25.62 56.89 9.78 53.53 C8.17 53.07 6.58 52.54 5 52 C5 51.34 5 50.68 5 50 C3.74 49.96 2.48 49.92 1.19 49.88 C-1.03 49.61 -1.03 49.61 -3 49 C-4.88 46.12 -4.88 46.12 -6 43 C-6.66 42.01 -7.32 41.02 -8 40 C-8.22 37.06 -8.32 34.25 -8.31 31.31 C-8.33 30.53 -8.34 29.76 -8.36 28.96 C-8.37 24.06 -7.62 20.27 -5.73 15.76 C-4.83 13.59 -4.33 11.43 -3.88 9.12 C-3.42 6.84 -3.05 5.09 -2 3 C-1.34 3 -0.68 3 0 3 C0 2.01 0 1.02 0 0 Z "
          fill="#6CD7FF" transform="translate(94,105)"/>
    <path d="M0 0 C3.08 5.42 3.08 5.42 2.69 8.38 C2.46 8.91 2.23 9.45 2 10 C1.01 8.35 0.02 6.7 -1 5 C-3.87 5.57 -4.86 5.86 -7 8 C-9.59 14.4 -11.28 20.93 -12.51 27.71 C-13.12 30.54 -14.12 33.09 -15.2 35.77 C-16.86 40.4 -17.88 45.22 -19 50 C-19.33 50 -19.66 50 -20 50 C-19.98 48.89 -19.96 47.77 -19.94 46.62 C-19.74 43.17 -19.74 43.17 -21 41 C-20.04 38.21 -20.04 38.21 -18.62 34.94 C-18.16 33.85 -17.7 32.77 -17.23 31.65 C-16 29 -16 29 -15 28 C-14.66 26.43 -14.37 24.85 -14.1 23.27 C-13.93 22.3 -13.76 21.33 -13.59 20.34 C-13.24 18.29 -12.89 16.25 -12.55 14.21 C-12.38 13.24 -12.21 12.27 -12.04 11.27 C-11.88 10.38 -11.73 9.49 -11.58 8.57 C-10.97 5.85 -10.25 3.49 -9 1 C-5.8 -0.07 -3.34 -0.07 0 0 Z "
          fill="#10ADF3" transform="translate(122,27)"/>
    <path d="M0 0 C0.66 0.66 1.32 1.32 2 2 C1.62 3.94 1.62 3.94 1 6 C1 6.99 1 7.98 1 9 C0.52 9.47 0.03 9.94 -0.46 10.43 C-2.39 12.4 -2.41 13.42 -2.56 16.12 C-3.08 22.51 -4.12 28.26 -7 34 C-7.38 35.99 -7.73 37.99 -8 40 C-9.98 40.49 -9.98 40.49 -12 41 C-12.05 39.08 -12.09 37.17 -12.12 35.25 C-12.15 34.18 -12.17 33.12 -12.2 32.02 C-12 29.05 -11.64 27.45 -10 25 C-9.34 24.67 -8.68 24.34 -8 24 C-7.25 21.88 -7.25 21.88 -6.71 19.31 C-6.49 18.36 -6.27 17.42 -6.05 16.45 C-5.71 14.96 -5.71 14.96 -5.38 13.44 C-5.15 12.44 -4.92 11.44 -4.68 10.42 C-4.11 7.95 -3.55 5.47 -3 3 C-2.34 3 -1.68 3 -1 3 C-0.67 2.01 -0.34 1.02 0 0 Z "
          fill="#027EC3" transform="translate(74,120)"/>
    <path d="M0 0 C0.69 1.81 0.69 1.81 1 4 C0.52 4.42 0.03 4.84 -0.46 5.28 C-2.65 7.73 -2.27 9.52 -2.25 12.75 C-2.5 17.43 -3.03 19.78 -6.44 23.06 C-7.05 23.57 -7.67 24.08 -8.31 24.6 C-11.05 26.87 -11.99 28.97 -12.94 32.38 C-13.92 35.72 -15.02 38.15 -17 41 C-17.33 41 -17.66 41 -18 41 C-18.48 34.4 -17.35 29.74 -14 24 C-12 22 -12 22 -10 20 C-8.5 17.07 -7.27 14.04 -6 11 C-4.18 7.21 -2.21 3.58 0 0 Z "
          fill="#0090D6" transform="translate(93,79)"/>
    <path d="M0 0 C3.33 2.6 3.5 4.91 4 9 C4.11 11.52 4.17 14.04 4.19 16.56 C4.2 17.84 4.22 19.12 4.23 20.44 C4.01 23.83 3.44 25.97 2 29 C1.67 29.89 1.34 30.77 1 31.69 C-1.83 34.96 -4.66 35.04 -8.82 35.64 C-10.97 35.78 -10.97 35.78 -12 37 C-13.67 37.04 -15.33 37.04 -17 37 C-13.39 34.06 -9.77 32.65 -5.44 31.06 C-2.92 29.97 -1.05 28.83 1 27 C1.33 26.01 1.66 25.02 2 24 C0.68 24.33 -0.64 24.66 -2 25 C-1.67 24.01 -1.34 23.02 -1 22 C-0.34 22 0.32 22 1 22 C1.09 14.58 1.17 7.34 0 0 Z "
          fill="#6FC3FD" transform="translate(150,121)"/>
    <path d="M0 0 C0.99 0 1.98 0 3 0 C6 6.62 6 6.62 6 10 C6.66 10 7.32 10 8 10 C11 16.62 11 16.62 11 20 C11.99 20.33 12.98 20.66 14 21 C15.08 23.3 16.08 25.63 17 28 C17.41 28.7 17.82 29.4 18.25 30.12 C19.27 32.68 18.72 34.4 18 37 C16 35 16 35 14.75 31.44 C13.59 28.16 12.14 25.58 10.12 22.75 C5.31 15.84 2.6 7.96 0 0 Z "
          fill="#0266AD" transform="translate(134,50)"/>
    <path d="M0 0 C0 4.08 -1.37 6.97 -4 10 C-6.97 11.19 -8.89 11.66 -12 12 C-13.09 12.12 -14.18 12.24 -15.3 12.36 C-24.39 13.2 -24.39 13.2 -28 12 C-27 11 -27 11 -23.88 10.62 C-20.48 10.08 -18.04 9.2 -14.96 7.75 C-12.58 6.84 -10.27 6.51 -7.75 6.12 C-3.69 5.44 -3.69 5.44 -0.88 2.38 C-0.59 1.59 -0.3 0.81 0 0 Z "
          fill="#43C2FF" transform="translate(152,149)"/>
    <path d="M0 0 C1.07 2.71 1.11 3.74 -0.04 6.48 C-0.56 7.37 -1.09 8.27 -1.62 9.19 C-2.18 10.16 -2.74 11.13 -3.31 12.12 C-3.87 13.07 -4.42 14.02 -5 15 C-7.56 19.42 -9.97 23.68 -11.69 28.5 C-13 32 -13 32 -15 33 C-14.98 32.26 -14.96 31.52 -14.94 30.75 C-14.99 28.3 -15.31 26.34 -16 24 C-15.39 23.74 -14.77 23.48 -14.14 23.22 C-11.75 21.86 -11.04 20.91 -9.75 18.52 C-9.37 17.83 -8.99 17.14 -8.6 16.43 C-8.21 15.71 -7.83 14.99 -7.44 14.25 C-7.05 13.55 -6.67 12.84 -6.27 12.12 C-4.09 8.12 -2.01 4.08 0 0 Z "
          fill="#0077B9" transform="translate(96,69)"/>
    <path d="M0 0 C1.88 0.22 1.88 0.22 4 1 C5.12 2.97 5.12 2.97 6 5.5 C7.55 9.81 9.33 13.89 11.36 17.99 C12.12 20.38 11.81 21.66 11 24 C10.16 22.93 9.32 21.84 8.5 20.75 C8.04 20.15 7.57 19.54 7.09 18.92 C6 17 6 17 6 13 C5.34 13 4.68 13 4 13 C3.33 11.4 2.66 9.79 2 8.19 C1.63 7.29 1.26 6.4 0.88 5.48 C0 3 0 3 0 0 Z "
          fill="#0067A6" transform="translate(153,87)"/>
    <path d="M0 0 C3.08 5.42 3.08 5.42 2.69 8.38 C2.46 8.91 2.23 9.45 2 10 C1.01 8.35 0.02 6.7 -1 5 C-3.73 5.37 -4.81 5.79 -6.7 7.85 C-7.21 8.58 -7.72 9.31 -8.25 10.06 C-8.77 10.8 -9.29 11.53 -9.83 12.29 C-10.41 13.13 -10.41 13.13 -11 14 C-12.3 11.4 -11.79 10.29 -11.12 7.5 C-10.94 6.71 -10.76 5.91 -10.57 5.09 C-10 3 -10 3 -9 1 C-5.8 -0.07 -3.34 -0.07 0 0 Z "
          fill="#0496D8" transform="translate(122,27)"/>
    <path d="M0 0 C3.09 2.53 3.91 5.22 5 9 C5.66 8.01 6.32 7.02 7 6 C7.66 7.65 8.32 9.3 9 11 C8.34 11 7.68 11 7 11 C7.3 11.68 7.6 12.36 7.91 13.05 C10.68 19.83 11.43 24.81 10 32 C9.67 32 9.34 32 9 32 C8.67 27.71 8.34 23.42 8 19 C6.68 19 5.36 19 4 19 C3.88 18.13 3.76 17.26 3.63 16.37 C3.47 15.21 3.3 14.06 3.12 12.88 C2.96 11.74 2.8 10.6 2.63 9.43 C2.03 6.14 1.14 3.14 0 0 Z "
          fill="#0079BD" transform="translate(146,76)"/>
    <path d="M0 0 C0.66 0 1.32 0 2 0 C2.49 5.33 0.92 8.78 -1.75 13.25 C-2.1 13.87 -2.45 14.5 -2.8 15.14 C-4.76 18.49 -6.24 20.75 -10 22 C-9.01 18.54 -9.01 18.54 -8 15 C-7.34 15 -6.68 15 -6 15 C-5.81 13.92 -5.81 13.92 -5.62 12.81 C-5.01 10.04 -4.12 7.6 -3 5 C-2.34 5 -1.68 5 -1 5 C-0.67 3.35 -0.34 1.7 0 0 Z "
          fill="#016CAB" transform="translate(91,71)"/>
    <path d="M0 0 C1.32 0.33 2.64 0.66 4 1 C4.08 4.04 3.98 6.07 3 9 C2.65 11 2.31 13 2 15 C0.68 15.33 -0.64 15.66 -2 16 C-2.05 14.08 -2.09 12.17 -2.12 10.25 C-2.15 9.18 -2.17 8.12 -2.2 7.02 C-2 4.08 -1.53 2.48 0 0 Z "
          fill="#1485C4" transform="translate(64,145)"/>
    <path d="M0 0 C2.1 2.36 2.97 3.55 3.19 6.75 C3.09 7.86 3.09 7.86 3 9 C3.66 9 4.32 9 5 9 C5.48 10.71 5.96 12.42 6.44 14.12 C6.84 15.55 6.84 15.55 7.25 17.01 C8.6 22.38 9.12 27.34 9.06 32.88 C9.05 34.03 9.04 35.18 9.04 36.37 C9.02 37.24 9.01 38.1 9 39 C8.67 39 8.34 39 8 39 C7.34 32.07 6.68 25.14 6 18 C5.01 18.33 4.02 18.66 3 19 C2.67 14.38 2.34 9.76 2 5 C1.34 5 0.68 5 0 5 C0 3.35 0 1.7 0 0 Z "
          fill="#007EC4" transform="translate(162,111)"/>
    <path d="M0 0 C1.34 3.34 0.68 5.59 -0.39 8.93 C-1.33 12.13 -1.86 15.39 -2.44 18.67 C-3 21 -3 21 -4.02 23 C-5.15 25.31 -5.4 27.2 -5.62 29.75 C-5.7 30.55 -5.77 31.35 -5.85 32.17 C-5.9 32.78 -5.95 33.38 -6 34 C-6.33 34 -6.66 34 -7 34 C-7.05 32.27 -7.09 30.54 -7.12 28.81 C-7.15 27.85 -7.17 26.89 -7.2 25.89 C-6.99 22.82 -6.17 20.82 -5 18 C-4.59 15.78 -4.24 13.55 -3.94 11.31 C-3.1 5.2 -3.1 5.2 -2 3 C-1.34 3 -0.68 3 0 3 C0 2.01 0 1.02 0 0 Z "
          fill="#B2E5FF" transform="translate(94,105)"/>
    <path d="M0 0 C0.33 0 0.66 0 1 0 C1.03 1.22 1.05 2.44 1.08 3.69 C1.13 5.32 1.19 6.94 1.25 8.56 C1.26 9.36 1.28 10.16 1.29 10.99 C1.53 16.8 2.84 20.13 6 25 C6.72 26.98 7.41 28.98 8 31 C6.25 30.94 6.25 30.94 4 30 C-0.63 23.87 -0.49 18.55 -0.25 11.06 C-0.23 10 -0.21 8.93 -0.2 7.83 C-0.15 5.22 -0.08 2.61 0 0 Z "
          fill="#48C0FF" transform="translate(85,127)"/>
    <path d="M0 0 C0.33 0.66 0.66 1.32 1 2 C1.99 2.33 2.98 2.66 4 3 C4.88 4.71 4.88 4.71 5.56 6.81 C6.34 9.12 7.04 11.07 8.25 13.19 C9.29 15.71 8.71 17.43 8 20 C7.01 19.34 6.02 18.68 5 18 C4.38 14.56 4.38 14.56 4 11 C3.67 10.01 3.34 9.02 3 8 C2.01 7.67 1.02 7.34 0 7 C0 4.69 0 2.38 0 0 Z "
          fill="#16A5E7" transform="translate(125,37)"/>
    <path d="M0 0 C0.99 0 1.98 0 3 0 C2.67 2.92 2.22 3.83 -0.11 5.7 C-0.98 6.21 -1.85 6.72 -2.75 7.25 C-3.61 7.77 -4.47 8.29 -5.36 8.83 C-8.16 10.07 -9.98 10.24 -13 10 C-13 9.34 -13 8.68 -13 8 C-12.23 7.59 -11.46 7.18 -10.66 6.76 C-9.66 6.22 -8.66 5.68 -7.62 5.12 C-6.63 4.59 -5.63 4.06 -4.6 3.51 C-1.95 2.12 -1.95 2.12 0 0 Z "
          fill="#78CBFF" transform="translate(149,145)"/>
    <path d="M0 0 C0.33 0 0.66 0 1 0 C1.3 5.51 0.71 9.52 -1.21 14.68 C-2.28 17.82 -2.83 20.99 -3.38 24.25 C-3.58 24.83 -3.79 25.41 -4 26 C-4.99 26.33 -5.98 26.66 -7 27 C-2.96 8 -2.96 8 0 0 Z "
          fill="#8CD2FE" transform="translate(102,77)"/>
    <path d="M0 0 C1.12 3.73 1.12 3.73 0.07 6.2 C-1.42 10.1 -1.22 13.67 -1.12 17.81 C-1.12 18.6 -1.11 19.39 -1.1 20.2 C-1.07 22.13 -1.04 24.07 -1 26 C-0.36 26.27 0.28 26.54 0.94 26.81 C3 28 3 28 4 31 C0.35 29.75 -0.78 29.33 -3 26 C-3.22 23.06 -3.32 20.25 -3.31 17.31 C-3.33 16.53 -3.34 15.76 -3.36 14.96 C-3.37 9.33 -2.24 5.16 0 0 Z "
          fill="#85D2FF" transform="translate(89,119)"/>
    <path d="M0 0 C-1 3 -1 3 -3 4 C-4.59 4.08 -6.19 4.11 -7.79 4.1 C-8.73 4.09 -9.67 4.09 -10.64 4.09 C-11.63 4.08 -12.61 4.07 -13.62 4.06 C-14.62 4.06 -15.61 4.05 -16.63 4.05 C-19.09 4.04 -21.54 4.02 -24 4 C-23.67 3.34 -23.34 2.68 -23 2 C-21.81 1.94 -20.62 1.88 -19.39 1.82 C-17.82 1.73 -16.25 1.65 -14.69 1.56 C-13.9 1.52 -13.12 1.48 -12.31 1.44 C-11.55 1.4 -10.79 1.36 -10.01 1.32 C-9.32 1.28 -8.62 1.24 -7.9 1.21 C-5.08 0.9 -2.9 0 0 0 Z "
          fill="#35C7FF" transform="translate(133,205)"/>
    <path d="M0 0 C0.75 1.62 0.75 1.62 1 4 C-0.31 7.12 -0.31 7.12 -3 10 C-5.62 10.85 -8.13 11.3 -10.86 11.68 C-12.98 11.78 -12.98 11.78 -14 13 C-15.67 13.04 -17.33 13.04 -19 13 C-15.39 10.06 -11.77 8.65 -7.44 7.06 C-4.92 5.97 -3.05 4.83 -1 3 C-0.67 2.01 -0.34 1.02 0 0 Z "
          fill="#5DC2FE" transform="translate(152,145)"/>
    <path d="M0 0 C1.39 4.16 0.89 7.74 0 12 C-1.46 14.48 -2.97 15.97 -5 18 C-5.48 11.36 -4.18 6.84 -1 1 C-0.67 0.67 -0.34 0.34 0 0 Z "
          fill="#0085CC" transform="translate(80,102)"/>
    <path d="M0 0 C1.6 4.02 0.36 7.52 -0.75 11.5 C-1.01 12.5 -1.01 12.5 -1.27 13.51 C-2.28 17.25 -3.42 20.09 -6 23 C-5.36 18.92 -4.56 14.94 -3.56 10.94 C-3.19 9.44 -3.19 9.44 -2.82 7.9 C-2.05 5.17 -1.11 2.61 0 0 Z "
          fill="#88D0FE" transform="translate(109,54)"/>
    <path d="M0 0 C0.99 0.33 1.98 0.66 3 1 C5.14 6.99 5.06 11.79 4 18 C3.67 18 3.34 18 3 18 C2.67 13.71 2.34 9.42 2 5 C1.34 5 0.68 5 0 5 C0 3.35 0 1.7 0 0 Z "
          fill="#0083C8" transform="translate(152,90)"/>
    <path d="M0 0 C0.33 0.66 0.66 1.32 1 2 C0.29 3.88 -0.42 5.76 -1.16 7.62 C-2.58 11.65 -3.27 15.81 -4 20 C-4.33 20 -4.66 20 -5 20 C-5.48 12.26 -4.39 6.58 0 0 Z "
          fill="#21B0F2" transform="translate(113,37)"/>
    <path d="M0 0 C3.78 4.5 6 9.1 6 15 C5.01 14.67 4.02 14.34 3 14 C2.05 11.86 2.05 11.86 1.31 9.19 C1.06 8.31 0.81 7.44 0.55 6.54 C0 4 0 4 0 0 Z "
          fill="#96D4FE" transform="translate(144,106)"/>
    <path d="M0 0 C0.66 0.66 1.32 1.32 2 2 C1.62 3.94 1.62 3.94 1 6 C1 6.99 1 7.98 1 9 C-1 10.69 -1 10.69 -3 12 C-2.89 10.56 -2.76 9.12 -2.62 7.69 C-2.56 6.89 -2.49 6.09 -2.41 5.26 C-2 3 -2 3 0 0 Z "
          fill="#0086CD" transform="translate(74,120)"/>
    <path d="M0 0 C0.33 0 0.66 0 1 0 C1.46 6.5 0.33 10.42 -3 16 C-4.5 12.12 -3.43 9.57 -2.06 5.75 C-1.68 4.67 -1.3 3.59 -0.91 2.48 C-0.46 1.25 -0.46 1.25 0 0 Z "
          fill="#CCEFFF" transform="translate(104,79)"/>
    <path d="M0 0 C1.6 4 0.29 7.05 -1 11 C-1.66 11 -2.32 11 -3 11 C-3.33 11.99 -3.66 12.98 -4 14 C-3.86 12.54 -3.71 11.08 -3.56 9.62 C-3.48 8.81 -3.4 8 -3.32 7.16 C-3 5 -3 5 -2 3 C-1.34 3 -0.68 3 0 3 C0 2.01 0 1.02 0 0 Z "
          fill="#85D2FE" transform="translate(94,105)"/>
    <path d="M0 0 C5.73 4.39 5.73 4.39 6.94 7.12 C7 9 7 9 6 12 C5.34 12 4.68 12 4 12 C3.33 10.38 2.66 8.75 2 7.12 C1.63 6.22 1.26 5.32 0.88 4.38 C0 2 0 2 0 0 Z "
          fill="#058CC8" transform="translate(122,27)"/>
    <path d="M0 0 C0.68 1.64 0.68 1.64 1 4 C-0.21 6.8 -0.21 6.8 -1.94 9.75 C-2.5 10.73 -3.07 11.72 -3.65 12.73 C-4.1 13.48 -4.54 14.23 -5 15 C-5.68 13.36 -5.68 13.36 -6 11 C-4.79 8.2 -4.79 8.2 -3.06 5.25 C-2.5 4.27 -1.93 3.28 -1.35 2.27 C-0.9 1.52 -0.46 0.77 0 0 Z "
          fill="#0083C8" transform="translate(96,69)"/>
    <path d="M0 0 C0 4.03 -1.42 6.98 -4 10 C-6.39 11.18 -8.34 11.54 -11 12 C-11.33 11.34 -11.66 10.68 -12 10 C-10.35 10 -8.7 10 -7 10 C-6.67 9.01 -6.34 8.02 -6 7 C-5.01 6.34 -4.02 5.68 -3 5 C-1.95 3.37 -0.94 1.7 0 0 Z "
          fill="#31B6FE" transform="translate(152,149)"/>
    <path d="M0 0 C0.66 0 1.32 0 2 0 C5.08 5.42 5.08 5.42 4.69 8.38 C4.46 8.91 4.23 9.45 4 10 C3.01 8.35 2.02 6.7 1 5 C-1.17 5.51 -3 6 -5 7 C-4.34 5.68 -3.68 4.36 -3 3 C-2.01 3 -1.02 3 0 3 C0 2.01 0 1.02 0 0 Z "
          fill="#2AB2F1" transform="translate(120,27)"/>
    <path d="M0 0 C0.66 0 1.32 0 2 0 C2.31 0.8 2.62 1.61 2.94 2.44 C3.76 4.89 3.76 4.89 5 6 C5.04 7.67 5.04 9.33 5 11 C4.01 11.49 4.01 11.49 3 12 C2.67 9.69 2.34 7.38 2 5 C1.34 5 0.68 5 0 5 C0 3.35 0 1.7 0 0 Z "
          fill="#007BC0" transform="translate(157,100)"/>
    <path d="M0 0 C1.1 3.29 0.8 4.71 0 8 C-1.65 8.33 -3.3 8.66 -5 9 C-4.43 5.13 -2.51 2.92 0 0 Z "
          fill="#01A7ED" transform="translate(102,69)"/>
    <path d="M0 0 C0.66 0 1.32 0 2 0 C1.72 1.65 1.42 3.29 1.12 4.94 C0.96 5.85 0.8 6.77 0.63 7.71 C0.42 8.47 0.22 9.22 0 10 C-0.99 10.49 -0.99 10.49 -2 11 C-3.12 5.25 -3.12 5.25 -2 3 C-1.34 3 -0.68 3 0 3 C0 2.01 0 1.02 0 0 Z "
          fill="#0084C1" transform="translate(110,33)"/>
    <path d="M0 0 C0.33 0 0.66 0 1 0 C0.67 2.64 0.34 5.28 0 8 C-0.99 8.33 -1.98 8.66 -3 9 C-3.73 11.02 -3.73 11.02 -4 13 C-5 11 -5 11 -4.19 8.5 C-3 6 -3 6 -1 4 C-0.36 1.93 -0.36 1.93 0 0 Z "
          fill="#066CA5" transform="translate(67,136)"/>
    <path d="M0 0 C0.99 0 1.98 0 3 0 C2.4 4.19 1.43 8.01 0 12 C-1.53 7.92 -0.63 4.21 0 0 Z "
          fill="#34B9FE" transform="translate(87,115)"/>
    <path d="M0 0 C2.15 3.23 2.6 5.19 3 9 C2.67 9.99 2.34 10.98 2 12 C1.34 12 0.68 12 0 12 C0.02 11.22 0.04 10.43 0.06 9.62 C0.19 7.02 0.19 7.02 -1 5 C-0.72 3.32 -0.39 1.65 0 0 Z "
          fill="#01A5EB" transform="translate(134,58)"/>
    <path d="M0 0 C0.69 1.75 0.69 1.75 1 4 C-0.31 6.06 -0.31 6.06 -2 8 C-2.66 8.99 -3.32 9.98 -4 11 C-3.38 3.49 -3.38 3.49 -1.44 1 C-0.96 0.67 -0.49 0.34 0 0 Z "
          fill="#D1F2FE" transform="translate(114,45)"/>
    <path d="M0 0 C0.99 0.33 1.98 0.66 3 1 C3.62 3.38 3.62 3.38 4 6 C3.34 6.66 2.68 7.32 2 8 C0 6 0 6 -0.12 2.88 C-0.08 1.93 -0.04 0.98 0 0 Z "
          fill="#009EE4" transform="translate(130,49)"/>
    <path d="M0 0 C1.32 0.33 2.64 0.66 4 1 C4.66 3.31 5.32 5.62 6 8 C5.34 7.67 4.68 7.34 4 7 C4 6.34 4 5.68 4 5 C2.68 4.34 1.36 3.68 0 3 C0 2.01 0 1.02 0 0 Z "
          fill="#006792" transform="translate(153,87)"/>
    <path d="M0 0 C2.11 1.71 2.94 2.52 3.29 5.26 C3.26 6.06 3.22 6.86 3.19 7.69 C3.16 8.5 3.13 9.3 3.11 10.14 C3.07 10.75 3.04 11.37 3 12 C0.98 8.96 0.68 7.81 0.38 4.31 C0.3 3.5 0.23 2.7 0.15 1.86 C0.1 1.25 0.05 0.63 0 0 Z "
          fill="#43BAF7" transform="translate(127,45)"/>
    <path d="M0 0 C0.98 3.04 1.16 5 0 8 C-0.98 9.02 -1.97 10.03 -3 11 C-2.69 9.54 -2.38 8.08 -2.06 6.62 C-1.89 5.81 -1.71 5 -1.54 4.16 C-1 2 -1 2 0 0 Z "
          fill="#CEF2FF" transform="translate(99,98)"/>
    <path d="M0 0 C0 0.99 0 1.98 0 3 C-1.65 3.66 -3.3 4.32 -5 5 C-5 4.01 -5 3.02 -5 2 C-5.66 1.67 -6.32 1.34 -7 1 C-4 0 -4 0 0 0 Z "
          fill="#0BAAEA" transform="translate(120,27)"/>
    <path d="M0 0 C3.25 2.83 4.52 4.69 5 9 C2.5 6.75 2.5 6.75 0 4 C0 2.68 0 1.36 0 0 Z "
          fill="#5EC7FF" transform="translate(86,145)"/>
    <path d="M0 0 C0.33 0.66 0.66 1.32 1 2 C0.22 3.95 0.22 3.95 -0.94 6.12 C-1.32 6.85 -1.7 7.57 -2.09 8.32 C-2.39 8.87 -2.69 9.43 -3 10 C-3.62 8.2 -3.62 8.2 -4 6 C-2.06 2.75 -2.06 2.75 0 0 Z "
          fill="#0093D7" transform="translate(109,43)"/>
    <path d="M0 0 C1.03 3.1 1.18 4.06 0 7 C-0.99 7.33 -1.98 7.66 -3 8 C-2.45 4.63 -1.95 2.92 0 0 Z "
          fill="#007BC0" transform="translate(80,102)"/>
</svg>
