<?xml version="1.0" encoding="UTF-8"?>
<svg version="1.1" xmlns="http://www.w3.org/2000/svg" width="32" height="32" viewBox="0 0 240 240">
    <path d="M0 0 C1.56 -0.01 1.56 -0.01 3.16 -0.02 C9.12 -0.01 14.29 0.52 20 2.25 C20 2.91 20 3.57 20 4.25 C20.72 4.31 21.44 4.37 22.19 4.44 C25.85 5.5 27.36 7.55 30 10.25 C32.67 11.57 32.67 11.57 35 12.25 C35 12.91 35 13.57 35 14.25 C36.09 14.37 37.19 14.5 38.31 14.62 C42 15.25 42 15.25 45 17.25 C45 17.91 45 18.57 45 19.25 C45.58 19.37 46.16 19.5 46.75 19.62 C49.02 20.26 50.93 21.14 53 22.25 C53 22.91 53 23.57 53 24.25 C53.72 24.48 54.44 24.7 55.19 24.94 C58.61 26.53 60.46 28.46 63 31.25 C63.45 31.74 63.89 32.23 64.36 32.73 C66.99 35.73 68.77 38.45 70 42.25 C70.66 42.25 71.32 42.25 72 42.25 C72.99 45.22 73.98 48.19 75 51.25 C75.66 51.25 76.32 51.25 77 51.25 C77.27 52.19 77.53 53.13 77.8 54.1 C78.16 55.35 78.51 56.59 78.88 57.88 C79.4 59.72 79.4 59.72 79.93 61.6 C80.59 63.85 81.29 66.09 82.06 68.31 C84.4 75.63 85.36 83.58 85 91.25 C85.99 91.58 86.98 91.91 88 92.25 C88 96.54 88 100.83 88 105.25 C91.63 105.58 95.26 105.91 99 106.25 C99.61 115.43 99.61 115.43 96.81 119.19 C89.91 124.25 89.91 124.25 87 124.25 C87 124.91 87 125.57 87 126.25 C83.63 127.75 81.8 128.25 78 128.25 C78 129.24 78 130.23 78 131.25 C78.99 131.58 79.98 131.91 81 132.25 C80.34 133.57 79.68 134.89 79 136.25 C78.01 135.92 77.02 135.59 76 135.25 C74.68 138.22 73.36 141.19 72 144.25 C71.34 144.25 70.68 144.25 70 144.25 C69.9 144.98 69.8 145.72 69.7 146.47 C67.97 153.38 61.89 158.64 56.5 162.97 C54.68 164.52 53.42 166.34 52 168.25 C51.01 168.58 50.02 168.91 49 169.25 C48.67 169.91 48.34 170.57 48 171.25 C45.71 172.1 45.71 172.1 42.94 172.88 C42.02 173.14 41.1 173.4 40.15 173.66 C39.09 173.95 39.09 173.95 38 174.25 C38 174.91 38 175.57 38 176.25 C35.75 176.76 33.5 177.25 31.25 177.75 C30 178.03 28.74 178.31 27.45 178.59 C24 179.25 24 179.25 20 179.25 C20 179.91 20 180.57 20 181.25 C14.22 181.3 8.43 181.34 2.65 181.36 C0.68 181.37 -1.29 181.38 -3.26 181.4 C-6.08 181.43 -8.91 181.44 -11.74 181.45 C-12.62 181.46 -13.5 181.47 -14.41 181.48 C-15.23 181.48 -16.05 181.48 -16.9 181.48 C-17.62 181.48 -18.34 181.49 -19.08 181.49 C-21 181.25 -21 181.25 -24 179.25 C-26.38 178.65 -28.78 178.11 -31.19 177.62 C-32.46 177.36 -33.73 177.1 -35.04 176.84 C-36.51 176.55 -36.51 176.55 -38 176.25 C-38 175.59 -38 174.93 -38 174.25 C-38.71 174.06 -39.42 173.86 -40.15 173.66 C-41.07 173.4 -41.99 173.14 -42.94 172.88 C-43.85 172.62 -44.77 172.36 -45.71 172.1 C-48 171.25 -48 171.25 -49 169.25 C-49.72 168.86 -50.44 168.47 -51.19 168.06 C-54.31 166.05 -56.19 163.86 -58.52 161.02 C-60.13 159.05 -60.13 159.05 -62.62 156.62 C-66.51 152.74 -69.36 149.86 -70 144.25 C-70.99 143.92 -71.98 143.59 -73 143.25 C-74.71 139.93 -75 138.07 -75 134.25 C-75.66 134.25 -76.32 134.25 -77 134.25 C-77.33 132.27 -77.66 130.29 -78 128.25 C-80.31 127.59 -82.62 126.93 -85 126.25 C-85 125.59 -85 124.93 -85 124.25 C-86.11 124.06 -86.11 124.06 -87.25 123.88 C-92.43 122.7 -95.77 120.56 -99 116.25 C-99.43 112.8 -99.23 109.74 -99 106.25 C-94.05 105.75 -94.05 105.75 -89 105.25 C-89.03 104.13 -89.03 104.13 -89.07 102.98 C-89.1 101.51 -89.1 101.51 -89.12 100 C-89.15 99.03 -89.17 98.05 -89.2 97.05 C-89 94.23 -88.45 92.64 -87 90.25 C-86.34 90.25 -85.68 90.25 -85 90.25 C-84.95 89.37 -84.9 88.48 -84.85 87.57 C-84.38 80 -83.56 72.68 -82 65.25 C-81.34 65.25 -80.68 65.25 -80 65.25 C-79.88 64.05 -79.75 62.86 -79.62 61.62 C-79.18 57.97 -78.3 54.7 -77 51.25 C-76.34 51.25 -75.68 51.25 -75 51.25 C-74.01 48.28 -73.02 45.31 -72 42.25 C-71.34 42.25 -70.68 42.25 -70 42.25 C-69.69 41.23 -69.69 41.23 -69.38 40.19 C-66.37 33.76 -60.78 28.31 -55 24.25 C-54.34 24.25 -53.68 24.25 -53 24.25 C-52.51 22.77 -52.51 22.77 -52 21.25 C-49.4 19.6 -48.14 19.25 -45 19.25 C-44.51 17.77 -44.51 17.77 -44 16.25 C-40.68 14.54 -38.82 14.25 -35 14.25 C-35 13.59 -35 12.93 -35 12.25 C-34.09 11.84 -33.19 11.43 -32.25 11 C-28.99 9.46 -28.99 9.46 -26.94 7.12 C-24.65 4.91 -23.11 4.6 -20 4.25 C-20 3.59 -20 2.93 -20 2.25 C-13.25 0.21 -7.03 -0.05 0 0 Z M-65 133.25 C-64.01 133.75 -64.01 133.75 -63 134.25 C-62.28 136.23 -61.62 138.23 -61 140.25 C-60.67 140.91 -60.34 141.57 -60 142.25 C-59.34 142.25 -58.68 142.25 -58 142.25 C-57.79 142.93 -57.59 143.61 -57.38 144.31 C-54.98 149.43 -50.93 154.36 -46 157.25 C-45.01 157.25 -44.02 157.25 -43 157.25 C-42.67 158.24 -42.34 159.23 -42 160.25 C-38.49 161.48 -38.49 161.48 -35 162.25 C-35 162.91 -35 163.57 -35 164.25 C-23.87 166.62 -12.82 166.56 -1.49 166.51 C1.69 166.5 4.87 166.51 8.05 166.52 C10.1 166.52 12.15 166.52 14.2 166.52 C15.13 166.52 16.07 166.52 17.03 166.53 C23.23 166.48 28.97 165.68 35 164.25 C35 163.59 35 162.93 35 162.25 C36.13 161.98 37.27 161.71 38.44 161.44 C40.2 160.85 40.2 160.85 42 160.25 C42.49 158.76 42.49 158.76 43 157.25 C43.58 157.13 44.16 157 44.75 156.88 C48.1 155.95 49.67 153.76 52 151.25 C52.72 150.59 53.44 149.93 54.19 149.25 C56.19 147.04 57.06 145.06 58 142.25 C58.66 142.25 59.32 142.25 60 142.25 C62.2 138.45 62.2 138.45 63 134.25 C61.02 134.25 59.04 134.25 57 134.25 C57 134.91 57 135.57 57 136.25 C55.89 136.32 55.89 136.32 54.75 136.4 C48.07 136.87 41.41 137.49 34.75 138.25 C34 138.33 33.25 138.42 32.47 138.5 C28.94 138.64 28.94 138.64 26 140.25 C23.1 140.49 20.22 140.68 17.31 140.81 C16.45 140.85 15.58 140.9 14.69 140.94 C3.99 141.42 -6.62 141.33 -17.31 140.81 C-18.16 140.77 -19 140.73 -19.87 140.69 C-25.88 140.37 -25.88 140.37 -27 139.25 C-28.7 138.95 -30.42 138.71 -32.14 138.5 C-33.19 138.36 -34.24 138.23 -35.33 138.1 C-36.44 137.96 -37.54 137.83 -38.69 137.69 C-39.78 137.55 -40.87 137.41 -41.99 137.27 C-47.04 136.64 -51.91 136.18 -57 136.25 C-57 135.59 -57 134.93 -57 134.25 C-59.64 133.92 -62.28 133.59 -65 133.25 Z "
          fill="#B02825" transform="translate(120,25.75)"/>
    <path d="M0 0 C1.56 -0.01 1.56 -0.01 3.16 -0.02 C9.12 -0.01 14.29 0.52 20 2.25 C20 2.91 20 3.57 20 4.25 C20.72 4.31 21.44 4.37 22.19 4.44 C25.85 5.5 27.36 7.55 30 10.25 C32.67 11.57 32.67 11.57 35 12.25 C35 12.91 35 13.57 35 14.25 C36.09 14.37 37.19 14.5 38.31 14.62 C42 15.25 42 15.25 45 17.25 C45 17.91 45 18.57 45 19.25 C45.58 19.37 46.16 19.5 46.75 19.62 C49.02 20.26 50.93 21.14 53 22.25 C53 22.91 53 23.57 53 24.25 C53.72 24.48 54.44 24.7 55.19 24.94 C58.61 26.53 60.46 28.46 63 31.25 C63.45 31.74 63.89 32.23 64.36 32.73 C66.99 35.73 68.77 38.45 70 42.25 C70.66 42.25 71.32 42.25 72 42.25 C73.06 44.06 73.06 44.06 74 46.25 C73.67 47.24 73.34 48.23 73 49.25 C70.21 47.85 69.61 45.95 68 43.25 C64.45 38.19 64.45 38.19 60.31 33.63 C59 32.25 59 32.25 59 30.25 C58.42 30.17 57.84 30.09 57.25 30 C55 29.25 55 29.25 53.2 27.43 C50.83 25.08 48.43 23.41 45.62 21.62 C44.71 21.03 43.79 20.44 42.85 19.84 C39.96 18.23 37.17 17.19 34 16.25 C32.18 25.57 31.46 34.79 31 44.25 C30.34 44.25 29.68 44.25 29 44.25 C29.16 44.87 29.33 45.49 29.5 46.12 C30.2 50.48 30.28 54.84 30 59.25 C29 60.25 29 60.25 27.14 60.36 C25.96 60.36 25.96 60.36 24.75 60.35 C23.89 60.34 23.04 60.34 22.16 60.34 C20.81 60.33 20.81 60.33 19.44 60.31 C18.54 60.31 17.63 60.3 16.71 60.3 C14.47 60.29 12.24 60.27 10 60.25 C10 66.19 10 72.13 10 78.25 C6.69 78.28 3.38 78.3 0.06 78.31 C-0.88 78.32 -1.83 78.33 -2.8 78.34 C-4.15 78.34 -4.15 78.34 -5.53 78.35 C-6.78 78.36 -6.78 78.36 -8.05 78.36 C-10 78.25 -10 78.25 -11 77.25 C-11.07 74.39 -11.09 71.55 -11.06 68.69 C-11.06 67.88 -11.05 67.07 -11.05 66.24 C-11.04 64.25 -11.02 62.25 -11 60.25 C-12.18 60.27 -13.36 60.3 -14.58 60.32 C-16.14 60.34 -17.69 60.36 -19.25 60.38 C-20.03 60.39 -20.8 60.41 -21.61 60.43 C-22.74 60.44 -22.74 60.44 -23.89 60.45 C-24.58 60.46 -25.27 60.47 -25.99 60.48 C-28 60.25 -28 60.25 -32 58.25 C-32 63.2 -32 68.15 -32 73.25 C-32.99 73.58 -33.98 73.91 -35 74.25 C-37 70.09 -37.24 66.71 -37.19 62.12 C-37.18 60.91 -37.17 59.69 -37.17 58.43 C-37 55.25 -37 55.25 -36 52.25 C-35.86 50.3 -35.77 48.35 -35.72 46.4 C-35.68 45.24 -35.64 44.08 -35.61 42.88 C-35.57 41.66 -35.54 40.44 -35.5 39.19 C-35.27 31.17 -34.94 23.22 -34 15.25 C-46.15 21.65 -55 27.75 -64 38.25 C-64.64 38.95 -65.27 39.65 -65.93 40.38 C-68.88 43.49 -68.88 43.49 -70.46 47.38 C-70.73 48.31 -70.73 48.31 -71 49.25 C-72.48 49.74 -72.48 49.74 -74 50.25 C-74.1 50.91 -74.2 51.58 -74.3 52.26 C-75.2 57.62 -76.02 61.27 -80 65.25 C-79.49 60.28 -78.77 55.96 -77 51.25 C-76.34 51.25 -75.68 51.25 -75 51.25 C-74.01 48.28 -73.02 45.31 -72 42.25 C-71.34 42.25 -70.68 42.25 -70 42.25 C-69.79 41.57 -69.59 40.89 -69.38 40.19 C-66.37 33.76 -60.78 28.31 -55 24.25 C-54.34 24.25 -53.68 24.25 -53 24.25 C-52.67 23.26 -52.34 22.27 -52 21.25 C-49.4 19.6 -48.14 19.25 -45 19.25 C-44.51 17.77 -44.51 17.77 -44 16.25 C-40.68 14.54 -38.82 14.25 -35 14.25 C-35 13.59 -35 12.93 -35 12.25 C-34.09 11.84 -33.19 11.43 -32.25 11 C-28.99 9.46 -28.99 9.46 -26.94 7.12 C-24.65 4.91 -23.11 4.6 -20 4.25 C-20 3.59 -20 2.93 -20 2.25 C-13.25 0.21 -7.03 -0.05 0 0 Z "
          fill="#B3514F" transform="translate(120,25.75)"/>
    <path d="M0 0 C1.61 0.28 3.21 0.58 4.81 0.88 C6.15 1.12 6.15 1.12 7.52 1.37 C10 2 10 2 13 4 C13 4.66 13 5.32 13 6 C13.66 6 14.32 6 15 6 C18 11.75 18 11.75 18 14 C18.66 14 19.32 14 20 14 C23 18.38 23 18.38 23 21 C23.64 21.27 24.28 21.54 24.94 21.81 C27 23 27 23 28 26 C30.29 27.37 32.46 28.15 35 29 C35.45 29.47 35.91 29.95 36.38 30.44 C38.39 32.37 40.39 33.08 43 34 C43 34.66 43 35.32 43 36 C54.16 37.19 65.3 37.15 76.51 37.13 C79.69 37.12 82.87 37.13 86.05 37.14 C88.1 37.14 90.15 37.13 92.2 37.13 C93.13 37.13 94.07 37.14 95.03 37.14 C101.08 37.12 107 36.71 113 36 C113 35.34 113 34.68 113 34 C114.13 33.55 115.27 33.09 116.44 32.62 C120.05 31.43 120.05 31.43 121 29 C125.5 26 125.5 26 128 26 C128.27 25.36 128.54 24.72 128.81 24.06 C130 22 130 22 133 21 C134.17 18.58 134.17 18.58 135 16 C135.33 15.34 135.66 14.68 136 14 C136.66 14 137.32 14 138 14 C138.31 13.05 138.62 12.1 138.94 11.12 C140 8 140 8 141 6 C141.66 6 142.32 6 143 6 C143.21 5.37 143.43 4.73 143.65 4.08 C145 2 145 2 147.6 1.17 C148.6 1.03 149.6 0.89 150.62 0.75 C151.63 0.6 152.63 0.45 153.66 0.3 C154.43 0.2 155.21 0.1 156 0 C156 0.99 156 1.98 156 3 C156.99 3.33 157.98 3.66 159 4 C158.34 5.32 157.68 6.64 157 8 C156.01 7.67 155.02 7.34 154 7 C152.68 9.97 151.36 12.94 150 16 C149.34 16 148.68 16 148 16 C147.9 16.73 147.8 17.47 147.7 18.22 C145.97 25.13 139.89 30.39 134.5 34.72 C132.68 36.27 131.42 38.09 130 40 C129.01 40.33 128.02 40.66 127 41 C126.5 41.99 126.5 41.99 126 43 C123.71 43.85 123.71 43.85 120.94 44.62 C119.56 45.02 119.56 45.02 118.15 45.41 C117.44 45.61 116.73 45.8 116 46 C116 46.66 116 47.32 116 48 C113.75 48.51 111.5 49 109.25 49.5 C108 49.78 106.74 50.06 105.45 50.34 C102 51 102 51 98 51 C98 51.66 98 52.32 98 53 C92.22 53.05 86.43 53.09 80.65 53.11 C78.68 53.12 76.71 53.13 74.74 53.15 C71.92 53.18 69.09 53.19 66.26 53.2 C65.38 53.21 64.5 53.22 63.59 53.23 C62.77 53.23 61.95 53.23 61.1 53.23 C60.38 53.23 59.66 53.24 58.92 53.24 C57 53 57 53 54 51 C51.62 50.4 49.22 49.86 46.81 49.38 C45.54 49.11 44.27 48.85 42.96 48.59 C41.49 48.3 41.49 48.3 40 48 C40 47.34 40 46.68 40 46 C39.29 45.81 38.58 45.61 37.85 45.41 C36.93 45.15 36.01 44.89 35.06 44.62 C34.15 44.37 33.23 44.11 32.29 43.85 C30 43 30 43 29 41 C28.28 40.61 27.56 40.22 26.81 39.81 C23.69 37.8 21.81 35.61 19.48 32.77 C17.87 30.8 17.87 30.8 15.38 28.38 C11.49 24.49 8.64 21.61 8 16 C7.01 15.67 6.02 15.34 5 15 C3.29 11.68 3 9.82 3 6 C2.34 6 1.68 6 1 6 C0.67 4.02 0.34 2.04 0 0 Z "
          fill="#3E2518" transform="translate(42,154)"/>
    <path d="M0 0 C5.61 0 11.22 0 17 0 C17 5.61 17 11.22 17 17 C18.43 16.99 19.86 16.98 21.34 16.96 C23.21 16.96 25.07 16.95 26.94 16.94 C27.88 16.93 28.83 16.92 29.8 16.91 C31.15 16.91 31.15 16.91 32.53 16.9 C33.78 16.89 33.78 16.89 35.05 16.89 C37 17 37 17 38 18 C38.07 20.53 38.09 23.03 38.06 25.56 C38.04 28.02 38.02 30.47 38 33 C30.74 33 23.48 33 16 33 C16 39.27 16 45.54 16 52 C10.72 52 5.44 52 0 52 C0 45.73 0 39.46 0 33 C-6.6 33 -13.2 33 -20 33 C-20 28.05 -20 23.1 -20 18 C-15.75 15.87 -12.83 15.76 -8.25 15.88 C-5.86 15.92 -3.46 15.96 -1 16 C-0.67 10.72 -0.34 5.44 0 0 Z "
          fill="#FCF8F8" transform="translate(111,51)"/>
    <path d="M0 0 C0.33 0 0.66 0 1 0 C1.19 1.19 1.39 2.38 1.59 3.61 C1.85 5.18 2.11 6.75 2.38 8.31 C2.5 9.1 2.63 9.88 2.76 10.69 C2.89 11.45 3.02 12.21 3.15 12.99 C3.26 13.68 3.38 14.38 3.5 15.1 C3.97 17.31 3.97 17.31 6 20 C6.2 23.36 6.2 23.36 6.12 27.19 C6.11 28.46 6.09 29.73 6.07 31.04 C6.05 32.02 6.02 32.99 6 34 C9.96 34 13.92 34 18 34 C15.81 43.79 15.81 43.79 13 48 C9.81 49.38 9.81 49.38 7 50 C7 50.66 7 51.32 7 52 C1.71 54.36 -3.74 55.18 -9.41 56.22 C-12.86 56.86 -12.86 56.86 -15.42 57.99 C-19.13 59.44 -22.9 59.99 -26.81 60.62 C-27.58 60.76 -28.35 60.89 -29.14 61.03 C-34.16 61.86 -38.91 62.13 -44 62 C-44.33 61.01 -44.66 60.02 -45 59 C-69.75 58.51 -69.75 58.51 -95 58 C-95 57.67 -95 57.34 -95 57 C-83.02 56.41 -71.08 55.86 -59.08 56.06 C-56.43 56.01 -54.53 55.65 -52 55 C-49.71 54.9 -47.42 54.82 -45.12 54.75 C-31.64 54.11 -17.61 50.93 -5.12 45.8 C-2.77 44.91 -0.47 44.43 2 44 C2 43.34 2 42.68 2 42 C2.66 42 3.32 42 4 42 C4 41.34 4 40.68 4 40 C1.2 39.14 1.2 39.14 -2 39 C-4.19 40.77 -4.19 40.77 -6 43 C-9.56 45.46 -12.77 45.08 -17 45 C-17.61 45.15 -18.22 45.31 -18.86 45.46 C-21.51 46.13 -24.08 46.3 -26.81 46.5 C-34.38 46.5 -34.38 46.5 -41 49 C-44.63 49.07 -48.25 49 -51.88 48.94 C-54.87 48.64 -54.87 48.64 -56 50 C-57.44 50.1 -58.88 50.13 -60.32 50.13 C-61.24 50.13 -62.16 50.14 -63.1 50.14 C-64.1 50.14 -65.1 50.13 -66.12 50.13 C-67.14 50.13 -68.16 50.13 -69.21 50.14 C-71.36 50.14 -73.52 50.13 -75.67 50.13 C-78.99 50.13 -82.3 50.13 -85.61 50.14 C-87.7 50.14 -89.79 50.13 -91.88 50.13 C-93.37 50.14 -93.37 50.14 -94.9 50.14 C-95.82 50.14 -96.73 50.13 -97.68 50.13 C-98.49 50.13 -99.3 50.13 -100.14 50.13 C-102 50 -102 50 -103 49 C-105.61 48.81 -108.2 48.67 -110.81 48.56 C-117.99 48.21 -124.94 47.4 -132 46 C-132 45.67 -132 45.34 -132 45 C-123.04 44.86 -114.17 45.23 -105.23 45.86 C-85.07 47.23 -65.39 47.38 -45.25 45.62 C-44.16 45.53 -44.16 45.53 -43.04 45.43 C-35.39 44.76 -27.84 43.92 -20.29 42.44 C-16.37 41.69 -12.4 41.24 -8.43 40.76 C-5.84 40.23 -5.84 40.23 -4.66 37.93 C-4.33 36.97 -4.33 36.97 -4 36 C-1.04 36.61 0.38 37.25 3 39 C2.95 35.77 2.85 32.54 2.75 29.31 C2.74 28.4 2.72 27.49 2.71 26.55 C2.51 21.13 2.13 17.93 -2 14 C-1.01 14 -0.02 14 1 14 C0.67 9.38 0.34 4.76 0 0 Z "
          fill="#941713" transform="translate(200,100)"/>
    <path d="M0 0 C1.49 3.87 0.55 6.25 -1 10 C-2.62 12.15 -4.17 14.05 -6 16 C-6.73 16.78 -6.73 16.78 -7.47 17.58 C-12.48 22.8 -18.1 26.7 -25 29 C-25.46 29.5 -25.92 30 -26.39 30.52 C-28.48 32.45 -29.89 32.48 -32.69 32.69 C-33.9 32.79 -33.9 32.79 -35.14 32.89 C-35.75 32.92 -36.37 32.96 -37 33 C-37.33 34.32 -37.66 35.64 -38 37 C-53.18 37 -68.36 37 -84 37 C-84.5 35.02 -84.5 35.02 -85 33 C-86.45 33.15 -86.45 33.15 -87.94 33.31 C-94.47 33.31 -99.78 28.93 -104.88 25.25 C-107.82 22.89 -107.82 22.89 -111 22 C-111 21.34 -111 20.68 -111 20 C-111.56 19.73 -112.11 19.46 -112.69 19.19 C-113.45 18.8 -114.21 18.4 -115 18 C-115.83 17.65 -116.65 17.3 -117.5 16.94 C-121.22 14.06 -122.59 10.41 -124 6 C-124.25 2.94 -124.25 2.94 -124 1 C-123.34 1 -122.68 1 -122 1 C-121.67 2.32 -121.34 3.64 -121 5 C-120.34 5 -119.68 5 -119 5 C-116 9.38 -116 9.38 -116 12 C-115.36 12.27 -114.72 12.54 -114.06 12.81 C-112 14 -112 14 -111 17 C-108.71 18.37 -106.54 19.15 -104 20 C-103.55 20.47 -103.09 20.95 -102.62 21.44 C-100.61 23.37 -98.61 24.08 -96 25 C-96 25.66 -96 26.32 -96 27 C-84.84 28.19 -73.7 28.15 -62.49 28.13 C-59.31 28.12 -56.13 28.13 -52.95 28.14 C-50.9 28.14 -48.85 28.13 -46.8 28.13 C-45.87 28.13 -44.93 28.14 -43.97 28.14 C-37.92 28.12 -32 27.71 -26 27 C-26 26.34 -26 25.68 -26 25 C-24.87 24.55 -23.73 24.09 -22.56 23.62 C-18.95 22.43 -18.95 22.43 -18 20 C-13.5 17 -13.5 17 -11 17 C-10.73 16.36 -10.46 15.72 -10.19 15.06 C-9 13 -9 13 -6 12 C-4.83 9.58 -4.83 9.58 -4 7 C-3.67 6.34 -3.34 5.68 -3 5 C-2.34 5 -1.68 5 -1 5 C-0.67 3.35 -0.34 1.7 0 0 Z "
          fill="#5E412F" transform="translate(181,163)"/>
    <path d="M0 0 C0.66 0 1.32 0 2 0 C2 6.6 2 13.2 2 20 C2.66 20 3.32 20 4 20 C4.33 19.01 4.66 18.02 5 17 C5.66 17 6.32 17 7 17 C7.33 13.7 7.66 10.4 8 7 C8.33 7 8.66 7 9 7 C9.92 16.73 9.92 16.73 7.66 19.84 C6 21.19 6 21.19 3 23 C3.33 23.99 3.66 24.98 4 26 C6.8 27.14 9.48 28.08 12.38 28.94 C13.23 29.2 14.09 29.46 14.97 29.72 C31.86 34.72 48.43 36.89 66 38 C66 38.33 66 38.66 66 39 C59.73 39.33 53.46 39.66 47 40 C47.99 41.32 48.98 42.64 50 44 C39.13 44.15 26.94 44.23 17.16 39.02 C13.45 37.27 9.48 36.52 5.5 35.61 C3 35 3 35 1 34 C1 33.34 1 32.68 1 32 C0.26 31.88 -0.48 31.75 -1.25 31.62 C-6.43 30.45 -9.77 28.31 -13 24 C-13.43 20.55 -13.23 17.49 -13 14 C-9.37 14 -5.74 14 -2 14 C-1.94 13.16 -1.88 12.31 -1.82 11.45 C-1.73 10.35 -1.65 9.25 -1.56 8.12 C-1.48 7.03 -1.4 5.94 -1.32 4.82 C-1 2 -1 2 0 0 Z "
          fill="#931C18" transform="translate(34,118)"/>
    <path d="M0 0 C1.76 0.12 3.53 0.18 5.3 0.21 C6.94 0.24 6.94 0.24 8.62 0.27 C9.81 0.28 11.01 0.3 12.24 0.32 C13.49 0.34 14.73 0.36 16.02 0.38 C19.41 0.43 22.81 0.48 26.2 0.53 C28.31 0.56 30.42 0.6 32.53 0.63 C46.96 0.86 61.39 1.04 75.82 0.99 C77.39 0.99 77.39 0.99 78.99 0.98 C83.82 0.96 88.64 0.93 93.47 0.88 C116.05 0.68 116.05 0.68 126 4 C125.67 4.99 125.34 5.98 125 7 C119.49 7.92 114.15 8.19 108.56 8.19 C107.7 8.19 106.83 8.19 105.94 8.19 C97.84 8.12 89.99 7.25 82 6 C82 5.34 82 4.68 82 4 C72.65 4.08 63.31 4.18 53.96 4.29 C49.62 4.34 45.28 4.38 40.94 4.42 C36.75 4.46 32.55 4.51 28.36 4.56 C26.76 4.58 25.17 4.59 23.58 4.6 C15.88 4.66 8.41 4.73 0.88 6.56 C-2.75 7.41 -6.29 7.12 -10 7 C-10.33 6.01 -10.66 5.02 -11 4 C-13.02 3.27 -13.02 3.27 -15 3 C-13.07 2.3 -11.13 1.62 -9.19 0.94 C-8.11 0.55 -7.03 0.17 -5.92 -0.22 C-3 -1 -3 -1 0 0 Z "
          fill="#9A1411" transform="translate(65,126)"/>
    <path d="M0 0 C0.33 0 0.66 0 1 0 C1.19 1.19 1.39 2.38 1.59 3.61 C1.85 5.18 2.11 6.75 2.38 8.31 C2.5 9.1 2.63 9.88 2.76 10.69 C2.89 11.45 3.02 12.21 3.15 12.99 C3.26 13.68 3.38 14.38 3.5 15.1 C3.97 17.31 3.97 17.31 6 20 C6.2 23.36 6.2 23.36 6.12 27.19 C6.11 28.46 6.09 29.73 6.07 31.04 C6.05 32.02 6.02 32.99 6 34 C9.63 34 13.26 34 17 34 C12.77 38.94 7.87 41.32 2 44 C2 43.34 2 42.68 2 42 C2.66 42 3.32 42 4 42 C4 41.34 4 40.68 4 40 C1.2 39.14 1.2 39.14 -2 39 C-4.19 40.77 -4.19 40.77 -6 43 C-9.56 45.46 -12.77 45.08 -17 45 C-17.61 45.15 -18.22 45.31 -18.86 45.46 C-21.51 46.13 -24.08 46.3 -26.81 46.5 C-34.38 46.5 -34.38 46.5 -41 49 C-44.63 49.07 -48.25 49 -51.88 48.94 C-54.87 48.64 -54.87 48.64 -56 50 C-57.44 50.1 -58.88 50.13 -60.32 50.13 C-61.24 50.13 -62.16 50.14 -63.1 50.14 C-64.1 50.14 -65.1 50.13 -66.12 50.13 C-67.14 50.13 -68.16 50.13 -69.21 50.14 C-71.36 50.14 -73.52 50.13 -75.67 50.13 C-78.99 50.13 -82.3 50.13 -85.61 50.14 C-87.7 50.14 -89.79 50.13 -91.88 50.13 C-93.37 50.14 -93.37 50.14 -94.9 50.14 C-95.82 50.14 -96.73 50.13 -97.68 50.13 C-98.49 50.13 -99.3 50.13 -100.14 50.13 C-102 50 -102 50 -103 49 C-105.61 48.81 -108.2 48.67 -110.81 48.56 C-117.99 48.21 -124.94 47.4 -132 46 C-132 45.67 -132 45.34 -132 45 C-123.04 44.86 -114.17 45.23 -105.23 45.86 C-85.07 47.23 -65.39 47.38 -45.25 45.62 C-44.16 45.53 -44.16 45.53 -43.04 45.43 C-35.39 44.76 -27.84 43.92 -20.29 42.44 C-16.37 41.69 -12.4 41.24 -8.43 40.76 C-5.84 40.23 -5.84 40.23 -4.66 37.93 C-4.33 36.97 -4.33 36.97 -4 36 C-1.04 36.61 0.38 37.25 3 39 C2.95 35.77 2.85 32.54 2.75 29.31 C2.74 28.4 2.72 27.49 2.71 26.55 C2.51 21.13 2.13 17.93 -2 14 C-1.01 14 -0.02 14 1 14 C0.67 9.38 0.34 4.76 0 0 Z "
          fill="#6F0D0B" transform="translate(200,100)"/>
    <path d="M0 0 C13.53 0 27.06 0 41 0 C40.67 1.32 40.34 2.64 40 4 C39.01 4 38.02 4 37 4 C37 4.66 37 5.32 37 6 C40.63 6 44.26 6 48 6 C48 6.66 48 7.32 48 8 C34.51 8.98 21.2 9.22 7.69 8.56 C6.84 8.52 6 8.48 5.13 8.44 C-0.88 8.12 -0.88 8.12 -2 7 C-4.21 6.63 -6.44 6.32 -8.66 6.03 C-9.32 5.94 -9.99 5.85 -10.67 5.76 C-12.8 5.48 -14.93 5.21 -17.06 4.94 C-18.5 4.75 -19.94 4.56 -21.38 4.37 C-24.92 3.91 -28.46 3.45 -32 3 C-32 2.34 -32 1.68 -32 1 C-19.26 1.74 -19.26 1.74 -13.05 3.52 C-8.78 4.51 -4.37 4.69 0 5 C-0.33 4.01 -0.66 3.02 -1 2 C-0.67 1.34 -0.34 0.68 0 0 Z "
          fill="#F95B57" transform="translate(95,159)"/>
    <path d="M0 0 C1.26 0 2.52 0 3.82 0 C5.19 0.02 6.56 0.03 7.93 0.05 C9.34 0.05 10.75 0.06 12.15 0.06 C15.85 0.07 19.55 0.1 23.24 0.13 C27.02 0.17 30.79 0.18 34.56 0.19 C41.96 0.23 49.36 0.28 56.76 0.34 C56.76 1 56.76 1.66 56.76 2.34 C57.9 2.31 57.9 2.31 59.06 2.27 C60.06 2.25 61.05 2.23 62.08 2.22 C63.06 2.19 64.05 2.17 65.06 2.15 C67.76 2.34 67.76 2.34 70.76 4.34 C68.01 5.72 65.85 5.4 62.76 5.34 C57.23 5.3 51.78 5.48 46.26 5.84 C39.2 6.28 32.15 6.45 25.08 6.47 C23.69 6.47 23.69 6.47 22.29 6.48 C17.33 6.47 12.67 6.07 7.76 5.34 C4.16 5.31 0.57 5.4 -3.03 5.5 C-6.09 5.35 -7.68 4.96 -10.24 3.34 C-6.86 0.23 -4.53 -0.03 0 0 Z "
          fill="#BA1C18" transform="translate(90.24,129.66)"/>
    <path d="M0 0 C0 4.95 0 9.9 0 15 C0.66 15.33 1.32 15.66 2 16 C1.5 16.5 1.5 16.5 1 17 C1.03 19 1.07 21 1.16 22.99 C1 25 1 25 -1 28 C-2.17 34.78 -2.31 41.63 -2.56 48.5 C-2.63 50.16 -2.63 50.16 -2.69 51.86 C-2.8 54.57 -2.9 57.29 -3 60 C-5.95 55.58 -6.14 53.39 -6.12 48.06 C-6.13 46.19 -6.13 46.19 -6.13 44.29 C-6 41 -6 41 -5 38 C-4.86 36.05 -4.77 34.1 -4.72 32.15 C-4.68 30.99 -4.64 29.83 -4.61 28.63 C-4.57 27.41 -4.54 26.19 -4.5 24.94 C-4.27 16.92 -3.94 8.97 -3 1 C-15.15 7.4 -24 13.5 -33 24 C-33.64 24.7 -34.27 25.4 -34.93 26.12 C-37.88 29.24 -37.88 29.24 -39.46 33.13 C-39.73 34.06 -39.73 34.06 -40 35 C-41.48 35.49 -41.48 35.49 -43 36 C-43.1 36.66 -43.2 37.33 -43.3 38.01 C-44.2 43.37 -45.02 47.02 -49 51 C-48.49 46.03 -47.77 41.71 -46 37 C-45.34 37 -44.68 37 -44 37 C-43.01 34.03 -42.02 31.06 -41 28 C-40.34 28 -39.68 28 -39 28 C-38.79 27.32 -38.59 26.64 -38.38 25.94 C-35.37 19.51 -29.78 14.06 -24 10 C-23.34 10 -22.68 10 -22 10 C-21.67 9.01 -21.34 8.02 -21 7 C-18.4 5.35 -17.14 5 -14 5 C-13.67 4.01 -13.34 3.02 -13 2 C-8.73 -0.46 -4.78 -0.16 0 0 Z "
          fill="#97403D" transform="translate(89,40)"/>
    <path d="M0 0 C1.26 0 2.52 0 3.82 0 C5.2 0.02 6.57 0.03 7.95 0.05 C9.36 0.05 10.77 0.06 12.18 0.06 C15.88 0.07 19.58 0.1 23.29 0.13 C27.07 0.17 30.85 0.18 34.63 0.19 C42.04 0.23 49.46 0.28 56.88 0.34 C56.88 1.33 56.88 2.32 56.88 3.34 C63.36 3.52 69.48 2.82 75.88 1.84 C76.84 1.7 77.81 1.55 78.8 1.41 C81.16 1.06 83.52 0.7 85.88 0.34 C83.88 2.34 83.88 2.34 80.75 2.47 C79.8 2.42 78.85 2.38 77.88 2.34 C77.88 3 77.88 3.66 77.88 4.34 C76.99 4.46 76.1 4.57 75.19 4.69 C71.88 5.12 68.58 5.56 65.28 5.99 C63.85 6.18 62.42 6.37 61 6.56 C58.94 6.82 56.88 7.1 54.83 7.37 C53.59 7.53 52.36 7.69 51.08 7.86 C48.61 8.23 46.28 8.67 43.88 9.34 C43.88 8.68 43.88 8.02 43.88 7.34 C40.25 7.34 36.62 7.34 32.88 7.34 C32.88 6.68 32.88 6.02 32.88 5.34 C33.87 5.34 34.86 5.34 35.88 5.34 C36.21 4.02 36.54 2.7 36.88 1.34 C23.35 1.34 9.82 1.34 -4.12 1.34 C-4.12 2.99 -4.12 4.64 -4.12 6.34 C-4.78 6.34 -5.44 6.34 -6.12 6.34 C-6.12 5.68 -6.12 5.02 -6.12 4.34 C-7.11 4.01 -8.1 3.68 -9.12 3.34 C-6.48 -0.16 -4.23 -0.03 0 0 Z "
          fill="#C54C49" transform="translate(99.12,157.66)"/>
    <path d="M0 0 C0.33 0 0.66 0 1 0 C1.59 4.38 2.14 8.58 2 13 C2.66 13 3.32 13 4 13 C4.33 13.99 4.66 14.98 5 16 C4.34 16.66 3.68 17.32 3 18 C2.83 20.69 2.77 23.26 2.81 25.94 C2.81 27.03 2.81 27.03 2.81 28.15 C2.84 31.35 2.98 33.94 4 37 C4.58 45 4.02 51.57 1 59 C0.67 59 0.34 59 0 59 C-0.66 52.73 -1.32 46.46 -2 40 C-2.33 40 -2.66 40 -3 40 C-3.33 35.38 -3.66 30.76 -4 26 C-3.34 26 -2.68 26 -2 26 C-2.01 24.95 -2.02 23.9 -2.04 22.82 C-2.15 8.27 -2.15 8.27 -1 1 C-0.67 0.67 -0.34 0.34 0 0 Z "
          fill="#A73F3C" transform="translate(153,44)"/>
    <path d="M0 0 C0.66 0 1.32 0 2 0 C2 6.6 2 13.2 2 20 C2.66 20 3.32 20 4 20 C4.33 19.01 4.66 18.02 5 17 C5.66 17 6.32 17 7 17 C7.33 13.7 7.66 10.4 8 7 C8.33 7 8.66 7 9 7 C9.92 16.73 9.92 16.73 7.66 19.84 C6 21.19 6 21.19 3 23 C3.33 24.32 3.66 25.64 4 27 C3.24 27.14 2.47 27.29 1.69 27.44 C-1.08 27.96 -1.08 27.96 -4 29 C-6.12 27.94 -6.12 27.94 -8 26 C-8.75 22.81 -8.75 22.81 -9 20 C-9.66 20 -10.32 20 -11 20 C-11.66 18.02 -12.32 16.04 -13 14 C-9.37 14 -5.74 14 -2 14 C-1.94 13.16 -1.88 12.31 -1.82 11.45 C-1.73 10.35 -1.65 9.25 -1.56 8.12 C-1.48 7.03 -1.4 5.94 -1.32 4.82 C-1 2 -1 2 0 0 Z "
          fill="#731413" transform="translate(34,118)"/>
    <path d="M0 0 C1.56 -0.01 1.56 -0.01 3.16 -0.02 C9.12 -0.01 14.29 0.52 20 2.25 C20 2.91 20 3.57 20 4.25 C20.76 4.37 21.53 4.5 22.31 4.62 C25 5.25 25 5.25 28 7.25 C28 7.91 28 8.57 28 9.25 C26.58 9.13 25.17 9.01 23.75 8.88 C22.96 8.81 22.17 8.74 21.36 8.66 C19 8.25 19 8.25 17.08 7.27 C5.93 1.78 -11.12 5.48 -23 7.25 C-23 7.91 -23 8.57 -23 9.25 C-24.65 9.25 -26.3 9.25 -28 9.25 C-27 6.25 -27 6.25 -25.12 5.06 C-23 4.25 -23 4.25 -20 4.25 C-20 3.59 -20 2.93 -20 2.25 C-13.25 0.21 -7.03 -0.05 0 0 Z "
          fill="#CE7472" transform="translate(120,25.75)"/>
    <path d="M0 0 C0.33 0 0.66 0 1 0 C1 2.97 1 5.94 1 9 C7.6 9 14.2 9 21 9 C21 15.27 21 21.54 21 28 C26.28 28 31.56 28 37 28 C37 21.73 37 15.46 37 9 C44.26 9 51.52 9 59 9 C59 6.03 59 3.06 59 0 C59.33 0 59.66 0 60 0 C60.03 1.65 60.05 3.29 60.06 4.94 C60.07 5.85 60.09 6.77 60.1 7.71 C60 10 60 10 59 11 C57.58 11.09 56.16 11.11 54.75 11.1 C53.89 11.09 53.04 11.09 52.16 11.09 C51.26 11.08 50.36 11.07 49.44 11.06 C48.54 11.06 47.63 11.05 46.71 11.05 C44.47 11.04 42.24 11.02 40 11 C40 16.94 40 22.88 40 29 C36.69 29.03 33.38 29.05 30.06 29.06 C29.12 29.07 28.17 29.08 27.2 29.09 C25.85 29.09 25.85 29.09 24.47 29.1 C23.22 29.11 23.22 29.11 21.95 29.11 C20 29 20 29 19 28 C18.93 25.14 18.91 22.3 18.94 19.44 C18.94 18.63 18.95 17.82 18.95 16.99 C18.96 15 18.98 13 19 11 C17.19 11.02 17.19 11.02 15.35 11.04 C13.78 11.04 12.2 11.05 10.62 11.06 C9.43 11.08 9.43 11.08 8.22 11.09 C2.23 11.11 2.23 11.11 0 10 C0 6.7 0 3.4 0 0 Z "
          fill="#F77471" transform="translate(90,75)"/>
    <path d="M0 0 C0.66 0 1.32 0 2 0 C2.33 1.32 2.66 2.64 3 4 C3.66 4 4.32 4 5 4 C8 8.38 8 8.38 8 11 C8.64 11.27 9.28 11.54 9.94 11.81 C12 13 12 13 13 16 C15.29 17.37 17.46 18.15 20 19 C20.45 19.47 20.91 19.95 21.38 20.44 C23.39 22.37 25.39 23.08 28 24 C28 24.66 28 25.32 28 26 C31.3 26.33 34.6 26.66 38 27 C38 28.32 38 29.64 38 31 C30.38 31.12 25.65 29.03 19.45 24.69 C17.34 23.24 15.31 22.07 13 21 C13 20.34 13 19.68 13 19 C12.44 18.73 11.89 18.46 11.31 18.19 C10.55 17.8 9.79 17.4 9 17 C8.18 16.65 7.35 16.3 6.5 15.94 C2.78 13.06 1.41 9.41 0 5 C-0.25 1.94 -0.25 1.94 0 0 Z "
          fill="#86563F" transform="translate(57,164)"/>
    <path d="M0 0 C8.96 -0.14 17.83 0.23 26.77 0.86 C46.92 2.24 66.84 2.41 87 1 C87 1.33 87 1.66 87 2 C86.29 2.13 85.58 2.27 84.85 2.4 C83.47 2.67 83.47 2.67 82.06 2.94 C81.15 3.11 80.23 3.29 79.29 3.46 C77.05 3.78 77.05 3.78 76 5 C74.56 5.1 73.12 5.13 71.68 5.13 C70.76 5.13 69.84 5.14 68.9 5.14 C67.9 5.14 66.9 5.13 65.88 5.13 C64.86 5.13 63.84 5.13 62.79 5.14 C60.64 5.14 58.48 5.13 56.33 5.13 C53.01 5.13 49.7 5.13 46.39 5.14 C44.3 5.14 42.21 5.13 40.12 5.13 C38.63 5.14 38.63 5.14 37.1 5.14 C36.18 5.14 35.27 5.13 34.32 5.13 C33.51 5.13 32.7 5.13 31.86 5.13 C30 5 30 5 29 4 C26.39 3.81 23.8 3.67 21.19 3.56 C14.01 3.21 7.06 2.4 0 1 C0 0.67 0 0.34 0 0 Z "
          fill="#931411" transform="translate(68,145)"/>
    <path d="M0 0 C-3.69 2.6 -7.42 4.75 -11.44 6.81 C-16.57 9.6 -20.23 12.58 -24 17 C-24.78 17.91 -25.55 18.82 -26.36 19.75 C-31.24 25.51 -31.24 25.51 -35 32 C-35.66 32.99 -36.32 33.98 -37 35 C-37.66 35 -38.32 35 -39 35 C-39.1 35.66 -39.2 36.33 -39.3 37.01 C-40.2 42.37 -41.02 46.02 -45 50 C-44.49 45.03 -43.77 40.71 -42 36 C-41.34 36 -40.68 36 -40 36 C-39.01 33.03 -38.02 30.06 -37 27 C-36.34 27 -35.68 27 -35 27 C-34.79 26.32 -34.59 25.64 -34.38 24.94 C-31.37 18.51 -25.78 13.06 -20 9 C-19.34 9 -18.68 9 -18 9 C-17.67 8.01 -17.34 7.02 -17 6 C-14.4 4.35 -13.14 4 -10 4 C-9.67 3.01 -9.34 2.02 -9 1 C-5.65 -0.81 -3.6 -1.33 0 0 Z "
          fill="#AB7A7A" transform="translate(85,41)"/>
    <path d="M0 0 C1.26 0 2.52 0 3.82 0 C5.19 0.02 6.56 0.04 7.93 0.06 C9.34 0.07 10.75 0.08 12.15 0.08 C15.85 0.1 19.55 0.14 23.24 0.18 C27.02 0.22 30.79 0.24 34.56 0.26 C41.96 0.3 49.36 0.37 56.76 0.45 C56.76 1.11 56.76 1.77 56.76 2.45 C57.9 2.42 57.9 2.42 59.06 2.38 C60.06 2.37 61.05 2.35 62.08 2.33 C63.06 2.31 64.05 2.28 65.06 2.26 C67.76 2.45 67.76 2.45 70.76 4.45 C67.91 5.88 66.09 5.1 62.98 4.53 C56.05 3.4 49.35 3.18 42.34 3.22 C41.12 3.22 39.89 3.22 38.63 3.23 C36.06 3.23 33.49 3.24 30.92 3.25 C27.01 3.27 23.09 3.27 19.18 3.27 C16.67 3.27 14.16 3.28 11.65 3.29 C9.91 3.29 9.91 3.29 8.14 3.29 C1.93 3.33 -4.08 3.64 -10.24 4.45 C-7.01 0.51 -5.03 -0.04 0 0 Z "
          fill="#AE1714" transform="translate(90.24,129.55)"/>
    <path d="M0 0 C1.49 3.87 0.55 6.25 -1 10 C-2.62 12.15 -4.17 14.05 -6 16 C-6.48 16.52 -6.97 17.04 -7.47 17.58 C-12.48 22.8 -18.1 26.7 -25 29 C-25.39 29.52 -25.78 30.03 -26.19 30.56 C-29.18 32.94 -32.27 32.18 -36 32 C-36 30.68 -36 29.36 -36 28 C-32.7 27.67 -29.4 27.34 -26 27 C-26 26.34 -26 25.68 -26 25 C-24.3 24.32 -24.3 24.32 -22.56 23.62 C-18.95 22.43 -18.95 22.43 -18 20 C-13.5 17 -13.5 17 -11 17 C-10.73 16.36 -10.46 15.72 -10.19 15.06 C-9 13 -9 13 -6 12 C-4.83 9.58 -4.83 9.58 -4 7 C-3.67 6.34 -3.34 5.68 -3 5 C-2.34 5 -1.68 5 -1 5 C-0.67 3.35 -0.34 1.7 0 0 Z "
          fill="#85593D" transform="translate(181,163)"/>
    <path d="M0 0 C1.8 0 1.8 0 3.64 0 C5.58 0.01 5.58 0.01 7.57 0.02 C8.91 0.02 10.25 0.02 11.59 0.02 C15.12 0.02 18.65 0.03 22.17 0.04 C25.77 0.06 29.37 0.06 32.97 0.06 C40.03 0.08 47.09 0.09 54.15 0.11 C54.15 0.44 54.15 0.77 54.15 1.11 C52.48 1.2 52.48 1.2 50.77 1.28 C46.62 1.49 42.46 1.7 38.3 1.91 C36.51 2 34.71 2.09 32.92 2.18 C30.33 2.31 27.74 2.44 25.15 2.58 C23.96 2.64 23.96 2.64 22.74 2.7 C17.44 2.97 12.16 3.33 7.01 4.67 C4.76 5.21 2.71 5.21 0.4 5.18 C-0.4 5.17 -1.2 5.16 -2.02 5.15 C-2.62 5.14 -3.23 5.13 -3.85 5.11 C-4.18 4.12 -4.51 3.13 -4.85 2.11 C-6.86 1.38 -6.86 1.38 -8.85 1.11 C-5.64 0.05 -3.37 -0.01 0 0 Z "
          fill="#790D0B" transform="translate(58.85,127.89)"/>
    <path d="M0 0 C0.66 0.33 1.32 0.66 2 1 C2.33 1.99 2.66 2.98 3 4 C5.02 4.73 5.02 4.73 7 5 C6.86 6.65 6.71 8.29 6.56 9.94 C6.48 10.85 6.4 11.77 6.32 12.71 C6 15 6 15 5 16 C4.51 18.51 4.1 21.03 3.7 23.55 C2.93 26.23 2.2 27.33 0 29 C-0.66 29 -1.32 29 -2 29 C-2.06 25.9 -2.09 22.79 -2.12 19.69 C-2.14 18.81 -2.16 17.93 -2.18 17.02 C-2.18 16.17 -2.19 15.32 -2.2 14.45 C-2.21 13.67 -2.22 12.89 -2.23 12.08 C-2 10 -2 10 0 7 C0.08 4.67 0.09 2.33 0 0 Z "
          fill="#B31814" transform="translate(38,109)"/>
    <path d="M0 0 C0.99 0.49 0.99 0.49 2 1 C2.65 3.89 3.17 6.71 3.62 9.62 C3.76 10.42 3.89 11.22 4.03 12.04 C4.79 16.75 5.14 21.22 5 26 C5.99 26.33 6.98 26.66 8 27 C8 31.29 8 35.58 8 40 C11.63 40.33 15.26 40.66 19 41 C19 44.3 19 47.6 19 51 C17.68 51.66 16.36 52.32 15 53 C15.99 49.7 16.98 46.4 18 43 C14.04 43 10.08 43 6 43 C5.95 42.02 5.9 41.05 5.85 40.04 C5.78 38.77 5.7 37.5 5.62 36.19 C5.52 34.29 5.52 34.29 5.41 32.36 C5.24 28.87 5.24 28.87 3 26 C2.5 24.03 2.5 24.03 2.15 21.8 C2.02 20.98 1.89 20.16 1.76 19.32 C1.63 18.47 1.51 17.63 1.38 16.75 C1.24 15.92 1.11 15.08 0.97 14.22 C0.23 9.42 -0.14 4.86 0 0 Z "
          fill="#7D2E2E" transform="translate(200,91)"/>
    <path d="M0 0 C14.52 0 29.04 0 44 0 C44 0.99 44 1.98 44 3 C40.63 4.68 36.83 4.14 33.12 4.13 C31.8 4.13 31.8 4.13 30.46 4.14 C28.59 4.14 26.73 4.13 24.87 4.13 C22.01 4.13 19.15 4.13 16.3 4.14 C14.49 4.14 12.68 4.13 10.88 4.13 C9.59 4.14 9.59 4.14 8.27 4.14 C2.23 4.11 2.23 4.11 0 3 C0 2.01 0 1.02 0 0 Z "
          fill="#755845" transform="translate(98,195)"/>
    <path d="M0 0 C6.62 0.75 6.62 0.75 10 3 C10 3.66 10 4.32 10 5 C10.87 5.19 10.87 5.19 11.75 5.38 C14.02 6.01 15.93 6.89 18 8 C18 8.66 18 9.32 18 10 C18.72 10.23 19.44 10.45 20.19 10.69 C23.61 12.28 25.46 14.21 28 17 C28.45 17.49 28.89 17.98 29.36 18.48 C31.99 21.48 33.77 24.2 35 28 C35.66 28 36.32 28 37 28 C38.06 29.81 38.06 29.81 39 32 C38.67 32.99 38.34 33.98 38 35 C35.21 33.6 34.61 31.7 33 29 C29.45 23.94 29.45 23.94 25.31 19.38 C24 18 24 18 24 16 C23.42 15.92 22.84 15.84 22.25 15.75 C20 15 20 15 18.21 13.18 C15.78 10.78 13.28 9.12 10.38 7.31 C9.41 6.71 8.45 6.11 7.46 5.49 C5.11 4.02 5.11 4.02 3 3 C3 2.34 3 1.68 3 1 C2.01 0.67 1.02 0.34 0 0 Z "
          fill="#B57D7D" transform="translate(155,40)"/>
    <path d="M0 0 C0.66 0.33 1.32 0.66 2 1 C-1.91 7.01 -5.85 11.99 -11.39 16.58 C-13.23 18.2 -14.55 20.04 -16 22 C-16.99 22.33 -17.98 22.66 -19 23 C-19.33 23.66 -19.66 24.32 -20 25 C-22.55 25.89 -25.14 26.54 -27.75 27.22 C-30.17 27.77 -30.17 27.77 -31 30 C-31 29.01 -31 28.02 -31 27 C-28.66 25.18 -28.66 25.18 -25.62 23.31 C-24.63 22.69 -23.63 22.07 -22.6 21.43 C-20 20 -20 20 -18 20 C-17.94 19.38 -17.88 18.76 -17.81 18.12 C-17.54 17.42 -17.28 16.72 -17 16 C-16.22 15.69 -15.43 15.38 -14.62 15.06 C-11.22 13.68 -10.68 12.22 -9 9 C-6.48 4.81 -4.54 2.03 0 0 Z "
          fill="#543926" transform="translate(188,172)"/>
    <path d="M0 0 C1.24 3.59 0.68 6.32 0 10 C-1.05 10.06 -2.1 10.12 -3.18 10.18 C-4.55 10.27 -5.93 10.35 -7.31 10.44 C-8.35 10.5 -8.35 10.5 -9.4 10.56 C-12.47 10.75 -15.07 11.02 -18 12 C-18.66 16.95 -19.32 21.9 -20 27 C-20.66 27 -21.32 27 -22 27 C-22 31.95 -22 36.9 -22 42 C-22.66 42 -23.32 42 -24 42 C-24 34.41 -24 26.82 -24 19 C-23.34 19 -22.68 19 -22 19 C-22.08 17.91 -22.16 16.81 -22.25 15.69 C-22 12 -22 12 -20.53 10.28 C-16.79 8.39 -13.38 8.68 -9.25 8.81 C-8.46 8.83 -7.66 8.84 -6.85 8.85 C-4.9 8.89 -2.95 8.94 -1 9 C-1.02 7.89 -1.04 6.77 -1.06 5.62 C-1 2 -1 2 0 0 Z "
          fill="#D34D49" transform="translate(110,57)"/>
    <path d="M0 0 C1.56 -0.01 1.56 -0.01 3.16 -0.02 C9.12 -0.01 14.29 0.52 20 2.25 C20 2.91 20 3.57 20 4.25 C20.76 4.37 21.53 4.5 22.31 4.62 C25 5.25 25 5.25 28 7.25 C28 7.91 28 8.57 28 9.25 C24.7 8.26 21.4 7.27 18 6.25 C18 5.59 18 4.93 18 4.25 C12 3.38 6.18 3.09 0.12 3.12 C-1.19 3.13 -1.19 3.13 -2.53 3.13 C-8.41 3.17 -14.17 3.47 -20 4.25 C-20 3.59 -20 2.93 -20 2.25 C-13.25 0.21 -7.03 -0.05 0 0 Z "
          fill="#CB9796" transform="translate(120,25.75)"/>
    <path d="M0 0 C5.61 0 11.22 0 17 0 C17 5.61 17 11.22 17 17 C23.6 17 30.2 17 37 17 C37 17.33 37 17.66 37 18 C30.07 18 23.14 18 16 18 C16 12.39 16 6.78 16 1 C11.05 1 6.1 1 1 1 C1.01 2.14 1.02 3.29 1.04 4.46 C1.04 5.96 1.05 7.45 1.06 8.94 C1.07 9.69 1.08 10.45 1.09 11.22 C1.1 13.15 1.05 15.08 1 17 C0 18 0 18 -1.86 18.11 C-2.65 18.11 -3.44 18.1 -4.25 18.1 C-5.11 18.09 -5.96 18.09 -6.84 18.09 C-7.74 18.08 -8.64 18.07 -9.56 18.06 C-10.46 18.06 -11.37 18.05 -12.29 18.05 C-14.53 18.04 -16.76 18.02 -19 18 C-15.32 15.54 -12.55 15.77 -8.31 15.88 C-4.69 15.94 -4.69 15.94 -1 16 C-0.67 10.72 -0.34 5.44 0 0 Z "
          fill="#E8A3A2" transform="translate(111,51)"/>
    <path d="M0 0 C-0.33 0.99 -0.66 1.98 -1 3 C-6.98 4.16 -12.35 3.8 -18.38 3.12 C-19.75 2.99 -19.75 2.99 -21.14 2.85 C-27.86 2.14 -27.86 2.14 -29 1 C-30.51 0.77 -32.04 0.59 -33.56 0.44 C-34.39 0.35 -35.22 0.27 -36.07 0.18 C-36.7 0.12 -37.34 0.06 -38 0 C-38 -0.33 -38 -0.66 -38 -1 C-33.92 -1.23 -29.83 -1.43 -25.75 -1.62 C-24.61 -1.69 -23.47 -1.75 -22.3 -1.82 C-14.59 -2.17 -7.55 -1.59 0 0 Z "
          fill="#86110E" transform="translate(191,130)"/>
    <path d="M0 0 C15.18 0 30.36 0 46 0 C46 0.66 46 1.32 46 2 C30.57 3.12 15.43 3.12 0 2 C0 1.34 0 0.68 0 0 Z "
          fill="#CC9B9A" transform="translate(97,165)"/>
    <path d="M0 0 C0.66 0 1.32 0 2 0 C2.03 2.31 2.05 4.62 2.06 6.94 C2.07 8.23 2.09 9.51 2.1 10.84 C2 14 2 14 1 15 C1.01 17.56 1.13 20.1 1.26 22.65 C1.17 23.43 1.09 24.2 1 25 C0.01 25.66 -0.98 26.32 -2 27 C-2.66 26.67 -3.32 26.34 -4 26 C-4.66 30.62 -5.32 35.24 -6 40 C-7.32 39.67 -8.64 39.34 -10 39 C-9.01 39 -8.02 39 -7 39 C-7.02 38.25 -7.05 37.5 -7.07 36.73 C-7.09 35.75 -7.11 34.76 -7.12 33.75 C-7.15 32.78 -7.17 31.8 -7.2 30.8 C-7 27.98 -6.45 26.39 -5 24 C-4.34 24 -3.68 24 -3 24 C-2.95 23.11 -2.9 22.21 -2.85 21.29 C-2.4 14.04 -1.68 7.07 0 0 Z "
          fill="#9B3230" transform="translate(38,92)"/>
    <path d="M0 0 C0.66 0.33 1.32 0.66 2 1 C2 5.62 2 10.24 2 15 C5.63 15 9.26 15 13 15 C8.77 19.94 3.87 22.32 -2 25 C-2 24.34 -2 23.68 -2 23 C-1.34 23 -0.68 23 0 23 C0 15.41 0 7.82 0 0 Z "
          fill="#6F0A08" transform="translate(204,119)"/>
    <path d="M0 0 C0.25 0.62 0.49 1.24 0.75 1.88 C2.26 4.44 3.36 4.72 6 6 C7.67 7.67 9.33 9.33 11 11 C13.17 12.3 13.17 12.3 15 13 C15 13.66 15 14.32 15 15 C15.68 15.27 16.36 15.54 17.06 15.81 C20.4 17.16 23.7 18.58 27 20 C27 20.66 27 21.32 27 22 C27.66 22.33 28.32 22.66 29 23 C26.69 22.67 24.38 22.34 22 22 C22 21.34 22 20.68 22 20 C21.29 19.81 20.58 19.61 19.85 19.41 C18.93 19.15 18.01 18.89 17.06 18.62 C15.69 18.24 15.69 18.24 14.29 17.85 C12 17 12 17 11 15 C9.92 14.41 9.92 14.41 8.81 13.81 C5.14 11.44 2.39 8.67 0 5 C-0.38 2.06 -0.38 2.06 0 0 Z "
          fill="#573B29" transform="translate(60,180)"/>
    <path d="M0 0 C3.38 0.58 4.63 1.63 7 4 C9.6 5.19 9.6 5.19 12 6 C12 6.66 12 7.32 12 8 C15.3 8.33 18.6 8.66 22 9 C22 10.32 22 11.64 22 13 C13.75 13.13 7.13 10.65 1 5 C0.19 2.27 0.19 2.27 0 0 Z "
          fill="#85634D" transform="translate(73,182)"/>
    <path d="M0 0 C5.61 -0.02 11.21 -0.04 16.82 -0.05 C18.72 -0.06 20.63 -0.07 22.53 -0.08 C25.28 -0.09 28.02 -0.09 30.76 -0.1 C32.04 -0.11 32.04 -0.11 33.33 -0.11 C37.36 -0.11 41.07 -0.01 45 1 C45 1.33 45 1.66 45 2 C35.08 2.69 25.19 3.1 15.25 3.12 C13.86 3.13 13.86 3.13 12.44 3.14 C7.85 3.13 3.52 2.94 -1 2 C-0.67 1.34 -0.34 0.68 0 0 Z "
          fill="#CB201C" transform="translate(100,133)"/>
    <path d="M0 0 C0.33 0 0.66 0 1 0 C3.18 7.15 3.43 14.06 3.62 21.5 C3.66 22.7 3.7 23.91 3.74 25.15 C3.84 28.1 3.92 31.05 4 34 C3.01 34.49 3.01 34.49 2 35 C1.34 28.73 0.68 22.46 0 16 C-0.33 16 -0.66 16 -1 16 C-1.33 11.38 -1.66 6.76 -2 2 C-1.34 2 -0.68 2 0 2 C0 1.34 0 0.68 0 0 Z "
          fill="#D2423E" transform="translate(151,68)"/>
    <path d="M0 0 C0.66 0 1.32 0 2 0 C2 6.6 2 13.2 2 20 C2.66 20 3.32 20 4 20 C4.33 19.01 4.66 18.02 5 17 C5.66 17 6.32 17 7 17 C7.33 13.7 7.66 10.4 8 7 C8.33 7 8.66 7 9 7 C10.07 16.58 10.07 16.58 7.44 20.07 C5.69 21.53 3.95 22.82 2 24 C0.68 23.34 -0.64 22.68 -2 22 C-1.85 21.18 -1.69 20.37 -1.54 19.52 C-0.93 15.55 -0.66 11.63 -0.44 7.62 C-0.39 6.89 -0.35 6.15 -0.31 5.39 C-0.2 3.6 -0.1 1.8 0 0 Z "
          fill="#7E0E0C" transform="translate(34,118)"/>
    <path d="M0 0 C0.33 0 0.66 0 1 0 C1.03 1.65 1.05 3.29 1.06 4.94 C1.07 5.85 1.09 6.77 1.1 7.71 C1 10 1 10 0 11 C-1.42 11.09 -2.84 11.11 -4.25 11.1 C-5.11 11.09 -5.96 11.09 -6.84 11.09 C-7.74 11.08 -8.64 11.07 -9.56 11.06 C-10.46 11.06 -11.37 11.05 -12.29 11.05 C-14.53 11.04 -16.76 11.02 -19 11 C-19 16.94 -19 22.88 -19 29 C-19.66 29 -20.32 29 -21 29 C-21 22.4 -21 15.8 -21 9 C-14.07 9 -7.14 9 0 9 C0 6.03 0 3.06 0 0 Z "
          fill="#F45450" transform="translate(149,75)"/>
    <path d="M0 0 C11.22 -0.37 22.17 0.79 33.31 2 C35.13 2.19 36.95 2.39 38.77 2.58 C43.18 3.04 47.59 3.52 52 4 C52 4.33 52 4.66 52 5 C48.35 5.03 44.71 5.05 41.06 5.06 C39.5 5.08 39.5 5.08 37.91 5.09 C36.42 5.09 36.42 5.09 34.91 5.1 C33.54 5.11 33.54 5.11 32.13 5.11 C30 5 30 5 29 4 C26.39 3.81 23.8 3.67 21.19 3.56 C14.01 3.21 7.06 2.4 0 1 C0 0.67 0 0.34 0 0 Z "
          fill="#780D0B" transform="translate(68,145)"/>
    <path d="M0 0 C1.94 0.81 1.94 0.81 4 2 C5.19 5.56 5.1 8.44 5.06 12.19 C5.05 13.46 5.04 14.73 5.04 16.04 C5.02 17.02 5.01 17.99 5 19 C1.12 17.25 1.12 17.25 0 15 C-0.07 12.45 -0.09 9.93 -0.06 7.38 C-0.06 6.67 -0.05 5.96 -0.05 5.23 C-0.04 3.49 -0.02 1.74 0 0 Z "
          fill="#D91F1B" transform="translate(197,115)"/>
    <path d="M0 0 C0.66 0 1.32 0 2 0 C1.44 2.81 1.44 2.81 0 6 C-3.44 7.69 -3.44 7.69 -7 9 C-7.71 9.84 -7.71 9.84 -8.44 10.69 C-11.18 12.99 -14.54 12.17 -18 12 C-18 10.68 -18 9.36 -18 8 C-14.7 7.67 -11.4 7.34 -8 7 C-8 6.34 -8 5.68 -8 5 C-6.87 4.55 -5.73 4.09 -4.56 3.62 C-0.95 2.43 -0.95 2.43 0 0 Z "
          fill="#86654E" transform="translate(163,183)"/>
    <path d="M0 0 C0.33 0 0.66 0 1 0 C1.03 1.11 1.05 2.22 1.08 3.36 C1.13 4.82 1.19 6.29 1.25 7.75 C1.26 8.48 1.28 9.21 1.29 9.96 C1.54 15.3 1.96 15.96 6 20 C5.67 14.72 5.34 9.44 5 4 C5.66 4.33 6.32 4.66 7 5 C7 11.6 7 18.2 7 25 C1.26 22.13 1.26 22.13 -1 19 C-1.51 15.92 -1.42 12.92 -1.31 9.81 C-1.3 8.98 -1.29 8.15 -1.28 7.29 C-1.17 1.17 -1.17 1.17 0 0 Z "
          fill="#BD1A16" transform="translate(196,114)"/>
    <path d="M0 0 C5.61 1.2 11.18 2.53 16.75 3.94 C23.81 5.72 30.89 7.39 38 9 C38 9.33 38 9.66 38 10 C30.17 10.47 23.5 9.15 16 7 C14.71 6.64 13.42 6.27 12.12 5.91 C8.75 4.96 5.37 3.98 2 3 C2 2.34 2 1.68 2 1 C1.34 0.67 0.68 0.34 0 0 Z "
          fill="#710E0C" transform="translate(38,145)"/>
    <path d="M0 0 C-3.71 2.61 -7.49 4.82 -11.5 6.94 C-15.82 9.25 -19.4 11.69 -23 15 C-23.66 14.67 -24.32 14.34 -25 14 C-23.38 12.29 -21.71 10.63 -20 9 C-19.34 9 -18.68 9 -18 9 C-17.67 8.01 -17.34 7.02 -17 6 C-14.4 4.35 -13.14 4 -10 4 C-9.67 3.01 -9.34 2.02 -9 1 C-5.65 -0.81 -3.6 -1.33 0 0 Z "
          fill="#AB7776" transform="translate(85,41)"/>
    <path d="M0 0 C1.32 0 2.64 0 4 0 C4 4.95 4 9.9 4 15 C4.66 15.33 5.32 15.66 6 16 C5.67 16.33 5.34 16.66 5 17 C5.06 19 5.13 21 5.26 22.99 C5 25 5 25 2 28 C2 23.71 2 19.42 2 15 C1.01 15.49 1.01 15.49 0 16 C0 10.72 0 5.44 0 0 Z "
          fill="#934745" transform="translate(85,40)"/>
    <path d="M0 0 C8.25 0 16.5 0 25 0 C24.67 0.66 24.34 1.32 24 2 C17.78 4 11.48 4.21 5 4 C4.67 3.01 4.34 2.02 4 1 C2.68 0.67 1.36 0.34 0 0 Z "
          fill="#620B09" transform="translate(50,129)"/>
    <path d="M0 0 C0.99 0.49 0.99 0.49 2 1 C2.65 3.89 3.17 6.71 3.62 9.62 C3.76 10.42 3.89 11.22 4.03 12.04 C4.79 16.75 5.14 21.22 5 26 C5.99 26.33 6.98 26.66 8 27 C7.67 28.32 7.34 29.64 7 31 C7 30.01 7 29.02 7 28 C6.36 27.75 5.72 27.51 5.07 27.26 C3 26 3 26 2.27 24.14 C2.17 23.4 2.06 22.66 1.95 21.89 C1.83 21.08 1.71 20.26 1.58 19.41 C1.47 18.55 1.36 17.7 1.25 16.81 C1.12 15.97 1 15.14 0.87 14.27 C0.19 9.47 -0.13 4.85 0 0 Z "
          fill="#A15757" transform="translate(200,91)"/>
    <path d="M0 0 C3.63 0 7.26 0 11 0 C10.01 1.49 10.01 1.49 9 3 C9.66 3.33 10.32 3.66 11 4 C11 4.66 11 5.32 11 6 C5.87 6.1 1.05 6.04 -4 5 C-2.68 4.34 -1.36 3.68 0 3 C0 2.01 0 1.02 0 0 Z "
          fill="#C82F2B" transform="translate(82,158)"/>
    <path d="M0 0 C0.33 0 0.66 0 1 0 C1.2 1.2 1.41 2.41 1.62 3.65 C1.89 5.22 2.17 6.8 2.44 8.38 C2.57 9.17 2.71 9.96 2.85 10.78 C3.51 15.01 3.51 15.01 5 19 C5.02 20.6 4.97 22.19 4.88 23.79 C4.81 25.2 4.81 25.2 4.73 26.64 C4.68 27.63 4.62 28.61 4.56 29.62 C4.51 30.62 4.46 31.61 4.4 32.63 C4.27 35.09 4.14 37.54 4 40 C3.01 39.67 2.02 39.34 1 39 C1.66 39 2.32 39 3 39 C2.95 35.77 2.85 32.54 2.75 29.31 C2.74 28.4 2.72 27.49 2.71 26.55 C2.51 21.13 2.13 17.93 -2 14 C-1.01 14 -0.02 14 1 14 C0.67 9.38 0.34 4.76 0 0 Z "
          fill="#820E0C" transform="translate(200,100)"/>
    <path d="M0 0 C-0.33 0.66 -0.66 1.32 -1 2 C-2.75 2.49 -2.75 2.49 -5 2.82 C-5.8 2.94 -6.61 3.07 -7.44 3.19 C-8.28 3.32 -9.13 3.44 -10 3.56 C-11.67 3.81 -13.33 4.06 -15 4.32 C-16.11 4.48 -16.11 4.48 -17.25 4.64 C-19.02 4.84 -19.02 4.84 -20 6 C-21.69 6.07 -23.38 6.08 -25.06 6.06 C-25.98 6.05 -26.9 6.04 -27.85 6.04 C-28.56 6.02 -29.27 6.01 -30 6 C-30 5.34 -30 4.68 -30 4 C-29.35 3.91 -28.7 3.83 -28.03 3.74 C-25.08 3.35 -22.13 2.96 -19.19 2.56 C-18.16 2.43 -17.14 2.29 -16.08 2.15 C-15.1 2.02 -14.12 1.89 -13.11 1.75 C-12.2 1.63 -11.29 1.51 -10.36 1.39 C-1.66 -0.04 -1.66 -0.04 0 0 Z "
          fill="#780F0D" transform="translate(179,143)"/>
    <path d="M0 0 C6.62 0.75 6.62 0.75 10 3 C10 3.66 10 4.32 10 5 C10.87 5.19 10.87 5.19 11.75 5.38 C14.02 6.01 15.93 6.89 18 8 C18 8.66 18 9.32 18 10 C19.65 10.66 21.3 11.32 23 12 C22.01 12.49 22.01 12.49 21 13 C14.85 10.6 8.18 7.13 3 3 C3 2.34 3 1.68 3 1 C2.01 0.67 1.02 0.34 0 0 Z "
          fill="#B67978" transform="translate(155,40)"/>
    <path d="M0 0 C5.42 -0.23 9.77 0.53 15 2 C15 2.66 15 3.32 15 4 C16.14 4.19 16.14 4.19 17.31 4.38 C20 5 20 5 23 7 C23 7.66 23 8.32 23 9 C19.7 8.01 16.4 7.02 13 6 C13 5.34 13 4.68 13 4 C10.36 3.67 7.72 3.34 5 3 C5 2.34 5 1.68 5 1 C3.35 1 1.7 1 0 1 C0 0.67 0 0.34 0 0 Z "
          fill="#D7B9B9" transform="translate(125,26)"/>
    <path d="M0 0 C2.64 0 5.28 0 8 0 C6.68 1.32 5.36 2.64 4 4 C6.31 4.33 8.62 4.66 11 5 C10.67 5.99 10.34 6.98 10 8 C9.01 8 8.02 8 7 8 C7 7.34 7 6.68 7 6 C3.37 6 -0.26 6 -4 6 C-4 5.34 -4 4.68 -4 4 C-3.01 4 -2.02 4 -1 4 C-0.67 2.68 -0.34 1.36 0 0 Z "
          fill="#E33F3C" transform="translate(136,159)"/>
    <path d="M0 0 C0.57 0.14 1.14 0.29 1.72 0.44 C5.22 1.3 8.66 1.02 12.25 0.94 C14.95 1 17.37 1.39 20 2 C20 2.33 20 2.66 20 3 C10.1 3 0.2 3 -10 3 C-10 2.34 -10 1.68 -10 1 C-9.36 1.01 -8.72 1.02 -8.07 1.04 C-7.24 1.04 -6.41 1.05 -5.56 1.06 C-4.33 1.08 -4.33 1.08 -3.07 1.1 C-1.01 1.23 -1.01 1.23 0 0 Z "
          fill="#B91C19" transform="translate(78,124)"/>
    <path d="M0 0 C12.59 0.73 12.59 0.73 17.19 2 C21.17 3.04 24.9 3.41 29 3.66 C29.66 3.77 30.32 3.88 31 4 C31.33 4.66 31.66 5.32 32 6 C27.79 5.52 23.58 5.04 19.38 4.56 C18.19 4.43 17 4.29 15.77 4.15 C14.62 4.02 13.46 3.89 12.27 3.75 C11.22 3.63 10.16 3.51 9.07 3.39 C6.03 3 3.02 2.52 0 2 C0 1.34 0 0.68 0 0 Z "
          fill="#C08583" transform="translate(63,160)"/>
    <path d="M0 0 C0.99 0.49 0.99 0.49 2 1 C2.38 4.05 2.38 4.05 2.56 7.88 C2.8 13.03 2.8 13.03 4 18 C3.67 18.99 3.34 19.98 3 21 C2.01 21 1.02 21 0 21 C0 14.07 0 7.14 0 0 Z "
          fill="#600907" transform="translate(204,119)"/>
    <path d="M0 0 C0.33 0 0.66 0 1 0 C1.35 3.73 1.52 7.28 1 11 C-1.75 13.81 -1.75 13.81 -5 16 C-5.7 17.07 -6.4 18.14 -7.12 19.25 C-9 22 -9 22 -11.12 22.67 C-11.74 22.78 -12.36 22.89 -13 23 C-7.59 15.51 -7.59 15.51 -4.25 12.62 C-1 8.84 -0.63 4.85 0 0 Z "
          fill="#5C3A28" transform="translate(182,162)"/>
    <path d="M0 0 C1.32 0.33 2.64 0.66 4 1 C3.01 2.48 3.01 2.48 2 4 C1.34 4 0.68 4 0 4 C-0.1 4.66 -0.2 5.33 -0.3 6.01 C-1.2 11.37 -2.02 15.02 -6 19 C-5.49 14.03 -4.77 9.71 -3 5 C-2.34 5 -1.68 5 -1 5 C-0.67 3.35 -0.34 1.7 0 0 Z "
          fill="#96504F" transform="translate(46,72)"/>
    <path d="M0 0 C3.3 1.65 6.6 3.3 10 5 C10 5.66 10 6.32 10 7 C9.34 7.66 8.68 8.32 8 9 C4.99 8.61 3.6 7.74 1 6 C0.31 2.88 0.31 2.88 0 0 Z "
          fill="#8E110E" transform="translate(25,138)"/>
    <path d="M0 0 C2 4 2 4 2 6 C7.61 6.33 13.22 6.66 19 7 C15.21 9.53 12.19 9.22 7.81 9.12 C7.06 9.12 6.31 9.11 5.54 9.1 C3.69 9.07 1.85 9.04 0 9 C0 6.03 0 3.06 0 0 Z "
          fill="#DA5753" transform="translate(128,59)"/>
    <path d="M0 0 C0.69 1.75 0.69 1.75 1 4 C0.53 4.62 0.05 5.24 -0.44 5.88 C-2.53 8.72 -2.07 10.5 -2 14 C-2.54 16.71 -3.26 19.33 -4 22 C-6.56 18.16 -6.01 16.62 -5.38 12.12 C-5.22 10.91 -5.06 9.7 -4.9 8.45 C-3.93 4.72 -2.6 2.79 0 0 Z "
          fill="#8C2724" transform="translate(59,80)"/>
    <path d="M0 0 C11.88 0 23.76 0 36 0 C31.83 2.09 30.04 2.22 25.5 2.12 C24.38 2.11 23.25 2.09 22.09 2.07 C21.07 2.05 20.05 2.02 19 2 C17.68 2 16.36 2 15 2 C12.42 1.85 9.83 1.68 7.25 1.5 C6.55 1.45 5.86 1.4 5.14 1.36 C3.42 1.24 1.71 1.12 0 1 C0 0.67 0 0.34 0 0 Z "
          fill="#4D3627" transform="translate(105,191)"/>
    <path d="M0 0 C0.66 0 1.32 0 2 0 C2 0.66 2 1.32 2 2 C2.66 2 3.32 2 4 2 C4.33 2.99 4.66 3.98 5 5 C4.34 5.66 3.68 6.32 3 7 C2.54 9.66 2.54 9.66 2.38 12.62 C2.3 13.63 2.23 14.63 2.15 15.66 C2.1 16.43 2.05 17.21 2 18 C1.34 17.67 0.68 17.34 0 17 C0 11.39 0 5.78 0 0 Z "
          fill="#9F3734" transform="translate(153,55)"/>
    <path d="M0 0 C0.66 1.32 1.32 2.64 2 4 C2.66 4 3.32 4 4 4 C4.27 4.95 4.54 5.9 4.81 6.88 C5.75 10.25 5.75 10.25 9 12 C9 12.66 9 13.32 9 14 C6.03 13.67 4.68 12.76 2.25 10.94 C-0.8 6.96 -0.42 4.9 0 0 Z "
          fill="#B45150" transform="translate(21,134)"/>
    <path d="M0 0 C2.48 0.99 2.48 0.99 5 2 C5 2.66 5 3.32 5 4 C5.68 4.27 6.36 4.54 7.06 4.81 C10.4 6.16 13.7 7.58 17 9 C17 9.66 17 10.32 17 11 C17.66 11.33 18.32 11.66 19 12 C16.69 11.67 14.38 11.34 12 11 C12 10.34 12 9.68 12 9 C9.69 8.34 7.38 7.68 5 7 C4.67 5.68 4.34 4.36 4 3 C2.68 2.67 1.36 2.34 0 2 C0 1.34 0 0.68 0 0 Z "
          fill="#4E3324" transform="translate(70,191)"/>
    <path d="M0 0 C1.32 0.33 2.64 0.66 4 1 C4 1.66 4 2.32 4 3 C5.32 3.66 6.64 4.32 8 5 C3.05 5.33 -1.9 5.66 -7 6 C-7 5.34 -7 4.68 -7 4 C-5.35 4 -3.7 4 -2 4 C-1.34 2.68 -0.68 1.36 0 0 Z "
          fill="#BE211D" transform="translate(152,158)"/>
    <path d="M0 0 C0.7 0.02 1.39 0.04 2.11 0.05 C3.83 0.1 5.54 0.17 7.25 0.25 C4.25 3.25 0.67 2.97 -3.38 3.38 C-4.18 3.46 -4.98 3.55 -5.8 3.64 C-7.79 3.85 -9.77 4.05 -11.75 4.25 C-8.36 -0.18 -5.24 -0.26 0 0 Z "
          fill="#961410" transform="translate(91.75,129.75)"/>
    <path d="M0 0 C2.38 3.57 2.24 5.21 2.19 9.44 C2.18 10.57 2.17 11.7 2.17 12.87 C2.03 15.44 1.75 17.56 1 20 C0.34 20 -0.32 20 -1 20 C-0.67 13.4 -0.34 6.8 0 0 Z "
          fill="#B53A37" transform="translate(155,78)"/>
    <path d="M0 0 C0.33 0 0.66 0 1 0 C1.33 7.26 1.66 14.52 2 22 C-0.95 17.58 -1.14 15.39 -1.12 10.06 C-1.13 8.82 -1.13 7.57 -1.13 6.29 C-1 3 -1 3 0 0 Z "
          fill="#AD3E3B" transform="translate(84,78)"/>
    <path d="M0 0 C0.66 0.33 1.32 0.66 2 1 C-1.53 6.89 -5.05 9.03 -11 12 C-4.82 1.88 -4.82 1.88 0 0 Z "
          fill="#4D3122" transform="translate(188,172)"/>
    <path d="M0 0 C0.99 0 1.98 0 3 0 C3.03 1.96 3.05 3.92 3.06 5.88 C3.07 6.97 3.09 8.06 3.1 9.18 C3 12 3 12 2 14 C1.34 14 0.68 14 0 14 C0 9.38 0 4.76 0 0 Z "
          fill="#E0211C" transform="translate(37,118)"/>
    <path d="M0 0 C1.08 0.02 2.16 0.04 3.27 0.05 C4.5 0.09 4.5 0.09 5.75 0.12 C1.72 2.36 -1.7 2.67 -6.25 3.12 C-6.25 3.79 -6.25 4.45 -6.25 5.12 C-7.9 5.12 -9.55 5.12 -11.25 5.12 C-10.25 2.12 -10.25 2.12 -8.58 0.95 C-5.61 -0.1 -3.14 -0.07 0 0 Z "
          fill="#C78281" transform="translate(103.25,29.88)"/>
    <path d="M0 0 C20.97 -0.46 20.97 -0.46 26 3.62 C26.33 4.08 26.66 4.53 27 5 C24.69 4.67 22.38 4.34 20 4 C20 3.34 20 2.68 20 2 C13.4 1.67 6.8 1.34 0 1 C0 0.67 0 0.34 0 0 Z "
          fill="#AD605E" transform="translate(113,30)"/>
    <path d="M0 0 C1.41 0.01 1.41 0.01 2.84 0.03 C3.82 0.05 4.79 0.08 5.8 0.11 C6.79 0.12 7.78 0.13 8.79 0.15 C11.23 0.18 13.67 0.23 16.11 0.29 C16.11 0.62 16.11 0.95 16.11 1.29 C9.84 1.29 3.57 1.29 -2.89 1.29 C-2.89 2.94 -2.89 4.59 -2.89 6.29 C-3.55 6.29 -4.21 6.29 -4.89 6.29 C-4.89 5.63 -4.89 4.97 -4.89 4.29 C-5.88 3.96 -6.87 3.63 -7.89 3.29 C-5.43 0.24 -3.86 -0.07 0 0 Z "
          fill="#D03D39" transform="translate(97.89,157.71)"/>
    <path d="M0 0 C0.33 0 0.66 0 1 0 C1.06 1.09 1.12 2.17 1.18 3.29 C1.27 4.73 1.35 6.18 1.44 7.62 C1.48 8.34 1.52 9.05 1.56 9.79 C1.8 13.92 2.23 17.92 3 22 C2.01 21.67 1.02 21.34 0 21 C-1.04 16.74 -1.15 12.61 -1.12 8.25 C-1.13 7.57 -1.13 6.88 -1.14 6.18 C-1.13 1.13 -1.13 1.13 0 0 Z "
          fill="#A0120F" transform="translate(196,114)"/>
    <path d="M0 0 C-2.77 2.77 -5.17 2.48 -9 3 C-9.91 3.37 -10.81 3.74 -11.75 4.12 C-14 5 -14 5 -17 4 C-15.22 1.73 -14.15 1.04 -11.31 0.31 C-7.51 -0.05 -3.82 -0.07 0 0 Z "
          fill="#A95F5E" transform="translate(113,31)"/>
    <path d="M0 0 C6.62 -0.12 6.62 -0.12 10 1 C10 1.66 10 2.32 10 3 C6.79 4.61 3.56 4.06 0 4 C0 2.68 0 1.36 0 0 Z "
          fill="#73513B" transform="translate(145,191)"/>
    <path d="M0 0 C0.33 0 0.66 0 1 0 C1.17 3.27 1.33 6.54 1.5 9.81 C1.55 10.74 1.6 11.67 1.64 12.63 C1.69 13.52 1.73 14.41 1.78 15.33 C1.82 16.15 1.87 16.98 1.91 17.82 C1.98 19.55 2 21.27 2 23 C0.68 22.34 -0.64 21.68 -2 21 C-1.01 10.61 -1.01 10.61 0 0 Z "
          fill="#5B0605" transform="translate(34,119)"/>
    <path d="M0 0 C0.33 0 0.66 0 1 0 C1.33 3.63 1.66 7.26 2 11 C1.34 11 0.68 11 0 11 C-0.33 12.65 -0.66 14.3 -1 16 C-1.33 16 -1.66 16 -2 16 C-1.86 13.52 -1.71 11.04 -1.56 8.56 C-1.52 7.86 -1.48 7.15 -1.44 6.42 C-1.11 1.11 -1.11 1.11 0 0 Z "
          fill="#A24644" transform="translate(153,44)"/>
    <path d="M0 0 C2.31 0 4.62 0 7 0 C7 3.3 7 6.6 7 10 C5.02 10.99 5.02 10.99 3 12 C3.99 8.7 4.98 5.4 6 2 C3.03 1.5 3.03 1.5 0 1 C0 0.67 0 0.34 0 0 Z "
          fill="#B25656" transform="translate(212,132)"/>
    <path d="M0 0 C0 0.99 0 1.98 0 3 C-1.98 3.66 -3.96 4.32 -6 5 C-6 5.66 -6 6.32 -6 7 C-7.98 7.33 -9.96 7.66 -12 8 C-12 7.34 -12 6.68 -12 6 C-10.35 5.67 -8.7 5.34 -7 5 C-7 4.01 -7 3.02 -7 2 C-4.69 1.34 -2.38 0.68 0 0 Z "
          fill="#C16867" transform="translate(213,145)"/>
    <path d="M0 0 C1.98 0 3.96 0 6 0 C6 0.66 6 1.32 6 2 C9.63 2 13.26 2 17 2 C17 2.33 17 2.66 17 3 C12.05 3 7.1 3 2 3 C2 3.66 2 4.32 2 5 C1.01 4.67 0.02 4.34 -1 4 C-0.67 2.68 -0.34 1.36 0 0 Z "
          fill="#D6554E" transform="translate(95,162)"/>
    <path d="M0 0 C0.66 0 1.32 0 2 0 C1.01 5.28 0.02 10.56 -1 16 C-2.32 15.67 -3.64 15.34 -5 15 C-4.01 15 -3.02 15 -2 15 C-2.02 14.25 -2.05 13.5 -2.07 12.73 C-2.09 11.75 -2.11 10.76 -2.12 9.75 C-2.15 8.78 -2.17 7.8 -2.2 6.8 C-2 3.98 -1.45 2.39 0 0 Z "
          fill="#975454" transform="translate(33,116)"/>
    <path d="M0 0 C3.57 0.31 5.03 1.02 7.88 3.31 C10 6 10 6 9.81 8.31 C9.54 8.87 9.28 9.43 9 10 C7.62 8.71 6.29 7.37 5 6 C5 5.34 5 4.68 5 4 C4.36 3.9 3.72 3.79 3.06 3.69 C2.38 3.46 1.7 3.23 1 3 C0.67 2.01 0.34 1.02 0 0 Z "
          fill="#B06F6E" transform="translate(174,52)"/>
    <path d="M0 0 C1.33 0.49 1.33 0.49 2.69 1 C7.16 2.35 10.54 2.32 15 1 C15 2.32 15 3.64 15 5 C4.24 4.39 4.24 4.39 0 1 C0 0.67 0 0.34 0 0 Z "
          fill="#714F3B" transform="translate(80,190)"/>
    <path d="M0 0 C0.56 0.72 1.11 1.44 1.69 2.19 C3.96 5.05 3.96 5.05 6.62 7.62 C9 10 9 10 11 13 C2.67 8.99 2.67 8.99 0.69 6.06 C0 4 0 4 0 0 Z "
          fill="#623F2D" transform="translate(59,170)"/>
    <path d="M0 0 C3.07 0.6 5.03 1.54 7.5 3.44 C9.92 5.24 12.23 6.78 15 8 C14.01 8.49 14.01 8.49 13 9 C10.47 7.82 10.47 7.82 7.5 6.12 C6.52 5.57 5.54 5.02 4.53 4.45 C3.7 3.97 2.86 3.49 2 3 C1.34 2.67 0.68 2.34 0 2 C0 1.34 0 0.68 0 0 Z "
          fill="#533525" transform="translate(70,185)"/>
    <path d="M0 0 C0 0.66 0 1.32 0 2 C-5.13 2.1 -9.95 2.04 -15 1 C-15 0.67 -15 0.34 -15 0 C-9.77 -1.21 -5.23 -0.76 0 0 Z "
          fill="#B62E2B" transform="translate(93,162)"/>
    <path d="M0 0 C0.99 0.49 0.99 0.49 2 1 C2.33 1.99 2.66 2.98 3 4 C4.32 4.33 5.64 4.66 7 5 C6.67 8.3 6.34 11.6 6 15 C5.67 15 5.34 15 5 15 C5 12.03 5 9.06 5 6 C3.35 6.33 1.7 6.66 0 7 C0 4.69 0 2.38 0 0 Z "
          fill="#790C0A" transform="translate(38,109)"/>
    <path d="M0 0 C0 0.33 0 0.66 0 1 C-1.65 1 -3.3 1 -5 1 C-5 1.66 -5 2.32 -5 3 C-8.3 3.33 -11.6 3.66 -15 4 C-15 3.34 -15 2.68 -15 2 C-9.77 0.53 -5.42 -0.23 0 0 Z "
          fill="#D4B5B5" transform="translate(115,26)"/>
    <path d="M0 0 C1.32 0.33 2.64 0.66 4 1 C2.02 3.31 0.04 5.62 -2 8 C-2.33 7.34 -2.66 6.68 -3 6 C-1.44 1.44 -1.44 1.44 0 0 Z "
          fill="#9E5C5C" transform="translate(58,56)"/>
    <path d="M0 0 C0.66 0 1.32 0 2 0 C2.33 1.32 2.66 2.64 3 4 C3.66 4 4.32 4 5 4 C5.33 6.31 5.66 8.62 6 11 C4.5 9.62 4.5 9.62 3 8 C3 7.34 3 6.68 3 6 C2.01 5.67 1.02 5.34 0 5 C0 3.35 0 1.7 0 0 Z "
          fill="#7E5336" transform="translate(57,164)"/>
    <path d="M0 0 C-5.5 4 -5.5 4 -10 4 C-9 1 -9 1 -6.69 -0.25 C-3.9 -1.03 -2.67 -0.99 0 0 Z "
          fill="#B1807F" transform="translate(85,41)"/>
    <path d="M0 0 C3.96 0.33 7.92 0.66 12 1 C12 1.66 12 2.32 12 3 C8.04 3 4.08 3 0 3 C0 2.01 0 1.02 0 0 Z "
          fill="#7C5F4C" transform="translate(98,195)"/>
    <path d="M0 0 C0.66 0 1.32 0 2 0 C2.66 1.32 3.32 2.64 4 4 C3.34 4 2.68 4 2 4 C2.66 6.64 3.32 9.28 4 12 C3.34 12 2.68 12 2 12 C-0.6 8.1 -0.15 4.53 0 0 Z "
          fill="#4F301F" transform="translate(55,160)"/>
    <path d="M0 0 C6.62 0.75 6.62 0.75 10 3 C10 3.66 10 4.32 10 5 C6.7 4.01 3.4 3.02 0 2 C0 1.34 0 0.68 0 0 Z "
          fill="#D49B9A" transform="translate(138,30)"/>
    <path d="M0 0 C0 0.66 0 1.32 0 2 C-2.47 4.47 -3.71 4.98 -7.25 5.19 C-8.16 5.13 -9.06 5.06 -10 5 C-8.28 1.57 -3.76 0 0 0 Z "
          fill="#593A29" transform="translate(165,188)"/>
    <path d="M0 0 C1.63 0.28 3.25 0.58 4.88 0.88 C5.78 1.04 6.68 1.2 7.62 1.37 C10 2 10 2 12 4 C11.37 3.9 10.75 3.81 10.1 3.71 C9.28 3.6 8.47 3.49 7.62 3.38 C6.41 3.2 6.41 3.2 5.16 3.02 C4.45 3.02 3.74 3.01 3 3 C2.34 3.66 1.68 4.32 1 5 C0.67 3.35 0.34 1.7 0 0 Z "
          fill="#371A0F" transform="translate(42,154)"/>
    <path d="M0 0 C4.29 0 8.58 0 13 0 C13 0.99 13 1.98 13 3 C8.71 2.34 4.42 1.68 0 1 C0 0.67 0 0.34 0 0 Z "
          fill="#6E0D0B" transform="translate(68,145)"/>
    <path d="M0 0 C0.66 0 1.32 0 2 0 C1.67 3.63 1.34 7.26 1 11 C0.34 10.67 -0.32 10.34 -1 10 C-0.67 6.7 -0.34 3.4 0 0 Z "
          fill="#A05555" transform="translate(38,92)"/>
    <path d="M0 0 C0 0.33 0 0.66 0 1 C-4.54 2.45 -8.18 3.24 -13 3 C-13 2.34 -13 1.68 -13 1 C-8.59 -0.1 -4.52 -0.08 0 0 Z "
          fill="#A91A16" transform="translate(97,132)"/>
    <path d="M0 0 C0.99 0.49 0.99 0.49 2 1 C2.41 3.29 2.41 3.29 2.62 6.06 C2.7 6.98 2.77 7.9 2.85 8.85 C2.93 9.91 2.93 9.91 3 11 C-0.16 7.25 -0.28 4.91 0 0 Z "
          fill="#AE7171" transform="translate(200,91)"/>
    <path d="M0 0 C0.66 0.33 1.32 0.66 2 1 C1.67 1.33 1.34 1.66 1 2 C1.06 4 1.13 6 1.26 7.99 C0.93 10.56 -0.05 11.38 -2 13 C-1.86 11.02 -1.71 9.04 -1.56 7.06 C-1.48 5.96 -1.4 4.86 -1.32 3.72 C-1 1 -1 1 0 0 Z "
          fill="#AA4441" transform="translate(89,55)"/>
    <path d="M0 0 C0.99 0 1.98 0 3 0 C3 0.99 3 1.98 3 3 C4.65 3 6.3 3 8 3 C8 3.33 8 3.66 8 4 C6.02 4 4.04 4 2 4 C1.67 4.99 1.34 5.98 1 7 C0.67 4.69 0.34 2.38 0 0 Z "
          fill="#513424" transform="translate(142,192)"/>
    <path d="M0 0 C0.66 0 1.32 0 2 0 C4.43 6.29 4.43 6.29 3 10 C0.97 6.27 0 4.33 0 0 Z "
          fill="#B78181" transform="translate(195,77)"/>
    <path d="M0 0 C0.33 0 0.66 0 1 0 C1 2.31 1 4.62 1 7 C0.01 7 -0.98 7 -2 7 C-2 5.35 -2 3.7 -2 2 C-1.34 2 -0.68 2 0 2 C0 1.34 0 0.68 0 0 Z "
          fill="#CA3C38" transform="translate(151,68)"/>
    <path d="M0 0 C0.33 0.99 0.66 1.98 1 3 C-2 5 -2 5 -6 5 C-6 4.34 -6 3.68 -6 3 C-4.02 2.01 -2.04 1.02 0 0 Z "
          fill="#B38383" transform="translate(91,35)"/>
    <path d="M0 0 C-1.62 1.56 -1.62 1.56 -4 3 C-7.25 2.69 -7.25 2.69 -10 2 C-6.36 -0.43 -4.29 -0.16 0 0 Z "
          fill="#600C0A" transform="translate(194,142)"/>
    <path d="M0 0 C0.99 0 1.98 0 3 0 C2.67 3.96 2.34 7.92 2 12 C1.67 12 1.34 12 1 12 C1 8.7 1 5.4 1 2 C0.34 1.67 -0.32 1.34 -1 1 C-0.67 0.67 -0.34 0.34 0 0 Z "
          fill="#CA1D19" transform="translate(39,116)"/>
    <path d="M0 0 C0.99 0.33 1.98 0.66 3 1 C3 1.66 3 2.32 3 3 C5.47 3.99 5.47 3.99 8 5 C6 6 6 6 3.44 5.31 C1 4 1 4 0.19 1.88 C0.13 1.26 0.06 0.64 0 0 Z "
          fill="#BC9191" transform="translate(170,47)"/>
</svg>
