<?xml version="1.0" encoding="UTF-8"?>
<svg version="1.1" xmlns="http://www.w3.org/2000/svg" width="240" height="240">
    <path d="M0 0 C1.56234375 -0.01160156 1.56234375 -0.01160156 3.15625 -0.0234375 C9.12269224 -0.00837073 14.28555301 0.51918192 20 2.25 C20 2.91 20 3.57 20 4.25 C20.721875 4.311875 21.44375 4.37375 22.1875 4.4375 C25.85341706 5.49654271 27.36194411 7.54599272 30 10.25 C32.66533035 11.569018 32.66533035 11.569018 35 12.25 C35 12.91 35 13.57 35 14.25 C36.093125 14.37375 37.18625 14.4975 38.3125 14.625 C42 15.25 42 15.25 45 17.25 C45 17.91 45 18.57 45 19.25 C45.5775 19.37375 46.155 19.4975 46.75 19.625 C49.02335767 20.25648824 50.9253529 21.13858191 53 22.25 C53 22.91 53 23.57 53 24.25 C53.721875 24.476875 54.44375 24.70375 55.1875 24.9375 C58.60861306 26.53401943 60.46393673 28.46033041 63 31.25 C63.44730469 31.73984375 63.89460937 32.2296875 64.35546875 32.734375 C66.98861209 35.73044426 68.77133535 38.45230927 70 42.25 C70.66 42.25 71.32 42.25 72 42.25 C72.99 45.22 73.98 48.19 75 51.25 C75.66 51.25 76.32 51.25 77 51.25 C77.26554688 52.19101563 77.53109375 53.13203125 77.8046875 54.1015625 C78.15789062 55.34679687 78.51109375 56.59203125 78.875 57.875 C79.39707031 59.71964844 79.39707031 59.71964844 79.9296875 61.6015625 C80.59008176 63.85268746 81.29267109 66.09250539 82.0625 68.30859375 C84.39604585 75.63009386 85.35689462 83.57676574 85 91.25 C85.99 91.58 86.98 91.91 88 92.25 C88 96.54 88 100.83 88 105.25 C91.63 105.58 95.26 105.91 99 106.25 C99.61188811 115.42832168 99.61188811 115.42832168 96.8125 119.1875 C89.90909091 124.25 89.90909091 124.25 87 124.25 C87 124.91 87 125.57 87 126.25 C83.62902617 127.74821059 81.79557881 128.25 78 128.25 C78 129.24 78 130.23 78 131.25 C78.99 131.58 79.98 131.91 81 132.25 C80.34 133.57 79.68 134.89 79 136.25 C78.01 135.92 77.02 135.59 76 135.25 C74.68 138.22 73.36 141.19 72 144.25 C71.34 144.25 70.68 144.25 70 144.25 C69.89945313 144.98347656 69.79890625 145.71695313 69.6953125 146.47265625 C67.96665906 153.37755846 61.88502688 158.64149626 56.5 162.96875 C54.68379069 164.52009545 53.41623924 166.33807702 52 168.25 C51.01 168.58 50.02 168.91 49 169.25 C48.67 169.91 48.34 170.57 48 171.25 C45.71484375 172.1015625 45.71484375 172.1015625 42.9375 172.875 C42.01839844 173.13539063 41.09929687 173.39578125 40.15234375 173.6640625 C39.08693359 173.95410156 39.08693359 173.95410156 38 174.25 C38 174.91 38 175.57 38 176.25 C35.75113762 176.75509208 33.50086131 177.25389179 31.25 177.75 C29.99703125 178.0284375 28.7440625 178.306875 27.453125 178.59375 C24 179.25 24 179.25 20 179.25 C20 179.91 20 180.57 20 181.25 C14.21591441 181.2994009 8.43195136 181.33572 2.64770508 181.35986328 C0.67958436 181.36992707 -1.28852138 181.38357934 -3.2565918 181.40087891 C-6.08385918 181.42511059 -8.91092905 181.43647923 -11.73828125 181.4453125 C-12.61962234 181.45563507 -13.50096344 181.46595764 -14.40901184 181.47659302 C-15.22963608 181.47674408 -16.05026031 181.47689514 -16.89575195 181.47705078 C-17.61745071 181.481492 -18.33914948 181.48593323 -19.0827179 181.49050903 C-21 181.25 -21 181.25 -24 179.25 C-26.38082853 178.64578508 -28.77975094 178.1109677 -31.1875 177.625 C-32.45980469 177.36460937 -33.73210937 177.10421875 -35.04296875 176.8359375 C-36.50669922 176.54589844 -36.50669922 176.54589844 -38 176.25 C-38 175.59 -38 174.93 -38 174.25 C-38.71027344 174.05664062 -39.42054687 173.86328125 -40.15234375 173.6640625 C-41.07144531 173.40367187 -41.99054688 173.14328125 -42.9375 172.875 C-43.85402344 172.61976563 -44.77054688 172.36453125 -45.71484375 172.1015625 C-48 171.25 -48 171.25 -49 169.25 C-49.721875 168.858125 -50.44375 168.46625 -51.1875 168.0625 C-54.30835578 166.05128183 -56.19146267 163.86183017 -58.5234375 161.015625 C-60.12566557 159.0466306 -60.12566557 159.0466306 -62.625 156.625 C-66.51491986 152.73508014 -69.35867377 149.86160454 -70 144.25 C-70.99 143.92 -71.98 143.59 -73 143.25 C-74.70533217 139.92908998 -75 138.06507216 -75 134.25 C-75.66 134.25 -76.32 134.25 -77 134.25 C-77.33 132.27 -77.66 130.29 -78 128.25 C-80.31 127.59 -82.62 126.93 -85 126.25 C-85 125.59 -85 124.93 -85 124.25 C-86.11375 124.064375 -86.11375 124.064375 -87.25 123.875 C-92.43417022 122.69677949 -95.76893102 120.55809198 -99 116.25 C-99.42761487 112.80268506 -99.23299881 109.74498215 -99 106.25 C-94.05 105.755 -94.05 105.755 -89 105.25 C-89.03480469 104.12851563 -89.03480469 104.12851563 -89.0703125 102.984375 C-89.09738281 101.50710937 -89.09738281 101.50710937 -89.125 100 C-89.14820313 99.02546875 -89.17140625 98.0509375 -89.1953125 97.046875 C-88.99862781 94.2303502 -88.44568916 92.64050964 -87 90.25 C-86.34 90.25 -85.68 90.25 -85 90.25 C-84.95101562 89.36699219 -84.90203125 88.48398438 -84.8515625 87.57421875 C-84.37968106 79.99970803 -83.56141104 72.67807193 -82 65.25 C-81.34 65.25 -80.68 65.25 -80 65.25 C-79.87625 64.05375 -79.7525 62.8575 -79.625 61.625 C-79.17674946 57.97403187 -78.29553163 54.70475101 -77 51.25 C-76.34 51.25 -75.68 51.25 -75 51.25 C-74.01 48.28 -73.02 45.31 -72 42.25 C-71.34 42.25 -70.68 42.25 -70 42.25 C-69.690625 41.2290625 -69.690625 41.2290625 -69.375 40.1875 C-66.36651513 33.76028232 -60.77542793 28.31363872 -55 24.25 C-54.34 24.25 -53.68 24.25 -53 24.25 C-52.505 22.765 -52.505 22.765 -52 21.25 C-49.39757586 19.60179805 -48.13751221 19.25 -45 19.25 C-44.505 17.765 -44.505 17.765 -44 16.25 C-40.67908998 14.54466783 -38.81507216 14.25 -35 14.25 C-35 13.59 -35 12.93 -35 12.25 C-34.0925 11.8375 -33.185 11.425 -32.25 11 C-28.99391002 9.45746125 -28.99391002 9.45746125 -26.9375 7.125 C-24.65015662 4.91144189 -23.11474874 4.59608319 -20 4.25 C-20 3.59 -20 2.93 -20 2.25 C-13.25068983 0.20573778 -7.026853 -0.0521796 0 0 Z M-65 133.25 C-64.01 133.745 -64.01 133.745 -63 134.25 C-62.28293018 136.23248715 -61.61709587 138.23415349 -61 140.25 C-60.67 140.91 -60.34 141.57 -60 142.25 C-59.34 142.25 -58.68 142.25 -58 142.25 C-57.79375 142.930625 -57.5875 143.61125 -57.375 144.3125 C-54.97767348 149.43406121 -50.9268031 154.36187404 -46 157.25 C-45.01 157.25 -44.02 157.25 -43 157.25 C-42.67 158.24 -42.34 159.23 -42 160.25 C-38.48809191 161.47969878 -38.48809191 161.47969878 -35 162.25 C-35 162.91 -35 163.57 -35 164.25 C-23.8701346 166.62271381 -12.81603881 166.55638776 -1.48803711 166.51074219 C1.6911104 166.49998779 4.86969737 166.51070433 8.04882812 166.5234375 C10.09895956 166.52211631 12.14909065 166.51955477 14.19921875 166.515625 C15.13489182 166.51967346 16.07056488 166.52372192 17.03459167 166.52789307 C23.23173058 166.48439925 28.97108202 165.67790832 35 164.25 C35 163.59 35 162.93 35 162.25 C36.134375 161.981875 37.26875 161.71375 38.4375 161.4375 C40.2009375 160.8496875 40.2009375 160.8496875 42 160.25 C42.495 158.765 42.495 158.765 43 157.25 C43.5775 157.12625 44.155 157.0025 44.75 156.875 C48.09520794 155.94577557 49.66615053 153.75888818 52 151.25 C52.721875 150.59 53.44375 149.93 54.1875 149.25 C56.19274447 147.03731645 57.06170175 145.06489475 58 142.25 C58.66 142.25 59.32 142.25 60 142.25 C62.2013866 138.44572508 62.2013866 138.44572508 63 134.25 C61.02 134.25 59.04 134.25 57 134.25 C57 134.91 57 135.57 57 136.25 C55.88818359 136.32347656 55.88818359 136.32347656 54.75390625 136.3984375 C48.06675487 136.87316795 41.41029803 137.48934725 34.75 138.25 C33.99920166 138.3329834 33.24840332 138.4159668 32.47485352 138.50146484 C28.93697219 138.63946887 28.93697219 138.63946887 26 140.25 C23.0986671 140.49403735 20.21944898 140.67759003 17.3125 140.8125 C16.44689453 140.8542334 15.58128906 140.8959668 14.68945312 140.93896484 C3.99259316 141.42392611 -6.61959803 141.32803641 -17.3125 140.8125 C-18.15619141 140.77334473 -18.99988281 140.73418945 -19.86914062 140.69384766 C-25.879461 140.370539 -25.879461 140.370539 -27 139.25 C-28.70465539 138.95155885 -30.41954171 138.71108242 -32.13671875 138.49609375 C-33.18923828 138.36396484 -34.24175781 138.23183594 -35.32617188 138.09570312 C-36.43541016 137.96099609 -37.54464844 137.82628906 -38.6875 137.6875 C-39.77740234 137.54892578 -40.86730469 137.41035156 -41.99023438 137.26757812 C-47.03715095 136.644009 -51.9074048 136.1750465 -57 136.25 C-57 135.59 -57 134.93 -57 134.25 C-59.64 133.92 -62.28 133.59 -65 133.25 Z "
          fill="#B02825" transform="translate(120,25.75)"/>
    <path d="M0 0 C1.56234375 -0.01160156 1.56234375 -0.01160156 3.15625 -0.0234375 C9.12269224 -0.00837073 14.28555301 0.51918192 20 2.25 C20 2.91 20 3.57 20 4.25 C20.721875 4.311875 21.44375 4.37375 22.1875 4.4375 C25.85341706 5.49654271 27.36194411 7.54599272 30 10.25 C32.66533035 11.569018 32.66533035 11.569018 35 12.25 C35 12.91 35 13.57 35 14.25 C36.093125 14.37375 37.18625 14.4975 38.3125 14.625 C42 15.25 42 15.25 45 17.25 C45 17.91 45 18.57 45 19.25 C45.5775 19.37375 46.155 19.4975 46.75 19.625 C49.02335767 20.25648824 50.9253529 21.13858191 53 22.25 C53 22.91 53 23.57 53 24.25 C53.721875 24.476875 54.44375 24.70375 55.1875 24.9375 C58.60861306 26.53401943 60.46393673 28.46033041 63 31.25 C63.44730469 31.73984375 63.89460937 32.2296875 64.35546875 32.734375 C66.98861209 35.73044426 68.77133535 38.45230927 70 42.25 C70.66 42.25 71.32 42.25 72 42.25 C73.0625 44.0625 73.0625 44.0625 74 46.25 C73.67 47.24 73.34 48.23 73 49.25 C70.2053648 47.8526824 69.60898019 45.95078818 68 43.25 C64.45435572 38.19011206 64.45435572 38.19011206 60.3125 33.6328125 C59 32.25 59 32.25 59 30.25 C58.4225 30.1675 57.845 30.085 57.25 30 C55 29.25 55 29.25 53.1953125 27.4296875 C50.83324054 25.08442744 48.43139993 23.40946158 45.625 21.625 C44.70976562 21.03460938 43.79453125 20.44421875 42.8515625 19.8359375 C39.95736197 18.22628625 37.16745273 17.19369536 34 16.25 C32.18152232 25.57190498 31.45637789 34.78616378 31 44.25 C30.34 44.25 29.68 44.25 29 44.25 C29.165 44.86875 29.33 45.4875 29.5 46.125 C30.19727368 50.48296047 30.27738512 54.84447168 30 59.25 C29 60.25 29 60.25 27.14233398 60.36352539 C25.95619507 60.35567017 25.95619507 60.35567017 24.74609375 60.34765625 C23.89208984 60.34443359 23.03808594 60.34121094 22.15820312 60.33789062 C20.81145508 60.32532227 20.81145508 60.32532227 19.4375 60.3125 C18.53580078 60.30798828 17.63410156 60.30347656 16.70507812 60.29882812 C14.47002411 60.28700244 12.23500398 60.26906638 10 60.25 C10 66.19 10 72.13 10 78.25 C6.68744674 78.27683436 3.37510817 78.2967578 0.0625 78.3125 C-0.88302734 78.32087891 -1.82855469 78.32925781 -2.80273438 78.33789062 C-4.15141602 78.34272461 -4.15141602 78.34272461 -5.52734375 78.34765625 C-6.77632446 78.35551147 -6.77632446 78.35551147 -8.05053711 78.36352539 C-10 78.25 -10 78.25 -11 77.25 C-11.07325168 74.38732433 -11.09238205 71.549281 -11.0625 68.6875 C-11.05798828 67.88119141 -11.05347656 67.07488281 -11.04882812 66.24414062 C-11.03700518 64.24606244 -11.01906914 62.24802217 -11 60.25 C-12.18078125 60.27320313 -13.3615625 60.29640625 -14.578125 60.3203125 C-16.13541033 60.33907497 -17.69270252 60.35727466 -19.25 60.375 C-20.02730469 60.39175781 -20.80460937 60.40851563 -21.60546875 60.42578125 C-22.73662109 60.43544922 -22.73662109 60.43544922 -23.890625 60.4453125 C-24.58188477 60.45578613 -25.27314453 60.46625977 -25.98535156 60.47705078 C-28 60.25 -28 60.25 -32 58.25 C-32 63.2 -32 68.15 -32 73.25 C-32.99 73.58 -33.98 73.91 -35 74.25 C-36.99926693 70.09342132 -37.24106633 66.71222599 -37.1875 62.125 C-37.18105469 60.90554687 -37.17460938 59.68609375 -37.16796875 58.4296875 C-37 55.25 -37 55.25 -36 52.25 C-35.8613823 50.30345744 -35.77493149 48.35300683 -35.71875 46.40234375 C-35.68136719 45.23896484 -35.64398438 44.07558594 -35.60546875 42.87695312 C-35.57066406 41.65943359 -35.53585938 40.44191406 -35.5 39.1875 C-35.26551891 31.16737838 -34.94471066 23.22156944 -34 15.25 C-46.14830394 21.65340507 -54.99961561 27.75463651 -64 38.25 C-64.63679688 38.95125 -65.27359375 39.6525 -65.9296875 40.375 C-68.87875256 43.49307674 -68.87875256 43.49307674 -70.46484375 47.37890625 C-70.72974609 48.30509766 -70.72974609 48.30509766 -71 49.25 C-72.485 49.745 -72.485 49.745 -74 50.25 C-74.09796875 50.91386719 -74.1959375 51.57773438 -74.296875 52.26171875 C-75.20474663 57.62285726 -76.02036413 61.27036413 -80 65.25 C-79.48594831 60.28083364 -78.76615118 55.95973649 -77 51.25 C-76.34 51.25 -75.68 51.25 -75 51.25 C-74.01 48.28 -73.02 45.31 -72 42.25 C-71.34 42.25 -70.68 42.25 -70 42.25 C-69.79375 41.569375 -69.5875 40.88875 -69.375 40.1875 C-66.36651513 33.76028232 -60.77542793 28.31363872 -55 24.25 C-54.34 24.25 -53.68 24.25 -53 24.25 C-52.67 23.26 -52.34 22.27 -52 21.25 C-49.39757586 19.60179805 -48.13751221 19.25 -45 19.25 C-44.505 17.765 -44.505 17.765 -44 16.25 C-40.67908998 14.54466783 -38.81507216 14.25 -35 14.25 C-35 13.59 -35 12.93 -35 12.25 C-34.0925 11.8375 -33.185 11.425 -32.25 11 C-28.99391002 9.45746125 -28.99391002 9.45746125 -26.9375 7.125 C-24.65015662 4.91144189 -23.11474874 4.59608319 -20 4.25 C-20 3.59 -20 2.93 -20 2.25 C-13.25068983 0.20573778 -7.026853 -0.0521796 0 0 Z "
          fill="#B3514F" transform="translate(120,25.75)"/>
    <path d="M0 0 C1.60568666 0.28317926 3.20952047 0.57687791 4.8125 0.875 C6.15248047 1.11863281 6.15248047 1.11863281 7.51953125 1.3671875 C10 2 10 2 13 4 C13 4.66 13 5.32 13 6 C13.66 6 14.32 6 15 6 C18 11.75 18 11.75 18 14 C18.66 14 19.32 14 20 14 C23 18.38461538 23 18.38461538 23 21 C23.639375 21.268125 24.27875 21.53625 24.9375 21.8125 C27 23 27 23 28 26 C30.28891028 27.37334617 32.45752447 28.15250816 35 29 C35.45375 29.474375 35.9075 29.94875 36.375 30.4375 C38.38576214 32.37092514 40.39052205 33.0831564 43 34 C43 34.66 43 35.32 43 36 C54.16061097 37.18963414 65.30144578 37.15295718 76.51196289 37.13037109 C79.69096608 37.12499414 82.86982912 37.13035243 86.04882812 37.13671875 C88.09895864 37.13605816 90.14908907 37.13477738 92.19921875 37.1328125 C93.13489182 37.13483673 94.07056488 37.13686096 95.03459167 37.13894653 C101.07788824 37.11773949 106.99885439 36.71066531 113 36 C113 35.34 113 34.68 113 34 C114.134375 33.54625 115.26875 33.0925 116.4375 32.625 C120.04721692 31.42904194 120.04721692 31.42904194 121 29 C125.5 26 125.5 26 128 26 C128.268125 25.360625 128.53625 24.72125 128.8125 24.0625 C130 22 130 22 133 21 C134.16953416 18.57616923 134.16953416 18.57616923 135 16 C135.33 15.34 135.66 14.68 136 14 C136.66 14 137.32 14 138 14 C138.309375 13.05125 138.61875 12.1025 138.9375 11.125 C140 8 140 8 141 6 C141.66 6 142.32 6 143 6 C143.21398437 5.36578125 143.42796875 4.7315625 143.6484375 4.078125 C145 2 145 2 147.6015625 1.171875 C148.59929687 1.03265625 149.59703125 0.8934375 150.625 0.75 C151.62789062 0.60046875 152.63078125 0.4509375 153.6640625 0.296875 C154.43492187 0.19890625 155.20578125 0.1009375 156 0 C156 0.99 156 1.98 156 3 C156.99 3.33 157.98 3.66 159 4 C158.34 5.32 157.68 6.64 157 8 C156.01 7.67 155.02 7.34 154 7 C152.68 9.97 151.36 12.94 150 16 C149.34 16 148.68 16 148 16 C147.89945313 16.73347656 147.79890625 17.46695313 147.6953125 18.22265625 C145.96665906 25.12755846 139.88502688 30.39149626 134.5 34.71875 C132.68379069 36.27009545 131.41623924 38.08807702 130 40 C129.01 40.33 128.02 40.66 127 41 C126.505 41.99 126.505 41.99 126 43 C123.71484375 43.8515625 123.71484375 43.8515625 120.9375 44.625 C119.55884766 45.01558594 119.55884766 45.01558594 118.15234375 45.4140625 C117.44207031 45.60742188 116.73179687 45.80078125 116 46 C116 46.66 116 47.32 116 48 C113.75113762 48.50509208 111.50086131 49.00389179 109.25 49.5 C107.99703125 49.7784375 106.7440625 50.056875 105.453125 50.34375 C102 51 102 51 98 51 C98 51.66 98 52.32 98 53 C92.21591441 53.0494009 86.43195136 53.08572 80.64770508 53.10986328 C78.67958436 53.11992707 76.71147862 53.13357934 74.7434082 53.15087891 C71.91614082 53.17511059 69.08907095 53.18647923 66.26171875 53.1953125 C65.38037766 53.20563507 64.49903656 53.21595764 63.59098816 53.22659302 C62.77036392 53.22674408 61.94973969 53.22689514 61.10424805 53.22705078 C60.38254929 53.231492 59.66085052 53.23593323 58.9172821 53.24050903 C57 53 57 53 54 51 C51.61917147 50.39578508 49.22024906 49.8609677 46.8125 49.375 C45.54019531 49.11460937 44.26789063 48.85421875 42.95703125 48.5859375 C41.49330078 48.29589844 41.49330078 48.29589844 40 48 C40 47.34 40 46.68 40 46 C39.28972656 45.80664062 38.57945313 45.61328125 37.84765625 45.4140625 C36.92855469 45.15367187 36.00945312 44.89328125 35.0625 44.625 C34.14597656 44.36976563 33.22945312 44.11453125 32.28515625 43.8515625 C30 43 30 43 29 41 C28.278125 40.608125 27.55625 40.21625 26.8125 39.8125 C23.69164422 37.80128183 21.80853733 35.61183017 19.4765625 32.765625 C17.87433443 30.7966306 17.87433443 30.7966306 15.375 28.375 C11.48508014 24.48508014 8.64132623 21.61160454 8 16 C7.01 15.67 6.02 15.34 5 15 C3.29466783 11.67908998 3 9.81507216 3 6 C2.34 6 1.68 6 1 6 C0.67 4.02 0.34 2.04 0 0 Z "
          fill="#3E2518" transform="translate(42,154)"/>
    <path d="M0 0 C5.61 0 11.22 0 17 0 C17 5.61 17 11.22 17 17 C18.43214844 16.98839844 19.86429688 16.97679688 21.33984375 16.96484375 C23.20572787 16.95546745 25.07161339 16.94636708 26.9375 16.9375 C27.88302734 16.92912109 28.82855469 16.92074219 29.80273438 16.91210938 C31.15141602 16.90727539 31.15141602 16.90727539 32.52734375 16.90234375 C33.77632446 16.89448853 33.77632446 16.89448853 35.05053711 16.88647461 C37 17 37 17 38 18 C38.07320163 20.5327765 38.09227569 23.03103918 38.0625 25.5625 C38.041875 28.016875 38.02125 30.47125 38 33 C30.74 33 23.48 33 16 33 C16 39.27 16 45.54 16 52 C10.72 52 5.44 52 0 52 C0 45.73 0 39.46 0 33 C-6.6 33 -13.2 33 -20 33 C-20 28.05 -20 23.1 -20 18 C-15.74850237 15.87425118 -12.82797878 15.76336608 -8.25 15.875 C-5.8575 15.91625 -3.465 15.9575 -1 16 C-0.67 10.72 -0.34 5.44 0 0 Z "
          fill="#FCF8F8" transform="translate(111,51)"/>
    <path d="M0 0 C0.33 0 0.66 0 1 0 C1.19335938 1.19238281 1.38671875 2.38476562 1.5859375 3.61328125 C1.84857916 5.17975112 2.11162088 6.74615395 2.375 8.3125 C2.50132812 9.09818359 2.62765625 9.88386719 2.7578125 10.69335938 C2.88671875 11.45068359 3.015625 12.20800781 3.1484375 12.98828125 C3.26364746 13.68477783 3.37885742 14.38127441 3.49755859 15.09887695 C3.97175121 17.30828759 3.97175121 17.30828759 6 20 C6.1953125 23.35546875 6.1953125 23.35546875 6.125 27.1875 C6.10695312 28.45980469 6.08890625 29.73210937 6.0703125 31.04296875 C6.04710937 32.01878906 6.02390625 32.99460938 6 34 C9.96 34 13.92 34 18 34 C15.80519481 43.79220779 15.80519481 43.79220779 13 48 C9.8125 49.375 9.8125 49.375 7 50 C7 50.66 7 51.32 7 52 C1.71459319 54.35810458 -3.74446304 55.1769812 -9.40625 56.21875 C-12.85859747 56.85984652 -12.85859747 56.85984652 -15.41796875 57.9921875 C-19.12543981 59.43927908 -22.8950721 59.99096543 -26.8125 60.625 C-27.58142578 60.7590625 -28.35035156 60.893125 -29.14257812 61.03125 C-34.16152196 61.86138755 -38.91391065 62.12758719 -44 62 C-44.33 61.01 -44.66 60.02 -45 59 C-69.75 58.505 -69.75 58.505 -95 58 C-95 57.67 -95 57.34 -95 57 C-83.01915778 56.40788687 -71.07911804 55.86150169 -59.08203125 56.0625 C-56.42725336 56.0086642 -54.52993487 55.65097739 -52 55 C-49.70914863 54.89665332 -47.41721059 54.81671715 -45.125 54.75 C-31.63598192 54.1103866 -17.60794934 50.93480546 -5.12109375 45.796875 C-2.77189665 44.91430371 -0.46803078 44.43374882 2 44 C2 43.34 2 42.68 2 42 C2.66 42 3.32 42 4 42 C4 41.34 4 40.68 4 40 C1.19954954 39.14349347 1.19954954 39.14349347 -2 39 C-4.18739868 40.77068176 -4.18739868 40.77068176 -6 43 C-9.56477272 45.45846394 -12.7683811 45.07556462 -17 45 C-17.61230469 45.15339844 -18.22460938 45.30679688 -18.85546875 45.46484375 C-21.51037109 46.12736036 -24.08398001 46.30385479 -26.8125 46.5 C-34.37522054 46.4978643 -34.37522054 46.4978643 -41 49 C-44.62835804 49.07256716 -48.24654928 48.9960234 -51.875 48.9375 C-54.8672967 48.63635467 -54.8672967 48.63635467 -56 50 C-57.43740353 50.09813987 -58.87956327 50.1279828 -60.3203125 50.12939453 C-61.23796387 50.13254669 -62.15561523 50.13569885 -63.10107422 50.13894653 C-64.09896973 50.1369223 -65.09686523 50.13489807 -66.125 50.1328125 C-67.14223145 50.13376923 -68.15946289 50.13472595 -69.20751953 50.13571167 C-71.36295636 50.13639361 -73.51839522 50.13453835 -75.67382812 50.13037109 C-78.98572371 50.12502305 -82.29748367 50.13031563 -85.609375 50.13671875 C-87.69791697 50.13605797 -89.78645885 50.13477681 -91.875 50.1328125 C-93.37184326 50.13584885 -93.37184326 50.13584885 -94.89892578 50.13894653 C-95.81657715 50.13579437 -96.73422852 50.13264221 -97.6796875 50.12939453 C-98.49163574 50.12859894 -99.30358398 50.12780334 -100.14013672 50.12698364 C-102 50 -102 50 -103 49 C-105.6076373 48.8109538 -108.20131568 48.6714968 -110.8125 48.5625 C-117.98927413 48.21165569 -124.94247535 47.40062628 -132 46 C-132 45.67 -132 45.34 -132 45 C-123.03986372 44.8621812 -114.16915965 45.23279978 -105.23440552 45.85586548 C-85.06518547 47.23401722 -65.3934098 47.37734032 -45.25 45.625 C-44.15729294 45.53045029 -44.15729294 45.53045029 -43.04251099 45.43399048 C-35.39291324 44.75826537 -27.8363443 43.92405355 -20.29248047 42.44189453 C-16.36970363 41.68574692 -12.397839 41.24238864 -8.43359375 40.7578125 C-5.83838453 40.2344403 -5.83838453 40.2344403 -4.66015625 37.9296875 C-4.33337891 36.97449219 -4.33337891 36.97449219 -4 36 C-1.03824877 36.61277612 0.38058783 37.25372522 3 39 C2.94791754 35.76954027 2.85279846 32.54171241 2.75 29.3125 C2.73582031 28.40048828 2.72164062 27.48847656 2.70703125 26.54882812 C2.50987813 21.12711727 2.13436251 17.92764438 -2 14 C-1.01 14 -0.02 14 1 14 C0.67 9.38 0.34 4.76 0 0 Z "
          fill="#941713" transform="translate(200,100)"/>
    <path d="M0 0 C1.4890787 3.87160461 0.55334681 6.24834952 -1 10 C-2.61586362 12.15448483 -4.16888948 14.05397281 -6 16 C-6.72606445 16.78274292 -6.72606445 16.78274292 -7.46679688 17.58129883 C-12.48156237 22.80066545 -18.09790401 26.69930134 -25 29 C-25.46019531 29.50144531 -25.92039062 30.00289062 -26.39453125 30.51953125 C-28.48490487 32.44715072 -29.88536595 32.48444681 -32.6875 32.6875 C-33.89986328 32.78611328 -33.89986328 32.78611328 -35.13671875 32.88671875 C-35.75160156 32.92410156 -36.36648437 32.96148437 -37 33 C-37.33 34.32 -37.66 35.64 -38 37 C-53.18 37 -68.36 37 -84 37 C-84.495 35.02 -84.495 35.02 -85 33 C-86.4540625 33.1546875 -86.4540625 33.1546875 -87.9375 33.3125 C-94.46659197 33.3125 -99.78326288 28.93452708 -104.875 25.25 C-107.81886221 22.89499568 -107.81886221 22.89499568 -111 22 C-111 21.34 -111 20.68 -111 20 C-111.556875 19.731875 -112.11375 19.46375 -112.6875 19.1875 C-113.450625 18.795625 -114.21375 18.40375 -115 18 C-115.825 17.649375 -116.65 17.29875 -117.5 16.9375 C-121.21587415 14.05769753 -122.58525053 10.41432759 -124 6 C-124.25 2.9375 -124.25 2.9375 -124 1 C-123.34 1 -122.68 1 -122 1 C-121.67 2.32 -121.34 3.64 -121 5 C-120.34 5 -119.68 5 -119 5 C-116 9.38461538 -116 9.38461538 -116 12 C-115.360625 12.268125 -114.72125 12.53625 -114.0625 12.8125 C-112 14 -112 14 -111 17 C-108.71108972 18.37334617 -106.54247553 19.15250816 -104 20 C-103.54625 20.474375 -103.0925 20.94875 -102.625 21.4375 C-100.61423786 23.37092514 -98.60947795 24.0831564 -96 25 C-96 25.66 -96 26.32 -96 27 C-84.83938903 28.18963414 -73.69855422 28.15295718 -62.48803711 28.13037109 C-59.30903392 28.12499414 -56.13017088 28.13035243 -52.95117188 28.13671875 C-50.90104136 28.13605816 -48.85091093 28.13477738 -46.80078125 28.1328125 C-45.86510818 28.13483673 -44.92943512 28.13686096 -43.96540833 28.13894653 C-37.92211176 28.11773949 -32.00114561 27.71066531 -26 27 C-26 26.34 -26 25.68 -26 25 C-24.865625 24.54625 -23.73125 24.0925 -22.5625 23.625 C-18.95278308 22.42904194 -18.95278308 22.42904194 -18 20 C-13.5 17 -13.5 17 -11 17 C-10.731875 16.360625 -10.46375 15.72125 -10.1875 15.0625 C-9 13 -9 13 -6 12 C-4.83046584 9.57616923 -4.83046584 9.57616923 -4 7 C-3.67 6.34 -3.34 5.68 -3 5 C-2.34 5 -1.68 5 -1 5 C-0.67 3.35 -0.34 1.7 0 0 Z "
          fill="#5E412F" transform="translate(181,163)"/>
    <path d="M0 0 C0.66 0 1.32 0 2 0 C2 6.6 2 13.2 2 20 C2.66 20 3.32 20 4 20 C4.33 19.01 4.66 18.02 5 17 C5.66 17 6.32 17 7 17 C7.33 13.7 7.66 10.4 8 7 C8.33 7 8.66 7 9 7 C9.92017937 16.73004484 9.92017937 16.73004484 7.6640625 19.84375 C6 21.1875 6 21.1875 3 23 C3.33 23.99 3.66 24.98 4 26 C6.80172939 27.1444973 9.48441608 28.07797695 12.375 28.9375 C13.23134033 29.19692383 14.08768066 29.45634766 14.9699707 29.72363281 C31.86443003 34.71633763 48.43206851 36.89030398 66 38 C66 38.33 66 38.66 66 39 C59.73 39.33 53.46 39.66 47 40 C47.99 41.32 48.98 42.64 50 44 C39.12913002 44.14807087 26.93841351 44.22551157 17.16015625 39.015625 C13.45382146 37.27304445 9.4814454 36.5225782 5.50390625 35.61328125 C3 35 3 35 1 34 C1 33.34 1 32.68 1 32 C0.2575 31.87625 -0.485 31.7525 -1.25 31.625 C-6.43417022 30.44677949 -9.76893102 28.30809198 -13 24 C-13.42761487 20.55268506 -13.23299881 17.49498215 -13 14 C-9.37 14 -5.74 14 -2 14 C-1.93941406 13.15695313 -1.87882812 12.31390625 -1.81640625 11.4453125 C-1.73261719 10.34960938 -1.64882813 9.25390625 -1.5625 8.125 C-1.48128906 7.03445312 -1.40007813 5.94390625 -1.31640625 4.8203125 C-1 2 -1 2 0 0 Z "
          fill="#931C18" transform="translate(34,118)"/>
    <path d="M0 0 C1.76484367 0.11610504 3.53357701 0.17656868 5.30200195 0.20532227 C6.94330582 0.23524765 6.94330582 0.23524765 8.61776733 0.26577759 C9.81253693 0.28248505 11.00730652 0.2991925 12.23828125 0.31640625 C13.48654694 0.33714203 14.73481262 0.35787781 16.02090454 0.37924194 C19.41412241 0.43400967 22.80734614 0.48417543 26.20066452 0.53202438 C28.31000618 0.56246401 30.4193 0.59518209 32.52859497 0.62869263 C46.95930032 0.8574228 61.38735951 1.04235293 75.8203125 0.9921875 C77.39134987 0.98725533 77.39134987 0.98725533 78.99412537 0.98222351 C83.81908327 0.96378711 88.64334526 0.9306728 93.46801758 0.87524414 C116.04688753 0.68229584 116.04688753 0.68229584 126 4 C125.67 4.99 125.34 5.98 125 7 C119.48786975 7.92485407 114.14787544 8.19182807 108.5625 8.1875 C107.69592773 8.18814453 106.82935547 8.18878906 105.93652344 8.18945312 C97.84493906 8.12427009 89.99063681 7.24993201 82 6 C82 5.34 82 4.68 82 4 C72.65455102 4.08469303 63.30927817 4.17968647 53.96406746 4.28752708 C49.62386341 4.3372944 45.28368142 4.38362479 40.94335938 4.421875 C36.74813877 4.45897669 32.55311203 4.50540114 28.35805893 4.55806351 C26.76427515 4.57647618 25.17045003 4.59163158 23.57660294 4.60334396 C15.88195155 4.6618685 8.40577008 4.73366786 0.87939453 6.5579834 C-2.75412832 7.41255512 -6.29471705 7.11952526 -10 7 C-10.33 6.01 -10.66 5.02 -11 4 C-13.01508358 3.26676204 -13.01508358 3.26676204 -15 3 C-13.06643218 2.30151736 -11.12797702 1.61655186 -9.1875 0.9375 C-8.10855469 0.55464844 -7.02960937 0.17179687 -5.91796875 -0.22265625 C-3 -1 -3 -1 0 0 Z "
          fill="#9A1411" transform="translate(65,126)"/>
    <path d="M0 0 C0.33 0 0.66 0 1 0 C1.19335938 1.19238281 1.38671875 2.38476562 1.5859375 3.61328125 C1.84857916 5.17975112 2.11162088 6.74615395 2.375 8.3125 C2.50132812 9.09818359 2.62765625 9.88386719 2.7578125 10.69335938 C2.88671875 11.45068359 3.015625 12.20800781 3.1484375 12.98828125 C3.26364746 13.68477783 3.37885742 14.38127441 3.49755859 15.09887695 C3.97175121 17.30828759 3.97175121 17.30828759 6 20 C6.1953125 23.35546875 6.1953125 23.35546875 6.125 27.1875 C6.10695312 28.45980469 6.08890625 29.73210937 6.0703125 31.04296875 C6.04710937 32.01878906 6.02390625 32.99460938 6 34 C9.63 34 13.26 34 17 34 C12.76646153 38.93912821 7.87024368 41.32134512 2 44 C2 43.34 2 42.68 2 42 C2.66 42 3.32 42 4 42 C4 41.34 4 40.68 4 40 C1.19954954 39.14349347 1.19954954 39.14349347 -2 39 C-4.18739868 40.77068176 -4.18739868 40.77068176 -6 43 C-9.56477272 45.45846394 -12.7683811 45.07556462 -17 45 C-17.61230469 45.15339844 -18.22460938 45.30679688 -18.85546875 45.46484375 C-21.51037109 46.12736036 -24.08398001 46.30385479 -26.8125 46.5 C-34.37522054 46.4978643 -34.37522054 46.4978643 -41 49 C-44.62835804 49.07256716 -48.24654928 48.9960234 -51.875 48.9375 C-54.8672967 48.63635467 -54.8672967 48.63635467 -56 50 C-57.43740353 50.09813987 -58.87956327 50.1279828 -60.3203125 50.12939453 C-61.23796387 50.13254669 -62.15561523 50.13569885 -63.10107422 50.13894653 C-64.09896973 50.1369223 -65.09686523 50.13489807 -66.125 50.1328125 C-67.14223145 50.13376923 -68.15946289 50.13472595 -69.20751953 50.13571167 C-71.36295636 50.13639361 -73.51839522 50.13453835 -75.67382812 50.13037109 C-78.98572371 50.12502305 -82.29748367 50.13031563 -85.609375 50.13671875 C-87.69791697 50.13605797 -89.78645885 50.13477681 -91.875 50.1328125 C-93.37184326 50.13584885 -93.37184326 50.13584885 -94.89892578 50.13894653 C-95.81657715 50.13579437 -96.73422852 50.13264221 -97.6796875 50.12939453 C-98.49163574 50.12859894 -99.30358398 50.12780334 -100.14013672 50.12698364 C-102 50 -102 50 -103 49 C-105.6076373 48.8109538 -108.20131568 48.6714968 -110.8125 48.5625 C-117.98927413 48.21165569 -124.94247535 47.40062628 -132 46 C-132 45.67 -132 45.34 -132 45 C-123.03986372 44.8621812 -114.16915965 45.23279978 -105.23440552 45.85586548 C-85.06518547 47.23401722 -65.3934098 47.37734032 -45.25 45.625 C-44.15729294 45.53045029 -44.15729294 45.53045029 -43.04251099 45.43399048 C-35.39291324 44.75826537 -27.8363443 43.92405355 -20.29248047 42.44189453 C-16.36970363 41.68574692 -12.397839 41.24238864 -8.43359375 40.7578125 C-5.83838453 40.2344403 -5.83838453 40.2344403 -4.66015625 37.9296875 C-4.33337891 36.97449219 -4.33337891 36.97449219 -4 36 C-1.03824877 36.61277612 0.38058783 37.25372522 3 39 C2.94791754 35.76954027 2.85279846 32.54171241 2.75 29.3125 C2.73582031 28.40048828 2.72164062 27.48847656 2.70703125 26.54882812 C2.50987813 21.12711727 2.13436251 17.92764438 -2 14 C-1.01 14 -0.02 14 1 14 C0.67 9.38 0.34 4.76 0 0 Z "
          fill="#6F0D0B" transform="translate(200,100)"/>
    <path d="M0 0 C13.53 0 27.06 0 41 0 C40.67 1.32 40.34 2.64 40 4 C39.01 4 38.02 4 37 4 C37 4.66 37 5.32 37 6 C40.63 6 44.26 6 48 6 C48 6.66 48 7.32 48 8 C34.51263517 8.98089926 21.20380389 9.21580274 7.6875 8.5625 C6.84405029 8.52334473 6.00060059 8.48418945 5.1315918 8.44384766 C-0.87939703 8.12060297 -0.87939703 8.12060297 -2 7 C-4.21272285 6.62904629 -6.4351927 6.31593735 -8.66015625 6.02734375 C-9.32462265 5.93997452 -9.98908905 5.85260529 -10.6736908 5.7625885 C-12.80279556 5.48357153 -14.93261317 5.21047638 -17.0625 4.9375 C-18.5033059 4.74973755 -19.94406187 4.56159151 -21.38476562 4.37304688 C-24.92260778 3.91090674 -28.46111272 3.45407568 -32 3 C-32 2.34 -32 1.68 -32 1 C-19.26474443 1.73771298 -19.26474443 1.73771298 -13.0546875 3.5234375 C-8.78216194 4.5144035 -4.3664073 4.69499361 0 5 C-0.33 4.01 -0.66 3.02 -1 2 C-0.67 1.34 -0.34 0.68 0 0 Z "
          fill="#F95B57" transform="translate(95,159)"/>
    <path d="M0 0 C1.26100525 0.00022659 2.5220105 0.00045319 3.82122803 0.00068665 C5.19234575 0.01600535 6.56345983 0.03165332 7.93457031 0.04760742 C9.34132434 0.05320531 10.74808422 0.0574745 12.15484619 0.06047058 C15.85064955 0.07190432 19.54609711 0.10135837 23.24176025 0.13458252 C27.01561673 0.16531541 30.78953091 0.17898276 34.56347656 0.1940918 C41.96337805 0.22622988 49.36298675 0.27740793 56.76269531 0.34057617 C56.76269531 1.00057617 56.76269531 1.66057617 56.76269531 2.34057617 C57.90158203 2.30577148 57.90158203 2.30577148 59.06347656 2.27026367 C60.05734375 2.2522168 61.05121094 2.23416992 62.07519531 2.21557617 C63.06132812 2.19237305 64.04746094 2.16916992 65.06347656 2.14526367 C67.76269531 2.34057617 67.76269531 2.34057617 70.76269531 4.34057617 C68.00666286 5.7185924 65.84614896 5.39767717 62.76269531 5.34057617 C57.23225328 5.29561323 51.77991686 5.47877105 46.26269531 5.84057617 C39.19765961 6.28305631 32.15397063 6.45139972 25.07519531 6.46557617 C23.69460937 6.47234375 23.69460937 6.47234375 22.28613281 6.47924805 C17.33439156 6.46834113 12.66899389 6.06550208 7.76269531 5.34057617 C4.15939829 5.31324889 0.57156026 5.40317463 -3.03027344 5.50073242 C-6.09320138 5.34777256 -7.6837441 4.95635272 -10.23730469 3.34057617 C-6.85537963 0.23475214 -4.52884716 -0.02717308 0 0 Z "
          fill="#BA1C18" transform="translate(90.2373046875,129.659423828125)"/>
    <path d="M0 0 C0 4.95 0 9.9 0 15 C0.66 15.33 1.32 15.66 2 16 C1.505 16.495 1.505 16.495 1 17 C1.03222338 18.99784929 1.06809043 20.99620053 1.16015625 22.9921875 C1 25 1 25 -1 28 C-2.17418554 34.78072709 -2.31197658 41.63319413 -2.5625 48.5 C-2.62727539 50.16289063 -2.62727539 50.16289063 -2.69335938 51.859375 C-2.79862214 54.57281506 -2.90075846 57.28633417 -3 60 C-5.94783694 55.57824458 -6.13600595 53.39488265 -6.125 48.0625 C-6.12886719 46.19271484 -6.12886719 46.19271484 -6.1328125 44.28515625 C-6 41 -6 41 -5 38 C-4.8613823 36.05345744 -4.77493149 34.10300683 -4.71875 32.15234375 C-4.68136719 30.98896484 -4.64398438 29.82558594 -4.60546875 28.62695312 C-4.57066406 27.40943359 -4.53585938 26.19191406 -4.5 24.9375 C-4.26551891 16.91737838 -3.94471066 8.97156944 -3 1 C-15.14830394 7.40340507 -23.99961561 13.50463651 -33 24 C-33.63679688 24.70125 -34.27359375 25.4025 -34.9296875 26.125 C-37.87875256 29.24307674 -37.87875256 29.24307674 -39.46484375 33.12890625 C-39.72974609 34.05509766 -39.72974609 34.05509766 -40 35 C-41.485 35.495 -41.485 35.495 -43 36 C-43.09796875 36.66386719 -43.1959375 37.32773438 -43.296875 38.01171875 C-44.20474663 43.37285726 -45.02036413 47.02036413 -49 51 C-48.48594831 46.03083364 -47.76615118 41.70973649 -46 37 C-45.34 37 -44.68 37 -44 37 C-43.01 34.03 -42.02 31.06 -41 28 C-40.34 28 -39.68 28 -39 28 C-38.79375 27.319375 -38.5875 26.63875 -38.375 25.9375 C-35.36651513 19.51028232 -29.77542793 14.06363872 -24 10 C-23.34 10 -22.68 10 -22 10 C-21.67 9.01 -21.34 8.02 -21 7 C-18.39757586 5.35179805 -17.13751221 5 -14 5 C-13.67 4.01 -13.34 3.02 -13 2 C-8.73245628 -0.45707063 -4.7785882 -0.16198604 0 0 Z "
          fill="#97403D" transform="translate(89,40)"/>
    <path d="M0 0 C1.26108078 0.00022659 2.52216156 0.00045319 3.82145691 0.00068665 C5.19778803 0.01600655 6.57411553 0.03165453 7.95043945 0.04760742 C9.35862273 0.05320357 10.76681185 0.05747358 12.17500305 0.06047058 C15.87904014 0.07191799 19.5827236 0.10138383 23.28662109 0.13458252 C27.06709001 0.16528591 30.84761614 0.17897646 34.62817383 0.1940918 C42.04435057 0.22625401 49.46023606 0.27744862 56.8762207 0.34057617 C56.8762207 1.33057617 56.8762207 2.32057617 56.8762207 3.34057617 C63.35744658 3.52400709 69.47510294 2.82060937 75.8762207 1.84057617 C76.84172852 1.69749023 77.80723633 1.5544043 78.80200195 1.40698242 C81.16089406 1.05665191 83.51886615 0.70108267 85.8762207 0.34057617 C83.8762207 2.34057617 83.8762207 2.34057617 80.7512207 2.46557617 C79.8024707 2.42432617 78.8537207 2.38307617 77.8762207 2.34057617 C77.8762207 3.00057617 77.8762207 3.66057617 77.8762207 4.34057617 C76.98837891 4.45651123 76.10053711 4.57244629 75.18579102 4.69189453 C71.88313317 5.12428254 68.58076317 5.55875382 65.27856445 5.99462891 C63.85093951 6.18263623 62.42320576 6.3698193 60.99536133 6.55615234 C58.93972894 6.82455838 56.88450969 7.09595349 54.8293457 7.36791992 C53.59345703 7.53026123 52.35756836 7.69260254 51.08422852 7.85986328 C48.61299483 8.23017219 46.27722007 8.66693334 43.8762207 9.34057617 C43.8762207 8.68057617 43.8762207 8.02057617 43.8762207 7.34057617 C40.2462207 7.34057617 36.6162207 7.34057617 32.8762207 7.34057617 C32.8762207 6.68057617 32.8762207 6.02057617 32.8762207 5.34057617 C33.8662207 5.34057617 34.8562207 5.34057617 35.8762207 5.34057617 C36.2062207 4.02057617 36.5362207 2.70057617 36.8762207 1.34057617 C23.3462207 1.34057617 9.8162207 1.34057617 -4.1237793 1.34057617 C-4.1237793 2.99057617 -4.1237793 4.64057617 -4.1237793 6.34057617 C-4.7837793 6.34057617 -5.4437793 6.34057617 -6.1237793 6.34057617 C-6.1237793 5.68057617 -6.1237793 5.02057617 -6.1237793 4.34057617 C-7.1137793 4.01057617 -8.1037793 3.68057617 -9.1237793 3.34057617 C-6.48226515 -0.15550411 -4.2312023 -0.02533654 0 0 Z "
          fill="#C54C49" transform="translate(99.123779296875,157.659423828125)"/>
    <path d="M0 0 C0.33 0 0.66 0 1 0 C1.59332061 4.37573952 2.13827236 8.57528444 2 13 C2.66 13 3.32 13 4 13 C4.33 13.99 4.66 14.98 5 16 C4.34 16.66 3.68 17.32 3 18 C2.82757988 20.68566257 2.76767722 23.2552106 2.8125 25.9375 C2.8134668 27.03094727 2.8134668 27.03094727 2.81445312 28.14648438 C2.84087416 31.34930071 2.98093137 33.9427941 4 37 C4.57599958 44.99753257 4.0224396 51.56983598 1 59 C0.67 59 0.34 59 0 59 C-0.66 52.73 -1.32 46.46 -2 40 C-2.33 40 -2.66 40 -3 40 C-3.33 35.38 -3.66 30.76 -4 26 C-3.34 26 -2.68 26 -2 26 C-2.01160156 24.94941406 -2.02320313 23.89882812 -2.03515625 22.81640625 C-2.14773877 8.26901223 -2.14773877 8.26901223 -1 1 C-0.67 0.67 -0.34 0.34 0 0 Z "
          fill="#A73F3C" transform="translate(153,44)"/>
    <path d="M0 0 C0.66 0 1.32 0 2 0 C2 6.6 2 13.2 2 20 C2.66 20 3.32 20 4 20 C4.33 19.01 4.66 18.02 5 17 C5.66 17 6.32 17 7 17 C7.33 13.7 7.66 10.4 8 7 C8.33 7 8.66 7 9 7 C9.92017937 16.73004484 9.92017937 16.73004484 7.6640625 19.84375 C6 21.1875 6 21.1875 3 23 C3.33 24.32 3.66 25.64 4 27 C3.236875 27.144375 2.47375 27.28875 1.6875 27.4375 C-1.08172908 27.9632594 -1.08172908 27.9632594 -4 29 C-6.125 27.9375 -6.125 27.9375 -8 26 C-8.75 22.8125 -8.75 22.8125 -9 20 C-9.66 20 -10.32 20 -11 20 C-11.66 18.02 -12.32 16.04 -13 14 C-9.37 14 -5.74 14 -2 14 C-1.93941406 13.15695313 -1.87882812 12.31390625 -1.81640625 11.4453125 C-1.73261719 10.34960938 -1.64882813 9.25390625 -1.5625 8.125 C-1.48128906 7.03445312 -1.40007813 5.94390625 -1.31640625 4.8203125 C-1 2 -1 2 0 0 Z "
          fill="#731413" transform="translate(34,118)"/>
    <path d="M0 0 C1.56234375 -0.01160156 1.56234375 -0.01160156 3.15625 -0.0234375 C9.12269224 -0.00837073 14.28555301 0.51918192 20 2.25 C20 2.91 20 3.57 20 4.25 C20.763125 4.37375 21.52625 4.4975 22.3125 4.625 C25 5.25 25 5.25 28 7.25 C28 7.91 28 8.57 28 9.25 C26.58249437 9.13490339 25.16598831 9.00746342 23.75 8.875 C22.96109375 8.80539063 22.1721875 8.73578125 21.359375 8.6640625 C19 8.25 19 8.25 17.078125 7.2734375 C5.93346698 1.78490291 -11.12279539 5.48105463 -23 7.25 C-23 7.91 -23 8.57 -23 9.25 C-24.65 9.25 -26.3 9.25 -28 9.25 C-27 6.25 -27 6.25 -25.125 5.0625 C-23 4.25 -23 4.25 -20 4.25 C-20 3.59 -20 2.93 -20 2.25 C-13.25068983 0.20573778 -7.026853 -0.0521796 0 0 Z "
          fill="#CE7472" transform="translate(120,25.75)"/>
    <path d="M0 0 C0.33 0 0.66 0 1 0 C1 2.97 1 5.94 1 9 C7.6 9 14.2 9 21 9 C21 15.27 21 21.54 21 28 C26.28 28 31.56 28 37 28 C37 21.73 37 15.46 37 9 C44.26 9 51.52 9 59 9 C59 6.03 59 3.06 59 0 C59.33 0 59.66 0 60 0 C60.02688151 1.64574566 60.04634123 3.29161413 60.0625 4.9375 C60.07410156 5.85402344 60.08570313 6.77054687 60.09765625 7.71484375 C60 10 60 10 59 11 C57.58429877 11.08651611 56.164405 11.10704904 54.74609375 11.09765625 C53.89208984 11.09443359 53.03808594 11.09121094 52.15820312 11.08789062 C51.26037109 11.07951172 50.36253906 11.07113281 49.4375 11.0625 C48.53580078 11.05798828 47.63410156 11.05347656 46.70507812 11.04882812 C44.47002411 11.03700244 42.23500398 11.01906638 40 11 C40 16.94 40 22.88 40 29 C36.68744674 29.02683436 33.37510817 29.0467578 30.0625 29.0625 C29.11697266 29.07087891 28.17144531 29.07925781 27.19726562 29.08789062 C25.84858398 29.09272461 25.84858398 29.09272461 24.47265625 29.09765625 C23.22367554 29.10551147 23.22367554 29.10551147 21.94946289 29.11352539 C20 29 20 29 19 28 C18.92674832 25.13732433 18.90761795 22.299281 18.9375 19.4375 C18.94201172 18.63119141 18.94652344 17.82488281 18.95117188 16.99414062 C18.96299482 14.99606244 18.98093086 12.99802217 19 11 C17.19402344 11.01740234 17.19402344 11.01740234 15.3515625 11.03515625 C13.77604321 11.04453434 12.20052225 11.05363452 10.625 11.0625 C9.43390625 11.07506836 9.43390625 11.07506836 8.21875 11.08789062 C2.2265625 11.11328125 2.2265625 11.11328125 0 10 C0 6.7 0 3.4 0 0 Z "
          fill="#F77471" transform="translate(90,75)"/>
    <path d="M0 0 C0.66 0 1.32 0 2 0 C2.33 1.32 2.66 2.64 3 4 C3.66 4 4.32 4 5 4 C8 8.38461538 8 8.38461538 8 11 C8.639375 11.268125 9.27875 11.53625 9.9375 11.8125 C12 13 12 13 13 16 C15.28891028 17.37334617 17.45752447 18.15250816 20 19 C20.45375 19.474375 20.9075 19.94875 21.375 20.4375 C23.38576214 22.37092514 25.39052205 23.0831564 28 24 C28 24.66 28 25.32 28 26 C31.3 26.33 34.6 26.66 38 27 C38 28.32 38 29.64 38 31 C30.38088646 31.11569153 25.65498122 29.02731196 19.4453125 24.69140625 C17.34281488 23.23712275 15.31407656 22.07093311 13 21 C13 20.34 13 19.68 13 19 C12.443125 18.731875 11.88625 18.46375 11.3125 18.1875 C10.549375 17.795625 9.78625 17.40375 9 17 C8.175 16.649375 7.35 16.29875 6.5 15.9375 C2.78412585 13.05769753 1.41474947 9.41432759 0 5 C-0.25 1.9375 -0.25 1.9375 0 0 Z "
          fill="#86563F" transform="translate(57,164)"/>
    <path d="M0 0 C8.96148413 -0.13783953 17.83383742 0.23256524 26.76998901 0.85531616 C46.91697195 2.24007987 66.84463666 2.40911404 87 1 C87 1.33 87 1.66 87 2 C86.28972656 2.13277344 85.57945312 2.26554688 84.84765625 2.40234375 C83.46900391 2.66724609 83.46900391 2.66724609 82.0625 2.9375 C81.14597656 3.11152344 80.22945313 3.28554687 79.28515625 3.46484375 C77.04710156 3.77714988 77.04710156 3.77714988 76 5 C74.56259647 5.09813987 73.12043673 5.1279828 71.6796875 5.12939453 C70.76203613 5.13254669 69.84438477 5.13569885 68.89892578 5.13894653 C67.90103027 5.1369223 66.90313477 5.13489807 65.875 5.1328125 C64.85776855 5.13376923 63.84053711 5.13472595 62.79248047 5.13571167 C60.63704364 5.13639361 58.48160478 5.13453835 56.32617188 5.13037109 C53.01427629 5.12502305 49.70251633 5.13031563 46.390625 5.13671875 C44.30208303 5.13605797 42.21354115 5.13477681 40.125 5.1328125 C38.62815674 5.13584885 38.62815674 5.13584885 37.10107422 5.13894653 C36.18342285 5.13579437 35.26577148 5.13264221 34.3203125 5.12939453 C33.50836426 5.12859894 32.69641602 5.12780334 31.85986328 5.12698364 C30 5 30 5 29 4 C26.3923627 3.8109538 23.79868432 3.6714968 21.1875 3.5625 C14.01072587 3.21165569 7.05752465 2.40062628 0 1 C0 0.67 0 0.34 0 0 Z "
          fill="#931411" transform="translate(68,145)"/>
    <path d="M0 0 C-3.69296642 2.59505748 -7.42014488 4.74848697 -11.4375 6.8125 C-16.56826976 9.59599453 -20.22531021 12.58085098 -24 17 C-24.77730469 17.9075 -25.55460937 18.815 -26.35546875 19.75 C-31.23731221 25.50710627 -31.23731221 25.50710627 -35 32 C-35.66 32.99 -36.32 33.98 -37 35 C-37.66 35 -38.32 35 -39 35 C-39.09796875 35.66386719 -39.1959375 36.32773438 -39.296875 37.01171875 C-40.20474663 42.37285726 -41.02036413 46.02036413 -45 50 C-44.48594831 45.03083364 -43.76615118 40.70973649 -42 36 C-41.34 36 -40.68 36 -40 36 C-39.01 33.03 -38.02 30.06 -37 27 C-36.34 27 -35.68 27 -35 27 C-34.79375 26.319375 -34.5875 25.63875 -34.375 24.9375 C-31.36651513 18.51028232 -25.77542793 13.06363872 -20 9 C-19.34 9 -18.68 9 -18 9 C-17.67 8.01 -17.34 7.02 -17 6 C-14.39757586 4.35179805 -13.13751221 4 -10 4 C-9.67 3.01 -9.34 2.02 -9 1 C-5.65441284 -0.80842549 -3.59559792 -1.33170293 0 0 Z "
          fill="#AB7A7A" transform="translate(85,41)"/>
    <path d="M0 0 C1.26100525 0.00030212 2.5220105 0.00060425 3.82122803 0.00091553 C5.19234858 0.02134051 6.56346265 0.04220447 7.93457031 0.06347656 C9.34132076 0.07094039 10.74808162 0.07663266 12.15484619 0.08062744 C15.85077813 0.09587296 19.54607758 0.13514426 23.24176025 0.17944336 C27.01557866 0.22042013 30.78949964 0.23864352 34.56347656 0.25878906 C41.96350396 0.30164057 49.36301089 0.36987751 56.76269531 0.45410156 C56.76269531 1.11410156 56.76269531 1.77410156 56.76269531 2.45410156 C57.90158203 2.41929687 57.90158203 2.41929687 59.06347656 2.38378906 C60.05734375 2.36574219 61.05121094 2.34769531 62.07519531 2.32910156 C63.06132812 2.30589844 64.04746094 2.28269531 65.06347656 2.25878906 C67.76269531 2.45410156 67.76269531 2.45410156 70.76269531 4.45410156 C67.91309569 5.87890138 66.09325511 5.1035775 62.9765625 4.53100586 C56.04590278 3.39941499 49.35113418 3.17988656 42.34082031 3.22363281 C41.11538513 3.22409103 39.88994995 3.22454926 38.62738037 3.22502136 C36.0593569 3.22801943 33.49133484 3.2358313 30.92333984 3.24829102 C27.0090486 3.26661864 23.0949939 3.26879973 19.18066406 3.26855469 C16.67154745 3.27346868 14.16243242 3.27929647 11.65332031 3.28613281 C9.9139621 3.28780205 9.9139621 3.28780205 8.13946533 3.289505 C1.93306287 3.32554904 -4.08336077 3.63869993 -10.23730469 4.45410156 C-7.01496787 0.50841541 -5.03391754 -0.04027134 0 0 Z "
          fill="#AE1714" transform="translate(90.2373046875,129.5458984375)"/>
    <path d="M0 0 C1.4890787 3.87160461 0.55334681 6.24834952 -1 10 C-2.61586362 12.15448483 -4.16888948 14.05397281 -6 16 C-6.48404297 16.52182861 -6.96808594 17.04365723 -7.46679688 17.58129883 C-12.48156237 22.80066545 -18.09790401 26.69930134 -25 29 C-25.391875 29.515625 -25.78375 30.03125 -26.1875 30.5625 C-29.18139548 32.93696883 -32.27193692 32.18334736 -36 32 C-36 30.68 -36 29.36 -36 28 C-32.7 27.67 -29.4 27.34 -26 27 C-26 26.34 -26 25.68 -26 25 C-24.2984375 24.319375 -24.2984375 24.319375 -22.5625 23.625 C-18.95278308 22.42904194 -18.95278308 22.42904194 -18 20 C-13.5 17 -13.5 17 -11 17 C-10.731875 16.360625 -10.46375 15.72125 -10.1875 15.0625 C-9 13 -9 13 -6 12 C-4.83046584 9.57616923 -4.83046584 9.57616923 -4 7 C-3.67 6.34 -3.34 5.68 -3 5 C-2.34 5 -1.68 5 -1 5 C-0.67 3.35 -0.34 1.7 0 0 Z "
          fill="#85593D" transform="translate(181,163)"/>
    <path d="M0 0 C1.80152779 0.0001133 1.80152779 0.0001133 3.63945007 0.00022888 C5.58486443 0.00797081 5.58486443 0.00797081 7.56958008 0.01586914 C8.91050667 0.01773462 10.25143394 0.01915791 11.59236145 0.02015686 C15.11870206 0.02397183 18.64500137 0.0337934 22.17132568 0.04486084 C25.77086834 0.05509689 29.37041768 0.05965918 32.9699707 0.06469727 C40.03053446 0.07541659 47.09107019 0.09248077 54.15161133 0.11352539 C54.15161133 0.44352539 54.15161133 0.77352539 54.15161133 1.11352539 C52.47989868 1.19654907 52.47989868 1.19654907 50.77441406 1.28125 C46.61636869 1.48861195 42.45854848 1.7002258 38.30078125 1.91308594 C36.50559198 2.0044051 34.71034465 2.09459065 32.91503906 2.18359375 C30.32576442 2.31215968 27.73673004 2.44488039 25.14770508 2.57836914 C23.95509315 2.63624855 23.95509315 2.63624855 22.73838806 2.69529724 C17.44252443 2.97369461 12.16193629 3.32798439 7.01098633 4.67211914 C4.76107503 5.20623674 2.71077154 5.20998363 0.40161133 5.17602539 C-0.39760742 5.16700195 -1.19682617 5.15797852 -2.02026367 5.14868164 C-2.62354492 5.13708008 -3.22682617 5.12547852 -3.84838867 5.11352539 C-4.17838867 4.12352539 -4.50838867 3.13352539 -4.84838867 2.11352539 C-6.86347225 1.38028743 -6.86347225 1.38028743 -8.84838867 1.11352539 C-5.64491408 0.04570053 -3.36651045 -0.00705767 0 0 Z "
          fill="#790D0B" transform="translate(58.848388671875,127.886474609375)"/>
    <path d="M0 0 C0.66 0.33 1.32 0.66 2 1 C2.33 1.99 2.66 2.98 3 4 C5.01508358 4.73323796 5.01508358 4.73323796 7 5 C6.85957123 6.64630328 6.71250671 8.29204179 6.5625 9.9375 C6.48128906 10.85402344 6.40007813 11.77054688 6.31640625 12.71484375 C6 15 6 15 5 16 C4.50521375 18.50991571 4.10033389 21.02882686 3.6953125 23.5546875 C2.93321345 26.23487855 2.20194153 27.32918004 0 29 C-0.66 29 -1.32 29 -2 29 C-2.05807043 25.89591193 -2.09361914 22.7919636 -2.125 19.6875 C-2.14175781 18.80642578 -2.15851562 17.92535156 -2.17578125 17.01757812 C-2.18222656 16.17001953 -2.18867187 15.32246094 -2.1953125 14.44921875 C-2.20578613 13.66893311 -2.21625977 12.88864746 -2.22705078 12.0847168 C-2 10 -2 10 0 7 C0.07905064 4.66800612 0.08798769 2.33167378 0 0 Z "
          fill="#B31814" transform="translate(38,109)"/>
    <path d="M0 0 C0.99 0.495 0.99 0.495 2 1 C2.64880885 3.88690176 3.17457271 6.706415 3.625 9.625 C3.7590625 10.42035156 3.893125 11.21570313 4.03125 12.03515625 C4.79034313 16.75237787 5.14084722 21.22399886 5 26 C5.99 26.33 6.98 26.66 8 27 C8 31.29 8 35.58 8 40 C11.63 40.33 15.26 40.66 19 41 C19 44.3 19 47.6 19 51 C17.68 51.66 16.36 52.32 15 53 C15.99 49.7 16.98 46.4 18 43 C14.04 43 10.08 43 6 43 C5.95101562 42.02417969 5.90203125 41.04835937 5.8515625 40.04296875 C5.77679688 38.77066406 5.70203125 37.49835938 5.625 36.1875 C5.52058594 34.29064453 5.52058594 34.29064453 5.4140625 32.35546875 C5.23897061 28.87244766 5.23897061 28.87244766 3 26 C2.49755859 24.02636719 2.49755859 24.02636719 2.1484375 21.796875 C2.01953125 20.98089844 1.890625 20.16492188 1.7578125 19.32421875 C1.63148438 18.47472656 1.50515625 17.62523438 1.375 16.75 C1.2409375 15.91597656 1.106875 15.08195312 0.96875 14.22265625 C0.23018276 9.4219692 -0.14435599 4.85561053 0 0 Z "
          fill="#7D2E2E" transform="translate(200,91)"/>
    <path d="M0 0 C14.52 0 29.04 0 44 0 C44 0.99 44 1.98 44 3 C40.63328122 4.68335939 36.827034 4.14154289 33.125 4.1328125 C31.80459717 4.13424759 31.80459717 4.13424759 30.45751953 4.13571167 C28.59472584 4.13639276 26.73192977 4.13454343 24.86914062 4.13037109 C22.01166472 4.12502184 19.154346 4.13031849 16.296875 4.13671875 C14.48958299 4.13605796 12.68229107 4.13477677 10.875 4.1328125 C9.58746826 4.13584885 9.58746826 4.13584885 8.27392578 4.13894653 C2.22991745 4.11495872 2.22991745 4.11495872 0 3 C0 2.01 0 1.02 0 0 Z "
          fill="#755845" transform="translate(98,195)"/>
    <path d="M0 0 C6.625 0.75 6.625 0.75 10 3 C10 3.66 10 4.32 10 5 C10.86625 5.185625 10.86625 5.185625 11.75 5.375 C14.02335767 6.00648824 15.9253529 6.88858191 18 8 C18 8.66 18 9.32 18 10 C18.721875 10.226875 19.44375 10.45375 20.1875 10.6875 C23.60861306 12.28401943 25.46393673 14.21033041 28 17 C28.44730469 17.48984375 28.89460938 17.9796875 29.35546875 18.484375 C31.98861209 21.48044426 33.77133535 24.20230927 35 28 C35.66 28 36.32 28 37 28 C38.0625 29.8125 38.0625 29.8125 39 32 C38.67 32.99 38.34 33.98 38 35 C35.2053648 33.6026824 34.60898019 31.70078818 33 29 C29.45435572 23.94011206 29.45435572 23.94011206 25.3125 19.3828125 C24 18 24 18 24 16 C23.4225 15.9175 22.845 15.835 22.25 15.75 C20 15 20 15 18.2109375 13.18359375 C15.77806529 10.78081006 13.27644188 9.11514785 10.375 7.3125 C9.41335937 6.71050781 8.45171875 6.10851563 7.4609375 5.48828125 C5.10982722 4.02150537 5.10982722 4.02150537 3 3 C3 2.34 3 1.68 3 1 C2.01 0.67 1.02 0.34 0 0 Z "
          fill="#B57D7D" transform="translate(155,40)"/>
    <path d="M0 0 C0.66 0.33 1.32 0.66 2 1 C-1.9114982 7.00694367 -5.85071755 11.99177167 -11.39453125 16.578125 C-13.22657093 18.20066136 -14.54806035 20.03988148 -16 22 C-16.99 22.33 -17.98 22.66 -19 23 C-19.33 23.66 -19.66 24.32 -20 25 C-22.55269648 25.88635295 -25.13619737 26.53559704 -27.75 27.21875 C-30.17453207 27.7671887 -30.17453207 27.7671887 -31 30 C-31 29.01 -31 28.02 -31 27 C-28.6640625 25.17578125 -28.6640625 25.17578125 -25.625 23.3125 C-24.62726563 22.68988281 -23.62953125 22.06726563 -22.6015625 21.42578125 C-20 20 -20 20 -18 20 C-17.938125 19.38125 -17.87625 18.7625 -17.8125 18.125 C-17.544375 17.42375 -17.27625 16.7225 -17 16 C-16.21625 15.690625 -15.4325 15.38125 -14.625 15.0625 C-11.21593783 13.6826415 -10.68250258 12.21870059 -9 9 C-6.48373811 4.80623018 -4.53702369 2.02972113 0 0 Z "
          fill="#543926" transform="translate(188,172)"/>
    <path d="M0 0 C1.24303616 3.59099336 0.68116015 6.31668957 0 10 C-1.04800781 10.06058594 -2.09601563 10.12117188 -3.17578125 10.18359375 C-4.55470048 10.26801738 -5.93360605 10.35266447 -7.3125 10.4375 C-8.34793945 10.49647461 -8.34793945 10.49647461 -9.40429688 10.55664062 C-12.47161535 10.74927415 -15.06968152 11.02322717 -18 12 C-18.66 16.95 -19.32 21.9 -20 27 C-20.66 27 -21.32 27 -22 27 C-22 31.95 -22 36.9 -22 42 C-22.66 42 -23.32 42 -24 42 C-24 34.41 -24 26.82 -24 19 C-23.34 19 -22.68 19 -22 19 C-22.0825 17.906875 -22.165 16.81375 -22.25 15.6875 C-22 12 -22 12 -20.53125 10.28125 C-16.79086305 8.38796772 -13.37571819 8.67908125 -9.25 8.8125 C-8.45722656 8.82603516 -7.66445312 8.83957031 -6.84765625 8.85351562 C-4.89814436 8.88874777 -2.94898374 8.94255179 -1 9 C-1.020625 7.88625 -1.04125 6.7725 -1.0625 5.625 C-1 2 -1 2 0 0 Z "
          fill="#D34D49" transform="translate(110,57)"/>
    <path d="M0 0 C1.56234375 -0.01160156 1.56234375 -0.01160156 3.15625 -0.0234375 C9.12269224 -0.00837073 14.28555301 0.51918192 20 2.25 C20 2.91 20 3.57 20 4.25 C20.763125 4.37375 21.52625 4.4975 22.3125 4.625 C25 5.25 25 5.25 28 7.25 C28 7.91 28 8.57 28 9.25 C24.7 8.26 21.4 7.27 18 6.25 C18 5.59 18 4.93 18 4.25 C12.0005853 3.37710594 6.18371024 3.09271148 0.125 3.125 C-1.19129395 3.12790039 -1.19129395 3.12790039 -2.53417969 3.13085938 C-8.41472953 3.17016494 -14.165288 3.4720384 -20 4.25 C-20 3.59 -20 2.93 -20 2.25 C-13.25068983 0.20573778 -7.026853 -0.0521796 0 0 Z "
          fill="#CB9796" transform="translate(120,25.75)"/>
    <path d="M0 0 C5.61 0 11.22 0 17 0 C17 5.61 17 11.22 17 17 C23.6 17 30.2 17 37 17 C37 17.33 37 17.66 37 18 C30.07 18 23.14 18 16 18 C16 12.39 16 6.78 16 1 C11.05 1 6.1 1 1 1 C1.01160156 2.14339844 1.02320312 3.28679688 1.03515625 4.46484375 C1.04453288 5.95572754 1.05363321 7.44661309 1.0625 8.9375 C1.07087891 9.69224609 1.07925781 10.44699219 1.08789062 11.22460938 C1.09652441 13.14994313 1.05224333 15.07535581 1 17 C0 18 0 18 -1.85766602 18.11352539 C-2.64842529 18.10828857 -3.43918457 18.10305176 -4.25390625 18.09765625 C-5.10791016 18.09443359 -5.96191406 18.09121094 -6.84179688 18.08789062 C-7.73962891 18.07951172 -8.63746094 18.07113281 -9.5625 18.0625 C-10.46419922 18.05798828 -11.36589844 18.05347656 -12.29492188 18.04882812 C-14.53001314 18.03700225 -16.76497437 18.0205222 -19 18 C-15.31602884 15.54401923 -12.55276192 15.7728468 -8.3125 15.875 C-4.6928125 15.936875 -4.6928125 15.936875 -1 16 C-0.67 10.72 -0.34 5.44 0 0 Z "
          fill="#E8A3A2" transform="translate(111,51)"/>
    <path d="M0 0 C-0.33 0.99 -0.66 1.98 -1 3 C-6.97551633 4.16236071 -12.34804975 3.79659938 -18.375 3.125 C-19.74591797 2.98771484 -19.74591797 2.98771484 -21.14453125 2.84765625 C-27.86090635 2.13909365 -27.86090635 2.13909365 -29 1 C-30.51469448 0.76807135 -32.03754562 0.58784762 -33.5625 0.4375 C-34.38878906 0.35371094 -35.21507812 0.26992187 -36.06640625 0.18359375 C-36.70449219 0.12300781 -37.34257812 0.06242188 -38 0 C-38 -0.33 -38 -0.66 -38 -1 C-33.91758034 -1.22962476 -29.83419275 -1.42966904 -25.75 -1.625 C-24.61046875 -1.68945312 -23.4709375 -1.75390625 -22.296875 -1.8203125 C-14.59459773 -2.17041601 -7.54522354 -1.58783432 0 0 Z "
          fill="#86110E" transform="translate(191,130)"/>
    <path d="M0 0 C15.18 0 30.36 0 46 0 C46 0.66 46 1.32 46 2 C30.57103234 3.12210674 15.42896766 3.12210674 0 2 C0 1.34 0 0.68 0 0 Z "
          fill="#CC9B9A" transform="translate(97,165)"/>
    <path d="M0 0 C0.66 0 1.32 0 2 0 C2.02685412 2.31243792 2.04632841 4.6249627 2.0625 6.9375 C2.07410156 8.22527344 2.08570313 9.51304688 2.09765625 10.83984375 C2 14 2 14 1 15 C1.00901797 17.55659503 1.13289751 20.09893445 1.2578125 22.65234375 C1.17273437 23.42707031 1.08765625 24.20179687 1 25 C0.01 25.66 -0.98 26.32 -2 27 C-2.66 26.67 -3.32 26.34 -4 26 C-4.66 30.62 -5.32 35.24 -6 40 C-7.32 39.67 -8.64 39.34 -10 39 C-9.01 39 -8.02 39 -7 39 C-7.02320313 38.25234375 -7.04640625 37.5046875 -7.0703125 36.734375 C-7.08835937 35.74953125 -7.10640625 34.7646875 -7.125 33.75 C-7.14820313 32.77546875 -7.17140625 31.8009375 -7.1953125 30.796875 C-6.99862781 27.9803502 -6.44568916 26.39050964 -5 24 C-4.34 24 -3.68 24 -3 24 C-2.95101562 23.10539062 -2.90203125 22.21078125 -2.8515625 21.2890625 C-2.40311654 14.03660879 -1.67886409 7.07404867 0 0 Z "
          fill="#9B3230" transform="translate(38,92)"/>
    <path d="M0 0 C0.66 0.33 1.32 0.66 2 1 C2 5.62 2 10.24 2 15 C5.63 15 9.26 15 13 15 C8.76646153 19.93912821 3.87024368 22.32134512 -2 25 C-2 24.34 -2 23.68 -2 23 C-1.34 23 -0.68 23 0 23 C0 15.41 0 7.82 0 0 Z "
          fill="#6F0A08" transform="translate(204,119)"/>
    <path d="M0 0 C0.2475 0.61875 0.495 1.2375 0.75 1.875 C2.26029304 4.44249816 3.36091208 4.71815729 6 6 C7.66666667 7.66666667 9.33333333 9.33333333 11 11 C13.16620544 12.29519995 13.16620544 12.29519995 15 13 C15 13.66 15 14.32 15 15 C15.680625 15.268125 16.36125 15.53625 17.0625 15.8125 C20.39710809 17.16053306 23.69743237 18.57536298 27 20 C27 20.66 27 21.32 27 22 C27.66 22.33 28.32 22.66 29 23 C26.69 22.67 24.38 22.34 22 22 C22 21.34 22 20.68 22 20 C21.28972656 19.80664062 20.57945313 19.61328125 19.84765625 19.4140625 C18.92855469 19.15367187 18.00945312 18.89328125 17.0625 18.625 C15.68771484 18.24214844 15.68771484 18.24214844 14.28515625 17.8515625 C12 17 12 17 11 15 C9.9171875 14.4121875 9.9171875 14.4121875 8.8125 13.8125 C5.13560373 11.44294463 2.38758909 8.67383237 0 5 C-0.375 2.0625 -0.375 2.0625 0 0 Z "
          fill="#573B29" transform="translate(60,180)"/>
    <path d="M0 0 C3.37559685 0.58199946 4.62752283 1.62752283 7 4 C9.59915538 5.19027984 9.59915538 5.19027984 12 6 C12 6.66 12 7.32 12 8 C15.3 8.33 18.6 8.66 22 9 C22 10.32 22 11.64 22 13 C13.74790033 13.12530303 7.12719291 10.64902722 1 5 C0.19140625 2.265625 0.19140625 2.265625 0 0 Z "
          fill="#85634D" transform="translate(73,182)"/>
    <path d="M0 0 C5.60505859 -0.02475901 11.21008518 -0.04288802 16.81518555 -0.05493164 C18.72111567 -0.05995364 20.62704195 -0.06677248 22.53295898 -0.07543945 C25.27588856 -0.08759846 28.0187671 -0.09324971 30.76171875 -0.09765625 C32.03543587 -0.10539818 32.03543587 -0.10539818 33.33488464 -0.11329651 C37.35943048 -0.11367627 41.07253392 -0.0089224 45 1 C45 1.33 45 1.66 45 2 C35.081451 2.68572684 25.19392791 3.10496859 15.25 3.125 C13.8585376 3.13176758 13.8585376 3.13176758 12.43896484 3.13867188 C7.84514769 3.12860323 3.51911246 2.94272876 -1 2 C-0.67 1.34 -0.34 0.68 0 0 Z "
          fill="#CB201C" transform="translate(100,133)"/>
    <path d="M0 0 C0.33 0 0.66 0 1 0 C3.17742288 7.15186051 3.42867157 14.05588042 3.625 21.5 C3.66367188 22.70398438 3.70234375 23.90796875 3.7421875 25.1484375 C3.83585016 28.09881119 3.92157524 31.04918856 4 34 C3.01 34.495 3.01 34.495 2 35 C1.34 28.73 0.68 22.46 0 16 C-0.33 16 -0.66 16 -1 16 C-1.33 11.38 -1.66 6.76 -2 2 C-1.34 2 -0.68 2 0 2 C0 1.34 0 0.68 0 0 Z "
          fill="#D2423E" transform="translate(151,68)"/>
    <path d="M0 0 C0.66 0 1.32 0 2 0 C2 6.6 2 13.2 2 20 C2.66 20 3.32 20 4 20 C4.33 19.01 4.66 18.02 5 17 C5.66 17 6.32 17 7 17 C7.33 13.7 7.66 10.4 8 7 C8.33 7 8.66 7 9 7 C10.0735426 16.57668161 10.0735426 16.57668161 7.44140625 20.06640625 C5.68908403 21.52961293 3.95246454 22.81955587 2 24 C0.68 23.34 -0.64 22.68 -2 22 C-1.84660156 21.18273437 -1.69320312 20.36546875 -1.53515625 19.5234375 C-0.9322218 15.55375228 -0.65842036 11.63053967 -0.4375 7.625 C-0.39431641 6.88894531 -0.35113281 6.15289062 -0.30664062 5.39453125 C-0.20156201 3.59651932 -0.10037907 1.79828042 0 0 Z "
          fill="#7E0E0C" transform="translate(34,118)"/>
    <path d="M0 0 C0.33 0 0.66 0 1 0 C1.02688151 1.64574566 1.04634123 3.29161413 1.0625 4.9375 C1.07410156 5.85402344 1.08570313 6.77054687 1.09765625 7.71484375 C1 10 1 10 0 11 C-1.41570123 11.08651611 -2.835595 11.10704904 -4.25390625 11.09765625 C-5.10791016 11.09443359 -5.96191406 11.09121094 -6.84179688 11.08789062 C-7.73962891 11.07951172 -8.63746094 11.07113281 -9.5625 11.0625 C-10.46419922 11.05798828 -11.36589844 11.05347656 -12.29492188 11.04882812 C-14.52997589 11.03700244 -16.76499602 11.01906638 -19 11 C-19 16.94 -19 22.88 -19 29 C-19.66 29 -20.32 29 -21 29 C-21 22.4 -21 15.8 -21 9 C-14.07 9 -7.14 9 0 9 C0 6.03 0 3.06 0 0 Z "
          fill="#F45450" transform="translate(149,75)"/>
    <path d="M0 0 C11.2241889 -0.37057966 22.17176444 0.78535107 33.3125 2 C35.13209562 2.19332899 36.95175683 2.38604174 38.77148438 2.578125 C43.1817768 3.04499246 47.59110151 3.52015462 52 4 C52 4.33 52 4.66 52 5 C48.35418313 5.02887512 44.70839537 5.04675585 41.0625 5.0625 C39.50112305 5.07506836 39.50112305 5.07506836 37.90820312 5.08789062 C36.42416992 5.09272461 36.42416992 5.09272461 34.91015625 5.09765625 C33.53549194 5.10551147 33.53549194 5.10551147 32.13305664 5.11352539 C30 5 30 5 29 4 C26.3923627 3.8109538 23.79868432 3.6714968 21.1875 3.5625 C14.01072587 3.21165569 7.05752465 2.40062628 0 1 C0 0.67 0 0.34 0 0 Z "
          fill="#780D0B" transform="translate(68,145)"/>
    <path d="M0 0 C1.9375 0.8125 1.9375 0.8125 4 2 C5.18681726 5.56045177 5.09689832 8.43808337 5.0625 12.1875 C5.05347656 13.45980469 5.04445312 14.73210937 5.03515625 16.04296875 C5.02355469 17.01878906 5.01195312 17.99460938 5 19 C1.125 17.25 1.125 17.25 0 15 C-0.0716735 12.44842345 -0.09308442 9.92527029 -0.0625 7.375 C-0.05798828 6.66859375 -0.05347656 5.9621875 -0.04882812 5.234375 C-0.03703875 3.48954725 -0.01910324 1.744763 0 0 Z "
          fill="#D91F1B" transform="translate(197,115)"/>
    <path d="M0 0 C0.66 0 1.32 0 2 0 C1.4375 2.8125 1.4375 2.8125 0 6 C-3.4375 7.6875 -3.4375 7.6875 -7 9 C-7.7115625 9.8353125 -7.7115625 9.8353125 -8.4375 10.6875 C-11.18312955 12.99382882 -14.54328766 12.17000225 -18 12 C-18 10.68 -18 9.36 -18 8 C-14.7 7.67 -11.4 7.34 -8 7 C-8 6.34 -8 5.68 -8 5 C-6.865625 4.54625 -5.73125 4.0925 -4.5625 3.625 C-0.95278308 2.42904194 -0.95278308 2.42904194 0 0 Z "
          fill="#86654E" transform="translate(163,183)"/>
    <path d="M0 0 C0.33 0 0.66 0 1 0 C1.02578125 1.10859375 1.0515625 2.2171875 1.078125 3.359375 C1.13441656 4.82295547 1.19176367 6.28649562 1.25 7.75 C1.26417969 8.47960937 1.27835938 9.20921875 1.29296875 9.9609375 C1.53575125 15.3021524 1.95576164 15.95576164 6 20 C5.67 14.72 5.34 9.44 5 4 C5.66 4.33 6.32 4.66 7 5 C7 11.6 7 18.2 7 25 C1.26217228 22.13108614 1.26217228 22.13108614 -1 19 C-1.51021685 15.92287237 -1.42242258 12.92208768 -1.3125 9.8125 C-1.30283203 8.98041016 -1.29316406 8.14832031 -1.28320312 7.29101562 C-1.16843594 1.16843594 -1.16843594 1.16843594 0 0 Z "
          fill="#BD1A16" transform="translate(196,114)"/>
    <path d="M0 0 C5.61274 1.20273 11.18458921 2.53289632 16.75 3.9375 C23.81294475 5.71992557 30.89456937 7.39397801 38 9 C38 9.33 38 9.66 38 10 C30.171762 10.46761599 23.5011649 9.15478174 16 7 C14.70846328 6.63625702 13.41679135 6.27299389 12.125 5.91015625 C8.74537276 4.95588869 5.37152978 3.98253161 2 3 C2 2.34 2 1.68 2 1 C1.34 0.67 0.68 0.34 0 0 Z "
          fill="#710E0C" transform="translate(38,145)"/>
    <path d="M0 0 C-3.71155048 2.60811655 -7.48621624 4.81835359 -11.5 6.9375 C-15.82236278 9.25494689 -19.39515913 11.68744352 -23 15 C-23.66 14.67 -24.32 14.34 -25 14 C-23.37660195 12.29115995 -21.70680947 10.62553283 -20 9 C-19.34 9 -18.68 9 -18 9 C-17.67 8.01 -17.34 7.02 -17 6 C-14.39757586 4.35179805 -13.13751221 4 -10 4 C-9.67 3.01 -9.34 2.02 -9 1 C-5.65441284 -0.80842549 -3.59559792 -1.33170293 0 0 Z "
          fill="#AB7776" transform="translate(85,41)"/>
    <path d="M0 0 C1.32 0 2.64 0 4 0 C4 4.95 4 9.9 4 15 C4.66 15.33 5.32 15.66 6 16 C5.67 16.33 5.34 16.66 5 17 C5.0644582 18.99820432 5.13264472 20.99686587 5.2578125 22.9921875 C5 25 5 25 2 28 C2 23.71 2 19.42 2 15 C1.01 15.495 1.01 15.495 0 16 C0 10.72 0 5.44 0 0 Z "
          fill="#934745" transform="translate(85,40)"/>
    <path d="M0 0 C8.25 0 16.5 0 25 0 C24.67 0.66 24.34 1.32 24 2 C17.7751014 4.00086026 11.47725863 4.20894383 5 4 C4.67 3.01 4.34 2.02 4 1 C2.68 0.67 1.36 0.34 0 0 Z "
          fill="#620B09" transform="translate(50,129)"/>
    <path d="M0 0 C0.99 0.495 0.99 0.495 2 1 C2.64880885 3.88690176 3.17457271 6.706415 3.625 9.625 C3.7590625 10.42035156 3.893125 11.21570313 4.03125 12.03515625 C4.79034313 16.75237787 5.14084722 21.22399886 5 26 C5.99 26.33 6.98 26.66 8 27 C7.67 28.32 7.34 29.64 7 31 C7 30.01 7 29.02 7 28 C6.3615918 27.75467529 5.72318359 27.50935059 5.06542969 27.2565918 C3 26 3 26 2.27050781 24.13989258 C2.16577148 23.39892334 2.06103516 22.6579541 1.953125 21.89453125 C1.83066406 21.07533203 1.70820313 20.25613281 1.58203125 19.41210938 C1.47246094 18.55423828 1.36289063 17.69636719 1.25 16.8125 C1.12496094 15.97396484 0.99992188 15.13542969 0.87109375 14.27148438 C0.1888948 9.46985329 -0.13118176 4.8471659 0 0 Z "
          fill="#A15757" transform="translate(200,91)"/>
    <path d="M0 0 C3.63 0 7.26 0 11 0 C10.01 1.485 10.01 1.485 9 3 C9.66 3.33 10.32 3.66 11 4 C11 4.66 11 5.32 11 6 C5.87416389 6.10251672 1.05002222 6.03590199 -4 5 C-2.68 4.34 -1.36 3.68 0 3 C0 2.01 0 1.02 0 0 Z "
          fill="#C82F2B" transform="translate(82,158)"/>
    <path d="M0 0 C0.33 0 0.66 0 1 0 C1.20496094 1.20398438 1.40992188 2.40796875 1.62109375 3.6484375 C1.89306359 5.22398692 2.16520807 6.79950621 2.4375 8.375 C2.57220703 9.1690625 2.70691406 9.963125 2.84570312 10.78125 C3.51417589 15.01394983 3.51417589 15.01394983 5 19 C5.01610171 20.59678322 4.96535627 22.1945399 4.87890625 23.7890625 C4.80639648 25.20058594 4.80639648 25.20058594 4.73242188 26.640625 C4.67634766 27.62546875 4.62027344 28.6103125 4.5625 29.625 C4.51029297 30.61757812 4.45808594 31.61015625 4.40429688 32.6328125 C4.27441051 35.08884568 4.13943836 37.5444936 4 40 C3.01 39.67 2.02 39.34 1 39 C1.66 39 2.32 39 3 39 C2.94791754 35.76954027 2.85279846 32.54171241 2.75 29.3125 C2.73582031 28.40048828 2.72164062 27.48847656 2.70703125 26.54882812 C2.50987813 21.12711727 2.13436251 17.92764438 -2 14 C-1.01 14 -0.02 14 1 14 C0.67 9.38 0.34 4.76 0 0 Z "
          fill="#820E0C" transform="translate(200,100)"/>
    <path d="M0 0 C-0.33 0.66 -0.66 1.32 -1 2 C-2.75 2.48657227 -2.75 2.48657227 -5 2.81640625 C-5.804375 2.94080078 -6.60875 3.06519531 -7.4375 3.19335938 C-8.283125 3.31517578 -9.12875 3.43699219 -10 3.5625 C-11.66719221 3.81029153 -13.33389343 4.06141718 -15 4.31640625 C-16.11375 4.47798218 -16.11375 4.47798218 -17.25 4.64282227 C-19.02044978 4.83664409 -19.02044978 4.83664409 -20 6 C-21.68608966 6.07205511 -23.37500659 6.08386068 -25.0625 6.0625 C-25.98160156 6.05347656 -26.90070313 6.04445312 -27.84765625 6.03515625 C-28.55792969 6.02355469 -29.26820313 6.01195312 -30 6 C-30 5.34 -30 4.68 -30 4 C-29.34926514 3.91435791 -28.69853027 3.82871582 -28.02807617 3.74047852 C-25.08080626 3.35085906 -22.13415629 2.95673217 -19.1875 2.5625 C-18.16333984 2.42779297 -17.13917969 2.29308594 -16.08398438 2.15429688 C-15.10107422 2.02216797 -14.11816406 1.89003906 -13.10546875 1.75390625 C-12.19949951 1.63345947 -11.29353027 1.5130127 -10.36010742 1.38891602 C-1.6594129 -0.044849 -1.6594129 -0.044849 0 0 Z "
          fill="#780F0D" transform="translate(179,143)"/>
    <path d="M0 0 C6.625 0.75 6.625 0.75 10 3 C10 3.66 10 4.32 10 5 C10.86625 5.185625 10.86625 5.185625 11.75 5.375 C14.02335767 6.00648824 15.9253529 6.88858191 18 8 C18 8.66 18 9.32 18 10 C19.65 10.66 21.3 11.32 23 12 C22.01 12.495 22.01 12.495 21 13 C14.84996201 10.59942755 8.18281981 7.12598784 3 3 C3 2.34 3 1.68 3 1 C2.01 0.67 1.02 0.34 0 0 Z "
          fill="#B67978" transform="translate(155,40)"/>
    <path d="M0 0 C5.4185766 -0.22577402 9.77487721 0.53329887 15 2 C15 2.66 15 3.32 15 4 C16.1446875 4.185625 16.1446875 4.185625 17.3125 4.375 C20 5 20 5 23 7 C23 7.66 23 8.32 23 9 C19.7 8.01 16.4 7.02 13 6 C13 5.34 13 4.68 13 4 C10.36 3.67 7.72 3.34 5 3 C5 2.34 5 1.68 5 1 C3.35 1 1.7 1 0 1 C0 0.67 0 0.34 0 0 Z "
          fill="#D7B9B9" transform="translate(125,26)"/>
    <path d="M0 0 C2.64 0 5.28 0 8 0 C6.68 1.32 5.36 2.64 4 4 C6.31 4.33 8.62 4.66 11 5 C10.67 5.99 10.34 6.98 10 8 C9.01 8 8.02 8 7 8 C7 7.34 7 6.68 7 6 C3.37 6 -0.26 6 -4 6 C-4 5.34 -4 4.68 -4 4 C-3.01 4 -2.02 4 -1 4 C-0.67 2.68 -0.34 1.36 0 0 Z "
          fill="#E33F3C" transform="translate(136,159)"/>
    <path d="M0 0 C0.56847656 0.144375 1.13695313 0.28875 1.72265625 0.4375 C5.2224746 1.30194913 8.66081969 1.01728357 12.24609375 0.9375 C14.95304989 0.99893447 17.36784575 1.38853767 20 2 C20 2.33 20 2.66 20 3 C10.1 3 0.2 3 -10 3 C-10 2.34 -10 1.68 -10 1 C-9.36191406 1.01160156 -8.72382812 1.02320312 -8.06640625 1.03515625 C-7.24011719 1.04417969 -6.41382812 1.05320312 -5.5625 1.0625 C-4.32693359 1.07990234 -4.32693359 1.07990234 -3.06640625 1.09765625 C-1.00836062 1.23267348 -1.00836062 1.23267348 0 0 Z "
          fill="#B91C19" transform="translate(78,124)"/>
    <path d="M0 0 C12.5878746 0.72917566 12.5878746 0.72917566 17.1875 2 C21.17136129 3.04494722 24.89952125 3.40607763 28.99609375 3.65625 C29.65738281 3.7696875 30.31867188 3.883125 31 4 C31.33 4.66 31.66 5.32 32 6 C27.79137679 5.5233575 23.58315691 5.04324056 19.375 4.5625 C18.18519531 4.42779297 16.99539062 4.29308594 15.76953125 4.15429688 C14.61582031 4.02216797 13.46210937 3.89003906 12.2734375 3.75390625 C11.21560059 3.63345947 10.15776367 3.5130127 9.06787109 3.38891602 C6.02869062 3.00363713 3.01805535 2.52410529 0 2 C0 1.34 0 0.68 0 0 Z "
          fill="#C08583" transform="translate(63,160)"/>
    <path d="M0 0 C0.99 0.495 0.99 0.495 2 1 C2.37890625 4.0546875 2.37890625 4.0546875 2.5625 7.875 C2.79531842 13.02806026 2.79531842 13.02806026 4 18 C3.67 18.99 3.34 19.98 3 21 C2.01 21 1.02 21 0 21 C0 14.07 0 7.14 0 0 Z "
          fill="#600907" transform="translate(204,119)"/>
    <path d="M0 0 C0.33 0 0.66 0 1 0 C1.35259552 3.72837119 1.51606497 7.28222579 1 11 C-1.75 13.8125 -1.75 13.8125 -5 16 C-5.70125 17.0725 -6.4025 18.145 -7.125 19.25 C-9 22 -9 22 -11.1171875 22.671875 C-11.73851562 22.78015625 -12.35984375 22.8884375 -13 23 C-7.59334732 15.51243632 -7.59334732 15.51243632 -4.25 12.625 C-1.00269619 8.83647888 -0.63123865 4.85205825 0 0 Z "
          fill="#5C3A28" transform="translate(182,162)"/>
    <path d="M0 0 C1.32 0.33 2.64 0.66 4 1 C3.01 2.485 3.01 2.485 2 4 C1.34 4 0.68 4 0 4 C-0.09796875 4.66386719 -0.1959375 5.32773438 -0.296875 6.01171875 C-1.20474663 11.37285726 -2.02036413 15.02036413 -6 19 C-5.48594831 14.03083364 -4.76615118 9.70973649 -3 5 C-2.34 5 -1.68 5 -1 5 C-0.67 3.35 -0.34 1.7 0 0 Z "
          fill="#96504F" transform="translate(46,72)"/>
    <path d="M0 0 C3.3 1.65 6.6 3.3 10 5 C10 5.66 10 6.32 10 7 C9.34 7.66 8.68 8.32 8 9 C4.98694043 8.61121812 3.60314689 7.73543126 1 6 C0.3125 2.875 0.3125 2.875 0 0 Z "
          fill="#8E110E" transform="translate(25,138)"/>
    <path d="M0 0 C2 4 2 4 2 6 C7.61 6.33 13.22 6.66 19 7 C15.20836973 9.52775351 12.19125969 9.22443035 7.8125 9.125 C7.06291016 9.11597656 6.31332031 9.10695313 5.54101562 9.09765625 C3.69387346 9.07412578 1.84689588 9.03825561 0 9 C0 6.03 0 3.06 0 0 Z "
          fill="#DA5753" transform="translate(128,59)"/>
    <path d="M0 0 C0.6875 1.75 0.6875 1.75 1 4 C0.525625 4.61875 0.05125 5.2375 -0.4375 5.875 C-2.53084148 8.72194441 -2.06731288 10.49973044 -2 14 C-2.54340611 16.71213502 -3.26359643 19.33053706 -4 22 C-6.55848247 18.1622763 -6.011986 16.621931 -5.375 12.125 C-5.21773437 10.91070312 -5.06046875 9.69640625 -4.8984375 8.4453125 C-3.92760876 4.72239534 -2.59837699 2.78927815 0 0 Z "
          fill="#8C2724" transform="translate(59,80)"/>
    <path d="M0 0 C11.88 0 23.76 0 36 0 C31.82559631 2.08720184 30.04161098 2.21874885 25.5 2.125 C24.3759375 2.10695312 23.251875 2.08890625 22.09375 2.0703125 C21.0728125 2.04710937 20.051875 2.02390625 19 2 C17.68 2 16.36 2 15 2 C12.41508164 1.84600486 9.83300945 1.68066418 7.25 1.5 C6.55261719 1.45230469 5.85523437 1.40460938 5.13671875 1.35546875 C3.42439605 1.23818637 1.71218632 1.11925676 0 1 C0 0.67 0 0.34 0 0 Z "
          fill="#4D3627" transform="translate(105,191)"/>
    <path d="M0 0 C0.66 0 1.32 0 2 0 C2 0.66 2 1.32 2 2 C2.66 2 3.32 2 4 2 C4.33 2.99 4.66 3.98 5 5 C4.34 5.66 3.68 6.32 3 7 C2.53709779 9.66242821 2.53709779 9.66242821 2.375 12.625 C2.30023438 13.62789062 2.22546875 14.63078125 2.1484375 15.6640625 C2.09945312 16.43492188 2.05046875 17.20578125 2 18 C1.34 17.67 0.68 17.34 0 17 C0 11.39 0 5.78 0 0 Z "
          fill="#9F3734" transform="translate(153,55)"/>
    <path d="M0 0 C0.66 1.32 1.32 2.64 2 4 C2.66 4 3.32 4 4 4 C4.268125 4.94875 4.53625 5.8975 4.8125 6.875 C5.74986588 10.25267273 5.74986588 10.25267273 9 12 C9 12.66 9 13.32 9 14 C6.03285617 13.67031735 4.68045561 12.76034171 2.25 10.9375 C-0.79627851 6.96041417 -0.41514677 4.89873187 0 0 Z "
          fill="#B45150" transform="translate(21,134)"/>
    <path d="M0 0 C2.475 0.99 2.475 0.99 5 2 C5 2.66 5 3.32 5 4 C5.680625 4.268125 6.36125 4.53625 7.0625 4.8125 C10.39710809 6.16053306 13.69743237 7.57536298 17 9 C17 9.66 17 10.32 17 11 C17.66 11.33 18.32 11.66 19 12 C16.69 11.67 14.38 11.34 12 11 C12 10.34 12 9.68 12 9 C9.69 8.34 7.38 7.68 5 7 C4.67 5.68 4.34 4.36 4 3 C2.68 2.67 1.36 2.34 0 2 C0 1.34 0 0.68 0 0 Z "
          fill="#4E3324" transform="translate(70,191)"/>
    <path d="M0 0 C1.32 0.33 2.64 0.66 4 1 C4 1.66 4 2.32 4 3 C5.32 3.66 6.64 4.32 8 5 C3.05 5.33 -1.9 5.66 -7 6 C-7 5.34 -7 4.68 -7 4 C-5.35 4 -3.7 4 -2 4 C-1.34 2.68 -0.68 1.36 0 0 Z "
          fill="#BE211D" transform="translate(152,158)"/>
    <path d="M0 0 C0.69738281 0.01804688 1.39476563 0.03609375 2.11328125 0.0546875 C3.82611539 0.10161446 5.53823824 0.17335395 7.25 0.25 C4.25371461 3.24628539 0.66506529 2.9749286 -3.375 3.375 C-4.17679687 3.46136719 -4.97859375 3.54773438 -5.8046875 3.63671875 C-7.78563635 3.84896327 -9.76772718 4.05049931 -11.75 4.25 C-8.36399708 -0.18322032 -5.23938601 -0.25751236 0 0 Z "
          fill="#961410" transform="translate(91.75,129.75)"/>
    <path d="M0 0 C2.38225541 3.57338312 2.24033109 5.20621014 2.1875 9.4375 C2.18105469 10.57058594 2.17460937 11.70367187 2.16796875 12.87109375 C2.03029419 15.43568261 1.74922106 17.56053624 1 20 C0.34 20 -0.32 20 -1 20 C-0.67 13.4 -0.34 6.8 0 0 Z "
          fill="#B53A37" transform="translate(155,78)"/>
    <path d="M0 0 C0.33 0 0.66 0 1 0 C1.33 7.26 1.66 14.52 2 22 C-0.94783694 17.57824458 -1.13600595 15.39488265 -1.125 10.0625 C-1.12757812 8.81597656 -1.13015625 7.56945312 -1.1328125 6.28515625 C-1 3 -1 3 0 0 Z "
          fill="#AD3E3B" transform="translate(84,78)"/>
    <path d="M0 0 C0.66 0.33 1.32 0.66 2 1 C-1.53132945 6.88554908 -5.05320621 9.02660311 -11 12 C-4.8236372 1.87585891 -4.8236372 1.87585891 0 0 Z "
          fill="#4D3122" transform="translate(188,172)"/>
    <path d="M0 0 C0.99 0 1.98 0 3 0 C3.02694851 1.95825873 3.04637218 3.91662226 3.0625 5.875 C3.07410156 6.96554688 3.08570313 8.05609375 3.09765625 9.1796875 C3 12 3 12 2 14 C1.34 14 0.68 14 0 14 C0 9.38 0 4.76 0 0 Z "
          fill="#E0211C" transform="translate(37,118)"/>
    <path d="M0 0 C1.07765625 0.01804687 2.1553125 0.03609375 3.265625 0.0546875 C4.49539062 0.08949219 4.49539062 0.08949219 5.75 0.125 C1.71707255 2.3594598 -1.69967434 2.66996743 -6.25 3.125 C-6.25 3.785 -6.25 4.445 -6.25 5.125 C-7.9 5.125 -9.55 5.125 -11.25 5.125 C-10.25 2.125 -10.25 2.125 -8.578125 0.9453125 C-5.61411661 -0.09905287 -3.13557132 -0.06816459 0 0 Z "
          fill="#C78281" transform="translate(103.25,29.875)"/>
    <path d="M0 0 C20.97454545 -0.45818182 20.97454545 -0.45818182 26 3.625 C26.33 4.07875 26.66 4.5325 27 5 C24.69 4.67 22.38 4.34 20 4 C20 3.34 20 2.68 20 2 C13.4 1.67 6.8 1.34 0 1 C0 0.67 0 0.34 0 0 Z "
          fill="#AD605E" transform="translate(113,30)"/>
    <path d="M0 0 C1.40668945 0.01450195 1.40668945 0.01450195 2.84179688 0.02929688 C3.81826172 0.05443359 4.79472656 0.07957031 5.80078125 0.10546875 C6.78884766 0.11900391 7.77691406 0.13253906 8.79492188 0.14648438 C11.23492356 0.18184672 13.67382844 0.23119842 16.11328125 0.29296875 C16.11328125 0.62296875 16.11328125 0.95296875 16.11328125 1.29296875 C9.84328125 1.29296875 3.57328125 1.29296875 -2.88671875 1.29296875 C-2.88671875 2.94296875 -2.88671875 4.59296875 -2.88671875 6.29296875 C-3.54671875 6.29296875 -4.20671875 6.29296875 -4.88671875 6.29296875 C-4.88671875 5.63296875 -4.88671875 4.97296875 -4.88671875 4.29296875 C-5.87671875 3.96296875 -6.86671875 3.63296875 -7.88671875 3.29296875 C-5.42854811 0.24399315 -3.85656876 -0.07011943 0 0 Z "
          fill="#D03D39" transform="translate(97.88671875,157.70703125)"/>
    <path d="M0 0 C0.33 0 0.66 0 1 0 C1.06058594 1.08539063 1.12117187 2.17078125 1.18359375 3.2890625 C1.26806064 4.73438486 1.35270551 6.17969682 1.4375 7.625 C1.47681641 8.33785156 1.51613281 9.05070312 1.55664062 9.78515625 C1.80309681 13.91803682 2.23470053 17.92269024 3 22 C2.01 21.67 1.02 21.34 0 21 C-1.03965818 16.74235222 -1.15018779 12.60748793 -1.125 8.25 C-1.12886719 7.56550781 -1.13273438 6.88101563 -1.13671875 6.17578125 C-1.12672061 1.12672061 -1.12672061 1.12672061 0 0 Z "
          fill="#A0120F" transform="translate(196,114)"/>
    <path d="M0 0 C-2.77190292 2.77190292 -5.16752656 2.48034258 -9 3 C-9.9075 3.37125 -10.815 3.7425 -11.75 4.125 C-14 5 -14 5 -17 4 C-15.22208888 1.72822468 -14.14569764 1.03727149 -11.3125 0.3125 C-7.50634145 -0.04657156 -3.82202339 -0.06589696 0 0 Z "
          fill="#A95F5E" transform="translate(113,31)"/>
    <path d="M0 0 C6.625 -0.125 6.625 -0.125 10 1 C10 1.66 10 2.32 10 3 C6.78548731 4.60725635 3.56387464 4.05748185 0 4 C0 2.68 0 1.36 0 0 Z "
          fill="#73513B" transform="translate(145,191)"/>
    <path d="M0 0 C0.33 0 0.66 0 1 0 C1.16789217 3.27077164 1.33410238 6.54162664 1.5 9.8125 C1.54769531 10.74126953 1.59539063 11.67003906 1.64453125 12.62695312 C1.68964844 13.51962891 1.73476563 14.41230469 1.78125 15.33203125 C1.82314453 16.15421143 1.86503906 16.9763916 1.90820312 17.82348633 C1.98092498 19.54772929 2 21.27422415 2 23 C0.68 22.34 -0.64 21.68 -2 21 C-1.01 10.605 -1.01 10.605 0 0 Z "
          fill="#5B0605" transform="translate(34,119)"/>
    <path d="M0 0 C0.33 0 0.66 0 1 0 C1.33 3.63 1.66 7.26 2 11 C1.34 11 0.68 11 0 11 C-0.33 12.65 -0.66 14.3 -1 16 C-1.33 16 -1.66 16 -2 16 C-1.85975781 13.52039864 -1.7130815 11.04147598 -1.5625 8.5625 C-1.52318359 7.85544922 -1.48386719 7.14839844 -1.44335938 6.41992188 C-1.11328125 1.11328125 -1.11328125 1.11328125 0 0 Z "
          fill="#A24644" transform="translate(153,44)"/>
    <path d="M0 0 C2.31 0 4.62 0 7 0 C7 3.3 7 6.6 7 10 C5.02 10.99 5.02 10.99 3 12 C3.99 8.7 4.98 5.4 6 2 C3.03 1.505 3.03 1.505 0 1 C0 0.67 0 0.34 0 0 Z "
          fill="#B25656" transform="translate(212,132)"/>
    <path d="M0 0 C0 0.99 0 1.98 0 3 C-1.98 3.66 -3.96 4.32 -6 5 C-6 5.66 -6 6.32 -6 7 C-7.98 7.33 -9.96 7.66 -12 8 C-12 7.34 -12 6.68 -12 6 C-10.35 5.67 -8.7 5.34 -7 5 C-7 4.01 -7 3.02 -7 2 C-4.69 1.34 -2.38 0.68 0 0 Z "
          fill="#C16867" transform="translate(213,145)"/>
    <path d="M0 0 C1.98 0 3.96 0 6 0 C6 0.66 6 1.32 6 2 C9.63 2 13.26 2 17 2 C17 2.33 17 2.66 17 3 C12.05 3 7.1 3 2 3 C2 3.66 2 4.32 2 5 C1.01 4.67 0.02 4.34 -1 4 C-0.67 2.68 -0.34 1.36 0 0 Z "
          fill="#D6554E" transform="translate(95,162)"/>
    <path d="M0 0 C0.66 0 1.32 0 2 0 C1.01 5.28 0.02 10.56 -1 16 C-2.32 15.67 -3.64 15.34 -5 15 C-4.01 15 -3.02 15 -2 15 C-2.02320313 14.25234375 -2.04640625 13.5046875 -2.0703125 12.734375 C-2.08835937 11.74953125 -2.10640625 10.7646875 -2.125 9.75 C-2.14820313 8.77546875 -2.17140625 7.8009375 -2.1953125 6.796875 C-1.99862781 3.9803502 -1.44568916 2.39050964 0 0 Z "
          fill="#975454" transform="translate(33,116)"/>
    <path d="M0 0 C3.56943715 0.30595176 5.03014419 1.02424641 7.875 3.3125 C10 6 10 6 9.8125 8.3125 C9.544375 8.869375 9.27625 9.42625 9 10 C7.62437146 8.71034824 6.29233607 7.37310707 5 6 C5 5.34 5 4.68 5 4 C4.360625 3.896875 3.72125 3.79375 3.0625 3.6875 C2.381875 3.460625 1.70125 3.23375 1 3 C0.67 2.01 0.34 1.02 0 0 Z "
          fill="#B06F6E" transform="translate(174,52)"/>
    <path d="M0 0 C1.3303125 0.495 1.3303125 0.495 2.6875 1 C7.16077372 2.35042225 10.54270626 2.32067963 15 1 C15 2.32 15 3.64 15 5 C4.24281984 4.39425587 4.24281984 4.39425587 0 1 C0 0.67 0 0.34 0 0 Z "
          fill="#714F3B" transform="translate(80,190)"/>
    <path d="M0 0 C0.556875 0.721875 1.11375 1.44375 1.6875 2.1875 C3.96384038 5.04880285 3.96384038 5.04880285 6.625 7.625 C9 10 9 10 11 13 C2.67021277 8.9893617 2.67021277 8.9893617 0.6875 6.0625 C0 4 0 4 0 0 Z "
          fill="#623F2D" transform="translate(59,170)"/>
    <path d="M0 0 C3.06851772 0.59889929 5.02563189 1.54235897 7.5 3.4375 C9.91771753 5.23648982 12.22718762 6.77996255 15 8 C14.01 8.495 14.01 8.495 13 9 C10.46875 7.8203125 10.46875 7.8203125 7.5 6.125 C6.5203125 5.57070312 5.540625 5.01640625 4.53125 4.4453125 C3.6959375 3.96835938 2.860625 3.49140625 2 3 C1.34 2.67 0.68 2.34 0 2 C0 1.34 0 0.68 0 0 Z "
          fill="#533525" transform="translate(70,185)"/>
    <path d="M0 0 C0 0.66 0 1.32 0 2 C-5.12583611 2.10251672 -9.94997778 2.03590199 -15 1 C-15 0.67 -15 0.34 -15 0 C-9.77254141 -1.2063366 -5.23471686 -0.75612577 0 0 Z "
          fill="#B62E2B" transform="translate(93,162)"/>
    <path d="M0 0 C0.99 0.495 0.99 0.495 2 1 C2.33 1.99 2.66 2.98 3 4 C4.32 4.33 5.64 4.66 7 5 C6.67 8.3 6.34 11.6 6 15 C5.67 15 5.34 15 5 15 C5 12.03 5 9.06 5 6 C3.35 6.33 1.7 6.66 0 7 C0 4.69 0 2.38 0 0 Z "
          fill="#790C0A" transform="translate(38,109)"/>
    <path d="M0 0 C0 0.33 0 0.66 0 1 C-1.65 1 -3.3 1 -5 1 C-5 1.66 -5 2.32 -5 3 C-8.3 3.33 -11.6 3.66 -15 4 C-15 3.34 -15 2.68 -15 2 C-9.77487721 0.53329887 -5.4185766 -0.22577402 0 0 Z "
          fill="#D4B5B5" transform="translate(115,26)"/>
    <path d="M0 0 C1.32 0.33 2.64 0.66 4 1 C2.02 3.31 0.04 5.62 -2 8 C-2.33 7.34 -2.66 6.68 -3 6 C-1.44444444 1.44444444 -1.44444444 1.44444444 0 0 Z "
          fill="#9E5C5C" transform="translate(58,56)"/>
    <path d="M0 0 C0.66 0 1.32 0 2 0 C2.33 1.32 2.66 2.64 3 4 C3.66 4 4.32 4 5 4 C5.33 6.31 5.66 8.62 6 11 C4.5 9.625 4.5 9.625 3 8 C3 7.34 3 6.68 3 6 C2.01 5.67 1.02 5.34 0 5 C0 3.35 0 1.7 0 0 Z "
          fill="#7E5336" transform="translate(57,164)"/>
    <path d="M0 0 C-5.5 4 -5.5 4 -10 4 C-9 1 -9 1 -6.6875 -0.25 C-3.90126985 -1.0275526 -2.66561622 -0.98726527 0 0 Z "
          fill="#B1807F" transform="translate(85,41)"/>
    <path d="M0 0 C3.96 0.33 7.92 0.66 12 1 C12 1.66 12 2.32 12 3 C8.04 3 4.08 3 0 3 C0 2.01 0 1.02 0 0 Z "
          fill="#7C5F4C" transform="translate(98,195)"/>
    <path d="M0 0 C0.66 0 1.32 0 2 0 C2.66 1.32 3.32 2.64 4 4 C3.34 4 2.68 4 2 4 C2.66 6.64 3.32 9.28 4 12 C3.34 12 2.68 12 2 12 C-0.60018816 8.09971775 -0.15085514 4.52565431 0 0 Z "
          fill="#4F301F" transform="translate(55,160)"/>
    <path d="M0 0 C6.625 0.75 6.625 0.75 10 3 C10 3.66 10 4.32 10 5 C6.7 4.01 3.4 3.02 0 2 C0 1.34 0 0.68 0 0 Z "
          fill="#D49B9A" transform="translate(138,30)"/>
    <path d="M0 0 C0 0.66 0 1.32 0 2 C-2.47346304 4.47346304 -3.70761168 4.98313144 -7.25 5.1875 C-8.1575 5.125625 -9.065 5.06375 -10 5 C-8.28489314 1.56978628 -3.75681361 0 0 0 Z "
          fill="#593A29" transform="translate(165,188)"/>
    <path d="M0 0 C1.6266848 0.28211877 3.25132896 0.57602375 4.875 0.875 C5.77992187 1.03742188 6.68484375 1.19984375 7.6171875 1.3671875 C10 2 10 2 12 4 C11.37351562 3.90460938 10.74703125 3.80921875 10.1015625 3.7109375 C9.28429688 3.60007813 8.46703125 3.48921875 7.625 3.375 C6.40683594 3.20097656 6.40683594 3.20097656 5.1640625 3.0234375 C4.44992188 3.01570312 3.73578125 3.00796875 3 3 C2.34 3.66 1.68 4.32 1 5 C0.67 3.35 0.34 1.7 0 0 Z "
          fill="#371A0F" transform="translate(42,154)"/>
    <path d="M0 0 C4.29 0 8.58 0 13 0 C13 0.99 13 1.98 13 3 C8.71 2.34 4.42 1.68 0 1 C0 0.67 0 0.34 0 0 Z "
          fill="#6E0D0B" transform="translate(68,145)"/>
    <path d="M0 0 C0.66 0 1.32 0 2 0 C1.67 3.63 1.34 7.26 1 11 C0.34 10.67 -0.32 10.34 -1 10 C-0.67 6.7 -0.34 3.4 0 0 Z "
          fill="#A05555" transform="translate(38,92)"/>
    <path d="M0 0 C0 0.33 0 0.66 0 1 C-4.53701494 2.45184478 -8.18061476 3.23509196 -13 3 C-13 2.34 -13 1.68 -13 1 C-8.59085217 -0.10228696 -4.51617599 -0.07654536 0 0 Z "
          fill="#A91A16" transform="translate(97,132)"/>
    <path d="M0 0 C0.99 0.495 0.99 0.495 2 1 C2.4140625 3.28515625 2.4140625 3.28515625 2.625 6.0625 C2.69976562 6.98160156 2.77453125 7.90070313 2.8515625 8.84765625 C2.92503906 9.91306641 2.92503906 9.91306641 3 11 C-0.16492205 7.24528933 -0.28301994 4.90567888 0 0 Z "
          fill="#AE7171" transform="translate(200,91)"/>
    <path d="M0 0 C0.66 0.33 1.32 0.66 2 1 C1.67 1.33 1.34 1.66 1 2 C1.0644582 3.99820432 1.13264472 5.99686587 1.2578125 7.9921875 C0.92782782 10.56206818 -0.04899384 11.37586398 -2 13 C-1.85966889 11.02043559 -1.7125877 9.04134859 -1.5625 7.0625 C-1.48128906 5.96035156 -1.40007812 4.85820313 -1.31640625 3.72265625 C-1 1 -1 1 0 0 Z "
          fill="#AA4441" transform="translate(89,55)"/>
    <path d="M0 0 C0.99 0 1.98 0 3 0 C3 0.99 3 1.98 3 3 C4.65 3 6.3 3 8 3 C8 3.33 8 3.66 8 4 C6.02 4 4.04 4 2 4 C1.67 4.99 1.34 5.98 1 7 C0.67 4.69 0.34 2.38 0 0 Z "
          fill="#513424" transform="translate(142,192)"/>
    <path d="M0 0 C0.66 0 1.32 0 2 0 C4.42857143 6.28571429 4.42857143 6.28571429 3 10 C0.96564469 6.27034861 0 4.33094958 0 0 Z "
          fill="#B78181" transform="translate(195,77)"/>
    <path d="M0 0 C0.33 0 0.66 0 1 0 C1 2.31 1 4.62 1 7 C0.01 7 -0.98 7 -2 7 C-2 5.35 -2 3.7 -2 2 C-1.34 2 -0.68 2 0 2 C0 1.34 0 0.68 0 0 Z "
          fill="#CA3C38" transform="translate(151,68)"/>
    <path d="M0 0 C0.33 0.99 0.66 1.98 1 3 C-2 5 -2 5 -6 5 C-6 4.34 -6 3.68 -6 3 C-4.02 2.01 -2.04 1.02 0 0 Z "
          fill="#B38383" transform="translate(91,35)"/>
    <path d="M0 0 C-1.625 1.5625 -1.625 1.5625 -4 3 C-7.25 2.6875 -7.25 2.6875 -10 2 C-6.3558226 -0.4294516 -4.28758728 -0.16179575 0 0 Z "
          fill="#600C0A" transform="translate(194,142)"/>
    <path d="M0 0 C0.99 0 1.98 0 3 0 C2.67 3.96 2.34 7.92 2 12 C1.67 12 1.34 12 1 12 C1 8.7 1 5.4 1 2 C0.34 1.67 -0.32 1.34 -1 1 C-0.67 0.67 -0.34 0.34 0 0 Z "
          fill="#CA1D19" transform="translate(39,116)"/>
    <path d="M0 0 C0.99 0.33 1.98 0.66 3 1 C3 1.66 3 2.32 3 3 C5.475 3.99 5.475 3.99 8 5 C6 6 6 6 3.4375 5.3125 C1 4 1 4 0.1875 1.875 C0.125625 1.25625 0.06375 0.6375 0 0 Z "
          fill="#BC9191" transform="translate(170,47)"/>
</svg>
