<?xml version="1.0" encoding="UTF-8"?>
<svg version="1.1" xmlns="http://www.w3.org/2000/svg" width="240" height="240">
    <path d="M0 0 C3.66084822 2.84732639 5.71007966 5.54391157 7 10 C7 10.99 7 11.98 7 13 C7.66 13 8.32 13 9 13 C12 19.625 12 19.625 12 23 C12.66 23 13.32 23 14 23 C17 29.625 17 29.625 17 33 C17.66 33 18.32 33 19 33 C22 39.625 22 39.625 22 43 C23.485 43.495 23.485 43.495 25 44 C25.76601863 45.63195273 26.51913052 47.27265516 27.171875 48.953125 C28.33757128 51.83437429 29.78768133 54.55029886 31.23046875 57.30078125 C32 59 32 59 32 61 C32.66 61 33.32 61 34 61 C34.24234375 61.61746094 34.4846875 62.23492187 34.734375 62.87109375 C36.77120738 68.01801249 38.90319427 73.08330786 41.265625 78.08984375 C42 80 42 80 42 83 C42.66 83 43.32 83 44 83 C44.50833591 84.24663331 45.00631145 85.49749387 45.5 86.75 C45.7784375 87.44609375 46.056875 88.1421875 46.34375 88.859375 C47 91 47 91 47 95 C47.66 95 48.32 95 49 95 C49.17390259 95.94637329 49.17390259 95.94637329 49.35131836 96.91186523 C49.87600481 99.75450681 50.40667024 102.5959995 50.9375 105.4375 C51.21110352 106.92733398 51.21110352 106.92733398 51.49023438 108.44726562 C51.66748047 109.39150391 51.84472656 110.33574219 52.02734375 111.30859375 C52.27085571 112.62041626 52.27085571 112.62041626 52.51928711 113.95874023 C52.8068839 115.98228064 52.8068839 115.98228064 54 117 C54.08737645 118.85369611 54.10698153 120.71067541 54.09765625 122.56640625 C54.09282227 124.2534668 54.09282227 124.2534668 54.08789062 125.97460938 C54.07532227 127.75061523 54.07532227 127.75061523 54.0625 129.5625 C54.05798828 130.75037109 54.05347656 131.93824219 54.04882812 133.16210938 C54.03699675 136.10812226 54.02051287 139.05403681 54 142 C53.34 142 52.68 142 52 142 C51.92652344 142.87011719 51.92652344 142.87011719 51.8515625 143.7578125 C51.40350595 148.43923092 50.701979 152.57485459 49 157 C48.34 157 47.68 157 47 157 C46.9175 157.53625 46.835 158.0725 46.75 158.625 C45.71913627 161.88940182 43.9862539 164.20850804 42 167 C41.53078125 167.67933594 41.0615625 168.35867187 40.578125 169.05859375 C37.73664024 173.04985457 35.43845692 175.71736501 31 178 C30.67 178.66 30.34 179.32 30 180 C24.69230769 183 24.69230769 183 21 183 C21 183.66 21 184.32 21 185 C19.44033782 185.508783 17.87710759 186.00663469 16.3125 186.5 C15.00732422 186.91765625 15.00732422 186.91765625 13.67578125 187.34375 C11.00608323 187.99850805 8.73603316 188.11831495 6 188 C6 188.66 6 189.32 6 190 C3.12474331 190.05425013 0.25052354 190.09379277 -2.625 190.125 C-3.43324219 190.14175781 -4.24148437 190.15851563 -5.07421875 190.17578125 C-9.82895569 190.21443765 -13.52263047 189.78077197 -18 188 C-19.78931215 187.45060556 -21.58085339 186.90839494 -23.375 186.375 C-24.24898437 186.11460937 -25.12296875 185.85421875 -26.0234375 185.5859375 C-27.00183594 185.29589844 -27.00183594 185.29589844 -28 185 C-28 184.34 -28 183.68 -28 183 C-28.86625 182.814375 -28.86625 182.814375 -29.75 182.625 C-32.02335767 181.99351176 -33.9253529 181.11141809 -36 180 C-36 179.34 -36 178.68 -36 178 C-37.0828125 177.6596875 -37.0828125 177.6596875 -38.1875 177.3125 C-43.56322089 174.80383025 -45.91332409 171.36573806 -48 166 C-48.99 165.67 -49.98 165.34 -51 165 C-52.64820195 162.39757586 -53 161.13751221 -53 158 C-53.66 158 -54.32 158 -55 158 C-55.62591479 155.97944982 -56.25068609 153.9585454 -56.875 151.9375 C-57.22304687 150.81214844 -57.57109375 149.68679687 -57.9296875 148.52734375 C-58.28289062 147.36332031 -58.63609375 146.19929687 -59 145 C-59.55494141 143.33130859 -59.55494141 143.33130859 -60.12109375 141.62890625 C-61.16523603 137.31775878 -61.25783403 133.4125349 -61.1875 129 C-61.18685547 128.23171875 -61.18621094 127.4634375 -61.18554688 126.671875 C-61.14995488 122.02118752 -60.76256245 117.58757568 -60 113 C-59.34 113 -58.68 113 -58 113 C-58.061875 111.9275 -58.12375 110.855 -58.1875 109.75 C-58.21875418 103.95755888 -56.55090114 98.53893263 -55 93 C-54.34 93 -53.68 93 -53 93 C-52.87625 91.96875 -52.7525 90.9375 -52.625 89.875 C-52.06110186 86.37883154 -51.21317941 83.31602373 -50 80 C-49.34 80 -48.68 80 -48 80 C-46.515 74.555 -46.515 74.555 -45 69 C-44.34 69 -43.68 69 -43 69 C-42.87625 68.278125 -42.7525 67.55625 -42.625 66.8125 C-42.0095069 64.04278106 -41.11555626 61.6029646 -40 59 C-39.34 59 -38.68 59 -38 59 C-37.87625 58.278125 -37.7525 57.55625 -37.625 56.8125 C-37.0095069 54.04278106 -36.11555626 51.6029646 -35 49 C-34.34 49 -33.68 49 -33 49 C-32.87625 48.278125 -32.7525 47.55625 -32.625 46.8125 C-32.0095069 44.04278106 -31.11555626 41.6029646 -30 39 C-29.34 39 -28.68 39 -28 39 C-27.87625 38.278125 -27.7525 37.55625 -27.625 36.8125 C-27.0095069 34.04278106 -26.11555626 31.6029646 -25 29 C-24.34 29 -23.68 29 -23 29 C-22.814375 27.9171875 -22.814375 27.9171875 -22.625 26.8125 C-22.0095069 24.04278106 -21.11555626 21.6029646 -20 19 C-19.34 19 -18.68 19 -18 19 C-17.814375 17.9171875 -17.814375 17.9171875 -17.625 16.8125 C-17.0095069 14.04278106 -16.11555626 11.6029646 -15 9 C-14.34 9 -13.68 9 -13 9 C-12.814375 8.13375 -12.814375 8.13375 -12.625 7.25 C-11.97946097 4.92605949 -11.27275111 3.05054346 -10 1 C-6.36217368 -0.21260877 -3.82264001 -0.39544552 0 0 Z "
          fill="#1BADF2" transform="translate(123,27)"/>
    <path d="M0 0 C2.91445456 1.45722728 3.65437601 3.05244268 5 6 C5.37400786 8.32716 5.70764733 10.66117862 6 13 C6.65156366 14.67262878 7.32042741 16.33855385 8 18 C8.68561087 20.13985581 9.35130547 22.2861654 10 24.4375 C10.96901188 27.64356664 11.93882296 30.82753041 13.05859375 33.984375 C14.08178614 37.26198714 14.56568166 40.41573464 15.0625 43.8125 C16.35069408 51.49887968 18.79076015 58.68386512 21.4375 66 C21.82107666 67.0619458 22.20465332 68.1238916 22.59985352 69.21801758 C24.74898584 75.01998824 27.13059227 80.5198007 30 86 C33.23431498 92.94778774 34.14839553 98.79648613 34.1875 106.4375 C34.20167969 107.69433594 34.21585937 108.95117188 34.23046875 110.24609375 C33.81951746 116.9397241 31.98291659 122.65450668 28 128 C25.04038501 129.183846 23.09479104 129.66382462 20 130 C19.04867187 130.10828125 18.09734375 130.2165625 17.1171875 130.328125 C-18.99608434 133.69988011 -18.99608434 133.69988011 -31 126 C-35.75062252 119.99708753 -35.48997579 114.49713453 -35.25 107.0625 C-35.23195313 105.99708984 -35.21390625 104.93167969 -35.1953125 103.83398438 C-35.14845557 101.22171071 -35.08286926 98.61133774 -35 96 C-34.34 96 -33.68 96 -33 96 C-32.81630859 94.72769531 -32.81630859 94.72769531 -32.62890625 93.4296875 C-31.97793097 89.87964842 -31.02558284 86.56474576 -29.9375 83.125 C-29.57527344 81.97257812 -29.21304688 80.82015625 -28.83984375 79.6328125 C-28.56269531 78.76398438 -28.28554687 77.89515625 -28 77 C-27.34 77 -26.68 77 -26 77 C-25.58041016 75.06640625 -25.58041016 75.06640625 -25.15234375 73.09375 C-24.06369125 68.19912242 -22.83984459 63.34837295 -21.5625 58.5 C-21.35818359 57.70980469 -21.15386719 56.91960937 -20.94335938 56.10546875 C-19.69539835 51.35466386 -18.26031043 46.7112261 -16.67602539 42.0625 C-15.77845347 39.32407905 -15.09376265 36.55505406 -14.4375 33.75 C-13.76244799 30.86672702 -13.07306453 28.1811449 -11.96484375 25.43359375 C-11.01002181 23.02527768 -10.53815849 20.8631213 -10.125 18.3125 C-6.64343189 0 -6.64343189 0 0 0 Z "
          fill="#BEF2FE" transform="translate(120,31)"/>
    <path d="M0 0 C6.71244635 5.10729614 6.71244635 5.10729614 8 10 C8 10.99 8 11.98 8 13 C8.66 13 9.32 13 10 13 C13 19.625 13 19.625 13 23 C13.66 23 14.32 23 15 23 C18 29.625 18 29.625 18 33 C18.66 33 19.32 33 20 33 C23 39.625 23 39.625 23 43 C24.485 43.495 24.485 43.495 26 44 C26.76601863 45.63195273 27.51913052 47.27265516 28.171875 48.953125 C29.33757128 51.83437429 30.78768133 54.55029886 32.23046875 57.30078125 C33 59 33 59 33 61 C33.66 61 34.32 61 35 61 C35.24234375 61.61746094 35.4846875 62.23492187 35.734375 62.87109375 C37.77120738 68.01801249 39.90319427 73.08330786 42.265625 78.08984375 C43 80 43 80 43 83 C43.66 83 44.32 83 45 83 C45.50833591 84.24663331 46.00631145 85.49749387 46.5 86.75 C46.7784375 87.44609375 47.056875 88.1421875 47.34375 88.859375 C48 91 48 91 48 95 C48.66 95 49.32 95 50 95 C50.17390259 95.94637329 50.17390259 95.94637329 50.35131836 96.91186523 C50.87600481 99.75450681 51.40667024 102.5959995 51.9375 105.4375 C52.21110352 106.92733398 52.21110352 106.92733398 52.49023438 108.44726562 C52.66748047 109.39150391 52.84472656 110.33574219 53.02734375 111.30859375 C53.18968506 112.18314209 53.35202637 113.05769043 53.51928711 113.95874023 C53.8068839 115.98228064 53.8068839 115.98228064 55 117 C55.07205511 118.68608966 55.08386068 120.37500659 55.0625 122.0625 C55.05347656 122.98160156 55.04445312 123.90070313 55.03515625 124.84765625 C55.02355469 125.55792969 55.01195312 126.26820313 55 127 C54.67 125.68 54.34 124.36 54 123 C53.01 123 52.02 123 51 123 C50.67 122.34 50.34 121.68 50 121 C49.34 121.66 48.68 122.32 48 123 C47.34 116.07 46.68 109.14 46 102 C45.01 102.33 44.02 102.66 43 103 C42.67 98.38 42.34 93.76 42 89 C41.34 89 40.68 89 40 89 C39.49632243 87.54293274 38.99717444 86.08429904 38.5 84.625 C38.2215625 83.81289062 37.943125 83.00078125 37.65625 82.1640625 C37 80 37 80 37 78 C36.34 78 35.68 78 35 78 C34.34 78.99 33.68 79.98 33 81 C32.67 76.71 32.34 72.42 32 68 C30.68 68 29.36 68 28 68 C27.34 64.37 26.68 60.74 26 57 C25.01 57.99 24.02 58.98 23 60 C22.505 55.05 22.505 55.05 22 50 C21.01 50 20.02 50 19 50 C18.01 46.535 18.01 46.535 17 43 C16.67 43 16.34 43 16 43 C16 41.02 16 39.04 16 37 C15.34 37 14.68 37 14 37 C13.74605469 36.07058594 13.49210938 35.14117187 13.23046875 34.18359375 C11.49159713 27.93798368 9.74798035 21.88852933 7 16 C6.67 15.01 6.34 14.02 6 13 C5.51917969 12.55011719 5.03835937 12.10023437 4.54296875 11.63671875 C2.54316394 9.51540681 2.07519766 7.60905808 1.3125 4.8125 C1.06113281 3.91144531 0.80976562 3.01039062 0.55078125 2.08203125 C0.36902344 1.39496094 0.18726562 0.70789063 0 0 Z "
          fill="#0086CA" transform="translate(122,27)"/>
    <path d="M0 0 C1.33547544 3.3386886 0.68088389 5.59186751 -0.39453125 8.93359375 C-1.33057985 12.12823705 -1.85975723 15.39237358 -2.4375 18.66796875 C-3 21 -3 21 -4.0234375 22.81640625 C-5.45849644 26.02519804 -5.46798511 29.28913004 -5.625 32.75 C-5.66367188 33.44738281 -5.70234375 34.14476562 -5.7421875 34.86328125 C-5.83598624 36.57510818 -5.91906174 38.28751682 -6 40 C-5.360625 40.28875 -4.72125 40.5775 -4.0625 40.875 C-2 42 -2 42 -1 44 C-0.01 44.33 0.98 44.66 2 45 C2.55945313 45.66773438 3.11890625 46.33546875 3.6953125 47.0234375 C6.88228105 49.75666815 9.8613704 49.59554217 13.875 49.625 C18.94589252 49.71907964 23.19380185 50.28839097 28 52 C29.32 52 30.64 52 32 52 C32 51.34 32 50.68 32 50 C38.625 48.875 38.625 48.875 42 50 C42 49.34 42 48.68 42 48 C43.45537568 47.16151196 44.91440373 46.32936066 46.375 45.5 C47.18710938 45.0359375 47.99921875 44.571875 48.8359375 44.09375 C51 43 51 43 53 43 C53.66 41.35 54.32 39.7 55 38 C55.66 38 56.32 38 57 38 C57.09377123 30.58165418 57.17402193 23.33763707 56 16 C59.32574297 18.60275537 59.49447754 20.91289864 60 25 C60.11491208 27.47729062 60.17480849 29.95757812 60.1875 32.4375 C60.20167969 33.69433594 60.21585937 34.95117188 60.23046875 36.24609375 C59.81951746 42.9397241 57.98291659 48.65450668 54 54 C51.04038501 55.183846 49.09479104 55.66382462 46 56 C45.04867187 56.10828125 44.09734375 56.2165625 43.1171875 56.328125 C7.00391566 59.69988011 7.00391566 59.69988011 -5 52 C-9.75062252 45.99708753 -9.48997579 40.49713453 -9.25 33.0625 C-9.23195313 31.99708984 -9.21390625 30.93167969 -9.1953125 29.83398438 C-9.14845557 27.22171071 -9.08286926 24.61133774 -9 22 C-8.34 22 -7.68 22 -7 22 C-6.87753906 21.15179688 -6.75507812 20.30359375 -6.62890625 19.4296875 C-5.97793097 15.87964842 -5.02558284 12.56474576 -3.9375 9.125 C-3.57527344 7.97257812 -3.21304688 6.82015625 -2.83984375 5.6328125 C-2.56269531 4.76398438 -2.28554687 3.89515625 -2 3 C-1.34 3 -0.68 3 0 3 C0 2.01 0 1.02 0 0 Z "
          fill="#53D1FF" transform="translate(94,105)"/>
    <path d="M0 0 C0.66 0 1.32 0 2 0 C1.76802257 1.54448133 1.51338442 3.08556349 1.25 4.625 C1.11078125 5.48351563 0.9715625 6.34203125 0.828125 7.2265625 C-0.19405926 10.64991544 -2.01273434 13.039608 -4 16 C-4.92507637 18.30613938 -5.77907646 20.64197271 -6.5625 23 C-8.08491051 27.55225699 -9.81489617 31.72885038 -12 36 C-12.64464114 37.59637511 -13.27079183 39.20038705 -13.875 40.8125 C-16.20771021 46.74705777 -19.21416245 52.18387156 -22.625 57.5625 C-23.85047206 59.73492774 -24.58768304 61.65117108 -25.375 64 C-26.781455 67.97379349 -28.98039708 70.0578228 -32 73 C-34.21765622 77.54091512 -34.14974487 81.68973011 -33.97265625 86.6328125 C-33.99937044 88.94549776 -34.40548779 90.7786443 -35 93 C-35 93.99 -35 94.98 -35 96 C-35.48339844 96.47179687 -35.96679688 96.94359375 -36.46484375 97.4296875 C-38.38768989 99.39656829 -38.41206765 100.41721762 -38.5625 103.125 C-39.08323293 109.50918576 -40.12459213 115.26073208 -43 121 C-43.38290462 122.99110401 -43.72604615 124.99100513 -44 127 C-45.98 127.495 -45.98 127.495 -48 128 C-48.18451025 113.21867882 -48.18451025 113.21867882 -47 107 C-46.34 107 -45.68 107 -45 107 C-45.061875 105.9275 -45.12375 104.855 -45.1875 103.75 C-45.21875418 97.95755888 -43.55090114 92.53893263 -42 87 C-41.34 87 -40.68 87 -40 87 C-39.87625 85.96875 -39.7525 84.9375 -39.625 83.875 C-39.06110186 80.37883154 -38.21317941 77.31602373 -37 74 C-36.34 74 -35.68 74 -35 74 C-33.515 68.555 -33.515 68.555 -32 63 C-31.34 63 -30.68 63 -30 63 C-29.87625 62.278125 -29.7525 61.55625 -29.625 60.8125 C-29.0095069 58.04278106 -28.11555626 55.6029646 -27 53 C-26.34 53 -25.68 53 -25 53 C-24.87625 52.278125 -24.7525 51.55625 -24.625 50.8125 C-24.0095069 48.04278106 -23.11555626 45.6029646 -22 43 C-21.34 43 -20.68 43 -20 43 C-19.87625 42.278125 -19.7525 41.55625 -19.625 40.8125 C-19.0095069 38.04278106 -18.11555626 35.6029646 -17 33 C-16.34 33 -15.68 33 -15 33 C-14.87625 32.278125 -14.7525 31.55625 -14.625 30.8125 C-14.0095069 28.04278106 -13.11555626 25.6029646 -12 23 C-11.34 23 -10.68 23 -10 23 C-9.814375 21.9171875 -9.814375 21.9171875 -9.625 20.8125 C-9.0095069 18.04278106 -8.11555626 15.6029646 -7 13 C-6.34 13 -5.68 13 -5 13 C-4.814375 11.9171875 -4.814375 11.9171875 -4.625 10.8125 C-4.0095069 8.04278106 -3.11555626 5.6029646 -2 3 C-1.34 3 -0.68 3 0 3 C0 2.01 0 1.02 0 0 Z "
          fill="#0070B2" transform="translate(110,33)"/>
    <path d="M0 0 C3.07692308 5.41538462 3.07692308 5.41538462 2.6875 8.375 C2.460625 8.91125 2.23375 9.4475 2 10 C1.01 8.35 0.02 6.7 -1 5 C-3.86724686 5.57344937 -4.8614515 5.8614515 -7 8 C-9.59220638 14.3995095 -11.2814482 20.93366112 -12.5078125 27.7109375 C-13.11693719 30.54385074 -14.12211054 33.09296288 -15.203125 35.7734375 C-16.85817923 40.39785372 -17.8775359 45.22355703 -19 50 C-19.78117187 50.08507812 -20.56234375 50.17015625 -21.3671875 50.2578125 C-24.07783087 50.72753442 -24.07783087 50.72753442 -25.2578125 52.7421875 C-25.68707031 53.79792969 -25.68707031 53.79792969 -26.125 54.875 C-27.74655599 58.76386436 -27.74655599 58.76386436 -29.6015625 60.4921875 C-31.4419523 62.4765184 -31.26862238 63.58700019 -31.25 66.25 C-31.61517495 71.23260927 -33.61949173 73.30369431 -37.30859375 76.4921875 C-39.97834745 78.87215269 -40.98443587 80.94396912 -41.9375 84.375 C-42.91843285 87.72171206 -44.01687992 90.15465379 -46 93 C-46.33 93 -46.66 93 -47 93 C-47.47989126 86.4014952 -46.35029917 81.73681365 -43 76 C-41.66666667 74.66666667 -40.33333333 73.33333333 -39 72 C-37.50082493 69.06953703 -36.26697629 66.03646638 -35 63 C-33.61782318 60.10999393 -32.16498384 57.29122839 -30.5859375 54.50390625 C-27.77604047 49.51391669 -25.43398305 44.7960593 -23.77734375 39.31640625 C-22.5411595 35.63270143 -20.8436591 32.17229062 -19.19921875 28.65625 C-18.12395434 26.27455684 -17.19032294 23.89718662 -16.3125 21.4375 C-15 18 -15 18 -13 16 C-12.40912855 13.85137655 -11.89815124 11.68025509 -11.4375 9.5 C-10.08687259 3.17374517 -10.08687259 3.17374517 -9 1 C-5.8035914 -0.06546953 -3.34252724 -0.07427838 0 0 Z "
          fill="#0099DF" transform="translate(122,27)"/>
    <path d="M0 0 C1.875 0.21875 1.875 0.21875 4 1 C5.125 2.96875 5.125 2.96875 6 5.5 C7.55950956 9.8134054 9.30879243 13.94286396 11.265625 18.08984375 C12 20 12 20 12 23 C12.66 23 13.32 23 14 23 C14.50833591 24.24663331 15.00631145 25.49749387 15.5 26.75 C15.7784375 27.44609375 16.056875 28.1421875 16.34375 28.859375 C17 31 17 31 17 35 C17.66 35 18.32 35 19 35 C19.11593506 35.63091553 19.23187012 36.26183105 19.35131836 36.91186523 C19.87600481 39.75450681 20.40667024 42.5959995 20.9375 45.4375 C21.11990234 46.43072266 21.30230469 47.42394531 21.49023438 48.44726562 C21.75610352 49.86362305 21.75610352 49.86362305 22.02734375 51.30859375 C22.27085571 52.62041626 22.27085571 52.62041626 22.51928711 53.95874023 C22.8068839 55.98228064 22.8068839 55.98228064 24 57 C24.07205511 58.68608966 24.08386068 60.37500659 24.0625 62.0625 C24.05347656 62.98160156 24.04445312 63.90070313 24.03515625 64.84765625 C24.02355469 65.55792969 24.01195312 66.26820313 24 67 C23.67 65.68 23.34 64.36 23 63 C22.01 63 21.02 63 20 63 C19.67 62.34 19.34 61.68 19 61 C18.34 61.66 17.68 62.32 17 63 C16.34 56.07 15.68 49.14 15 42 C13.515 42.495 13.515 42.495 12 43 C11.67 38.38 11.34 33.76 11 29 C10.34 29 9.68 29 9 29 C8.49632243 27.54293274 7.99717444 26.08429904 7.5 24.625 C7.2215625 23.81289062 6.943125 23.00078125 6.65625 22.1640625 C6 20 6 20 6 18 C5.34 18 4.68 18 4 18 C3.79503906 17.03578125 3.59007812 16.0715625 3.37890625 15.078125 C2.97478516 13.18320313 2.97478516 13.18320313 2.5625 11.25 C2.16224609 9.37054688 2.16224609 9.37054688 1.75390625 7.453125 C1.2083765 4.95442915 0.64361188 2.47446899 0 0 Z "
          fill="#026EAD" transform="translate(153,87)"/>
    <path d="M0 0 C1.33547544 3.3386886 0.68088389 5.59186751 -0.39453125 8.93359375 C-1.33057985 12.12823705 -1.85975723 15.39237358 -2.4375 18.66796875 C-3 21 -3 21 -4.0234375 22.81640625 C-5.45849644 26.02519804 -5.46798511 29.28913004 -5.625 32.75 C-5.66367188 33.44738281 -5.70234375 34.14476562 -5.7421875 34.86328125 C-5.83598624 36.57510818 -5.91906174 38.28751682 -6 40 C-5.360625 40.28875 -4.72125 40.5775 -4.0625 40.875 C-2 42 -2 42 -1 44 C-0.01 44.33 0.98 44.66 2 45 C2.55945313 45.66773438 3.11890625 46.33546875 3.6953125 47.0234375 C6.88228105 49.75666815 9.8613704 49.59554217 13.875 49.625 C18.94589252 49.71907964 23.19380185 50.28839097 28 52 C29.32 52 30.64 52 32 52 C32 51.34 32 50.68 32 50 C38.625 48.875 38.625 48.875 42 50 C42 49.34 42 48.68 42 48 C42.77085937 47.59007812 43.54171875 47.18015625 44.3359375 46.7578125 C45.33882812 46.21898437 46.34171875 45.68015625 47.375 45.125 C48.37273437 44.59132812 49.37046875 44.05765625 50.3984375 43.5078125 C53.05348395 42.1179862 53.05348395 42.1179862 55 40 C55.99 40 56.98 40 58 40 C57.65087155 42.69992666 57.27386928 43.7659237 55.171875 45.5625 C41.46385837 53.69887116 25.61905861 56.89397506 9.78027344 53.52832031 C8.17093733 53.07162775 6.58172787 52.54467213 5 52 C5 51.34 5 50.68 5 50 C3.741875 49.95875 2.48375 49.9175 1.1875 49.875 C-1.02734375 49.609375 -1.02734375 49.609375 -3 49 C-4.875 46.125 -4.875 46.125 -6 43 C-6.66 42.01 -7.32 41.02 -8 40 C-8.22376316 37.0620188 -8.32437104 34.24939504 -8.3125 31.3125 C-8.32861328 30.53455078 -8.34472656 29.75660156 -8.36132812 28.95507812 C-8.36540757 24.06382954 -7.61862644 20.2688125 -5.72827148 15.76147461 C-4.83051114 13.59005628 -4.32564463 11.42738438 -3.875 9.125 C-3.42046087 6.83635562 -3.0459142 5.09182841 -2 3 C-1.34 3 -0.68 3 0 3 C0 2.01 0 1.02 0 0 Z "
          fill="#6CD7FF" transform="translate(94,105)"/>
    <path d="M0 0 C3.07692308 5.41538462 3.07692308 5.41538462 2.6875 8.375 C2.460625 8.91125 2.23375 9.4475 2 10 C1.01 8.35 0.02 6.7 -1 5 C-3.86724686 5.57344937 -4.8614515 5.8614515 -7 8 C-9.59220638 14.3995095 -11.2814482 20.93366112 -12.5078125 27.7109375 C-13.11693719 30.54385074 -14.12211054 33.09296288 -15.203125 35.7734375 C-16.85817923 40.39785372 -17.8775359 45.22355703 -19 50 C-19.33 50 -19.66 50 -20 50 C-19.979375 48.88625 -19.95875 47.7725 -19.9375 46.625 C-19.73619282 43.16784079 -19.73619282 43.16784079 -21 41 C-20.0390625 38.21484375 -20.0390625 38.21484375 -18.625 34.9375 C-18.16351563 33.85339844 -17.70203125 32.76929688 -17.2265625 31.65234375 C-16 29 -16 29 -15 28 C-14.65688925 26.4305342 -14.36555777 24.84966308 -14.09765625 23.265625 C-13.92943359 22.29882812 -13.76121094 21.33203125 -13.58789062 20.3359375 C-13.24032545 18.29447664 -12.89395223 16.25281246 -12.54882812 14.2109375 C-12.37931641 13.23898438 -12.20980469 12.26703125 -12.03515625 11.265625 C-11.8844165 10.37649414 -11.73367676 9.48736328 -11.57836914 8.57128906 C-10.96656737 5.85136665 -10.25362378 3.49361825 -9 1 C-5.8035914 -0.06546953 -3.34252724 -0.07427838 0 0 Z "
          fill="#10ADF3" transform="translate(122,27)"/>
    <path d="M0 0 C0.66 0.66 1.32 1.32 2 2 C1.625 3.9375 1.625 3.9375 1 6 C1 6.99 1 7.98 1 9 C0.51660156 9.47179687 0.03320312 9.94359375 -0.46484375 10.4296875 C-2.38768989 12.39656829 -2.41206765 13.41721762 -2.5625 16.125 C-3.08323293 22.50918576 -4.12459213 28.26073208 -7 34 C-7.38290462 35.99110401 -7.72604615 37.99100513 -8 40 C-9.98 40.495 -9.98 40.495 -12 41 C-12.05423638 39.08364783 -12.09289963 37.16685075 -12.125 35.25 C-12.14820313 34.18265625 -12.17140625 33.1153125 -12.1953125 32.015625 C-12.00322356 29.04977172 -11.63578192 27.44795336 -10 25 C-9.34 24.67 -8.68 24.34 -8 24 C-7.24928949 21.87932416 -7.24928949 21.87932416 -6.7109375 19.30859375 C-6.49179688 18.36435547 -6.27265625 17.42011719 -6.046875 16.44726562 C-5.71429688 14.95743164 -5.71429688 14.95743164 -5.375 13.4375 C-5.14554687 12.44041016 -4.91609375 11.44332031 -4.6796875 10.41601562 C-4.11232266 7.94561454 -3.55279846 5.47369412 -3 3 C-2.34 3 -1.68 3 -1 3 C-0.67 2.01 -0.34 1.02 0 0 Z "
          fill="#027EC3" transform="translate(74,120)"/>
    <path d="M0 0 C0.6875 1.8125 0.6875 1.8125 1 4 C0.51660156 4.42152344 0.03320312 4.84304687 -0.46484375 5.27734375 C-2.64615914 7.72507934 -2.26639007 9.52115523 -2.25 12.75 C-2.50488173 17.43415975 -3.02909619 19.78059365 -6.4375 23.0625 C-7.05496094 23.56910156 -7.67242187 24.07570313 -8.30859375 24.59765625 C-11.05454974 26.87432646 -11.9912204 28.96839343 -12.9375 32.375 C-13.91843285 35.72171206 -15.01687992 38.15465379 -17 41 C-17.33 41 -17.66 41 -18 41 C-18.47989126 34.4014952 -17.35029917 29.73681365 -14 24 C-12 22 -12 22 -10 20 C-8.50074553 17.06938182 -7.26925532 14.03563563 -6 11 C-4.17563113 7.20531275 -2.21254295 3.58221239 0 0 Z "
          fill="#0090D6" transform="translate(93,79)"/>
    <path d="M0 0 C3.32655025 2.60338715 3.49544568 4.91120601 4 9 C4.11462124 11.51900157 4.17477762 14.04092409 4.1875 16.5625 C4.20167969 17.84253906 4.21585938 19.12257812 4.23046875 20.44140625 C4.01131742 23.82525136 3.44339611 25.97369737 2 29 C1.67 29.886875 1.34 30.77375 1 31.6875 C-1.8262168 34.95531317 -4.65525992 35.03699419 -8.8203125 35.640625 C-10.97221584 35.77799697 -10.97221584 35.77799697 -12 37 C-13.66617115 37.04063832 -15.33388095 37.042721 -17 37 C-13.39252376 34.06057491 -9.76913001 32.64724268 -5.4375 31.0625 C-2.92131696 29.96570227 -1.04601867 28.82680239 1 27 C1.33 26.01 1.66 25.02 2 24 C0.68 24.33 -0.64 24.66 -2 25 C-1.67 24.01 -1.34 23.02 -1 22 C-0.34 22 0.32 22 1 22 C1.09377123 14.58165418 1.17402193 7.33763707 0 0 Z "
          fill="#6FC3FD" transform="translate(150,121)"/>
    <path d="M0 0 C0.99 0 1.98 0 3 0 C6 6.625 6 6.625 6 10 C6.66 10 7.32 10 8 10 C11 16.625 11 16.625 11 20 C11.99 20.33 12.98 20.66 14 21 C15.08301035 23.29598193 16.07796291 25.63477442 17 28 C17.4125 28.70125 17.825 29.4025 18.25 30.125 C19.27398158 32.68495395 18.72332877 34.39601642 18 37 C16 35 16 35 14.75 31.4375 C13.58548932 28.16157853 12.13685076 25.58206684 10.125 22.75 C5.3075081 15.83534123 2.5957353 7.96418784 0 0 Z "
          fill="#0266AD" transform="translate(134,50)"/>
    <path d="M0 0 C0 4.07566938 -1.37141793 6.96702069 -4 10 C-6.97379938 11.18951975 -8.89133739 11.66379668 -12 12 C-13.09054688 12.11988281 -14.18109375 12.23976562 -15.3046875 12.36328125 C-24.3907476 13.20308413 -24.3907476 13.20308413 -28 12 C-27 11 -27 11 -23.875 10.625 C-20.48156488 10.07767176 -18.03921993 9.20311103 -14.96484375 7.74609375 C-12.58029657 6.84062951 -10.26918719 6.50891097 -7.75 6.125 C-3.69163921 5.44038973 -3.69163921 5.44038973 -0.875 2.375 C-0.58625 1.59125 -0.2975 0.8075 0 0 Z "
          fill="#43C2FF" transform="translate(152,149)"/>
    <path d="M0 0 C1.07382022 2.70981691 1.10715731 3.74419213 -0.0390625 6.48046875 C-0.56242187 7.37378906 -1.08578125 8.26710938 -1.625 9.1875 C-2.18058594 10.156875 -2.73617187 11.12625 -3.30859375 12.125 C-3.86675781 13.07375 -4.42492187 14.0225 -5 15 C-7.55693965 19.41975164 -9.97425395 23.67721238 -11.6875 28.5 C-13 32 -13 32 -15 33 C-14.979375 32.2575 -14.95875 31.515 -14.9375 30.75 C-14.99328688 28.29537721 -15.3069904 26.33890739 -16 24 C-15.38648682 23.74186523 -14.77297363 23.48373047 -14.14086914 23.21777344 C-11.74670398 21.85591965 -11.04172614 20.90556034 -9.74609375 18.515625 C-9.36646484 17.82726562 -8.98683594 17.13890625 -8.59570312 16.4296875 C-8.21349609 15.71039063 -7.83128906 14.99109375 -7.4375 14.25 C-7.05142578 13.54617187 -6.66535156 12.84234375 -6.26757812 12.1171875 C-4.08808973 8.12207761 -2.00968614 4.0835795 0 0 Z "
          fill="#0077B9" transform="translate(96,69)"/>
    <path d="M0 0 C1.875 0.21875 1.875 0.21875 4 1 C5.125 2.96875 5.125 2.96875 6 5.5 C7.55117579 9.8136283 9.32600946 13.88734991 11.36328125 17.9921875 C12.12196001 20.38458555 11.81274275 21.66139829 11 24 C10.15504811 22.92570402 9.32445142 21.84010798 8.5 20.75 C8.0359375 20.14671875 7.571875 19.5434375 7.09375 18.921875 C6 17 6 17 6 13 C5.34 13 4.68 13 4 13 C3.32694982 11.39850114 2.66177773 9.79368971 2 8.1875 C1.62875 7.29417969 1.2575 6.40085937 0.875 5.48046875 C0 3 0 3 0 0 Z "
          fill="#0067A6" transform="translate(153,87)"/>
    <path d="M0 0 C3.07692308 5.41538462 3.07692308 5.41538462 2.6875 8.375 C2.460625 8.91125 2.23375 9.4475 2 10 C1.01 8.35 0.02 6.7 -1 5 C-3.72574271 5.37330824 -4.80822085 5.79194601 -6.703125 7.84765625 C-7.21359375 8.57855469 -7.7240625 9.30945313 -8.25 10.0625 C-8.77078125 10.79597656 -9.2915625 11.52945313 -9.828125 12.28515625 C-10.40820312 13.13400391 -10.40820312 13.13400391 -11 14 C-12.30045636 11.39908727 -11.78732009 10.2944464 -11.125 7.5 C-10.94195312 6.7059375 -10.75890625 5.911875 -10.5703125 5.09375 C-10 3 -10 3 -9 1 C-5.8035914 -0.06546953 -3.34252724 -0.07427838 0 0 Z "
          fill="#0496D8" transform="translate(122,27)"/>
    <path d="M0 0 C3.0916909 2.52956528 3.90931332 5.22454612 5 9 C5.66 8.01 6.32 7.02 7 6 C7.66 7.65 8.32 9.3 9 11 C8.34 11 7.68 11 7 11 C7.30035156 11.67804688 7.60070312 12.35609375 7.91015625 13.0546875 C10.67915029 19.83168308 11.43476392 24.81058512 10 32 C9.67 32 9.34 32 9 32 C8.67 27.71 8.34 23.42 8 19 C6.68 19 5.36 19 4 19 C3.87882813 18.13117188 3.75765625 17.26234375 3.6328125 16.3671875 C3.46523437 15.21476562 3.29765625 14.06234375 3.125 12.875 C2.96257812 11.73804687 2.80015625 10.60109375 2.6328125 9.4296875 C2.02568583 6.13921085 1.13654367 3.14220897 0 0 Z "
          fill="#0079BD" transform="translate(146,76)"/>
    <path d="M0 0 C0.66 0 1.32 0 2 0 C2.49087424 5.33416674 0.9202923 8.7805746 -1.75 13.25 C-2.09804687 13.87390625 -2.44609375 14.4978125 -2.8046875 15.140625 C-4.75600353 18.49399773 -6.23839382 20.74613127 -10 22 C-9.01 18.535 -9.01 18.535 -8 15 C-7.34 15 -6.68 15 -6 15 C-5.814375 13.9171875 -5.814375 13.9171875 -5.625 12.8125 C-5.0095069 10.04278106 -4.11555626 7.6029646 -3 5 C-2.34 5 -1.68 5 -1 5 C-0.67 3.35 -0.34 1.7 0 0 Z "
          fill="#016CAB" transform="translate(91,71)"/>
    <path d="M0 0 C1.32 0.33 2.64 0.66 4 1 C4.08226668 4.04386724 3.97608217 6.07175348 3 9 C2.64763503 10.99673484 2.31165441 12.99650739 2 15 C0.68 15.33 -0.64 15.66 -2 16 C-2.05423638 14.08364783 -2.09289963 12.16685075 -2.125 10.25 C-2.14820313 9.18265625 -2.17140625 8.1153125 -2.1953125 7.015625 C-2.00487687 4.07529894 -1.52670104 2.47638122 0 0 Z "
          fill="#1485C4" transform="translate(64,145)"/>
    <path d="M0 0 C2.09749995 2.35968744 2.96905704 3.54616994 3.1875 6.75 C3.0946875 7.86375 3.0946875 7.86375 3 9 C3.66 9 4.32 9 5 9 C5.48301203 10.70725008 5.96121958 12.41585974 6.4375 14.125 C6.83775391 15.55199219 6.83775391 15.55199219 7.24609375 17.0078125 C8.59872686 22.37629418 9.11900402 27.33760582 9.0625 32.875 C9.05347656 34.02742188 9.04445312 35.17984375 9.03515625 36.3671875 C9.02355469 37.23601562 9.01195312 38.10484375 9 39 C8.67 39 8.34 39 8 39 C7.34 32.07 6.68 25.14 6 18 C5.01 18.33 4.02 18.66 3 19 C2.67 14.38 2.34 9.76 2 5 C1.34 5 0.68 5 0 5 C0 3.35 0 1.7 0 0 Z "
          fill="#007EC4" transform="translate(162,111)"/>
    <path d="M0 0 C1.33547544 3.3386886 0.68088389 5.59186751 -0.39453125 8.93359375 C-1.33057985 12.12823705 -1.85975723 15.39237358 -2.4375 18.66796875 C-3 21 -3 21 -4.0234375 23.00390625 C-5.15285271 25.31243094 -5.39988544 27.19870163 -5.625 29.75 C-5.69976562 30.54921875 -5.77453125 31.3484375 -5.8515625 32.171875 C-5.90054688 32.77515625 -5.94953125 33.3784375 -6 34 C-6.33 34 -6.66 34 -7 34 C-7.05449838 32.27119018 -7.09301688 30.54187288 -7.125 28.8125 C-7.14820312 27.84957031 -7.17140625 26.88664062 -7.1953125 25.89453125 C-6.98815447 22.82444919 -6.17042359 20.82456469 -5 18 C-4.59319164 15.77983672 -4.24098797 13.54912985 -3.9375 11.3125 C-3.09984399 5.19968799 -3.09984399 5.19968799 -2 3 C-1.34 3 -0.68 3 0 3 C0 2.01 0 1.02 0 0 Z "
          fill="#B2E5FF" transform="translate(94,105)"/>
    <path d="M0 0 C0.33 0 0.66 0 1 0 C1.02578125 1.21816406 1.0515625 2.43632812 1.078125 3.69140625 C1.13443941 5.31513835 1.19178597 6.93883489 1.25 8.5625 C1.26417969 9.36236328 1.27835937 10.16222656 1.29296875 10.98632812 C1.53016965 16.79775029 2.83537276 20.1313427 6 25 C6.72045764 26.9812585 7.40781343 28.97669589 8 31 C6.25 30.9375 6.25 30.9375 4 30 C-0.62857395 23.87394624 -0.49165672 18.54921102 -0.25 11.0625 C-0.23195313 9.99708984 -0.21390625 8.93167969 -0.1953125 7.83398438 C-0.14845557 5.22171071 -0.08286926 2.61133774 0 0 Z "
          fill="#48C0FF" transform="translate(85,127)"/>
    <path d="M0 0 C0.33 0.66 0.66 1.32 1 2 C1.99 2.33 2.98 2.66 4 3 C4.87890625 4.70703125 4.87890625 4.70703125 5.5625 6.8125 C6.33739094 9.11667306 7.03999069 11.06998371 8.25 13.1875 C9.29334519 15.70891754 8.71451302 17.42775312 8 20 C7.01 19.34 6.02 18.68 5 18 C4.375 14.5625 4.375 14.5625 4 11 C3.67 10.01 3.34 9.02 3 8 C2.01 7.67 1.02 7.34 0 7 C0 4.69 0 2.38 0 0 Z "
          fill="#16A5E7" transform="translate(125,37)"/>
    <path d="M0 0 C0.99 0 1.98 0 3 0 C2.67041512 2.91555856 2.21595722 3.82563454 -0.109375 5.703125 C-0.98078125 6.21359375 -1.8521875 6.7240625 -2.75 7.25 C-3.61109375 7.77078125 -4.4721875 8.2915625 -5.359375 8.828125 C-8.15717028 10.06975013 -9.97765327 10.23917852 -13 10 C-13 9.34 -13 8.68 -13 8 C-12.22914063 7.59007812 -11.45828125 7.18015625 -10.6640625 6.7578125 C-9.66117188 6.21898437 -8.65828125 5.68015625 -7.625 5.125 C-6.62726563 4.59132812 -5.62953125 4.05765625 -4.6015625 3.5078125 C-1.94651605 2.1179862 -1.94651605 2.1179862 0 0 Z "
          fill="#78CBFF" transform="translate(149,145)"/>
    <path d="M0 0 C0.33 0 0.66 0 1 0 C1.3006091 5.51116684 0.70947223 9.52361433 -1.2109375 14.68359375 C-2.277948 17.81595627 -2.83181717 20.990903 -3.375 24.25 C-3.58125 24.8275 -3.7875 25.405 -4 26 C-4.99 26.33 -5.98 26.66 -7 27 C-2.96127563 7.99544419 -2.96127563 7.99544419 0 0 Z "
          fill="#8CD2FE" transform="translate(102,77)"/>
    <path d="M0 0 C1.11621094 3.72509766 1.11621094 3.72509766 0.0703125 6.19921875 C-1.42210933 10.10457078 -1.2152016 13.67363414 -1.125 17.8125 C-1.11597656 18.60076172 -1.10695313 19.38902344 -1.09765625 20.20117188 C-1.07422504 22.13424666 -1.03835838 24.0671638 -1 26 C-0.360625 26.268125 0.27875 26.53625 0.9375 26.8125 C3 28 3 28 4 31 C0.34683329 29.75023244 -0.78065836 29.32901247 -3 26 C-3.22376316 23.0620188 -3.32437104 20.24939504 -3.3125 17.3125 C-3.32861328 16.53455078 -3.34472656 15.75660156 -3.36132812 14.95507812 C-3.36602292 9.32601994 -2.2368776 5.16429524 0 0 Z "
          fill="#85D2FF" transform="translate(89,119)"/>
    <path d="M0 0 C-1 3 -1 3 -3 4 C-4.59447464 4.08400529 -6.19240545 4.10727467 -7.7890625 4.09765625 C-8.73007813 4.09443359 -9.67109375 4.09121094 -10.640625 4.08789062 C-11.62546875 4.07951172 -12.6103125 4.07113281 -13.625 4.0625 C-14.61757812 4.05798828 -15.61015625 4.05347656 -16.6328125 4.04882812 C-19.0886016 4.03702145 -21.54427104 4.020554 -24 4 C-23.67 3.34 -23.34 2.68 -23 2 C-21.80761719 1.93941406 -20.61523438 1.87882813 -19.38671875 1.81640625 C-17.82030075 1.73198851 -16.25389512 1.64734113 -14.6875 1.5625 C-13.90181641 1.52318359 -13.11613281 1.48386719 -12.30664062 1.44335938 C-11.54931641 1.40146484 -10.79199219 1.35957031 -10.01171875 1.31640625 C-9.31522217 1.27974854 -8.61872559 1.24309082 -7.90112305 1.20532227 C-5.08272835 0.90093419 -2.89750208 0 0 0 Z "
          fill="#35C7FF" transform="translate(133,205)"/>
    <path d="M0 0 C0.75 1.625 0.75 1.625 1 4 C-0.3125 7.125 -0.3125 7.125 -3 10 C-5.62283495 10.8451357 -8.12686911 11.30424426 -10.85546875 11.67578125 C-12.97744645 11.77962657 -12.97744645 11.77962657 -14 13 C-15.66617115 13.04063832 -17.33388095 13.042721 -19 13 C-15.39252376 10.06057491 -11.76913001 8.64724268 -7.4375 7.0625 C-4.92131696 5.96570227 -3.04601867 4.82680239 -1 3 C-0.67 2.01 -0.34 1.02 0 0 Z "
          fill="#5DC2FE" transform="translate(152,145)"/>
    <path d="M0 0 C1.38782848 4.16348545 0.88763779 7.73933859 0 12 C-1.46140208 14.47802961 -2.9718202 15.9718202 -5 18 C-5.48321946 11.35573245 -4.18443566 6.84452648 -1 1 C-0.67 0.67 -0.34 0.34 0 0 Z "
          fill="#0085CC" transform="translate(80,102)"/>
    <path d="M0 0 C1.59840451 4.01650365 0.36239419 7.52164577 -0.75 11.5 C-1.00523438 12.49580078 -1.00523438 12.49580078 -1.265625 13.51171875 C-2.28062992 17.25081775 -3.41752327 20.09100322 -6 23 C-5.36209974 18.92351357 -4.5595227 14.94108854 -3.5625 10.9375 C-3.19318359 9.43509766 -3.19318359 9.43509766 -2.81640625 7.90234375 C-2.04764205 5.16936864 -1.10701375 2.6117857 0 0 Z "
          fill="#88D0FE" transform="translate(109,54)"/>
    <path d="M0 0 C0.99 0.33 1.98 0.66 3 1 C5.1381926 6.98693927 5.06442186 11.78607779 4 18 C3.67 18 3.34 18 3 18 C2.67 13.71 2.34 9.42 2 5 C1.34 5 0.68 5 0 5 C0 3.35 0 1.7 0 0 Z "
          fill="#0083C8" transform="translate(152,90)"/>
    <path d="M0 0 C0.33 0.66 0.66 1.32 1 2 C0.29460211 3.88106104 -0.41676635 5.7601876 -1.1640625 7.625 C-2.57926956 11.64577519 -3.27005937 15.80928202 -4 20 C-4.33 20 -4.66 20 -5 20 C-5.48389805 12.25763123 -4.38869494 6.58304241 0 0 Z "
          fill="#21B0F2" transform="translate(113,37)"/>
    <path d="M0 0 C3.77720794 4.49667612 6 9.0971218 6 15 C5.01 14.67 4.02 14.34 3 14 C2.05078125 11.85546875 2.05078125 11.85546875 1.3125 9.1875 C1.06113281 8.31480469 0.80976563 7.44210938 0.55078125 6.54296875 C0 4 0 4 0 0 Z "
          fill="#96D4FE" transform="translate(144,106)"/>
    <path d="M0 0 C0.66 0.66 1.32 1.32 2 2 C1.625 3.9375 1.625 3.9375 1 6 C1 6.99 1 7.98 1 9 C-1 10.6875 -1 10.6875 -3 12 C-2.88541307 10.56163249 -2.75790884 9.12429034 -2.625 7.6875 C-2.55539063 6.88699219 -2.48578125 6.08648437 -2.4140625 5.26171875 C-2 3 -2 3 0 0 Z "
          fill="#0086CD" transform="translate(74,120)"/>
    <path d="M0 0 C0.33 0 0.66 0 1 0 C1.46450943 6.50313209 0.32575612 10.4174808 -3 16 C-4.49828872 12.11764181 -3.43110582 9.56550712 -2.0625 5.75 C-1.68222656 4.67234375 -1.30195312 3.5946875 -0.91015625 2.484375 C-0.45962891 1.25460938 -0.45962891 1.25460938 0 0 Z "
          fill="#CCEFFF" transform="translate(104,79)"/>
    <path d="M0 0 C1.60080151 4.00200378 0.29279692 7.04556236 -1 11 C-1.66 11 -2.32 11 -3 11 C-3.33 11.99 -3.66 12.98 -4 14 C-3.85892253 12.54119891 -3.71197585 11.08296449 -3.5625 9.625 C-3.48128906 8.81289062 -3.40007812 8.00078125 -3.31640625 7.1640625 C-3 5 -3 5 -2 3 C-1.34 3 -0.68 3 0 3 C0 2.01 0 1.02 0 0 Z "
          fill="#85D2FE" transform="translate(94,105)"/>
    <path d="M0 0 C5.73062382 4.38941399 5.73062382 4.38941399 6.9375 7.125 C7 9 7 9 6 12 C5.34 12 4.68 12 4 12 C3.3291288 10.3767313 2.66342971 8.75132422 2 7.125 C1.62875 6.22007813 1.2575 5.31515625 0.875 4.3828125 C0 2 0 2 0 0 Z "
          fill="#058CC8" transform="translate(122,27)"/>
    <path d="M0 0 C0.68359375 1.640625 0.68359375 1.640625 1 4 C-0.21484375 6.796875 -0.21484375 6.796875 -1.9375 9.75 C-2.50339844 10.73484375 -3.06929688 11.7196875 -3.65234375 12.734375 C-4.09707031 13.48203125 -4.54179688 14.2296875 -5 15 C-5.68359375 13.359375 -5.68359375 13.359375 -6 11 C-4.78515625 8.203125 -4.78515625 8.203125 -3.0625 5.25 C-2.49660156 4.26515625 -1.93070312 3.2803125 -1.34765625 2.265625 C-0.90292969 1.51796875 -0.45820312 0.7703125 0 0 Z "
          fill="#0083C8" transform="translate(96,69)"/>
    <path d="M0 0 C0 4.03344263 -1.41649815 6.97722838 -4 10 C-6.38666171 11.17544367 -8.34054893 11.53971039 -11 12 C-11.33 11.34 -11.66 10.68 -12 10 C-10.35 10 -8.7 10 -7 10 C-6.67 9.01 -6.34 8.02 -6 7 C-5.01 6.34 -4.02 5.68 -3 5 C-1.94895617 3.36504293 -0.94011682 1.70116376 0 0 Z "
          fill="#31B6FE" transform="translate(152,149)"/>
    <path d="M0 0 C0.66 0 1.32 0 2 0 C5.07692308 5.41538462 5.07692308 5.41538462 4.6875 8.375 C4.460625 8.91125 4.23375 9.4475 4 10 C3.01 8.35 2.02 6.7 1 5 C-1.16874252 5.50603992 -2.99967627 5.99983813 -5 7 C-4.34 5.68 -3.68 4.36 -3 3 C-2.01 3 -1.02 3 0 3 C0 2.01 0 1.02 0 0 Z "
          fill="#2AB2F1" transform="translate(120,27)"/>
    <path d="M0 0 C0.66 0 1.32 0 2 0 C2.309375 0.804375 2.61875 1.60875 2.9375 2.4375 C3.76335345 4.89080405 3.76335345 4.89080405 5 6 C5.04063832 7.66617115 5.042721 9.33388095 5 11 C4.01 11.495 4.01 11.495 3 12 C2.67 9.69 2.34 7.38 2 5 C1.34 5 0.68 5 0 5 C0 3.35 0 1.7 0 0 Z "
          fill="#007BC0" transform="translate(157,100)"/>
    <path d="M0 0 C1.09658936 3.28976808 0.79953138 4.71303767 0 8 C-1.65 8.33 -3.3 8.66 -5 9 C-4.42647107 5.12867972 -2.51295648 2.91827204 0 0 Z "
          fill="#01A7ED" transform="translate(102,69)"/>
    <path d="M0 0 C0.66 0 1.32 0 2 0 C1.71890887 1.64767247 1.42481474 3.29313145 1.125 4.9375 C0.96257812 5.85402344 0.80015625 6.77054688 0.6328125 7.71484375 C0.42398438 8.46894531 0.21515625 9.22304688 0 10 C-0.99 10.495 -0.99 10.495 -2 11 C-3.125 5.25 -3.125 5.25 -2 3 C-1.34 3 -0.68 3 0 3 C0 2.01 0 1.02 0 0 Z "
          fill="#0084C1" transform="translate(110,33)"/>
    <path d="M0 0 C0.33 0 0.66 0 1 0 C0.67 2.64 0.34 5.28 0 8 C-0.99 8.33 -1.98 8.66 -3 9 C-3.73323796 11.01508358 -3.73323796 11.01508358 -4 13 C-5 11 -5 11 -4.1875 8.5 C-3 6 -3 6 -1 4 C-0.3574765 1.93125966 -0.3574765 1.93125966 0 0 Z "
          fill="#066CA5" transform="translate(67,136)"/>
    <path d="M0 0 C0.99 0 1.98 0 3 0 C2.40075776 4.19469571 1.42500059 8.00999834 0 12 C-1.53166168 7.91556885 -0.63081652 4.20544343 0 0 Z "
          fill="#34B9FE" transform="translate(87,115)"/>
    <path d="M0 0 C2.15229884 3.22844826 2.60309873 5.18974777 3 9 C2.67 9.99 2.34 10.98 2 12 C1.34 12 0.68 12 0 12 C0.020625 11.21625 0.04125 10.4325 0.0625 9.625 C0.18684063 7.01885039 0.18684063 7.01885039 -1 5 C-0.72057545 3.32345271 -0.39171753 1.65391846 0 0 Z "
          fill="#01A5EB" transform="translate(134,58)"/>
    <path d="M0 0 C0.6875 1.75 0.6875 1.75 1 4 C-0.3125 6.0625 -0.3125 6.0625 -2 8 C-2.66 8.99 -3.32 9.98 -4 11 C-3.38461538 3.49230769 -3.38461538 3.49230769 -1.4375 1 C-0.963125 0.67 -0.48875 0.34 0 0 Z "
          fill="#D1F2FE" transform="translate(114,45)"/>
    <path d="M0 0 C0.99 0.33 1.98 0.66 3 1 C3.625 3.375 3.625 3.375 4 6 C3.34 6.66 2.68 7.32 2 8 C0 6 0 6 -0.125 2.875 C-0.08375 1.92625 -0.0425 0.9775 0 0 Z "
          fill="#009EE4" transform="translate(130,49)"/>
    <path d="M0 0 C1.32 0.33 2.64 0.66 4 1 C4.66 3.31 5.32 5.62 6 8 C5.34 7.67 4.68 7.34 4 7 C4 6.34 4 5.68 4 5 C2.68 4.34 1.36 3.68 0 3 C0 2.01 0 1.02 0 0 Z "
          fill="#006792" transform="translate(153,87)"/>
    <path d="M0 0 C2.10633718 1.70828921 2.93801608 2.52148416 3.29296875 5.26171875 C3.25816406 6.06222656 3.22335938 6.86273438 3.1875 7.6875 C3.16042969 8.49574219 3.13335937 9.30398437 3.10546875 10.13671875 C3.07066406 10.75160156 3.03585938 11.36648437 3 12 C0.97649676 8.96474514 0.67875982 7.80573798 0.375 4.3125 C0.30023438 3.50425781 0.22546875 2.69601563 0.1484375 1.86328125 C0.09945312 1.24839844 0.05046875 0.63351563 0 0 Z "
          fill="#43BAF7" transform="translate(127,45)"/>
    <path d="M0 0 C0.97744926 3.04095325 1.16271218 4.99632687 0 8 C-0.97630424 9.02314712 -1.97414532 10.02654113 -3 11 C-2.69078116 9.54096742 -2.37751201 8.08279278 -2.0625 6.625 C-1.88847656 5.81289062 -1.71445313 5.00078125 -1.53515625 4.1640625 C-1 2 -1 2 0 0 Z "
          fill="#CEF2FF" transform="translate(99,98)"/>
    <path d="M0 0 C0 0.99 0 1.98 0 3 C-1.65 3.66 -3.3 4.32 -5 5 C-5 4.01 -5 3.02 -5 2 C-5.66 1.67 -6.32 1.34 -7 1 C-4 0 -4 0 0 0 Z "
          fill="#0BAAEA" transform="translate(120,27)"/>
    <path d="M0 0 C3.2542015 2.83430453 4.5206753 4.68607774 5 9 C2.5 6.75 2.5 6.75 0 4 C0 2.68 0 1.36 0 0 Z "
          fill="#5EC7FF" transform="translate(86,145)"/>
    <path d="M0 0 C0.33 0.66 0.66 1.32 1 2 C0.22265625 3.9453125 0.22265625 3.9453125 -0.9375 6.125 C-1.31777344 6.84945312 -1.69804688 7.57390625 -2.08984375 8.3203125 C-2.39019531 8.87460937 -2.69054687 9.42890625 -3 10 C-3.62109375 8.203125 -3.62109375 8.203125 -4 6 C-2.0625 2.75 -2.0625 2.75 0 0 Z "
          fill="#0093D7" transform="translate(109,43)"/>
    <path d="M0 0 C1.03348696 3.10046087 1.17755913 4.05610218 0 7 C-0.99 7.33 -1.98 7.66 -3 8 C-2.45276317 4.62537285 -1.9451 2.91765 0 0 Z "
          fill="#007BC0" transform="translate(80,102)"/>
</svg>
