<?xml version="1.0" encoding="UTF-8"?>
<svg version="1.1" xmlns="http://www.w3.org/2000/svg" width="32" height="32" viewBox="0 0 240 240">
    <path d="M0 0 C1.65 0 3.3 0 5 0 C5 0.99 5 1.98 5 3 C4.34 3 3.68 3 3 3 C2.81 4.33 2.81 4.33 2.62 5.69 C2.06 8.7 1.23 11.2 0 14 C-0.66 14 -1.32 14 -2 14 C-2.19 14.84 -2.19 14.84 -2.38 15.69 C-3.06 18.22 -3.99 20.58 -5 23 C-5.66 23 -6.32 23 -7 23 C-7.19 24.08 -7.19 24.08 -7.38 25.19 C-7.99 27.96 -8.88 30.4 -10 33 C-10.66 33 -11.32 33 -12 33 C-12.12 33.72 -12.25 34.44 -12.38 35.19 C-12.99 37.96 -13.88 40.4 -15 43 C-15.66 43 -16.32 43 -17 43 C-17.99 45.97 -18.98 48.94 -20 52 C-20.66 52 -21.32 52 -22 52 C-22.99 55.3 -23.98 58.6 -25 62 C-25.66 62 -26.32 62 -27 62 C-27.18 62.59 -27.36 63.18 -27.55 63.79 C-27.8 64.58 -28.05 65.37 -28.31 66.19 C-28.56 66.96 -28.8 67.74 -29.05 68.54 C-30 71 -30 71 -33 76 C-0.33 76.5 -0.33 76.5 33 77 C33 82 33 82 30.81 84.5 C29.88 85.33 28.96 86.15 28 87 C27.18 87.89 26.35 88.77 25.5 89.69 C23 92 23 92 20.31 93.06 C17.44 94.23 17.23 95.27 16 98 C14.52 98.5 14.52 98.5 13 99 C12.67 99.66 12.34 100.32 12 101 C11.67 101.66 11.34 102.32 11 103 C9.52 103.5 9.52 103.5 8 104 C8 104.66 8 105.32 8 106 C6.98 106.56 6.98 106.56 5.94 107.12 C3.1 108.94 1.62 110.5 -0.5 113.06 C-3.14 116.23 -5.02 117.71 -9 119 C-9.49 120.48 -9.49 120.48 -10 122 C-11.78 123.72 -11.78 123.72 -13.94 125.5 C-16.51 127.63 -18.12 129.18 -20 132 C-21.33 132.67 -22.66 133.34 -24 134 C-25.56 135.54 -25.56 135.54 -26.94 137.31 C-30.82 142 -34.51 146.18 -40 149 C-40.66 149 -41.32 149 -42 149 C-42.27 149.64 -42.54 150.28 -42.81 150.94 C-44 153 -44 153 -47 154 C-47.31 154.66 -47.62 155.32 -47.94 156 C-48.46 156.99 -48.46 156.99 -49 158 C-50.33 158.33 -51.67 158.67 -53 159 C-53.3 159.61 -53.6 160.22 -53.91 160.84 C-55.12 163.25 -56.34 164.34 -58.44 166 C-61.07 168.15 -62.98 170.27 -65 173 C-65.99 173.33 -66.98 173.66 -68 174 C-69.68 175.69 -69.68 175.69 -71.31 177.75 C-74.29 181.26 -77.39 184.13 -81 187 C-82.38 188.18 -83.76 189.37 -85.12 190.56 C-86.14 191.45 -86.14 191.45 -87.18 192.35 C-89.13 194.07 -89.13 194.07 -91.25 196.44 C-93 198 -93 198 -97 198 C-96.3 194.85 -95.24 191.97 -94 189 C-93.34 189 -92.68 189 -92 189 C-90.92 186.35 -89.91 183.72 -89 181 C-88.34 180.67 -87.68 180.34 -87 180 C-85.95 178.02 -84.95 176.03 -84 174 C-83.34 174 -82.68 174 -82 174 C-80.92 171.35 -79.91 168.72 -79 166 C-78.34 165.67 -77.68 165.34 -77 165 C-75.95 163.02 -74.95 161.03 -74 159 C-73.34 159 -72.68 159 -72 159 C-70.92 156.35 -69.91 153.72 -69 151 C-68.34 150.67 -67.68 150.34 -67 150 C-65.95 148.02 -64.95 146.03 -64 144 C-63.34 144 -62.68 144 -62 144 C-61.69 143.22 -61.38 142.43 -61.06 141.62 C-60 139 -60 139 -59 137 C-58.34 137 -57.68 137 -57 137 C-56.73 136.03 -56.46 135.06 -56.19 134.06 C-55.8 133.05 -55.4 132.04 -55 131 C-54.01 130.67 -53.02 130.34 -52 130 C-51.39 128.14 -51.39 128.14 -51 126 C-50.36 124.65 -49.7 123.31 -49 122 C-48.34 122 -47.68 122 -47 122 C-46.73 121.03 -46.46 120.06 -46.19 119.06 C-45.8 118.05 -45.4 117.04 -45 116 C-44.01 115.67 -43.02 115.34 -42 115 C-42 114.01 -42 113.02 -42 112 C-73.68 111.5 -73.68 111.5 -106 111 C-106 105 -106 105 -103.81 102.44 C-102.88 101.63 -101.96 100.83 -101 100 C-100.17 99.17 -99.35 98.35 -98.5 97.5 C-40 39 -40 39 -37.72 36.72 C-35.28 34.28 -32.85 31.84 -30.42 29.39 C-28.05 27.01 -25.68 24.63 -23.31 22.25 C-22.06 21 -20.81 19.74 -19.56 18.49 C-17.75 16.66 -15.94 14.84 -14.12 13.02 C-13.29 12.18 -13.29 12.18 -12.44 11.33 C-7.14 6.02 -7.14 6.02 -4 4 C-3.34 4 -2.68 4 -2 4 C-1.34 2.68 -0.68 1.36 0 0 Z "
          fill="#FEB202" transform="translate(157,9)"/>
    <path d="M0 0 C0.66 0.33 1.32 0.66 2 1 C0.98 4.06 -0.09 5.19 -2.35 7.36 C-6.08 11.07 -9.51 15.07 -13 19 C-13.61 19.68 -14.22 20.37 -14.86 21.07 C-19.44 26.25 -23.66 31.58 -28 37 C1.21 37.49 1.21 37.49 31 38 C29 43 29 43 27 45 C26.58 46.11 26.58 46.11 26.16 47.25 C24.74 50.61 22.7 53.24 20.44 56.06 C19.54 57.21 18.64 58.35 17.74 59.5 C17.29 60.07 16.83 60.65 16.36 61.25 C13.47 64.96 10.7 68.76 7.91 72.54 C6.36 74.54 4.93 76.36 3 78 C2.34 78 1.68 78 1 78 C0.91 79.08 0.91 79.08 0.81 80.19 C-0.27 83.93 -2.19 85.31 -5 88 C-10.05 94.05 -14.54 100.51 -19 107 C-15.51 104.34 -12.61 101.58 -9.75 98.25 C-6.73 94.82 -3.66 91.72 -0.19 88.75 C2.36 86.55 4.07 84.9 5.94 82.06 C8.62 78.08 11.98 75.27 15.59 72.12 C17.49 70.45 19.26 68.77 21 66.94 C23 65 23 65 25 65 C25.29 64.4 25.58 63.8 25.88 63.19 C27 61 27 61 29 58 C29.66 58 30.32 58 31 58 C31.23 57.45 31.46 56.89 31.7 56.32 C33.36 53.35 35.46 51.28 37.87 48.87 C38.34 48.39 38.82 47.91 39.31 47.42 C40.31 46.41 41.32 45.41 42.33 44.41 C43.87 42.88 45.4 41.34 46.93 39.8 C47.91 38.82 48.89 37.84 49.87 36.87 C50.76 35.98 51.64 35.1 52.56 34.18 C54.71 32.26 56.45 31.25 59 30 C59.99 28.52 59.99 28.52 61 27 C61.33 27.33 61.66 27.66 62 28 C68.67 28.53 73.21 26.74 78.81 23.25 C79.53 22.84 80.26 22.43 81 22 C81.66 22.33 82.32 22.66 83 23 C83 25 83 25 81.64 26.44 C78.16 29.41 75.27 31.29 71 33 C69.87 35.02 69.87 35.02 69 37 C67.52 37.49 67.52 37.49 66 38 C65.5 38.99 65.5 38.99 65 40 C64.5 40.99 64.5 40.99 64 42 C62.52 42.49 62.52 42.49 61 43 C61 43.66 61 44.32 61 45 C60.32 45.37 59.64 45.74 58.94 46.12 C56.1 47.94 54.62 49.5 52.5 52.06 C49.86 55.23 47.98 56.71 44 58 C43.67 58.99 43.34 59.98 43 61 C41.22 62.72 41.22 62.72 39.06 64.5 C36.49 66.63 34.88 68.18 33 71 C31.67 71.67 30.34 72.34 29 73 C27.44 74.54 27.44 74.54 26.06 76.31 C22.18 81 18.49 85.18 13 88 C12.34 88 11.68 88 11 88 C10.73 88.64 10.46 89.28 10.19 89.94 C9 92 9 92 6 93 C5.69 93.66 5.38 94.32 5.06 95 C4.54 95.99 4.54 95.99 4 97 C2.67 97.33 1.33 97.67 0 98 C-0.45 98.91 -0.45 98.91 -0.91 99.84 C-2.12 102.25 -3.34 103.34 -5.44 105 C-8.07 107.15 -9.98 109.27 -12 112 C-12.99 112.33 -13.98 112.66 -15 113 C-16.68 114.69 -16.68 114.69 -18.31 116.75 C-21.29 120.26 -24.39 123.13 -28 126 C-29.38 127.18 -30.76 128.37 -32.12 129.56 C-33.14 130.45 -33.14 130.45 -34.18 131.35 C-36.13 133.07 -36.13 133.07 -38.25 135.44 C-40 137 -40 137 -44 137 C-43.3 133.85 -42.24 130.97 -41 128 C-40.34 128 -39.68 128 -39 128 C-37.92 125.35 -36.91 122.72 -36 120 C-35.01 119.5 -35.01 119.5 -34 119 C-32.95 117.02 -31.95 115.03 -31 113 C-30.34 113 -29.68 113 -29 113 C-27.92 110.35 -26.91 107.72 -26 105 C-25.01 104.5 -25.01 104.5 -24 104 C-22.95 102.02 -21.95 100.03 -21 98 C-20.34 98 -19.68 98 -19 98 C-17.92 95.35 -16.91 92.72 -16 90 C-15.34 89.67 -14.68 89.34 -14 89 C-12.95 87.02 -11.95 85.03 -11 83 C-10.34 83 -9.68 83 -9 83 C-8.69 82.22 -8.38 81.43 -8.06 80.62 C-7 78 -7 78 -6 76 C-5.34 76 -4.68 76 -4 76 C-3.73 75.03 -3.46 74.06 -3.19 73.06 C-2.8 72.05 -2.4 71.04 -2 70 C-1.01 69.67 -0.02 69.34 1 69 C1.61 67.14 1.61 67.14 2 65 C2.64 63.65 3.3 62.31 4 61 C4.66 61 5.32 61 6 61 C6.27 60.03 6.54 59.06 6.81 58.06 C7.4 56.55 7.4 56.55 8 55 C8.99 54.67 9.98 54.34 11 54 C11 53.01 11 52.02 11 51 C-20.68 50.51 -20.68 50.51 -53 50 C-53 44 -53 44 -50.81 41.44 C-49.88 40.63 -48.96 39.83 -48 39 C-45.33 36.39 -43.07 34.11 -41 31 C-37.38 30.31 -37.38 30.31 -34 30 C-34 29.34 -34 28.68 -34 28 C-30.28 23.92 -26.06 20.38 -21.89 16.77 C-19.92 15.13 -19.92 15.13 -19 13 C-17.89 12.6 -17.89 12.6 -16.76 12.2 C-13.29 10.69 -11.44 8.63 -8.88 5.88 C-6.3 3.12 -6.3 3.12 -4 1 C-3.01 1 -2.02 1 -1 1 C-0.67 0.67 -0.34 0.34 0 0 Z "
          fill="#FCA206" transform="translate(104,70)"/>
    <path d="M0 0 C0.66 0 1.32 0 2 0 C1.41 3.67 0.39 6.58 -1.31 9.88 C-1.98 11.17 -1.98 11.17 -2.66 12.49 C-4.38 15.7 -6.17 18.86 -8 22 C-8.33 22.66 -8.66 23.32 -9 24 C-9.66 24 -10.32 24 -11 24 C-11 24.66 -11 25.32 -11 26 C-11.66 26 -12.32 26 -13 26 C-12.91 26.67 -12.82 27.34 -12.73 28.02 C-13.12 32.27 -15.11 35.08 -17.38 38.62 C-17.79 39.29 -18.2 39.96 -18.62 40.65 C-20.37 43.47 -22.16 46.24 -24 49 C-24.33 50.65 -24.66 52.3 -25 54 C-6.85 54 11.3 54 30 54 C26.38 58.22 23 62.12 19.07 65.96 C18.17 66.85 17.27 67.73 16.35 68.64 C14.5 70.46 12.64 72.27 10.79 74.09 C5.97 78.84 1.52 83.59 -2.47 89.06 C-5.2 92.52 -8.62 95.19 -12 98 C-17.47 102.7 -22.05 106.94 -26 113 C-27.1 114.01 -28.23 114.99 -29.38 115.94 C-36.19 121.64 -42.01 128.45 -48 135 C-48.33 134.34 -48.66 133.68 -49 133 C-44.62 126.9 -40.18 120.85 -35.62 114.88 C-35.2 114.31 -34.77 113.74 -34.33 113.15 C-31.23 109.12 -31.23 109.12 -29 108 C-28.35 105.98 -28.35 105.98 -28 104 C-27.34 104 -26.68 104 -26 104 C-25.5 102.52 -25.5 102.52 -25 101 C-23.33 99.33 -21.67 97.67 -20 96 C-17.9 93.39 -15.92 90.7 -13.94 88 C-12.91 86.6 -11.87 85.21 -10.84 83.81 C-10.35 83.16 -9.87 82.5 -9.37 81.82 C-8.18 80.24 -6.94 78.69 -5.69 77.15 C-3.87 74.84 -3.07 72.73 -2 70 C-0.68 68.02 0.64 66.04 2 64 C-17.8 64 -37.6 64 -58 64 C-53.42 56.37 -47.57 50.28 -40.88 44.44 C-36.89 40.95 -33.78 37.3 -30.64 33.05 C-28.6 30.49 -26.28 28.57 -23.74 26.51 C-21.19 24.3 -19.07 21.78 -16.89 19.21 C-14.78 16.74 -12.61 14.34 -10.44 11.94 C-7.75 8.97 -5.12 5.96 -2.56 2.88 C-1.72 1.93 -0.87 0.98 0 0 Z "
          fill="#FFFECC" transform="translate(133,44)"/>
    <path d="M0 0 C0.99 0.33 1.98 0.66 3 1 C3 3 3 3 1.64 4.44 C-1.84 7.41 -4.73 9.29 -9 11 C-10.13 13.02 -10.13 13.02 -11 15 C-11.99 15.33 -12.98 15.66 -14 16 C-14.33 16.66 -14.66 17.32 -15 18 C-15.33 18.66 -15.66 19.32 -16 20 C-17.48 20.5 -17.48 20.5 -19 21 C-19 21.66 -19 22.32 -19 23 C-19.68 23.37 -20.36 23.74 -21.06 24.12 C-23.9 25.94 -25.38 27.5 -27.5 30.06 C-30.14 33.23 -32.02 34.71 -36 36 C-36.33 36.99 -36.66 37.98 -37 39 C-38.78 40.72 -38.78 40.72 -40.94 42.5 C-43.51 44.63 -45.12 46.18 -47 49 C-48.33 49.67 -49.66 50.34 -51 51 C-52.56 52.54 -52.56 52.54 -53.94 54.31 C-57.82 59 -61.51 63.18 -67 66 C-67.66 66 -68.32 66 -69 66 C-69.27 66.64 -69.54 67.28 -69.81 67.94 C-71 70 -71 70 -74 71 C-74.31 71.66 -74.62 72.32 -74.94 73 C-75.46 73.99 -75.46 73.99 -76 75 C-77.33 75.33 -78.67 75.67 -80 76 C-80.45 76.91 -80.45 76.91 -80.91 77.84 C-82.12 80.25 -83.34 81.34 -85.44 83 C-88.07 85.15 -89.98 87.27 -92 90 C-93.48 90.5 -93.48 90.5 -95 91 C-96.68 92.69 -96.68 92.69 -98.31 94.75 C-101.29 98.26 -104.39 101.13 -108 104 C-109.38 105.18 -110.76 106.37 -112.12 107.56 C-113.14 108.45 -113.14 108.45 -114.18 109.35 C-116.13 111.07 -116.13 111.07 -118.25 113.44 C-120 115 -120 115 -124 115 C-123.3 111.85 -122.24 108.97 -121 106 C-120.34 106 -119.68 106 -119 106 C-117.92 103.35 -116.91 100.72 -116 98 C-115.01 97.5 -115.01 97.5 -114 97 C-112.95 95.02 -111.95 93.03 -111 91 C-110.34 91 -109.68 91 -109 91 C-107.92 88.35 -106.91 85.72 -106 83 C-105.01 82.5 -105.01 82.5 -104 82 C-102.95 80.02 -101.95 78.03 -101 76 C-100.34 76 -99.68 76 -99 76 C-97.92 73.35 -96.91 70.72 -96 68 C-95.01 67.5 -95.01 67.5 -94 67 C-93.5 66.15 -93.01 65.31 -92.5 64.44 C-91.76 63.23 -91.76 63.23 -91 62 C-90.34 62 -89.68 62 -89 62 C-89.33 63.32 -89.66 64.64 -90 66 C-90.66 66 -91.32 66 -92 66 C-92.33 67.65 -92.66 69.3 -93 71 C-91.68 71.33 -90.36 71.66 -89 72 C-89.58 72.64 -89.58 72.64 -90.17 73.29 C-90.69 73.87 -91.21 74.46 -91.75 75.06 C-92.26 75.63 -92.77 76.2 -93.3 76.79 C-95.54 79.7 -97.22 82.78 -99 86 C-98.55 85.52 -98.1 85.03 -97.64 84.53 C-95.58 82.31 -93.51 80.09 -91.44 77.88 C-90.73 77.11 -90.03 76.35 -89.3 75.57 C-85.53 71.53 -81.72 67.74 -77.41 64.28 C-75.76 62.89 -75.76 62.89 -74.19 60.19 C-71.43 56.17 -68.07 53.32 -64.41 50.12 C-62.51 48.45 -60.74 46.77 -59 44.94 C-57 43 -57 43 -55 43 C-54.71 42.4 -54.42 41.8 -54.12 41.19 C-53 39 -53 39 -51 36 C-50.34 36 -49.68 36 -49 36 C-48.77 35.45 -48.54 34.89 -48.3 34.32 C-46.64 31.35 -44.54 29.28 -42.13 26.87 C-41.66 26.39 -41.18 25.91 -40.69 25.42 C-39.69 24.41 -38.68 23.41 -37.67 22.41 C-36.13 20.88 -34.6 19.34 -33.07 17.8 C-32.09 16.82 -31.11 15.84 -30.13 14.87 C-29.24 13.98 -28.36 13.1 -27.44 12.18 C-25.29 10.26 -23.55 9.25 -21 8 C-20.34 7.01 -19.68 6.02 -19 5 C-18.5 5.5 -18.5 5.5 -18 6 C-11.64 6.51 -6.82 5.19 -1.75 1.25 C-1.17 0.84 -0.59 0.42 0 0 Z "
          fill="#FC9E0C" transform="translate(184,92)"/>
    <path d="M0 0 C0 0.99 0 1.98 0 3 C-1 4 -2 5 -3 6 C-3.67 7.66 -4.34 9.33 -5 11 C-5.99 11.49 -5.99 11.49 -7 12 C-7.33 12.99 -7.66 13.98 -8 15 C-7.43 14.99 -6.86 14.97 -6.27 14.96 C-0.27 14.8 5.74 14.66 11.74 14.52 C13.97 14.46 16.2 14.41 18.44 14.35 C42.22 13.74 42.22 13.74 54 15 C54 15.99 54 16.98 54 18 C32.22 18 10.44 18 -12 18 C-12 12 -12 12 -9.81 9.44 C-8.88 8.63 -7.96 7.83 -7 7 C-6.11 6.11 -5.23 5.23 -4.31 4.31 C-2.88 2.88 -1.44 1.44 0 0 Z "
          fill="#F4B203" transform="translate(63,102)"/>
    <path d="M0 0 C0 3 0 3 -2.16 5.34 C-3.09 6.22 -4.03 7.1 -5 8 C-5.9 8.9 -6.79 9.79 -7.72 10.72 C-12.15 15.15 -16.57 19.57 -21 24 C-22.21 25.21 -22.21 25.21 -23.45 26.45 C-25.25 28.25 -27.05 30.04 -28.87 31.83 C-34.01 36.92 -39.06 42 -43.7 47.57 C-45 49 -45 49 -47 50 C-45.72 46.45 -44.26 43.79 -41.88 40.88 C-38.33 36.47 -35.05 31.91 -31.8 27.29 C-30 25 -30 25 -27 23 C-26.28 20.94 -26.28 20.94 -26 19 C-25.34 19 -24.68 19 -24 19 C-23.67 18.01 -23.34 17.02 -23 16 C-20.94 14.81 -20.94 14.81 -19 14 C-19 14.66 -19 15.32 -19 16 C-14.85 14.64 -12.5 12.83 -9.5 9.69 C-8.34 8.49 -8.34 8.49 -7.16 7.27 C-6.45 6.52 -5.73 5.77 -5 5 C-3.98 3.98 -2.96 2.95 -1.94 1.94 C-0.98 0.98 -0.98 0.98 0 0 Z "
          fill="#FFEC54" transform="translate(131,129)"/>
    <path d="M0 0 C0.99 0.33 1.98 0.66 3 1 C1.66 4.06 0.29 5.85 -2.31 7.94 C-4.61 9.82 -6.76 11.72 -8.81 13.88 C-11 16 -11 16 -13 16 C-13.33 16.99 -13.66 17.98 -14 19 C-15.78 20.72 -15.78 20.72 -17.94 22.5 C-20.51 24.63 -22.12 26.18 -24 29 C-25.33 29.67 -26.67 30.33 -28 31 C-29.6 32.64 -29.6 32.64 -31 34.5 C-33.11 37.2 -34.84 38.64 -38 40 C-37.35 36.52 -36.02 33.91 -34 31 C-33.34 31 -32.68 31 -32 31 C-31.81 30.38 -31.63 29.76 -31.44 29.12 C-29.29 25.94 -26.62 25.81 -23 25 C-23 23.68 -23 22.36 -23 21 C-22.01 20.67 -21.02 20.34 -20 20 C-19.67 19.01 -19.34 18.02 -19 17 C-16.72 14.97 -14.67 13.3 -11.88 12.06 C-9.8 11.1 -9.8 11.1 -8.69 8.75 C-6.48 5.15 -3.64 2.2 0 0 Z "
          fill="#E7A121" transform="translate(161,112)"/>
    <path d="M0 0 C0.33 0.99 0.66 1.98 1 3 C19.15 3 37.3 3 56 3 C52.31 7.3 48.8 11.32 44.82 15.28 C43.89 16.2 42.96 17.13 42.01 18.08 C41.05 19.03 40.09 19.99 39.12 20.94 C38.14 21.92 37.16 22.9 36.17 23.88 C33.78 26.25 31.39 28.63 29 31 C29 28 29 28 30.82 25.87 C31.65 25.07 32.48 24.26 33.34 23.44 C34.24 22.56 35.14 21.68 36.06 20.77 C37.01 19.86 37.96 18.94 38.94 18 C40.81 16.19 42.67 14.38 44.53 12.56 C45.36 11.76 46.19 10.96 47.05 10.13 C49.2 8.07 49.2 8.07 50 5 C33.83 5 17.66 5 1 5 C0.67 3.35 0.34 1.7 0 0 Z "
          fill="#FFFB81" transform="translate(107,95)"/>
    <path d="M0 0 C0.99 0 1.98 0 3 0 C2.01 2.97 1.02 5.94 0 9 C-0.66 9 -1.32 9 -2 9 C-2.99 11.97 -3.98 14.94 -5 18 C-5.66 18 -6.32 18 -7 18 C-7.99 21.3 -8.98 24.6 -10 28 C-10.66 28 -11.32 28 -12 28 C-12.18 28.63 -12.36 29.25 -12.55 29.9 C-12.8 30.72 -13.05 31.53 -13.31 32.38 C-13.56 33.19 -13.8 34 -14.05 34.84 C-15 37 -15 37 -18 39 C-17.48 36.24 -16.89 33.67 -16 31 C-15.34 31 -14.68 31 -14 31 C-14.04 30.09 -14.08 29.18 -14.12 28.25 C-14 25.12 -13.61 23.61 -12 21 C-11.34 21 -10.68 21 -10 21 C-10.09 20.35 -10.19 19.7 -10.28 19.02 C-10.52 16.17 -10.57 13.81 -10 11 C-8.13 9.01 -6.23 7.75 -3.91 6.32 C-1.43 4.61 -0.68 2.9 0 0 Z "
          fill="#FFA610" transform="translate(142,43)"/>
    <path d="M0 0 C0.66 0.33 1.32 0.66 2 1 C1.21 1.85 0.43 2.69 -0.38 3.56 C-8.01 11.79 -8.01 11.79 -15.4 20.22 C-16.68 21.64 -18.01 23.01 -19.36 24.36 C-22.1 27.1 -24.71 29.93 -27.31 32.81 C-28.2 33.79 -29.08 34.76 -29.99 35.77 C-30.65 36.51 -31.32 37.24 -32 38 C-32 33.92 -30.45 32.99 -27.69 30.06 C-24.35 26.51 -24.35 26.51 -21.33 22.68 C-20.89 22.13 -20.45 21.57 -20 21 C-19.34 21 -18.68 21 -18 21 C-18.1 20.11 -18.21 19.23 -18.31 18.31 C-17.89 13.88 -16.29 12.93 -13 10 C-12.01 8.78 -11.03 7.55 -10.06 6.31 C-7.39 3.12 -5.12 1.96 -1 1 C-0.67 0.67 -0.34 0.34 0 0 Z "
          fill="#FFD628" transform="translate(123,53)"/>
    <path d="M0 0 C0.66 0 1.32 0 2 0 C2 0.99 2 1.98 2 3 C31.2 3.5 31.2 3.5 61 4 C60.67 4.66 60.34 5.32 60 6 C39.87 6 19.74 6 -1 6 C-0.67 4.02 -0.34 2.04 0 0 Z "
          fill="#E3961C" transform="translate(122,82)"/>
    <path d="M0 0 C0 3 0 3 -1.43 4.61 C-2.68 5.74 -3.93 6.86 -5.18 7.99 C-7.55 10.42 -7.55 10.42 -10 16 C9.14 16 28.28 16 48 16 C48 17.98 48 19.96 48 22 C44.53 23.98 44.53 23.98 41 26 C42.51 22.86 44.19 20.02 46 17 C26.2 17 6.4 17 -14 17 C-11.62 13.03 -9.51 10.16 -6.44 6.81 C-5.65 5.95 -4.87 5.09 -4.06 4.21 C-2.73 2.78 -1.38 1.38 0 0 Z "
          fill="#FEF543" transform="translate(89,91)"/>
    <path d="M0 0 C0.66 0 1.32 0 2 0 C1.67 1.32 1.34 2.64 1 4 C0.34 4 -0.32 4 -1 4 C-1.33 5.65 -1.66 7.3 -2 9 C-0.68 9.33 0.64 9.66 2 10 C0.73 11.45 0.73 11.45 -0.56 12.94 C-3.68 16.56 -6.55 20.33 -9.39 24.18 C-11 26 -11 26 -14 27 C-13.45 23.67 -12.76 20.9 -11 18 C-10.34 17.67 -9.68 17.34 -9 17 C-8.3 14.68 -7.64 12.34 -7 10 C-5.4 6.2 -5.4 6.2 -3 5 C-2.5 4.15 -2.01 3.31 -1.5 2.44 C-1 1.63 -0.51 0.83 0 0 Z "
          fill="#FD9606" transform="translate(93,154)"/>
    <path d="M0 0 C0.33 1.32 0.66 2.64 1 4 C0.38 4.25 -0.24 4.5 -0.88 4.75 C-3.39 6.23 -3.76 7.44 -5 10 C-5.99 10.33 -6.98 10.66 -8 11 C-8.29 11.58 -8.58 12.15 -8.88 12.75 C-10.4 15.8 -12.48 17.73 -15 20 C-15.99 20.33 -16.98 20.66 -18 21 C-18 21.66 -18 22.32 -18 23 C-19.65 23.33 -21.3 23.66 -23 24 C-20.82 19.51 -17.73 16.85 -13.99 13.7 C-11.52 11.59 -9.26 9.32 -7 7 C-4.67 4.67 -2.33 2.33 0 0 Z "
          fill="#F0BE08" transform="translate(88,77)"/>
    <path d="M0 0 C0.99 0.33 1.98 0.66 3 1 C1.66 4.06 0.29 5.85 -2.31 7.94 C-4.59 9.8 -6.58 11.6 -8.62 13.75 C-11.06 16.06 -12.77 17.15 -16 18 C-16.99 17.67 -17.98 17.34 -19 17 C-14.43 13.19 -14.43 13.19 -11.88 12.06 C-9.8 11.1 -9.8 11.1 -8.69 8.75 C-6.48 5.15 -3.64 2.2 0 0 Z "
          fill="#EAAA1C" transform="translate(161,112)"/>
    <path d="M0 0 C0.33 0.66 0.66 1.32 1 2 C0.33 3.33 -0.33 4.67 -1 6 C-1.45 8.59 -1.45 8.59 -1.62 11.25 C-1.7 12.14 -1.77 13.03 -1.85 13.95 C-1.9 14.63 -1.95 15.3 -2 16 C-2.66 16 -3.32 16 -4 16 C-4 17.65 -4 19.3 -4 21 C-4.33 21 -4.66 21 -5 21 C-5.33 22.65 -5.66 24.3 -6 26 C-6.33 25.01 -6.66 24.02 -7 23 C-7.66 23 -8.32 23 -9 23 C-9.75 20.94 -9.75 20.94 -10 18 C-8.38 14.81 -8.38 14.81 -7.25 13.04 C-5.28 9.83 -3.7 6.43 -2.05 3.04 C-1 1 -1 1 0 0 Z "
          fill="#FFC123" transform="translate(134,48)"/>
    <path d="M0 0 C0 3 0 3 -2.16 5.34 C-3.09 6.22 -4.03 7.1 -5 8 C-5.9 8.91 -6.79 9.82 -7.72 10.75 C-8.64 11.68 -9.55 12.61 -10.5 13.56 C-11.42 14.49 -12.34 15.42 -13.28 16.38 C-20.15 23 -20.15 23 -24 23 C-24.31 20.19 -24.31 20.19 -24 17 C-21.5 15.12 -21.5 15.12 -19 14 C-19 14.66 -19 15.32 -19 16 C-14.85 14.64 -12.5 12.83 -9.5 9.69 C-8.34 8.49 -8.34 8.49 -7.16 7.27 C-6.45 6.52 -5.73 5.77 -5 5 C-3.98 3.98 -2.96 2.95 -1.94 1.94 C-1.3 1.3 -0.66 0.66 0 0 Z "
          fill="#FFFBA1" transform="translate(131,129)"/>
    <path d="M0 0 C0.33 0.66 0.66 1.32 1 2 C0.6 2.56 0.2 3.11 -0.21 3.69 C-3.66 8.66 -6.12 13.24 -8 19 C-8.66 19 -9.32 19 -10 19 C-10 17.68 -10 16.36 -10 15 C-11.08 16.11 -11.08 16.11 -12.19 17.25 C-14.69 19.69 -17.24 21.87 -20 24 C-18.33 19.83 -15.3 16.89 -12.25 13.69 C-11.17 12.53 -10.08 11.38 -9 10.22 C-8.48 9.67 -7.96 9.11 -7.43 8.54 C-4.86 5.77 -2.43 2.9 0 0 Z "
          fill="#FFE231" transform="translate(145,29)"/>
    <path d="M0 0 C-1.55 3.49 -3.65 6.19 -6.06 9.12 C-8.8 12.39 -8.8 12.39 -11 16 C-10.01 16.33 -9.02 16.66 -8 17 C-10.31 17 -12.62 17 -15 17 C-14.42 13.64 -13.36 12.36 -11 10 C-11 9.01 -11 8.02 -11 7 C-9.67 6 -8.33 5 -7 4 C-7 3.01 -7 2.02 -7 1 C-4.51 0.31 -2.62 0 0 0 Z "
          fill="#FDAB00" transform="translate(70,100)"/>
    <path d="M0 0 C0.33 0.99 0.66 1.98 1 3 C19.15 3 37.3 3 56 3 C54.35 4.65 52.7 6.3 51 8 C51 6.68 51 5.36 51 4 C34.17 4 17.34 4 0 4 C0 2.68 0 1.36 0 0 Z "
          fill="#FFF648" transform="translate(107,95)"/>
    <path d="M0 0 C0 0.99 0 1.98 0 3 C-1 4 -2 5 -3 6 C-3.67 7.66 -4.34 9.33 -5 11 C-5.99 11.49 -5.99 11.49 -7 12 C-7.33 12.99 -7.66 13.98 -8 15 C-7.34 15.33 -6.68 15.66 -6 16 C-7.98 16.66 -9.96 17.32 -12 18 C-12.31 15.31 -12.31 15.31 -12 12 C-9.81 9.44 -9.81 9.44 -7 7 C-6.11 6.11 -5.23 5.23 -4.31 4.31 C-2.88 2.88 -1.44 1.44 0 0 Z "
          fill="#FDC500" transform="translate(63,102)"/>
    <path d="M0 0 C-0.25 1.88 -0.25 1.88 -1 4 C-2.32 4.68 -3.66 5.35 -5 6 C-5.68 7.33 -6.35 8.66 -7 10 C-7.99 10.33 -8.98 10.66 -10 11 C-10 10.34 -10 9.68 -10 9 C-10.66 8.67 -11.32 8.34 -12 8 C-10.71 6.85 -9.42 5.71 -8.12 4.56 C-7.05 3.61 -7.05 3.61 -5.95 2.63 C-3.84 0.86 -2.77 0 0 0 Z "
          fill="#E2A61E" transform="translate(175,102)"/>
    <path d="M0 0 C1.21 3.62 0.54 4.64 -1 8 C-1.66 8 -2.32 8 -3 8 C-3.18 8.63 -3.36 9.25 -3.55 9.9 C-3.8 10.72 -4.05 11.53 -4.31 12.38 C-4.56 13.19 -4.8 14 -5.05 14.84 C-6 17 -6 17 -9 19 C-8.48 16.24 -7.89 13.67 -7 11 C-6.34 11 -5.68 11 -5 11 C-5 9.02 -5 7.04 -5 5 C-4.34 5 -3.68 5 -3 5 C-2.67 4.01 -2.34 3.02 -2 2 C-1.34 2 -0.68 2 0 2 C0 1.34 0 0.68 0 0 Z "
          fill="#C2A647" transform="translate(133,63)"/>
    <path d="M0 0 C0.66 0 1.32 0 2 0 C1.39 3.79 0.29 6.83 -1.44 10.25 C-1.87 11.12 -2.3 11.99 -2.75 12.89 C-4 15 -4 15 -6 16 C-5.67 15.24 -5.34 14.47 -5 13.69 C-3.83 11.01 -3.83 11.01 -4 8 C-4.99 8 -5.98 8 -7 8 C-5.88 6.66 -4.76 5.33 -3.62 4 C-2.69 2.89 -2.69 2.89 -1.73 1.75 C-1.16 1.17 -0.59 0.59 0 0 Z "
          fill="#FFFB9E" transform="translate(133,44)"/>
    <path d="M0 0 C-1.13 3.4 -2.17 4.24 -4.88 6.5 C-7.35 8.59 -9.74 10.67 -12 13 C-12 11.68 -12 10.36 -12 9 C-11.34 9 -10.68 9 -10 9 C-10 7.68 -10 6.36 -10 5 C-9.01 4.67 -8.02 4.34 -7 4 C-7 3.34 -7 2.68 -7 2 C-2.25 0 -2.25 0 0 0 Z "
          fill="#D69D21" transform="translate(148,128)"/>
    <path d="M0 0 C0.66 0 1.32 0 2 0 C0.38 6.75 0.38 6.75 -3 9 C-4.2 11.55 -4.2 11.55 -5 14 C-5.99 14 -6.98 14 -8 14 C-6.12 9.25 -6.12 9.25 -5 7 C-4.34 7 -3.68 7 -3 7 C-2.69 6.03 -2.38 5.06 -2.06 4.06 C-1 1 -1 1 0 0 Z "
          fill="#D39922" transform="translate(113,124)"/>
    <path d="M0 0 C0 3 0 3 -2.17 5.36 C-3.1 6.23 -4.04 7.1 -5 8 C-5.88 8.88 -6.77 9.77 -7.68 10.68 C-10.12 13.12 -12.56 15.56 -15 18 C-15 15 -15 15 -12.99 12.7 C-12.11 11.85 -11.22 11 -10.31 10.12 C-9.44 9.28 -8.57 8.44 -7.68 7.57 C-6.79 6.72 -5.91 5.87 -5 5 C-3.33 3.34 -1.66 1.67 0 0 Z "
          fill="#FFF056" transform="translate(131,129)"/>
    <path d="M0 0 C0.66 0 1.32 0 2 0 C2 0.99 2 1.98 2 3 C1.34 3 0.68 3 0 3 C0 4.65 0 6.3 0 8 C-0.33 8 -0.66 8 -1 8 C-1.33 9.65 -1.66 11.3 -2 13 C-2.33 12.01 -2.66 11.02 -3 10 C-3.66 10 -4.32 10 -5 10 C-4.5 5.62 -3.02 3.2 0 0 Z "
          fill="#FDB51A" transform="translate(130,61)"/>
    <path d="M0 0 C0.33 0.66 0.66 1.32 1 2 C0.06 4.62 0.06 4.62 -1 7 C-1.66 7 -2.32 7 -3 7 C-3 7.66 -3 8.32 -3 9 C-3.66 9 -4.32 9 -5 9 C-5 9.66 -5 10.32 -5 11 C-5.66 11 -6.32 11 -7 11 C-7.33 11.99 -7.66 12.98 -8 14 C-8 12.68 -8 11.36 -8 10 C-7.34 10 -6.68 10 -6 10 C-6 8.02 -6 6.04 -6 4 C-4.68 4 -3.36 4 -2 4 C-1.34 2.68 -0.68 1.36 0 0 Z "
          fill="#DCAE33" transform="translate(138,54)"/>
    <path d="M0 0 C0 3.44 -0.38 4.96 -2 8 C-4.21 10.16 -6.56 12.1 -9 14 C-7.65 10.16 -5.92 7.35 -3.38 4.19 C-2.43 3 -2.43 3 -1.46 1.79 C-0.98 1.2 -0.5 0.61 0 0 Z "
          fill="#FFDC2B" transform="translate(93,165)"/>
    <path d="M0 0 C0.66 0 1.32 0 2 0 C0.61 4.43 -1.52 6.96 -5 10 C-5.66 10 -6.32 10 -7 10 C-6.53 5.75 -4.04 3.81 -1 1 C-0.67 0.67 -0.34 0.34 0 0 Z "
          fill="#FFFB87" transform="translate(105,153)"/>
    <path d="M0 0 C0.99 0.33 1.98 0.66 3 1 C1.9 2.32 0.8 3.63 -0.31 4.94 C-0.93 5.67 -1.54 6.4 -2.18 7.15 C-4 9 -4 9 -7 10 C-6.53 5.75 -4.04 3.81 -1 1 C-0.67 0.67 -0.34 0.34 0 0 Z "
          fill="#E7C30D" transform="translate(97,68)"/>
    <path d="M0 0 C0.66 0 1.32 0 2 0 C1.67 1.32 1.34 2.64 1 4 C0.34 4 -0.32 4 -1 4 C-1.29 4.74 -1.58 5.49 -1.88 6.25 C-3.89 11.16 -3.89 11.16 -5 13 C-5.99 13.33 -6.98 13.66 -8 14 C-7.69 13.24 -7.38 12.47 -7.06 11.69 C-6.32 9.81 -5.64 7.91 -5 6 C-4.34 5.67 -3.68 5.34 -3 5 C-2.5 4.15 -2.01 3.31 -1.5 2.44 C-1 1.63 -0.51 0.83 0 0 Z "
          fill="#D79835" transform="translate(93,154)"/>
    <path d="M0 0 C0.33 0.99 0.66 1.98 1 3 C0.01 3.99 -0.98 4.98 -2 6 C-2 5.34 -2 4.68 -2 4 C-2.72 4.74 -3.44 5.49 -4.19 6.25 C-6.69 8.69 -9.24 10.87 -12 13 C-10.57 9.84 -8.84 7.42 -6.56 4.81 C-5.97 4.12 -5.37 3.42 -4.75 2.71 C-3 1 -3 1 0 0 Z "
          fill="#FFF35B" transform="translate(137,40)"/>
    <path d="M0 0 C0.66 0 1.32 0 2 0 C1.19 1.94 1.19 1.94 0 4 C-0.99 4.33 -1.98 4.66 -3 5 C-4.21 7 -4.21 7 -5 9 C-5.66 9 -6.32 9 -7 9 C-6.69 6.62 -6.69 6.62 -6 4 C-5.01 3.34 -4.02 2.68 -3 2 C-2.34 2.33 -1.68 2.66 -1 3 C-0.67 2.01 -0.34 1.02 0 0 Z "
          fill="#EC970E" transform="translate(113,158)"/>
    <path d="M0 0 C0.66 0.33 1.32 0.66 2 1 C0.93 2.01 -0.16 3.01 -1.25 4 C-2.15 4.84 -2.15 4.84 -3.08 5.69 C-5 7 -5 7 -9 7 C-8.38 5.12 -8.38 5.12 -7 3 C-3.94 1.81 -3.94 1.81 -1 1 C-0.67 0.67 -0.34 0.34 0 0 Z M-12 9 C-11.67 9.66 -11.34 10.32 -11 11 C-11.66 10.67 -12.32 10.34 -13 10 C-12.67 9.67 -12.34 9.34 -12 9 Z "
          fill="#FFC313" transform="translate(123,53)"/>
    <path d="M0 0 C0.66 0 1.32 0 2 0 C1.67 1.32 1.34 2.64 1 4 C0.34 4 -0.32 4 -1 4 C-1.12 4.58 -1.25 5.16 -1.38 5.75 C-2.01 8.02 -2.89 9.93 -4 12 C-4.66 12 -5.32 12 -6 12 C-6 12.99 -6 13.98 -6 15 C-6.66 15 -7.32 15 -8 15 C-7.69 14.24 -7.38 13.47 -7.06 12.69 C-6.32 10.81 -5.64 8.91 -5 7 C-4.34 6.67 -3.68 6.34 -3 6 C-1.95 4.02 -0.95 2.03 0 0 Z "
          fill="#E69828" transform="translate(83,168)"/>
    <path d="M0 0 C0.66 0 1.32 0 2 0 C2 1.98 2 3.96 2 6 C-0.31 7.32 -2.62 8.64 -5 10 C-3.33 6.67 -1.67 3.33 0 0 Z "
          fill="#FEF589" transform="translate(135,107)"/>
    <path d="M0 0 C0.99 0 1.98 0 3 0 C2.58 1.48 2.14 2.96 1.69 4.44 C1.44 5.26 1.2 6.08 0.95 6.93 C0.64 7.62 0.32 8.3 0 9 C-0.99 9.33 -1.98 9.66 -3 10 C-2.01 6.7 -1.02 3.4 0 0 Z "
          fill="#DCA72E" transform="translate(142,43)"/>
    <path d="M0 0 C0 3 0 3 -2.31 5.62 C-5 8 -5 8 -8 9 C-8 8.01 -8 7.02 -8 6 C-5.46 3.68 -3.09 1.55 0 0 Z "
          fill="#D6A427" transform="translate(163,113)"/>
    <path d="M0 0 C-1.38 4.14 -3.6 5.32 -7 8 C-6.66 4.85 -6.42 3.39 -4.06 1.19 C-2 0 -2 0 0 0 Z "
          fill="#EF9009" transform="translate(88,183)"/>
    <path d="M0 0 C-1.4 2.8 -3.26 3.6 -6 5 C-6.66 4.67 -7.32 4.34 -8 4 C-7.19 2.06 -7.19 2.06 -6 0 C-3 -1 -3 -1 0 0 Z "
          fill="#D79A1A" transform="translate(123,153)"/>
    <path d="M0 0 C0.66 0 1.32 0 2 0 C2 0.66 2 1.32 2 2 C3.65 1.34 5.3 0.68 7 0 C5.02 2.31 3.04 4.62 1 7 C0.34 6.67 -0.32 6.34 -1 6 C-0.83 5.2 -0.67 4.39 -0.5 3.56 C0.03 1.27 0.03 1.27 0 0 Z "
          fill="#E8A502" transform="translate(88,76)"/>
    <path d="M0 0 C0.66 0.33 1.32 0.66 2 1 C1.31 2.94 1.31 2.94 0 5 C-2.62 5.75 -2.62 5.75 -5 6 C-5 5.34 -5 4.68 -5 4 C-3.37 2.62 -1.71 1.28 0 0 Z "
          fill="#F7B803" transform="translate(103,62)"/>
    <path d="M0 0 C0.66 0 1.32 0 2 0 C1.47 3.82 0.5 6.06 -2 9 C-2.69 6.75 -2.69 6.75 -3 4 C-1.69 1.69 -1.69 1.69 0 0 Z "
          fill="#FFFEB0" transform="translate(133,44)"/>
    <path d="M0 0 C1.98 0 3.96 0 6 0 C6 0.66 6 1.32 6 2 C3 4 3 4 -1 4 C-0.67 2.68 -0.34 1.36 0 0 Z " fill="#EB920D"
          transform="translate(61,203)"/>
    <path d="M0 0 C0.33 0.66 0.66 1.32 1 2 C0.22 3.73 0.22 3.73 -0.94 5.62 C-1.62 6.74 -2.3 7.85 -3 9 C-3.66 9 -4.32 9 -5 9 C-4.69 8.24 -4.38 7.47 -4.06 6.69 C-3.32 4.81 -2.64 2.91 -2 1 C-1.34 0.67 -0.68 0.34 0 0 Z "
          fill="#E99816" transform="translate(70,189)"/>
    <path d="M0 0 C0.33 0.66 0.66 1.32 1 2 C-0.98 4.97 -0.98 4.97 -3 8 C-3.66 7.67 -4.32 7.34 -5 7 C-3.71 4.12 -2.34 2.13 0 0 Z "
          fill="#FFD920" transform="translate(145,29)"/>
    <path d="M0 0 C0.66 0 1.32 0 2 0 C1.34 2.31 0.68 4.62 0 7 C-0.99 7 -1.98 7 -3 7 C-1.12 2.25 -1.12 2.25 0 0 Z "
          fill="#C89433" transform="translate(108,131)"/>
    <path d="M0 0 C0 0.99 0 1.98 0 3 C-4.62 5.12 -4.62 5.12 -8 4 C-3.38 0 -3.38 0 0 0 Z " fill="#F6B315"
          transform="translate(150,125)"/>
    <path d="M0 0 C0.66 0 1.32 0 2 0 C2.33 1.98 2.66 3.96 3 6 C1.68 6 0.36 6 -1 6 C-0.67 4.02 -0.34 2.04 0 0 Z "
          fill="#DBB123" transform="translate(122,82)"/>
    <path d="M0 0 C0.99 0.33 1.98 0.66 3 1 C1.68 2.32 0.36 3.64 -1 5 C-1.99 4.67 -2.98 4.34 -4 4 C-2.68 2.68 -1.36 1.36 0 0 Z "
          fill="#D6B30B" transform="translate(97,68)"/>
    <path d="M0 0 C0.81 1.69 0.81 1.69 1 4 C-1.44 6.75 -1.44 6.75 -4 9 C-3.47 5.18 -2.5 2.94 0 0 Z "
          fill="#F6BB1A" transform="translate(139,49)"/>
</svg>
