<svg width="24" height="24" viewBox="0 0 24 24" fill="none" xmlns="http://www.w3.org/2000/svg">
    <mask id="mask0_2433_1701" style="mask-type:alpha" maskUnits="userSpaceOnUse" x="0" y="0" width="24" height="24">
        <rect width="24" height="24" fill="#D9D9D9"/>
    </mask>
    <g mask="url(#mask0_2433_1701)">
        <path fill-rule="evenodd" clip-rule="evenodd"
              d="M17.2427 12.5631C17.2202 10.2844 19.1012 9.19096 19.1853 9.13682C18.128 7.59024 16.4807 7.37766 15.8938 7.35375C14.4921 7.21224 13.1591 8.17951 12.4469 8.17951C11.7367 8.17951 10.6392 7.37499 9.47697 7.39628C7.94932 7.41886 6.54091 8.2848 5.75337 9.65302C4.16624 12.4067 5.34742 16.488 6.89436 18.7209C7.65003 19.8144 8.55121 21.0427 9.73472 20.9989C10.874 20.954 11.3052 20.2608 12.6834 20.2608C14.0612 20.2608 14.4482 20.9989 15.6543 20.9753C16.8807 20.9527 17.6576 19.8605 18.4083 18.7634C19.2769 17.4945 19.633 16.2675 19.6546 16.2044C19.6273 16.1921 17.2633 15.2866 17.2394 12.5641L17.2427 12.5631H17.2427ZM14.9774 5.87425C15.6052 5.11259 16.0293 4.0553 15.9134 3C15.0089 3.03687 13.9121 3.60288 13.2627 4.36355C12.6798 5.03885 12.1705 6.11507 12.3067 7.14876C13.3169 7.22751 14.3482 6.63557 14.9764 5.87557L14.9774 5.87425Z"
              fill="black"/>
    </g>
</svg>
