<svg width="18" height="18" viewBox="0 0 18 18" fill="none" xmlns="http://www.w3.org/2000/svg">
<mask id="mask0_2147_6281" style="mask-type:alpha" maskUnits="userSpaceOnUse" x="0" y="0" width="18" height="18">
<rect width="18" height="18" fill="#D9D9D9"/>
</mask>
<g mask="url(#mask0_2147_6281)">
<path fill-rule="evenodd" clip-rule="evenodd" d="M12.9321 9.42235C12.9151 7.71333 14.3259 6.89322 14.389 6.85262C13.596 5.69268 12.3606 5.53324 11.9204 5.51532C10.8691 5.40918 9.8693 6.13463 9.33517 6.13463C8.80253 6.13463 7.97941 5.53124 7.10773 5.54721C5.96199 5.56415 4.90568 6.2136 4.31503 7.23977C3.12468 9.30501 4.01056 12.366 5.17077 14.0407C5.73752 14.8608 6.41341 15.782 7.30104 15.7491C8.15554 15.7155 8.4789 15.1956 9.51254 15.1956C10.5459 15.1956 10.8361 15.7492 11.7407 15.7315C12.6605 15.7145 13.2432 14.8954 13.8062 14.0725C14.4577 13.1209 14.7247 12.2006 14.7409 12.1533C14.7205 12.144 12.9475 11.4649 12.9295 9.42309L12.932 9.42235H12.9321ZM11.233 4.40569C11.7039 3.83444 12.022 3.04147 11.9351 2.25C11.2567 2.27765 10.4341 2.70216 9.94704 3.27267C9.50982 3.77914 9.1279 4.5863 9.23005 5.36157C9.98764 5.42063 10.7612 4.97668 11.2323 4.40668L11.233 4.40569Z" fill="black"/>
</g>
</svg>
