<svg width="400" height="400" viewBox="0 0 400 400" fill="none" xmlns="http://www.w3.org/2000/svg">
    <g clip-path="url(#clip0_2242_8138)">
        <path d="M255.005 114.27H253.183V64.3636C253.183 60.5704 252.436 56.8144 250.984 53.31C249.533 49.8055 247.405 46.6213 244.723 43.9391C242.041 41.2569 238.856 39.1293 235.352 37.6777C231.848 36.2261 228.091 35.479 224.298 35.479H118.564C114.771 35.479 111.015 36.2261 107.511 37.6777C104.006 39.1293 100.822 41.2569 98.1398 43.9391C95.4576 46.6212 93.33 49.8054 91.8784 53.3099C90.4268 56.8143 89.6797 60.5704 89.6797 64.3635V338.155C89.6797 345.816 92.7229 353.163 98.1398 358.58C103.557 363.997 110.904 367.04 118.564 367.04H224.298C231.959 367.04 239.306 363.997 244.723 358.58C250.14 353.163 253.183 345.816 253.183 338.155V149.795H255.005V114.27Z"
              fill="#E6E6E6"/>
        <path d="M225.464 42.9937H211.662C212.297 44.5498 212.539 46.2381 212.368 47.9099C212.196 49.5817 211.616 51.1856 210.679 52.5805C209.742 53.9753 208.476 55.1182 206.992 55.9085C205.509 56.6988 203.855 57.1122 202.174 57.1123H141.6C139.92 57.1122 138.265 56.6988 136.782 55.9085C135.299 55.1182 134.033 53.9753 133.095 52.5805C132.158 51.1856 131.578 49.5816 131.406 47.9099C131.235 46.2381 131.477 44.5498 132.112 42.9937H119.221C113.5 42.9936 108.014 45.2663 103.968 49.3115C99.923 53.3568 97.6504 58.8434 97.6504 64.5643V337.954C97.6504 340.787 98.2083 343.592 99.2924 346.209C100.376 348.826 101.965 351.204 103.968 353.207C105.971 355.21 108.349 356.799 110.966 357.883C113.583 358.967 116.388 359.525 119.221 359.525H225.464C228.297 359.525 231.102 358.967 233.719 357.883C236.336 356.799 238.714 355.21 240.717 353.207C242.72 351.204 244.309 348.826 245.393 346.209C246.477 343.592 247.035 340.787 247.035 337.954V64.5643C247.035 61.7316 246.477 58.9267 245.393 56.3096C244.309 53.6925 242.72 51.3146 240.717 49.3116C238.714 47.3085 236.336 45.7197 233.719 44.6356C231.102 43.5516 228.297 42.9937 225.464 42.9937Z"
              fill="white"/>
        <path d="M151.964 378.013H150.598L153.331 195.326H154.698L151.964 378.013Z" fill="#3F3D56"/>
        <path d="M189.323 378.013H187.956L185.223 195.326H186.589L189.323 378.013Z" fill="#3F3D56"/>
        <path d="M185.679 198.97H153.788V200.337H185.679V198.97Z" fill="#3F3D56"/>
        <path d="M185.679 222.661H153.788V224.027H185.679V222.661Z" fill="#3F3D56"/>
        <path d="M186.589 246.351H153.332V247.717H186.589V246.351Z" fill="#3F3D56"/>
        <path d="M187.045 270.041H153.332V271.408H187.045V270.041Z" fill="#3F3D56"/>
        <path d="M187.5 293.731H152.876V295.098H187.5V293.731Z" fill="#3F3D56"/>
        <path d="M187.501 317.421H152.421V318.788H187.501V317.421Z" fill="#3F3D56"/>
        <path d="M187.956 341.111H151.965V342.478H187.956V341.111Z" fill="#3F3D56"/>
        <path d="M188.412 364.801H151.055V366.168H188.412V364.801Z" fill="#3F3D56"/>
        <path d="M168.214 284.33C178.785 284.33 187.354 275.761 187.354 265.19C187.354 254.62 178.785 246.05 168.214 246.05C157.643 246.05 149.074 254.62 149.074 265.19C149.074 275.761 157.643 284.33 168.214 284.33Z"
              fill="#2F2E41"/>
        <path d="M179.473 278.42L173.751 279.455L175.607 289.707L181.328 288.671L179.473 278.42Z" fill="#2F2E41"/>
        <path d="M168.028 280.491L162.307 281.527L164.162 291.778L169.884 290.742L168.028 280.491Z" fill="#2F2E41"/>
        <path d="M167.201 293.934C169.243 292.204 170.373 290.181 169.724 289.416C169.075 288.65 166.894 289.431 164.852 291.16C162.81 292.89 161.68 294.913 162.329 295.679C162.977 296.444 165.158 295.663 167.201 293.934Z"
              fill="#2F2E41"/>
        <path d="M178.406 291.905C180.448 290.176 181.578 288.153 180.929 287.387C180.281 286.621 178.099 287.402 176.057 289.132C174.015 290.861 172.885 292.884 173.534 293.65C174.182 294.416 176.364 293.635 178.406 291.905Z"
              fill="#2F2E41"/>
        <path d="M166.875 267.05C170.487 267.05 173.416 264.121 173.416 260.509C173.416 256.896 170.487 253.967 166.875 253.967C163.262 253.967 160.333 256.896 160.333 260.509C160.333 264.121 163.262 267.05 166.875 267.05Z"
              fill="white"/>
        <path d="M164.186 260.344C165.391 260.344 166.367 259.368 166.367 258.164C166.367 256.96 165.391 255.983 164.186 255.983C162.982 255.983 162.006 256.96 162.006 258.164C162.006 259.368 162.982 260.344 164.186 260.344Z"
              fill="#3F3D56"/>
        <path d="M183.314 244.368C183.601 237.282 177.494 231.281 169.673 230.963C161.852 230.645 155.278 236.132 154.99 243.218C154.703 250.304 160.139 251.914 167.961 252.231C175.782 252.549 183.026 251.454 183.314 244.368Z"
              fill="#1DBDC2"/>
        <path d="M159.869 263.842C160.24 262.224 156.364 259.956 151.212 258.775C146.061 257.594 141.584 257.948 141.213 259.565C140.843 261.183 144.718 263.451 149.87 264.632C155.022 265.813 159.499 265.459 159.869 263.842Z"
              fill="#2F2E41"/>
        <path d="M197.441 270.089C197.811 268.472 193.936 266.204 188.784 265.023C183.632 263.842 179.155 264.196 178.785 265.813C178.414 267.43 182.29 269.699 187.441 270.88C192.593 272.06 197.07 271.707 197.441 270.089Z"
              fill="#2F2E41"/>
        <path d="M173.471 272.733C173.574 273.297 173.565 273.875 173.445 274.435C173.324 274.995 173.094 275.526 172.768 275.997C172.443 276.469 172.027 276.871 171.546 277.182C171.064 277.492 170.526 277.705 169.962 277.808C169.399 277.91 168.82 277.901 168.26 277.78C167.7 277.659 167.17 277.429 166.698 277.102C166.227 276.776 165.825 276.36 165.515 275.879C165.205 275.397 164.993 274.859 164.89 274.295L164.889 274.287C164.46 271.917 166.292 271.078 168.662 270.649C171.032 270.22 173.042 270.363 173.471 272.733Z"
              fill="white"/>
        <path d="M234.21 151.761L111.694 162.742C111.092 162.795 110.494 162.607 110.031 162.22C109.567 161.833 109.276 161.278 109.222 160.676L106.498 130.285C106.445 129.684 106.633 129.086 107.02 128.622C107.407 128.159 107.962 127.868 108.564 127.813L231.079 116.833C231.681 116.78 232.279 116.967 232.742 117.354C233.206 117.742 233.497 118.297 233.551 118.898L236.275 149.289C236.328 149.891 236.141 150.489 235.754 150.952C235.366 151.416 234.811 151.707 234.21 151.761ZM108.645 128.721C108.284 128.753 107.951 128.928 107.719 129.206C107.486 129.484 107.374 129.843 107.406 130.204L110.129 160.595C110.162 160.956 110.337 161.289 110.615 161.521C110.893 161.754 111.252 161.866 111.613 161.834L234.128 150.854C234.489 150.821 234.822 150.647 235.055 150.368C235.287 150.09 235.4 149.731 235.368 149.371L232.644 118.98C232.611 118.619 232.437 118.286 232.158 118.053C231.88 117.821 231.522 117.708 231.161 117.74L108.645 128.721Z"
              fill="#E6E6E6"/>
        <path d="M126.012 153.421C131.295 153.421 135.579 149.138 135.579 143.854C135.579 138.57 131.295 134.287 126.012 134.287C120.728 134.287 116.444 138.57 116.444 143.854C116.444 149.138 120.728 153.421 126.012 153.421Z"
              fill="#3F3D56"/>
        <path d="M147.448 135.529C147.24 135.547 147.037 135.607 146.851 135.704C146.666 135.801 146.501 135.934 146.367 136.095C146.233 136.255 146.131 136.441 146.069 136.641C146.006 136.841 145.984 137.051 146.002 137.259C146.021 137.468 146.081 137.671 146.178 137.856C146.275 138.042 146.408 138.206 146.568 138.341C146.729 138.475 146.915 138.576 147.114 138.639C147.314 138.701 147.524 138.724 147.733 138.705L222.603 131.995C222.812 131.976 223.015 131.917 223.2 131.82C223.386 131.723 223.551 131.59 223.685 131.429C223.819 131.268 223.92 131.083 223.983 130.883C224.045 130.683 224.068 130.473 224.049 130.264C224.031 130.056 223.971 129.853 223.874 129.668C223.777 129.482 223.644 129.317 223.484 129.183C223.323 129.049 223.137 128.948 222.937 128.885C222.738 128.823 222.527 128.8 222.319 128.819L147.448 135.529Z"
              fill="#E6E6E6"/>
        <path d="M148.303 145.058C148.094 145.076 147.89 145.135 147.704 145.232C147.518 145.329 147.353 145.461 147.218 145.622C147.083 145.783 146.981 145.969 146.918 146.169C146.855 146.369 146.832 146.58 146.851 146.789C146.87 146.998 146.93 147.202 147.027 147.388C147.125 147.573 147.258 147.738 147.419 147.873C147.581 148.007 147.767 148.108 147.968 148.17C148.168 148.232 148.379 148.254 148.588 148.235L223.458 141.524C223.879 141.486 224.268 141.282 224.539 140.958C224.809 140.634 224.94 140.215 224.903 139.794C224.865 139.373 224.662 138.984 224.337 138.713C224.013 138.442 223.595 138.311 223.174 138.348L148.303 145.058Z"
              fill="#E6E6E6"/>
        <path d="M189.492 158.899C191.427 153.838 191.707 149.243 190.118 148.636C188.529 148.029 185.673 151.639 183.739 156.7C181.804 161.761 181.524 166.356 183.113 166.963C184.702 167.571 187.558 163.96 189.492 158.899Z"
              fill="#2F2E41"/>
        <path d="M187.848 175.759C189.584 165.062 182.32 154.984 171.624 153.248C160.927 151.513 150.849 158.777 149.114 169.473C147.378 180.169 154.642 190.247 165.338 191.983C176.034 193.719 186.112 186.455 187.848 175.759Z"
              fill="#2F2E41"/>
        <path d="M165.501 188.014H159.54V198.693H165.501V188.014Z" fill="#2F2E41"/>
        <path d="M177.422 188.014H171.461V198.693H177.422V188.014Z" fill="#2F2E41"/>
        <path d="M164.507 200.681C167.251 200.681 169.475 199.847 169.475 198.818C169.475 197.789 167.251 196.955 164.507 196.955C161.764 196.955 159.54 197.789 159.54 198.818C159.54 199.847 161.764 200.681 164.507 200.681Z"
              fill="#2F2E41"/>
        <path d="M176.428 200.432C179.172 200.432 181.395 199.598 181.395 198.569C181.395 197.541 179.172 196.707 176.428 196.707C173.685 196.707 171.461 197.541 171.461 198.569C171.461 199.598 173.685 200.432 176.428 200.432Z"
              fill="#2F2E41"/>
        <path d="M149.448 154.369C147.864 147.274 152.928 140.105 160.76 138.356C168.591 136.607 176.224 140.941 177.808 148.037C179.393 155.132 174.202 157.748 166.371 159.497C158.54 161.246 151.033 161.464 149.448 154.369Z"
              fill="#1DBDC2"/>
        <path d="M155.245 167.716C155.974 166.179 152.596 163.051 147.701 160.729C142.805 158.407 138.246 157.771 137.517 159.308C136.788 160.845 140.166 163.973 145.061 166.294C149.957 168.616 154.516 169.253 155.245 167.716Z"
              fill="#2F2E41"/>
        <path d="M50.2671 371.556C61.1032 371.556 69.8877 362.771 69.8877 351.935C69.8877 341.099 61.1032 332.315 50.2671 332.315C39.4309 332.315 30.6465 341.099 30.6465 351.935C30.6465 362.771 39.4309 371.556 50.2671 371.556Z"
              fill="#2F2E41"/>
        <path d="M47.2878 367.334H41.3271V378.013H47.2878V367.334Z" fill="#2F2E41"/>
        <path d="M59.2087 367.334H53.248V378.013H59.2087V367.334Z" fill="#2F2E41"/>
        <path d="M46.2944 380C49.0377 380 51.2616 379.166 51.2616 378.137C51.2616 377.109 49.0377 376.275 46.2944 376.275C43.5511 376.275 41.3271 377.109 41.3271 378.137C41.3271 379.166 43.5511 380 46.2944 380Z"
              fill="#2F2E41"/>
        <path d="M58.2153 379.752C60.9586 379.752 63.1825 378.918 63.1825 377.889C63.1825 376.86 60.9586 376.026 58.2153 376.026C55.472 376.026 53.248 376.86 53.248 377.889C53.248 378.918 55.472 379.752 58.2153 379.752Z"
              fill="#2F2E41"/>
        <path d="M50.7644 353.674C54.4679 353.674 57.4701 350.671 57.4701 346.968C57.4701 343.264 54.4679 340.262 50.7644 340.262C47.0609 340.262 44.0586 343.264 44.0586 346.968C44.0586 350.671 47.0609 353.674 50.7644 353.674Z"
              fill="white"/>
        <path d="M50.7646 349.203C51.9991 349.203 52.9998 348.202 52.9998 346.968C52.9998 345.733 51.9991 344.733 50.7646 344.733C49.5301 344.733 48.5293 345.733 48.5293 346.968C48.5293 348.202 49.5301 349.203 50.7646 349.203Z"
              fill="#3F3D56"/>
        <path d="M31.2354 333.688C29.6511 326.593 34.7154 319.424 42.5468 317.675C50.3782 315.927 58.0111 320.261 59.5954 327.356C61.1796 334.451 55.9895 337.068 48.1581 338.816C40.3267 340.565 32.8197 340.784 31.2354 333.688Z"
              fill="#E6E6E6"/>
        <path d="M64.5745 281.84C66.5089 276.779 66.7891 272.184 65.2003 271.577C63.6115 270.97 60.7553 274.58 58.8209 279.641C56.8865 284.702 56.6063 289.297 58.1951 289.904C59.7839 290.512 62.6401 286.901 64.5745 281.84Z"
              fill="#2F2E41"/>
        <path d="M62.9301 298.7C64.6659 288.004 57.402 277.926 46.7057 276.19C36.0095 274.454 25.9314 281.718 24.1956 292.414C22.4598 303.11 29.7237 313.189 40.42 314.924C51.1162 316.66 61.1944 309.396 62.9301 298.7Z"
              fill="#2F2E41"/>
        <path d="M40.5818 310.956H34.6211V321.635H40.5818V310.956Z" fill="#2F2E41"/>
        <path d="M52.5037 310.956H46.543V321.635H52.5037V310.956Z" fill="#2F2E41"/>
        <path d="M39.5883 323.622C42.3317 323.622 44.5556 322.788 44.5556 321.759C44.5556 320.73 42.3317 319.896 39.5883 319.896C36.845 319.896 34.6211 320.73 34.6211 321.759C34.6211 322.788 36.845 323.622 39.5883 323.622Z"
              fill="#2F2E41"/>
        <path d="M51.5102 323.374C54.2536 323.374 56.4775 322.54 56.4775 321.511C56.4775 320.482 54.2536 319.648 51.5102 319.648C48.7669 319.648 46.543 320.482 46.543 321.511C46.543 322.54 48.7669 323.374 51.5102 323.374Z"
              fill="#2F2E41"/>
        <path d="M44.0593 297.296C47.7628 297.296 50.7651 294.293 50.7651 290.59C50.7651 286.886 47.7628 283.884 44.0593 283.884C40.3558 283.884 37.3535 286.886 37.3535 290.59C37.3535 294.293 40.3558 297.296 44.0593 297.296Z"
              fill="white"/>
        <path d="M44.0595 292.825C45.294 292.825 46.2947 291.824 46.2947 290.59C46.2947 289.355 45.294 288.354 44.0595 288.354C42.825 288.354 41.8242 289.355 41.8242 290.59C41.8242 291.824 42.825 292.825 44.0595 292.825Z"
              fill="#3F3D56"/>
        <path d="M24.5293 277.31C22.9451 270.215 28.0093 263.046 35.8407 261.297C43.6721 259.549 51.305 263.883 52.8893 270.978C54.4736 278.073 49.2834 280.69 41.452 282.438C33.6206 284.187 26.1136 284.405 24.5293 277.31Z"
              fill="#1DBDC2"/>
        <path d="M30.3268 290.657C31.0557 289.12 27.6781 285.992 22.7827 283.67C17.8873 281.349 13.3279 280.712 12.5991 282.249C11.8702 283.786 15.2478 286.914 20.1432 289.236C25.0385 291.557 29.5979 292.194 30.3268 290.657Z"
              fill="#2F2E41"/>
        <path d="M33.9248 302.635C33.9248 304.556 38.8693 308.348 44.356 308.348C49.8427 308.348 54.987 302.941 54.987 301.021C54.987 299.101 49.8427 301.393 44.356 301.393C38.8694 301.393 33.9248 300.715 33.9248 302.635Z"
              fill="white"/>
        <path d="M127.922 296.018C129.857 290.957 130.137 286.362 128.548 285.754C126.959 285.147 124.103 288.757 122.169 293.818C120.234 298.879 119.954 303.474 121.543 304.082C123.132 304.689 125.988 301.079 127.922 296.018Z"
              fill="#2F2E41"/>
        <path d="M130.377 316.977C132.113 306.281 124.849 296.203 114.153 294.467C103.457 292.731 93.3786 299.995 91.6429 310.692C89.9071 321.388 97.171 331.466 107.867 333.202C118.563 334.937 128.642 327.674 130.377 316.977Z"
              fill="#2F2E41"/>
        <path d="M102.069 329.233H108.03L106.863 342.022L102.069 339.913V329.233Z" fill="#2F2E41"/>
        <path d="M107.107 345.78C108.014 345.293 107.696 342.939 106.399 340.522C105.101 338.105 103.314 336.541 102.408 337.027C101.501 337.514 101.819 339.868 103.116 342.285C104.414 344.702 106.201 346.266 107.107 345.78Z"
              fill="#2F2E41"/>
        <path d="M115.063 329.266H121.024L119.858 342.056L115.063 339.946V329.266Z" fill="#2F2E41"/>
        <path d="M120.102 345.813C121.009 345.326 120.691 342.972 119.394 340.555C118.096 338.138 116.309 336.574 115.403 337.06C114.496 337.547 114.814 339.901 116.111 342.318C117.409 344.735 119.196 346.3 120.102 345.813Z"
              fill="#2F2E41"/>
        <path d="M111.507 315.573C115.21 315.573 118.212 312.571 118.212 308.867C118.212 305.164 115.21 302.162 111.507 302.162C107.803 302.162 104.801 305.164 104.801 308.867C104.801 312.571 107.803 315.573 111.507 315.573Z"
              fill="white"/>
        <path d="M111.507 311.103C112.741 311.103 113.742 310.102 113.742 308.867C113.742 307.633 112.741 306.632 111.507 306.632C110.272 306.632 109.271 307.633 109.271 308.867C109.271 310.102 110.272 311.103 111.507 311.103Z"
              fill="#3F3D56"/>
        <path d="M91.9776 295.588C90.3933 288.493 95.4576 281.323 103.289 279.575C111.12 277.826 118.753 282.16 120.338 289.255C121.922 296.35 116.732 298.967 108.9 300.716C101.069 302.465 93.5618 302.683 91.9776 295.588Z"
              fill="#F2F2F2"/>
        <path d="M96.106 308.066C97.4742 307.055 95.9738 302.703 92.7548 298.345C89.5357 293.987 85.8171 291.273 84.449 292.284C83.0808 293.294 84.5812 297.646 87.8002 302.004C91.0192 306.363 94.7378 309.076 96.106 308.066Z"
              fill="#2F2E41"/>
        <path d="M120.583 323.951C120.583 322.369 116.507 319.243 111.985 319.243C107.463 319.243 103.224 323.699 103.224 325.282C103.224 326.865 107.464 324.975 111.985 324.975C116.507 324.975 120.583 325.534 120.583 323.951Z"
              fill="white"/>
        <path d="M100.029 297.408C94.3448 297.41 88.7158 296.292 83.4637 294.118C78.2117 291.944 73.4396 288.756 69.4202 284.737C65.4008 280.717 62.2129 275.945 60.0387 270.693C57.8645 265.441 56.7466 259.812 56.749 254.128C56.749 254.037 56.7492 253.942 56.7544 253.851C56.8869 230.15 76.3002 210.848 100.029 210.848C109.793 210.849 119.269 214.151 126.919 220.218C134.569 226.284 139.944 234.759 142.17 244.265C144.396 253.771 143.343 263.751 139.182 272.583C135.02 281.416 127.996 288.582 119.248 292.918C113.278 295.889 106.697 297.426 100.029 297.408ZM100.029 211.759C88.843 211.783 78.1186 216.221 70.1861 224.108C62.2537 231.995 57.754 242.694 57.6649 253.88C57.66 253.976 57.6602 254.054 57.6602 254.128C57.6573 264.872 61.7368 275.217 69.0728 283.067C76.4089 290.918 86.4536 295.688 97.1739 296.412C107.894 297.136 118.489 293.76 126.814 286.967C135.139 280.175 140.573 270.473 142.015 259.826C142.829 253.835 142.352 247.739 140.615 241.948C138.878 236.157 135.921 230.805 131.944 226.252C127.967 221.698 123.061 218.049 117.556 215.549C112.051 213.05 106.075 211.757 100.029 211.759Z"
              fill="#3F3D56"/>
        <path d="M119.63 256.223L90.0074 239.121C89.8689 239.041 89.7117 238.999 89.5518 238.999C89.3918 238.999 89.2347 239.041 89.0962 239.121C88.9577 239.201 88.8427 239.316 88.7627 239.454C88.6827 239.593 88.6406 239.75 88.6406 239.91V274.115C88.6406 274.275 88.6827 274.432 88.7627 274.571C88.8427 274.709 88.9577 274.824 89.0962 274.904C89.2347 274.984 89.3918 275.026 89.5518 275.026C89.7117 275.026 89.8688 274.984 90.0074 274.904L119.63 257.802C119.769 257.722 119.884 257.607 119.964 257.468C120.044 257.33 120.086 257.172 120.086 257.013C120.086 256.853 120.044 256.695 119.964 256.557C119.884 256.418 119.769 256.303 119.63 256.223L90.0074 239.121C89.8689 239.041 89.7117 238.999 89.5518 238.999C89.3918 238.999 89.2347 239.041 89.0962 239.121C88.9577 239.201 88.8427 239.316 88.7627 239.454C88.6827 239.593 88.6406 239.75 88.6406 239.91V274.115C88.6406 274.275 88.6827 274.432 88.7627 274.571C88.8427 274.709 88.9577 274.824 89.0962 274.904C89.2347 274.984 89.3918 275.026 89.5518 275.026C89.7117 275.026 89.8688 274.984 90.0074 274.904L119.63 257.802C119.769 257.722 119.884 257.607 119.964 257.468C120.044 257.33 120.086 257.172 120.086 257.013C120.086 256.853 120.044 256.695 119.964 256.557C119.884 256.418 119.769 256.303 119.63 256.223Z"
              fill="#1DBDC2"/>
        <path d="M115.974 377.102C129.309 377.102 140.12 376.694 140.12 376.191C140.12 375.688 129.309 375.28 115.974 375.28C102.639 375.28 91.8281 375.688 91.8281 376.191C91.8281 376.694 102.639 377.102 115.974 377.102Z"
              fill="#E6E6E6"/>
        <path d="M363.355 368.446C376.69 368.446 387.5 368.038 387.5 367.535C387.5 367.032 376.69 366.624 363.355 366.624C350.019 366.624 339.209 367.032 339.209 367.535C339.209 368.038 350.019 368.446 363.355 368.446Z"
              fill="#E6E6E6"/>
        <path d="M363.239 366.767L254.964 308.397C254.432 308.11 254.037 307.624 253.863 307.045C253.69 306.467 253.753 305.843 254.039 305.311L268.519 278.453C268.806 277.921 269.292 277.526 269.871 277.352C270.449 277.179 271.073 277.242 271.605 277.528L379.88 335.899C380.411 336.186 380.807 336.672 380.98 337.251C381.153 337.829 381.09 338.453 380.804 338.985L366.325 365.843C366.038 366.374 365.552 366.77 364.973 366.943C364.395 367.117 363.771 367.053 363.239 366.767ZM271.172 278.33C270.853 278.159 270.479 278.121 270.132 278.225C269.785 278.329 269.493 278.566 269.321 278.885L254.841 305.743C254.67 306.063 254.632 306.437 254.736 306.784C254.84 307.131 255.077 307.423 255.396 307.595L363.671 365.965C363.991 366.137 364.365 366.175 364.712 366.071C365.059 365.967 365.351 365.73 365.523 365.411L380.002 338.552C380.174 338.233 380.212 337.859 380.108 337.512C380.004 337.165 379.766 336.873 379.448 336.701L271.172 278.33Z"
              fill="#E6E6E6"/>
        <path d="M277.32 310.097C282.604 310.097 286.887 305.813 286.887 300.529C286.887 295.246 282.604 290.962 277.32 290.962C272.036 290.962 267.753 295.246 267.753 300.529C267.753 305.813 272.036 310.097 277.32 310.097Z"
              fill="#1DBDC2"/>
        <path d="M299.795 305.4C299.611 305.301 299.409 305.238 299.2 305.217C298.992 305.196 298.781 305.216 298.581 305.276C298.38 305.336 298.193 305.435 298.031 305.567C297.868 305.699 297.734 305.862 297.634 306.047C297.535 306.231 297.473 306.433 297.452 306.642C297.43 306.85 297.45 307.06 297.51 307.261C297.571 307.462 297.67 307.648 297.802 307.811C297.934 307.973 298.097 308.108 298.282 308.207L364.45 343.878C364.634 343.977 364.836 344.039 365.045 344.061C365.253 344.082 365.464 344.062 365.664 344.002C365.865 343.942 366.052 343.843 366.214 343.711C366.377 343.579 366.511 343.416 366.611 343.231C366.71 343.047 366.772 342.845 366.794 342.636C366.815 342.428 366.795 342.217 366.735 342.017C366.675 341.816 366.575 341.629 366.443 341.467C366.311 341.305 366.148 341.17 365.963 341.071L299.795 305.4Z"
              fill="#E6E6E6"/>
        <path d="M295.255 313.821C294.883 313.621 294.446 313.576 294.041 313.697C293.636 313.819 293.296 314.096 293.095 314.468C292.895 314.84 292.85 315.277 292.971 315.682C293.093 316.087 293.37 316.428 293.742 316.628L359.91 352.299C360.095 352.398 360.297 352.461 360.505 352.482C360.713 352.503 360.924 352.483 361.124 352.423C361.325 352.363 361.512 352.264 361.674 352.132C361.837 351.999 361.971 351.837 362.071 351.652C362.17 351.468 362.232 351.266 362.253 351.057C362.275 350.849 362.255 350.639 362.195 350.438C362.134 350.238 362.035 350.051 361.903 349.888C361.771 349.726 361.608 349.591 361.424 349.492L295.255 313.821Z"
              fill="#E6E6E6"/>
    </g>
    <defs>
        <clipPath id="clip0_2242_8138">
            <rect width="375" height="344.521" fill="white" transform="translate(12.5 35.479)"/>
        </clipPath>
    </defs>
</svg>
