<svg width="24" height="24" viewBox="0 0 24 24" fill="none" xmlns="http://www.w3.org/2000/svg">
    <mask id="mask0_2663_24396" style="mask-type:alpha" maskUnits="userSpaceOnUse" x="0" y="0" width="24" height="25">
        <rect y="0.312988" width="24" height="24" fill="#D9D9D9"/>
    </mask>
    <g mask="url(#mask0_2663_24396)">
        <path d="M10.6113 16.0571C8.29101 15.7759 6.65625 14.106 6.65625 11.9439C6.65625 11.065 6.97266 10.1157 7.5 9.48292C7.27148 8.90283 7.30663 7.67236 7.57031 7.16261C8.27344 7.07471 9.22266 7.44386 9.78516 7.95361C10.4531 7.74268 11.1563 7.63721 12.0176 7.63721C12.8789 7.63721 13.582 7.74268 14.2148 7.93604C14.7598 7.44386 15.7266 7.07471 16.4297 7.16261C16.6758 7.63721 16.7109 8.86768 16.4824 9.46533C17.0449 10.1333 17.3438 11.0298 17.3438 11.9439C17.3438 14.106 15.709 15.7407 13.3535 16.0396C13.9512 16.4263 14.3555 17.27 14.3555 18.2368V20.065C14.3555 20.5922 14.7949 20.8911 15.3223 20.6802C18.5039 19.4672 21 16.2856 21 12.3481C21 7.37354 16.957 3.31299 11.9824 3.31299C7.00781 3.31299 3 7.37353 3 12.3481C3 16.2505 5.47851 19.4849 8.81835 20.6978C9.29297 20.8735 9.75 20.5572 9.75 20.0826V18.6763C9.50391 18.7817 9.1875 18.8521 8.90625 18.8521C7.74609 18.8521 7.06054 18.2192 6.56835 17.0415C6.375 16.5669 6.16406 16.2856 5.75976 16.2329C5.54882 16.2153 5.47851 16.1275 5.47851 16.022C5.47851 15.811 5.83007 15.6528 6.18163 15.6528C6.69141 15.6528 7.13085 15.9692 7.58788 16.6196C7.93944 17.1294 8.30859 17.3579 8.74804 17.3579C9.1875 17.3579 9.46875 17.1997 9.87304 16.7954C10.1719 16.4966 10.4004 16.2329 10.6113 16.0571Z"
              fill="black"/>
    </g>
</svg>
