<svg width="18" height="18" viewBox="0 0 18 18" fill="none" xmlns="http://www.w3.org/2000/svg">
    <mask id="mask0_2147_6280" style="mask-type:alpha" maskUnits="userSpaceOnUse" x="0" y="0" width="18" height="18">
        <rect width="18" height="18" fill="#D9D9D9"/>
    </mask>
    <g mask="url(#mask0_2147_6280)">
        <path fill-rule="evenodd" clip-rule="evenodd"
              d="M15.48 9.15363C15.48 8.67499 15.437 8.21477 15.3573 7.77295H9V10.384H12.6327C12.4763 11.2277 12.0007 11.9426 11.2858 12.4212V14.1149H13.4673C14.7436 12.9398 15.48 11.2093 15.48 9.15363Z"
              fill="#4285F4"/>
        <path fill-rule="evenodd" clip-rule="evenodd"
              d="M8.99982 15.7497C10.8223 15.7497 12.3503 15.1453 13.4671 14.1144L11.2856 12.4207C10.6812 12.8257 9.908 13.0651 8.99982 13.0651C7.24175 13.0651 5.75368 11.8777 5.22289 10.2822H2.96777V12.0311C4.07846 14.2371 6.36118 15.7497 8.99982 15.7497Z"
              fill="#34A853"/>
        <path fill-rule="evenodd" clip-rule="evenodd"
              d="M5.22307 10.2826C5.08807 9.87761 5.01136 9.445 5.01136 9.00011C5.01136 8.55523 5.08807 8.12261 5.22307 7.71761V5.96875H2.96795C2.5108 6.88 2.25 7.91091 2.25 9.00011C2.25 10.0893 2.5108 11.1202 2.96795 12.0315L5.22307 10.2826Z"
              fill="#FBBC05"/>
        <path fill-rule="evenodd" clip-rule="evenodd"
              d="M8.99982 4.93466C9.99084 4.93466 10.8806 5.27523 11.5802 5.94409L13.5162 4.00807C12.3472 2.91886 10.8193 2.25 8.99982 2.25C6.36118 2.25 4.07846 3.76261 2.96777 5.96864L5.22289 7.7175C5.75368 6.12205 7.24175 4.93466 8.99982 4.93466Z"
              fill="#EA4335"/>
    </g>
</svg>
